<svg width="50" height="50" viewBox="0 0 50 50" fill="none" xmlns="http://www.w3.org/2000/svg">
<g clip-path="url(#clip0_7758_19722)">
<path fill-rule="evenodd" clip-rule="evenodd" d="M28.236 7.24309C25.4613 6.47446 22.5109 7.62442 20.9941 10.0657L17.1095 16.318C16.7067 16.9664 16.6334 17.766 16.9118 18.4764L26.9138 44L43.9394 37.364C45.6059 36.7145 46.4289 34.8406 45.7776 33.1786L36.9549 10.6644C36.6765 9.95396 36.079 9.41573 35.3421 9.2116L28.236 7.24309ZM27.1439 15.1077C28.0663 14.7481 28.5219 13.7109 28.1614 12.7909C27.8009 11.8709 26.7608 11.4166 25.8384 11.7762C24.9159 12.1357 24.4604 13.1729 24.8209 14.0929C25.1814 15.0129 26.2214 15.4672 27.1439 15.1077Z" fill="#FBB945"/>
<path fill-rule="evenodd" clip-rule="evenodd" d="M32.4229 10.9238C31.2917 8.28272 28.5484 6.70312 25.6893 7.04666L18.3671 7.92646C17.6078 8.01769 16.9359 8.46013 16.5535 9.12068L4.43458 30.0547C3.53996 31.6001 4.07087 33.5761 5.6204 34.4683L21.451 43.5835L35.1898 19.8514C35.5722 19.1908 35.6205 18.3893 35.3201 17.6878L32.4229 10.9238ZM25.5825 14.9856C26.4402 15.4794 27.537 15.1864 28.0322 14.331C28.5274 13.4756 28.2335 12.3818 27.3758 11.8879C26.5181 11.394 25.4213 11.6871 24.9261 12.5425C24.4309 13.3979 24.7248 14.4917 25.5825 14.9856Z" fill="#985184"/>
<path fill-rule="evenodd" clip-rule="evenodd" d="M27.7816 7.13454C29.8156 7.55578 31.5742 8.9405 32.4237 10.9238L35.3208 17.6878C35.6212 18.3893 35.573 19.1908 35.1906 19.8514L24.6117 38.1252L16.9118 18.4764C16.6334 17.766 16.7067 16.9664 17.1095 16.318L20.9941 10.0657C22.4283 7.7573 25.1443 6.60346 27.7816 7.13454ZM25.7535 15.0721C25.6959 15.0465 25.639 15.0177 25.5832 14.9856C24.7255 14.4917 24.4316 13.3979 24.9268 12.5425C25.3978 11.7291 26.4127 11.4241 27.2487 11.8209C27.6521 12.0083 27.9866 12.3449 28.1614 12.7909C28.5219 13.7109 28.0663 14.7481 27.1439 15.1077C26.676 15.29 26.1779 15.263 25.7535 15.0721Z" fill="#953B24"/>
</g>
<defs>
<clipPath id="clip0_7758_19722">
<rect width="50" height="50" fill="white"/>
</clipPath>
</defs>
</svg>
