<svg width="50" height="50" viewBox="0 0 50 50" fill="none" xmlns="http://www.w3.org/2000/svg">
<g clip-path="url(#clip0_7758_19822)">
<path d="M25.3849 8C25.7769 8.00013 26.1338 8.23096 26.2997 8.59171L30.8684 18.5306C30.9536 18.55 45.9996 21.9929 46 25.5069V32.9748C45.9999 33.5408 45.5479 33.9999 44.9906 34H26.6831C26.8195 33.2531 26.892 32.4833 26.8921 31.6963C26.8921 24.7616 21.3578 19.1394 14.5303 19.1393C10.0782 19.1393 6.17664 21.5301 4 25.1164V18.871L8.34697 8.61974C8.50638 8.24383 8.8706 8.00017 9.27353 8H25.3849Z" fill="#1AD3BB"/>
<path d="M14.5005 21C20.2994 21.0002 25 25.7016 25 31.5005C25 37.2993 20.2994 41.9998 14.5005 42C8.70144 42 4.00005 37.2994 4 31.5005C4 25.7015 8.70141 21 14.5005 21Z" fill="#985184"/>
<circle cx="36.5" cy="34.5" r="7.5" fill="#985184"/>
<path d="M36.5 27C40.4741 27 43.7241 30.0911 43.9814 34H29.0186C29.2759 30.0911 32.5259 27 36.5 27Z" fill="#005E7A"/>
</g>
<defs>
<clipPath id="clip0_7758_19822">
<rect width="50" height="50" fill="white"/>
</clipPath>
</defs>
</svg>
