<svg width="50" height="50" viewBox="0 0 50 50" fill="none" xmlns="http://www.w3.org/2000/svg">
<g clip-path="url(#clip0_7758_19803)">
<path d="M4 8C4 5.79086 5.79086 4 8 4C10.2091 4 12 5.79086 12 8V42C12 44.2091 10.2091 46 8 46C5.79086 46 4 44.2091 4 42V8Z" fill="#985184"/>
<path d="M45.3532 17.0332C46.3449 17.296 46.3449 18.7035 45.3532 18.9664L8.75621 28.6668C8.12171 28.835 7.5 28.3566 7.5 27.7002L7.5 8.29937C7.5 7.64296 8.12171 7.16457 8.75621 7.33275L45.3532 17.0332Z" fill="#FC868B"/>
<path d="M7.5 8.30314C7.50025 7.64583 8.12386 7.16725 8.75879 7.33732L12 8.20646V27.7924L8.75879 28.6625C8.12389 28.8326 7.5003 28.354 7.5 27.6967V8.30314Z" fill="#962B48"/>
</g>
<defs>
<clipPath id="clip0_7758_19803">
<rect width="50" height="50" fill="white"/>
</clipPath>
</defs>
</svg>
