<svg width="50" height="50" viewBox="0 0 50 50" fill="none" xmlns="http://www.w3.org/2000/svg">
<g clip-path="url(#clip0_7758_19814)">
<path fill-rule="evenodd" clip-rule="evenodd" d="M29.5938 0C36.4454 0 42 5.5546 42 12.4062V33C42 42.3888 34.3888 50 25 50C15.6112 50 8 42.3888 8 33V12.4062C8 5.5546 13.5546 0 20.4062 0H29.5938ZM19 17C17.8954 17 17 17.8954 17 19V23C17 24.1046 17.8954 25 19 25H31C32.1046 25 33 24.1046 33 23V19C33 17.8954 32.1046 17 31 17H19Z" fill="#F78613"/>
<path fill-rule="evenodd" clip-rule="evenodd" d="M29.5938 0C30.1256 0 30.6499 0.0327228 31.1641 0.0976562C34.4759 0.652095 37 3.53067 37 7V43C37 43.8707 36.8393 44.7036 36.5488 45.4727C33.5166 48.2817 29.4594 50 25 50C20.5403 50 16.4825 48.282 13.4502 45.4727C13.1598 44.7037 13 43.8706 13 43V7C13 3.531 15.5236 0.652487 18.835 0.0976562C19.3495 0.0326432 19.8741 0 20.4062 0H29.5938ZM19 17C17.8954 17 17 17.8954 17 19V23C17 24.1046 17.8954 25 19 25H31C32.1046 25 33 24.1046 33 23V19C33 17.8954 32.1046 17 31 17H19Z" fill="#FBB945"/>
</g>
<defs>
<clipPath id="clip0_7758_19814">
<rect width="50" height="50" fill="white"/>
</clipPath>
</defs>
</svg>
