<?xml version='1.0' encoding='utf-8'?>
<svg xmlns="http://www.w3.org/2000/svg" width="50px" height="50px" viewBox="10.0 10.0 50.0 50.0" fill="none">
<path fill-rule="evenodd" clip-rule="evenodd" d="M39.5938 10C46.4454 10 52 15.5546 52 22.4062V43C52 52.3888 44.3888 60 35 60C25.6112 60 18 52.3888 18 43V22.4062C18 15.5546 23.5546 10 30.4062 10H39.5938ZM29 27C27.8954 27 27 27.8954 27 29V33C27 34.1046 27.8954 35 29 35H41C42.1046 35 43 34.1046 43 33V29C43 27.8954 42.1046 27 41 27H29Z" fill="#F78613" />
<path fill-rule="evenodd" clip-rule="evenodd" d="M39.5938 10C40.1256 10 40.6499 10.0327 41.1641 10.0977C44.4759 10.6521 47 13.5307 47 17V53C47 53.8707 46.8393 54.7036 46.5488 55.4727C43.5166 58.2817 39.4594 60 35 60C30.5403 60 26.4825 58.282 23.4502 55.4727C23.1598 54.7037 23 53.8706 23 53V17C23 13.531 25.5236 10.6525 28.835 10.0977C29.3495 10.0326 29.8741 10 30.4062 10H39.5938ZM29 27C27.8954 27 27 27.8954 27 29V33C27 34.1046 27.8954 35 29 35H41C42.1046 35 43 34.1046 43 33V29C43 27.8954 42.1046 27 41 27H29Z" fill="#FBB945" />
</svg>