<svg width="50" height="50" viewBox="0 0 50 50" fill="none" xmlns="http://www.w3.org/2000/svg">
<g clip-path="url(#clip0_8031_19581)">
<path d="M23.9999 4L30.857 8L14.5 19V35L15 40.75L6 35.5L6 14.5L23.9999 4Z" fill="#FBB945"/>
<path d="M17.0856 41.9667L10.9482 38.3866L10.9482 17.5002L29.0455 6.94336L35.3284 10.6084L21 23.5L17.0856 41.9667Z" fill="#1A9933"/>
<path d="M35.3285 10.6084L41.9997 14.5L41.9997 35.5L23.9998 46L17.0859 41.9668L17.0859 21.25L35.3285 10.6084Z" fill="#1AD3BB"/>
<circle cx="35.4399" cy="36.4722" r="9.52783" fill="#FBB945"/>
<path d="M34.6348 30.0195C35.8948 29.8613 37.1747 30.0611 38.3242 30.5957C39.4737 31.1303 40.4462 31.9772 41.127 33.0381C41.8074 34.0984 42.1686 35.3289 42.1689 36.5849H42.7471C43.6179 36.5849 44.0727 37.6207 43.4834 38.2617L41.5771 40.3339C41.181 40.7647 40.5016 40.7647 40.1055 40.3339L38.1992 38.2617C37.6099 37.6207 38.0647 36.5849 38.9355 36.5849H39.4922C39.4918 35.8317 39.2752 35.0939 38.8672 34.458C38.4587 33.8214 37.8752 33.3129 37.1855 32.9922C36.4959 32.6714 35.7277 32.5515 34.9717 32.6464C34.2158 32.7414 33.5027 33.0473 32.916 33.5283L31.209 31.4892C32.1869 30.6877 33.375 30.1778 34.6348 30.0195Z" fill="white"/>
<path d="M28.7864 36.5874H28.1878C27.317 36.5874 26.8623 35.5517 27.4515 34.9107L29.3577 32.8384C29.7538 32.4077 30.4332 32.4077 30.8294 32.8384L32.7356 34.9107C33.3251 35.5516 32.8709 36.5871 32.0003 36.5874H31.4632C31.4632 37.3409 31.6792 38.0791 32.0872 38.7153C32.4952 39.3516 33.0779 39.8601 33.7669 40.1812C34.456 40.5022 35.2241 40.622 35.9798 40.5278C36.7353 40.4336 37.4485 40.1289 38.0354 39.6489L39.7405 41.69C38.762 42.4901 37.5733 42.9988 36.3138 43.1558C35.0543 43.3127 33.7757 43.1117 32.6272 42.5767C31.4788 42.0417 30.5075 41.1947 29.8274 40.1343C29.1474 39.0738 28.7864 37.8434 28.7864 36.5874Z" fill="white"/>
</g>
<defs>
<clipPath id="clip0_8031_19581">
<rect width="50" height="50" fill="white"/>
</clipPath>
</defs>
</svg>
