<?xml version='1.0' encoding='utf-8'?>
<svg xmlns="http://www.w3.org/2000/svg" width="50px" height="50px" viewBox="10.0 10.0 50.0 50.0" fill="none">
<path fill-rule="evenodd" clip-rule="evenodd" d="M43 28C50.1797 28 56 33.8203 56 41C56 48.1797 50.1797 54 43 54C35.8203 54 30 48.1797 30 41C30 33.8203 35.8203 28 43 28ZM38.6084 42.6201C36.6787 42.7991 34.8426 43.3426 33.5283 43.8203C34.4764 47.0091 36.9909 49.5236 40.1797 50.4717C40.6574 49.1572 41.2 47.3206 41.3789 45.3906C40.0982 44.9177 39.0813 43.9009 38.6084 42.6201ZM47.3916 42.6201C47.1287 43.3321 46.6985 43.9631 46.1475 44.4639C45.9813 44.6149 45.8038 44.7537 45.6172 44.8799C45.4927 44.964 45.364 45.0422 45.2314 45.1143C45.0358 45.2206 44.8314 45.3126 44.6201 45.3906C44.799 47.3207 45.3425 49.1572 45.8203 50.4717C49.0091 49.5236 51.5236 47.0091 52.4717 43.8203C51.1574 43.3426 49.3213 42.7991 47.3916 42.6201ZM43 31.1201C38.5234 31.1201 34.7421 34.0972 33.5283 38.1797C34.8423 38.6573 36.6782 39.1988 38.6074 39.3779C39.2668 37.5922 40.9852 36.3193 43 36.3193C43.6463 36.3193 44.2623 36.4506 44.8223 36.6875C44.9621 36.7467 45.0989 36.8118 45.2314 36.8838C45.364 36.9558 45.4927 37.0341 45.6172 37.1182C45.804 37.2444 45.9812 37.384 46.1475 37.5352C46.6982 38.0358 47.1288 38.6663 47.3916 39.3779C49.3212 39.1989 51.1575 38.6574 52.4717 38.1797C51.2579 34.0972 47.4766 31.1201 43 31.1201Z" fill="#985184" />
<path d="M14 41H30C37.1797 41 43 46.8203 43 54H27C19.8203 54 14 48.1797 14 41Z" fill="#1AD3BB" />
<path d="M36 26C36 31.5228 31.5228 36 26 36C20.4772 36 16 31.5228 16 26C16 20.4772 20.4772 16 26 16C31.5228 16 36 20.4772 36 26Z" fill="#1AD3BB" />
</svg>