<svg width="50" height="50" viewBox="0 0 50 50" fill="none" xmlns="http://www.w3.org/2000/svg">
<g clip-path="url(#clip0_7758_19795)">
<path fill-rule="evenodd" clip-rule="evenodd" d="M33 18C40.1797 18 46 23.8203 46 31C46 38.1797 40.1797 44 33 44C25.8203 44 20 38.1797 20 31C20 23.8203 25.8203 18 33 18ZM28.6084 32.6201C26.6787 32.7991 24.8426 33.3426 23.5283 33.8203C24.4764 37.0091 26.9909 39.5236 30.1797 40.4717C30.6574 39.1572 31.2 37.3206 31.3789 35.3906C30.0982 34.9177 29.0813 33.9009 28.6084 32.6201ZM37.3916 32.6201C37.1287 33.3321 36.6985 33.9631 36.1475 34.4639C35.9813 34.6149 35.8038 34.7537 35.6172 34.8799C35.4927 34.964 35.364 35.0422 35.2314 35.1143C35.0358 35.2206 34.8314 35.3126 34.6201 35.3906C34.799 37.3207 35.3425 39.1572 35.8203 40.4717C39.0091 39.5236 41.5236 37.0091 42.4717 33.8203C41.1574 33.3426 39.3213 32.7991 37.3916 32.6201ZM33 21.1201C28.5234 21.1201 24.7421 24.0972 23.5283 28.1797C24.8423 28.6573 26.6782 29.1988 28.6074 29.3779C29.2668 27.5922 30.9852 26.3193 33 26.3193C33.6463 26.3193 34.2623 26.4506 34.8223 26.6875C34.9621 26.7467 35.0989 26.8118 35.2314 26.8838C35.364 26.9558 35.4927 27.0341 35.6172 27.1182C35.804 27.2444 35.9812 27.384 36.1475 27.5352C36.6982 28.0358 37.1288 28.6663 37.3916 29.3779C39.3212 29.1989 41.1575 28.6574 42.4717 28.1797C41.2579 24.0972 37.4766 21.1201 33 21.1201Z" fill="#985184"/>
<path d="M4 31H20C27.1797 31 33 36.8203 33 44H17C9.8203 44 4 38.1797 4 31Z" fill="#1AD3BB"/>
<path d="M26 16C26 21.5228 21.5228 26 16 26C10.4772 26 6 21.5228 6 16C6 10.4772 10.4772 6 16 6C21.5228 6 26 10.4772 26 16Z" fill="#1AD3BB"/>
</g>
<defs>
<clipPath id="clip0_7758_19795">
<rect width="50" height="50" fill="white"/>
</clipPath>
</defs>
</svg>
