<svg width="50" height="50" viewBox="0 0 50 50" fill="none" xmlns="http://www.w3.org/2000/svg">
<g clip-path="url(#clip0_7758_19743)">
<path d="M23.4308 34.3196C27.8345 22.7349 40.3118 20.6433 46 21.0455C42.7898 41.7176 37.2843 45.5026 26.6828 46H22.616C18.857 46 22.7407 36.1352 23.4308 34.3196Z" fill="#03AF89"/>
<path d="M26.5692 34.3196C22.1655 22.7349 9.68817 20.6433 4 21.0455C7.21017 41.7176 12.7157 45.5026 23.3172 46H27.384C31.143 46 27.2593 36.1352 26.5692 34.3196Z" fill="#03AF89"/>
<path d="M25 46C17.2698 40.4737 11.7484 22.7895 25 4C38.2517 22.7895 32.7301 40.4737 25 46Z" fill="#1AD3BB"/>
</g>
<defs>
<clipPath id="clip0_7758_19743">
<rect width="50" height="50" fill="white"/>
</clipPath>
</defs>
</svg>
