<svg width="50" height="50" viewBox="0 0 50 50" fill="none" xmlns="http://www.w3.org/2000/svg">
<g clip-path="url(#clip0_7758_19765)">
<circle cx="25" cy="20" r="12" fill="#FBB945"/>
<path d="M24.4685 19.8081L49.2094 38.4537C50.7298 39.5995 49.9106 42 47.9993 42H1.99685C0.894022 42 0 41.1157 0 40.0248V30.9161C0 30.1756 0.418689 29.4973 1.08459 29.1591L20.2236 19.4364C21.5928 18.7408 23.2442 18.8855 24.4685 19.8081Z" fill="#1AD3BB"/>
<path d="M13.3584 22.9238L20.2233 19.4364C21.5925 18.7408 23.2439 18.8855 24.4682 19.8081L34.4822 27.355C32.2868 30.1813 28.8556 32 24.9997 32C19.3808 32 14.6638 28.1381 13.3584 22.9238Z" fill="#1A9933"/>
</g>
<defs>
<clipPath id="clip0_7758_19765">
<rect width="50" height="50" fill="white"/>
</clipPath>
</defs>
</svg>
