<svg width="70" height="70" viewBox="0 0 70 70" fill="none" xmlns="http://www.w3.org/2000/svg">
<circle cx="35" cy="30" r="12" fill="#FBB945"/>
<path d="M34.4685 29.8081L59.2094 48.4537C60.7298 49.5995 59.9106 52 57.9993 52H11.9969C10.894 52 10 51.1157 10 50.0248V40.9161C10 40.1756 10.4187 39.4973 11.0846 39.1591L30.2236 29.4364C31.5928 28.7408 33.2442 28.8855 34.4685 29.8081Z" fill="#1AD3BB"/>
<path d="M23.3586 32.9238L30.2235 29.4364C31.5927 28.7408 33.2441 28.8855 34.4684 29.8081L44.4824 37.355C42.287 40.1813 38.8559 42 34.9999 42C29.381 42 24.6641 38.1381 23.3586 32.9238Z" fill="#1A9933"/>
</svg>
