<svg width="70" height="70" viewBox="0 0 70 70" fill="none" xmlns="http://www.w3.org/2000/svg">
<path d="M47.416 36.6158C48.5676 35.1028 51.1374 34.2884 53 34.9994C54.8626 35.7104 56.0179 37.9466 55.8857 39.8682C55.7536 41.7899 54.014 43.7167 53.5595 45.7594C53.1142 47.7926 53.9631 49.9511 53.5342 51.737C53.1053 53.5228 51.3894 54.9454 49.307 55.5937C47.2246 56.2611 44.7944 56.1735 43.407 54.8193C42.0195 53.4652 40.6637 51.1377 39.9997 48.9997C39.345 46.8713 39.3912 44.9232 40.1972 44.0734C41.0034 43.2427 43.1799 42.7829 44.4997 41.4997C45.8195 40.2165 46.2643 38.1289 47.416 36.6158Z" fill="#FBB945"/>
<path d="M27.6261 31.8893C28.2679 34.4622 26.7323 38.1074 28.0706 40.7081C29.4075 43.2915 33.6211 44.8649 34.979 47.0985C36.3215 49.3508 34.793 52.282 32.3441 52.3509C29.8952 52.4198 26.5245 49.609 23.9453 48.9407C21.3675 48.2898 19.5965 49.7626 18.0217 49.7572C16.4285 49.736 15.0468 48.2178 14.4403 46.4597C13.817 44.7031 13.9844 42.6879 14.1663 40.4452C14.3467 38.1853 14.5234 35.6821 15.7247 33.2833C16.9429 30.883 19.1688 28.5885 21.6738 28.1843C24.1972 27.7959 27.0011 29.315 27.6261 31.8893Z" fill="#1AD3BB"/>
<circle cx="21.5" cy="40.5" r="2.5" fill="#03AF89"/>
<circle cx="48.5" cy="49.5" r="2.5" fill="#F78613"/>
<path d="M48.3574 19.8377C49.2347 21.9669 50.9343 24.112 50.8422 26.0091C50.7604 27.9159 48.8971 29.5843 46.8611 30.1953C44.805 30.807 42.5864 30.3709 40.9577 29.5567C39.3283 28.7225 38.2888 27.5102 36.3743 27.1855C34.4702 26.8705 31.6815 27.4535 30.0224 26.6302C28.373 25.7966 27.8629 23.5464 28.355 21.6175C28.8671 19.6881 30.4015 18.0794 32.0271 17.1597C33.6424 16.2303 35.3491 15.9897 36.8511 15.6149C38.3525 15.22 39.6494 14.6908 41.362 14.3198C43.0747 13.9488 45.2129 13.7257 46.3142 14.6656C47.4156 15.6055 47.4801 17.7084 48.3574 19.8377Z" fill="#FC868B"/>
<circle cx="40.5" cy="22.0566" r="2.5" fill="#F9464C"/>
</svg>
