<svg width="50" height="50" viewBox="0 0 50 50" fill="none" xmlns="http://www.w3.org/2000/svg">
<g clip-path="url(#clip0_7758_19789)">
<path d="M37.416 26.6158C38.5676 25.1028 41.1374 24.2884 43 24.9994C44.8626 25.7104 46.0179 27.9466 45.8857 29.8682C45.7536 31.7899 44.014 33.7167 43.5595 35.7594C43.1142 37.7926 43.9631 39.9511 43.5342 41.737C43.1053 43.5228 41.3894 44.9454 39.307 45.5937C37.2246 46.2611 34.7944 46.1735 33.407 44.8193C32.0195 43.4652 30.6637 41.1377 29.9997 38.9997C29.345 36.8713 29.3912 34.9232 30.1972 34.0734C31.0034 33.2427 33.1799 32.7829 34.4997 31.4997C35.8195 30.2165 36.2643 28.1289 37.416 26.6158Z" fill="#FBB945"/>
<path d="M17.6261 21.8893C18.2679 24.4622 16.7323 28.1074 18.0706 30.7081C19.4075 33.2915 23.6211 34.8649 24.979 37.0985C26.3216 39.3508 24.793 42.282 22.3441 42.3509C19.8952 42.4198 16.5245 39.609 13.9453 38.9407C11.3675 38.2898 9.59655 39.7626 8.02167 39.7572C6.42851 39.736 5.04675 38.2178 4.44029 36.4597C3.81702 34.7031 3.98439 32.6879 4.16629 30.4452C4.34673 28.1853 4.52342 25.6821 5.72474 23.2833C6.94286 20.883 9.1688 18.5885 11.6738 18.1843C14.1972 17.7959 17.0011 19.315 17.6261 21.8893Z" fill="#1AD3BB"/>
<circle cx="11.5" cy="30.5" r="2.5" fill="#03AF89"/>
<circle cx="38.5" cy="39.5" r="2.5" fill="#F78613"/>
<path d="M38.3574 9.83766C39.2347 11.9669 40.9343 14.112 40.8422 16.0091C40.7604 17.9159 38.8971 19.5843 36.8611 20.1953C34.805 20.807 32.5864 20.3709 30.9577 19.5567C29.3283 18.7225 28.2888 17.5102 26.3743 17.1855C24.4702 16.8705 21.6815 17.4535 20.0224 16.6302C18.373 15.7966 17.8629 13.5464 18.355 11.6175C18.8671 9.68807 20.4015 8.07943 22.0271 7.1597C23.6424 6.23026 25.3491 5.98973 26.8511 5.61488C28.3525 5.22 29.6494 4.6908 31.362 4.3198C33.0747 3.94879 35.2129 3.72566 36.3142 4.66557C37.4156 5.60549 37.4801 7.70844 38.3574 9.83766Z" fill="#FC868B"/>
<circle cx="30.5" cy="12.0566" r="2.5" fill="#F9464C"/>
</g>
<defs>
<clipPath id="clip0_7758_19789">
<rect width="50" height="50" fill="white"/>
</clipPath>
</defs>
</svg>
