<svg width="50" height="50" viewBox="0 0 50 50" fill="none" xmlns="http://www.w3.org/2000/svg">
<g clip-path="url(#clip0_7758_19752)">
<path fill-rule="evenodd" clip-rule="evenodd" d="M42.1739 42C46.4961 42 50 38.5377 50 34.2667L50 13L8.91305 13C6.75193 13 5 14.7312 5 16.8667L5 42L42.1739 42Z" fill="#FBB945"/>
<path fill-rule="evenodd" clip-rule="evenodd" d="M41.087 37C43.2481 37 45 35.2688 45 33.1333L45 8L7.82609 8C3.50386 8 2.94353e-06 11.4623 2.56567e-06 15.7333L0 37L41.087 37Z" fill="#985184"/>
<path d="M45 33.3077C45 35.3469 43.2944 37 41.1905 37L5 37L5 16.6923C5 14.6531 6.70558 13 8.80953 13L45 13L45 33.3077Z" fill="#953B24"/>
</g>
<defs>
<clipPath id="clip0_7758_19752">
<rect width="50" height="50" fill="white"/>
</clipPath>
</defs>
</svg>
