<?xml version='1.0' encoding='utf-8'?>
<svg xmlns="http://www.w3.org/2000/svg" width="50px" height="50px" viewBox="10.0 10.0 50.0 50.0" fill="none">
<path fill-rule="evenodd" clip-rule="evenodd" d="M52.1739 52C56.4961 52 60 48.5377 60 44.2667L60 23L18.913 23C16.7519 23 15 24.7312 15 26.8667L15 52L52.1739 52Z" fill="#FBB945" />
<path fill-rule="evenodd" clip-rule="evenodd" d="M51.087 47C53.2481 47 55 45.2688 55 43.1333L55 18L17.8261 18C13.5039 18 10 21.4623 10 25.7333L10 47L51.087 47Z" fill="#985184" />
<path d="M55 43.3077C55 45.3469 53.2944 47 51.1905 47L15 47L15 26.6923C15 24.6531 16.7056 23 18.8095 23L55 23L55 43.3077Z" fill="#953B24" />
</svg>