<svg width="70" height="70" viewBox="0 0 70 70" fill="none" xmlns="http://www.w3.org/2000/svg">
<path d="M33 18C33 21.3137 30.3137 24 27 24C23.6863 24 21 21.3137 21 18C21 14.6863 23.6863 12 27 12C30.3137 12 33 14.6863 33 18Z" fill="#2EBCFA"/>
<path d="M26.5146 17.3217C33.7394 10.0973 45.4531 10.0981 52.6777 17.3227C59.9021 24.5474 59.9021 36.2602 52.6777 43.4848C46.4243 49.7382 36.809 50.5774 29.6514 46.0053L20.376 55.2797C19.3071 54.507 18.2848 53.6398 17.3223 52.6772C16.3594 51.7143 15.4926 50.6917 14.7197 49.6225L23.9941 40.3491C19.4221 33.1914 20.2612 23.5752 26.5146 17.3217Z" fill="#FC868B"/>
<path d="M31.3281 13.8477C32.3627 14.9257 33 16.3879 33 18C33 21.3137 30.3137 24 27 24C25.4217 24 23.9862 23.3899 22.915 22.3936C23.7953 20.5601 24.9949 18.8411 26.5146 17.3213C27.9629 15.8732 29.5915 14.7152 31.3281 13.8477Z" fill="#2D6388"/>
<path d="M47.25 47.25C41.6136 49.8093 34.9574 49.3942 29.6514 46.0049L20.376 55.2793C19.3072 54.5066 18.2848 53.6393 17.3223 52.6768C16.3595 51.714 15.4926 50.6912 14.7197 49.6221L23.9941 40.3486C20.605 35.0425 20.1896 28.3857 22.749 22.749L47.25 47.25Z" fill="#F9464C"/>
</svg>
