<?xml version="1.0" encoding="UTF-8"?>
<svg id="Layer_1" xmlns="http://www.w3.org/2000/svg" version="1.1" viewBox="0 0 50 50">
  <!-- Generator: Adobe Illustrator 30.0.0, SVG Export Plug-In . SVG Version: 2.1.1 Build 123)  -->
  <defs>
    <style>
      .st0 {
        fill: #f9464c;
      }

      .st1 {
        fill: #2ebcfa;
      }

      .st2 {
        fill: #2d6388;
      }

      .st3 {
        fill: #fc868b;
      }
    </style>
  </defs>
  <path class="st1" d="M21.6,9.4c0,3.3-2.7,6-6,6s-6-2.7-6-6,2.7-6,6-6,6,2.7,6,6Z"/>
  <path class="st3" d="M15.1,8.7c7.2-7.2,18.9-7.2,26.2,0,7.2,7.2,7.2,18.9,0,26.2-6.3,6.3-15.9,7.1-23,2.5l-9.3,9.3c-1.1-.8-2.1-1.6-3.1-2.6-1-1-1.8-2-2.6-3.1l9.3-9.3c-4.6-7.2-3.7-16.8,2.5-23Z"/>
  <path class="st2" d="M19.9,5.3c1,1.1,1.7,2.5,1.7,4.2,0,3.3-2.7,6-6,6s-3-.6-4.1-1.6c.9-1.8,2.1-3.6,3.6-5.1,1.4-1.4,3.1-2.6,4.8-3.5Z"/>
  <path class="st0" d="M35.8,38.7c-5.6,2.6-12.3,2.1-17.6-1.2l-9.3,9.3c-1.1-.8-2.1-1.6-3.1-2.6-1-1-1.8-2-2.6-3.1l9.3-9.3c-3.4-5.3-3.8-12-1.2-17.6l24.5,24.5Z"/>
</svg>
