<svg width="50" height="50" viewBox="0 0 50 50" fill="none" xmlns="http://www.w3.org/2000/svg">
<g clip-path="url(#clip0_7758_19739)">
<path d="M32 25C32 28.866 28.866 32 25 32C21.134 32 18 28.866 18 25C18 21.134 21.134 18 25 18C28.866 18 32 21.134 32 25Z" fill="#985184"/>
<path d="M25 46C13.402 46 4 36.5977 4 25C4 13.4023 13.402 4 25 4C36.598 4 46 13.4023 46 25C46 30.7988 43.6495 36.0488 39.8492 39.8496L33.4852 33.4854C35.6568 31.3135 37 28.3135 37 25C37 18.373 31.6274 13 25 13C18.3726 13 13 18.373 13 25C13 31.627 18.3726 37 25 37V46Z" fill="#2EBCFA"/>
<path d="M16.6553 33.623C18.8149 35.7138 21.7571 37 25 37H29C33.9706 37 38 41.0294 38 46H25C20.0294 46 16 41.9707 16 37C16 35.8057 16.2329 34.666 16.6553 33.623Z" fill="#985184"/>
</g>
<defs>
<clipPath id="clip0_7758_19739">
<rect width="50" height="50" fill="white"/>
</clipPath>
</defs>
</svg>
