<svg width="70" height="70" viewBox="0 0 70 70" fill="none" xmlns="http://www.w3.org/2000/svg">
<rect x="23" y="27" width="29" height="29" rx="2" fill="#FC868B"/>
<circle cx="45.5" cy="24.5" r="10.5" fill="#2EBCFA"/>
<path d="M35.2996 27H50C51.1046 27 52 27.8954 52 29V32.7468C50.2122 34.1579 47.9543 35 45.5 35C40.5625 35 36.4211 31.592 35.2996 27Z" fill="#2D6388"/>
<path d="M24.6229 36.6017C25.0024 35.9087 25.9976 35.9087 26.3771 36.6017L36.1894 54.5197C36.5543 55.1861 36.0721 56 35.3123 56H15.6877C14.9279 56 14.4457 55.1861 14.8106 54.5197L24.6229 36.6017Z" fill="#FBB945"/>
<path d="M23 56H35.3123C36.0721 56 36.5543 55.1861 36.1894 54.5197L26.3771 36.6017C25.9976 35.9087 25.0024 35.9087 24.6229 36.6017L23 39.5652V56Z" fill="#F86126"/>
</svg>
