<svg width="50" height="50" viewBox="0 0 50 50" fill="none" xmlns="http://www.w3.org/2000/svg">
<g clip-path="url(#clip0_7758_19766)">
<path d="M13 19C13 17.8954 13.8954 17 15 17H40C41.1046 17 42 17.8954 42 19V44C42 45.1046 41.1046 46 40 46H15C13.8954 46 13 45.1046 13 44V19Z" fill="#FC868B"/>
<circle cx="35.5" cy="14.5" r="10.5" fill="#2EBCFA"/>
<path d="M25.2998 17H40.0002C41.1048 17 42.0002 17.8954 42.0002 19V22.7468C40.2124 24.1579 37.9546 25 35.5002 25C30.5627 25 26.4214 21.592 25.2998 17Z" fill="#2D6388"/>
<path d="M14.6231 26.6017C15.0026 25.9088 15.9978 25.9088 16.3773 26.6017L26.1895 44.5197C26.5545 45.1862 26.0722 46.0001 25.3125 46.0001H5.68794C4.92815 46.0001 4.4459 45.1862 4.81085 44.5197L14.6231 26.6017Z" fill="#FBB945"/>
<path d="M13 46.0001H25.3123C26.0721 46.0001 26.5543 45.1862 26.1894 44.5197L16.3771 26.6017C15.9976 25.9088 15.0024 25.9088 14.6229 26.6017L13 29.5653V46.0001Z" fill="#F86126"/>
</g>
<defs>
<clipPath id="clip0_7758_19766">
<rect width="50" height="50" fill="white"/>
</clipPath>
</defs>
</svg>
