<svg width="50" height="50" viewBox="0 0 50 50" fill="none" xmlns="http://www.w3.org/2000/svg">
<g clip-path="url(#clip0_7758_19796)">
<circle cx="25" cy="21" r="13" fill="#FBB945"/>
<path d="M41.3729 26.5124C41.1962 26.196 40.8622 26 40.4998 26H11.2525C10.9176 26 10.6049 26.1677 10.4196 26.4466L0.166817 40.4466C-0.274751 41.1113 0.201787 42 0.999756 42H48.9997C49.7632 42 50.2451 41.1789 49.8728 40.5124L41.3729 26.5124Z" fill="#2EBCFA"/>
<path d="M37.0029 26C35.0437 30.6978 30.4078 34 25 34C19.5922 34 14.9563 30.6978 12.9971 26H37.0029Z" fill="#2D8844"/>
<path d="M40.9404 26.1045C41.1196 26.1926 41.2723 26.3323 41.373 26.5127L49.873 40.5127C50.2451 41.1792 49.7634 42 49 42H32.0586L40.9404 26.1045Z" fill="#088BF5"/>
</g>
<defs>
<clipPath id="clip0_7758_19796">
<rect width="50" height="50" fill="white"/>
</clipPath>
</defs>
</svg>
