<?xml version='1.0' encoding='utf-8'?>
<svg xmlns="http://www.w3.org/2000/svg" width="50px" height="50px" viewBox="10.0 10.0 50.0 50.0" fill="none">
<circle cx="35" cy="31" r="13" fill="#FBB945" />
<path d="M51.3731 36.5124C51.1964 36.196 50.8624 36 50.5001 36H21.2528C20.9179 36 20.6052 36.1677 20.4198 36.4466L10.1671 50.4466C9.72549 51.1113 10.202 52 11 52H59C59.7635 52 60.2453 51.1789 59.873 50.5124L51.3731 36.5124Z" fill="#2EBCFA" />
<path d="M47.0029 36C45.0437 40.6978 40.4078 44 35 44C29.5922 44 24.9563 40.6978 22.9971 36H47.0029Z" fill="#2D8844" />
<path d="M50.9404 36.1045C51.1196 36.1926 51.2723 36.3323 51.373 36.5127L59.873 50.5127C60.2451 51.1792 59.7634 52 59 52H42.0586L50.9404 36.1045Z" fill="#088BF5" />
</svg>