<svg width="70" height="70" viewBox="0 0 70 70" fill="none" xmlns="http://www.w3.org/2000/svg">
<path d="M10 31.0121C10 30.69 10.1551 30.3877 10.4167 30.1998L26.8073 18.429C27.1627 18.1738 27.6428 18.1793 27.9923 18.4425L43.6016 30.199C43.8525 30.3879 44 30.6837 44 30.9978V48C44 50.2091 42.2091 52 40 52H11C10.4477 52 10 51.5523 10 51V31.0121Z" fill="#985184"/>
<path d="M32 34.8063C32 34.4843 32.1551 34.1819 32.4167 33.9941L45.7359 24.429C46.0913 24.1738 46.5713 24.1793 46.9208 24.4425L59.6016 33.9933C59.8525 34.1822 60 34.478 60 34.7921V48C60 50.2091 58.2091 52 56 52H33C32.4477 52 32 51.5523 32 51V34.8063Z" fill="#1AD3BB"/>
<path d="M43.6016 30.1992C43.8524 30.3882 44 30.684 44 30.998V48C44 50.2091 42.2091 52 40 52H33C32.4477 52 32 51.5523 32 51V34.8066C32 34.4846 32.1554 34.182 32.417 33.9941L40.7207 28.0293L43.6016 30.1992Z" fill="#005E7A"/>
</svg>
