<svg width="50" height="50" viewBox="0 0 50 50" fill="none" xmlns="http://www.w3.org/2000/svg">
<g clip-path="url(#clip0_7758_19757)">
<path d="M4 17.1235C4 15.6025 4.86263 14.2131 6.22583 13.5385L23.6828 4.89936C24.8251 4.33405 26.1684 4.34695 27.2996 4.93409L43.8427 13.5203C45.1681 14.2083 46 15.5773 46 17.0706V42C46 44.2092 44.2091 46 42 46H8C5.79086 46 4 44.2092 4 42V17.1235Z" fill="#FBB945"/>
<path d="M12.104 45.9998H4V42.7901L18.5269 28.2632L12.163 21.8992C11.7724 21.5087 11.7724 20.8755 12.163 20.485L14.6275 18.0204C14.8559 17.7921 15.1804 17.6881 15.499 17.7412L23.4767 19.0708L25.598 21.1921L27.0122 19.7779C27.4027 19.3874 28.0359 19.3874 28.4264 19.7779L32.6691 24.0205C33.0596 24.411 33.0596 25.0442 32.6691 25.4347L30.5477 27.5561L34.0833 31.0916C34.4738 31.4821 34.4738 32.1153 34.0833 32.5058L29.1335 37.4555C28.743 37.8461 28.1098 37.8461 27.7193 37.4555L24.1838 33.92L12.104 45.9998Z" fill="#F78613"/>
</g>
<defs>
<clipPath id="clip0_7758_19757">
<rect width="50" height="50" fill="white"/>
</clipPath>
</defs>
</svg>
