<svg width="70" height="70" viewBox="0 0 70 70" fill="none" xmlns="http://www.w3.org/2000/svg">
<path d="M14 27.1235C14 25.6025 14.8626 24.2131 16.2258 23.5385L33.6828 14.8993C34.8251 14.334 36.1684 14.3469 37.2996 14.934L53.8427 23.5203C55.1681 24.2082 56 25.5772 56 27.0706V52C56 54.2091 54.2091 56 52 56H14V27.1235Z" fill="#FBB945"/>
<path d="M22.104 55.9998H14V52.7901L28.5269 38.2632L22.163 31.8992C21.7724 31.5087 21.7724 30.8755 22.163 30.485L24.6275 28.0204C24.8559 27.7921 25.1804 27.6881 25.499 27.7412L33.4767 29.0708L35.598 31.1921L37.0122 29.7779C37.4027 29.3874 38.0359 29.3874 38.4264 29.7779L42.6691 34.0205C43.0596 34.411 43.0596 35.0442 42.6691 35.4347L40.5477 37.5561L44.0833 41.0916C44.4738 41.4821 44.4738 42.1153 44.0833 42.5058L39.1335 47.4555C38.743 47.8461 38.1098 47.8461 37.7193 47.4555L34.1838 43.92L22.104 55.9998Z" fill="#F78613"/>
</svg>
