<svg width="50" height="50" viewBox="0 0 50 50" fill="none" xmlns="http://www.w3.org/2000/svg">
<g clip-path="url(#clip0_7758_19744)">
<path d="M42 25C42 34.3888 34.3888 42 25 42C15.6112 42 8 34.3888 8 25C8 15.6112 15.6112 8 25 8C34.3888 8 42 15.6112 42 25Z" fill="#FBB945"/>
<path d="M42.5856 15.5858L34.414 7.41421C33.1541 6.15428 34.0464 4 35.8282 4H41.9998C44.2089 4 45.9998 5.79086 45.9998 8V14.1716C45.9998 15.9534 43.8455 16.8457 42.5856 15.5858Z" fill="#FC868B"/>
<path d="M7.41422 34.414L15.5858 42.5856C16.8457 43.8455 15.9534 45.9998 14.1716 45.9998L8 45.9998C5.79086 45.9998 4 44.2089 4 41.9998L4 35.8282C4 34.0464 6.15429 33.1541 7.41422 34.414Z" fill="#FC868B"/>
<path d="M34.414 42.5856L42.5856 34.414C43.8455 33.1541 45.9998 34.0464 45.9998 35.8282L45.9998 41.9998C45.9998 44.2089 44.2089 45.9998 41.9998 45.9998H35.8282C34.0464 45.9998 33.1541 43.8455 34.414 42.5856Z" fill="#FC868B"/>
<path d="M15.5858 7.41422L7.41421 15.5858C6.15428 16.8457 4 15.9534 4 14.1716L4 8C4 5.79086 5.79086 4 8 4L14.1716 4C15.9534 4 16.8457 6.15429 15.5858 7.41422Z" fill="#FC868B"/>
</g>
<defs>
<clipPath id="clip0_7758_19744">
<rect width="50" height="50" fill="white"/>
</clipPath>
</defs>
</svg>
