<?xml version='1.0' encoding='utf-8'?>
<svg xmlns="http://www.w3.org/2000/svg" width="50px" height="50px" viewBox="10.0 10.0 50.0 50.0" fill="none">
<path d="M18.2168 25.1965C18.1007 24.02 19.0249 23 20.2071 23H41.7281C44.0406 23 45.8713 24.9551 45.7195 27.2627L43.6882 58.1313C43.619 59.1826 42.7461 60 41.6925 60H25.2768C23.2198 60 21.4982 58.4399 21.2961 56.3929L18.2168 25.1965Z" fill="#985184" />
<path d="M38.1597 56H26.8403C25.8001 56 24.9336 55.2027 24.8472 54.1661L24.1805 46.1661C24.0833 45.0001 25.0035 44 26.1736 44H38.8264C39.9965 44 40.9167 45.0001 40.8195 46.1661L40.1528 54.1661C40.0664 55.2027 39.1999 56 38.1597 56Z" fill="#712258" />
<circle cx="40.5" cy="21.5" r="11.5" fill="#FBB945" />
<path d="M29.0967 23H41.7285C44.041 23 45.8711 24.9551 45.7197 27.2627L45.415 31.9004C43.9248 32.6055 42.2578 33 40.5 33C34.6572 33 29.832 28.6426 29.0967 23Z" fill="#953B24" />
</svg>