<svg width="50" height="50" viewBox="0 0 50 50" fill="none" xmlns="http://www.w3.org/2000/svg">
<g clip-path="url(#clip0_7758_19754)">
<path d="M8.21689 15.1965C8.10076 14.02 9.025 13 10.2072 13H31.7282C34.0407 13 35.8714 14.9551 35.7196 17.2627L33.6883 48.1313C33.6191 49.1826 32.7462 50 31.6926 50H15.2769C13.2199 50 11.4983 48.4399 11.2962 46.3929L8.21689 15.1965Z" fill="#985184"/>
<path d="M28.1596 46H16.8401C15.8 46 14.9334 45.2027 14.8471 44.1661L14.1804 36.1661C14.0832 35.0001 15.0034 34 16.1735 34H28.8263C29.9964 34 30.9165 35.0001 30.8194 36.1661L30.1527 44.1661C30.0663 45.2027 29.1998 46 28.1596 46Z" fill="#712258"/>
<circle cx="30.5" cy="11.5" r="11.5" fill="#FBB945"/>
<path d="M19.0967 13H31.7285C34.041 13 35.8711 14.9551 35.7197 17.2627L35.415 21.9004C33.9248 22.6055 32.2578 23 30.5 23C24.6572 23 19.832 18.6426 19.0967 13Z" fill="#953B24"/>
</g>
<defs>
<clipPath id="clip0_7758_19754">
<rect width="50" height="50" fill="white"/>
</clipPath>
</defs>
</svg>
