<svg width="70" height="70" viewBox="0 0 70 70" fill="none" xmlns="http://www.w3.org/2000/svg">
<ellipse cx="35" cy="49" rx="21" ry="7" fill="#FC868B"/>
<path d="M49.8492 49.8492C51.7993 47.8992 53.3461 45.5842 54.4015 43.0364C55.4568 40.4885 56 37.7578 56 35C56 32.2422 55.4568 29.5115 54.4015 26.9636C53.3461 24.4158 51.7993 22.1008 49.8492 20.1508C47.8992 18.2007 45.5842 16.6539 43.0364 15.5985C40.4885 14.5432 37.7578 14 35 14C32.2422 14 29.5115 14.5432 26.9636 15.5985C24.4158 16.6539 22.1008 18.2007 20.1508 20.1508L35 35L49.8492 49.8492Z" fill="#1AD3BB"/>
<path d="M42.4551 42.4551C46.9946 43.0298 50.7798 44.1157 53.1846 45.5C52.269 47.0856 51.1499 48.5494 49.8496 49.8496L42.4551 42.4551Z" fill="#1A6F66"/>
<circle cx="53.5" cy="16.5" r="2.5" fill="#1AD3BB"/>
</svg>
