<svg width="50" height="50" viewBox="0 0 50 50" fill="none" xmlns="http://www.w3.org/2000/svg">
<g clip-path="url(#clip0_7758_19820)">
<ellipse cx="25" cy="39" rx="21" ry="7" fill="#FC868B"/>
<path d="M39.8492 39.8492C41.7993 37.8992 43.3461 35.5842 44.4015 33.0364C45.4568 30.4885 46 27.7578 46 25C46 22.2422 45.4568 19.5115 44.4015 16.9636C43.3461 14.4158 41.7993 12.1008 39.8492 10.1508C37.8992 8.20073 35.5842 6.65388 33.0364 5.59853C30.4885 4.54318 27.7578 4 25 4C22.2422 4 19.5115 4.54318 16.9636 5.59853C14.4158 6.65388 12.1008 8.20073 10.1508 10.1508L25 25L39.8492 39.8492Z" fill="#1AD3BB"/>
<path d="M32.4551 32.4551C36.9946 33.0298 40.7798 34.1157 43.1846 35.5C42.269 37.0856 41.1499 38.5494 39.8496 39.8496L32.4551 32.4551Z" fill="#1A6F66"/>
<circle cx="43.5" cy="6.5" r="2.5" fill="#1AD3BB"/>
</g>
<defs>
<clipPath id="clip0_7758_19820">
<rect width="50" height="50" fill="white"/>
</clipPath>
</defs>
</svg>
