<svg width="50" height="50" viewBox="0 0 50 50" fill="none" xmlns="http://www.w3.org/2000/svg">
<g clip-path="url(#clip0_7758_19793)">
<path d="M38 41.5244C30.5415 39.7254 25 33.0109 25 25V8H38V41.5244Z" fill="#FC868B"/>
<path d="M50 38C50 40.2091 48.2091 42 46 42H42C40.6221 42 39.2829 41.8339 38 41.5244V8H46C48.2091 8 50 9.79086 50 12V38Z" fill="#F9464C"/>
<path d="M25 8V25C25 32.6486 19.9485 39.1167 13 41.252V8H25Z" fill="#F9464C"/>
<path d="M13 8V41.252C11.4191 41.7378 9.7402 42 8 42H4C1.79086 42 0 40.2091 0 38V12C0 9.79086 1.79086 8 4 8H13Z" fill="#FC868B"/>
</g>
<defs>
<clipPath id="clip0_7758_19793">
<rect width="50" height="50" fill="white"/>
</clipPath>
</defs>
</svg>
