<svg width="70" height="70" viewBox="0 0 70 70" fill="none" xmlns="http://www.w3.org/2000/svg">
<path d="M48 51.5244C40.5415 49.7254 35 43.0109 35 35V18H48V51.5244Z" fill="#FC868B"/>
<path d="M60 48C60 50.2091 58.2091 52 56 52H52C50.6221 52 49.2829 51.8339 48 51.5244V18H56C58.2091 18 60 19.7909 60 22V48Z" fill="#F9464C"/>
<path d="M35 18V35C35 42.6486 29.9485 49.1167 23 51.252V18H35Z" fill="#F9464C"/>
<path d="M23 18V51.252C21.4191 51.7378 19.7402 52 18 52H14C11.7909 52 10 50.2091 10 48V22C10 19.7909 11.7909 18 14 18H23Z" fill="#FC868B"/>
</svg>
