<svg width="70" height="70" viewBox="0 0 70 70" fill="none" xmlns="http://www.w3.org/2000/svg">
<path d="M39.2407 11.7583C41.5838 14.1015 41.5838 17.8996 39.2407 20.2427L20.2407 39.2427L20.0171 39.4556C17.6617 41.5837 14.0263 41.5126 11.7563 39.2427C9.48638 36.9728 9.41532 33.3373 11.5434 30.982L11.7563 30.7583L30.7563 11.7583C33.0995 9.41519 36.8975 9.41519 39.2407 11.7583Z" fill="#FBB945"/>
<path d="M58.2407 39.2426C55.8975 41.5858 52.0995 41.5858 49.7563 39.2426L30.7563 20.2426L30.5434 20.019C28.4153 17.6637 28.4864 14.0282 30.7563 11.7583C33.0263 9.48833 36.6617 9.41727 39.0171 11.5454L39.2407 11.7583L58.2407 30.7583C60.5838 33.1014 60.5838 36.8995 58.2407 39.2426Z" fill="#FBB945"/>
<path d="M30.7571 11.7593C33.1003 9.41623 36.8984 9.41615 39.2415 11.7593C41.5843 14.1024 41.5844 17.9006 39.2415 20.2436L34.9993 24.4858L30.7571 20.2436L30.5442 20.02C28.4827 17.7384 28.4845 14.2552 30.5501 11.976L30.7571 11.7593Z" fill="#F78613"/>
<path d="M49.7564 30.7588L49.98 30.5459C52.3353 28.4178 55.9708 28.4889 58.2407 30.7588C60.5107 33.0287 60.5817 36.6642 58.4536 39.0195L58.2407 39.2432L44.2407 53.2432L35.7563 44.7588L49.7564 30.7588Z" fill="#FBB945"/>
<path d="M49.98 30.5465C52.3353 28.4184 55.9708 28.4894 58.2407 30.7594C58.5096 31.0282 58.7465 31.3169 58.9536 31.6197C60.5517 33.9557 60.3149 37.1695 58.2407 39.2438C55.8976 41.5866 52.0994 41.5866 49.7563 39.2438L45.5142 35.0016L49.7563 30.7594L49.98 30.5465Z" fill="#F78613"/>
<path d="M29.9985 49.001C29.9985 46.3488 31.0521 43.8053 32.9275 41.9299C34.8028 40.0545 37.3464 39.001 39.9985 39.001V49.001L29.9985 49.001Z" fill="#985184"/>
<path d="M49.9985 49.001C49.9985 51.6531 48.945 54.1967 47.0696 56.072C45.1942 57.9474 42.6507 59.001 39.9985 59.001L39.9985 49.001L49.9985 49.001Z" fill="#985184"/>
</svg>
