<svg width="50" height="50" viewBox="0 0 50 50" fill="none" xmlns="http://www.w3.org/2000/svg">
<g clip-path="url(#clip0_7758_19798)">
<path d="M29.2407 1.75833C31.5838 4.10148 31.5838 7.89956 29.2407 10.2427L10.2407 29.2427L10.0171 29.4556C7.66174 31.5837 4.02625 31.5126 1.75631 29.2427C-0.513623 26.9728 -0.584676 23.3373 1.54342 20.982L1.75631 20.7583L20.7563 1.75833C23.0995 -0.58481 26.8975 -0.58481 29.2407 1.75833Z" fill="#FBB945"/>
<path d="M48.2407 29.2426C45.8975 31.5858 42.0995 31.5858 39.7563 29.2426L20.7563 10.2426L20.5434 10.019C18.4153 7.6637 18.4864 4.02821 20.7563 1.75827C23.0263 -0.511666 26.6617 -0.582726 29.0171 1.54538L29.2407 1.75827L48.2407 20.7583C50.5838 23.1014 50.5838 26.8995 48.2407 29.2426Z" fill="#FBB945"/>
<path d="M20.7571 1.75925C23.1003 -0.583772 26.8984 -0.583854 29.2415 1.75925C31.5843 4.10238 31.5844 7.90057 29.2415 10.2436L24.9993 14.4858L20.7571 10.2436L20.5442 10.02C18.4827 7.73838 18.4845 4.25523 20.5501 1.97605L20.7571 1.75925Z" fill="#F78613"/>
<path d="M39.7564 20.7588L39.98 20.5459C42.3353 18.4178 45.9708 18.4889 48.2407 20.7588C50.5107 23.0287 50.5817 26.6642 48.4536 29.0195L48.2407 29.2432L34.2407 43.2432L25.7563 34.7588L39.7564 20.7588Z" fill="#FBB945"/>
<path d="M39.98 20.5465C42.3353 18.4184 45.9708 18.4894 48.2407 20.7594C48.5096 21.0282 48.7465 21.3169 48.9536 21.6197C50.5517 23.9557 50.3149 27.1695 48.2407 29.2438C45.8976 31.5866 42.0994 31.5866 39.7563 29.2438L35.5142 25.0016L39.7563 20.7594L39.98 20.5465Z" fill="#F78613"/>
<path d="M19.9985 39.001C19.9985 36.3488 21.0521 33.8053 22.9275 31.9299C24.8028 30.0545 27.3464 29.001 29.9985 29.001V39.001L19.9985 39.001Z" fill="#985184"/>
<path d="M39.9985 39.001C39.9985 41.6531 38.945 44.1967 37.0696 46.072C35.1942 47.9474 32.6507 49.001 29.9985 49.001L29.9985 39.001L39.9985 39.001Z" fill="#985184"/>
</g>
<defs>
<clipPath id="clip0_7758_19798">
<rect width="50" height="50" fill="white"/>
</clipPath>
</defs>
</svg>
