<svg width="50" height="50" viewBox="0 0 50 50" fill="none" xmlns="http://www.w3.org/2000/svg">
<g clip-path="url(#clip0_7758_19784)">
<path d="M4 17.1235C4 15.6025 4.86263 14.2131 6.22583 13.5385L23.6828 4.89936C24.8251 4.33405 26.1684 4.34695 27.2996 4.93409L43.8427 13.5203C45.1681 14.2083 46 15.5773 46 17.0706V42C46 44.2092 44.2091 46 42 46H8C5.79086 46 4 44.2092 4 42V17.1235Z" fill="#1AD3BB"/>
<path fill-rule="evenodd" clip-rule="evenodd" d="M27.6831 26.3822C30.272 23.7244 34.4694 23.7244 37.0583 26.3822C39.6472 29.0399 39.6472 33.349 37.0583 36.0067C34.4694 38.6644 30.272 38.6644 27.6831 36.0067L25 33.2523L22.3169 36.0067C19.728 38.6644 15.5306 38.6644 12.9417 36.0067C10.3528 33.349 10.3528 29.0399 12.9417 26.3822C15.5306 23.7244 19.728 23.7244 22.3169 26.3822L25 29.1366L27.6831 26.3822ZM22.9954 31.1944L20.3124 28.44C18.8306 26.9188 16.4281 26.9188 14.9462 28.44C13.4644 29.9612 13.4644 32.4276 14.9462 33.9488C16.4281 35.47 18.8306 35.47 20.3124 33.9488L22.9954 31.1944ZM27.0046 31.1944L29.6876 33.9488C31.1694 35.47 33.5719 35.47 35.0538 33.9488C36.5356 32.4276 36.5356 29.9612 35.0538 28.44C33.5719 26.9188 31.1694 26.9188 29.6876 28.44L27.0046 31.1944Z" fill="#03AF89"/>
<path fill-rule="evenodd" clip-rule="evenodd" d="M24.1601 20.4178C24.1601 19.6348 24.7869 19 25.5601 19H29.5909C30.5095 19 31.3049 19.6462 31.5042 20.5544L33.6468 30.3186C33.8145 31.083 33.3386 31.8404 32.5838 32.0103C31.829 32.1801 31.0812 31.6982 30.9134 30.9338L28.917 21.8357H25.5601C24.7869 21.8357 24.1601 21.2009 24.1601 20.4178Z" fill="#03AF89"/>
<path d="M32.3448 24.3889C31.4108 24.3925 30.4773 24.5976 29.6115 25.004L30.2594 27.9566C31.0763 27.3939 32.0592 27.1924 32.995 27.3519L32.3448 24.3889Z" fill="#03AF89"/>
<path fill-rule="evenodd" clip-rule="evenodd" d="M11.8399 21.5532C11.8399 20.7702 12.4667 20.1354 13.2399 20.1354H17.7199C18.4931 20.1354 19.1199 20.7702 19.1199 21.5532C19.1199 22.3362 18.4931 22.971 17.7199 22.971H17.273L19.0781 30.2834C19.2656 31.0431 18.8096 31.8129 18.0595 32.0028C17.3093 32.1927 16.5492 31.7308 16.3617 30.9712L14.3868 22.971H13.2399C12.4667 22.971 11.8399 22.3362 11.8399 21.5532Z" fill="#03AF89"/>
<path d="M17.6236 24.3889C16.6889 24.3897 15.7545 24.5923 14.8874 24.9964L15.604 27.8997C16.4348 27.3603 17.425 27.1842 18.3598 27.3715L17.6236 24.3889Z" fill="#03AF89"/>
</g>
<defs>
<clipPath id="clip0_7758_19784">
<rect width="50" height="50" fill="white"/>
</clipPath>
</defs>
</svg>
