<svg width="50" height="50" viewBox="0 0 50 50" fill="none" xmlns="http://www.w3.org/2000/svg"><path fill-rule="evenodd" clip-rule="evenodd" d="M29.791 21.015a11.725 11.725 0 0 1 16.742 0c4.623 4.686 4.623 12.284 0 16.97a11.725 11.725 0 0 1-16.742 0L25 33.13l-4.791 4.856a11.725 11.725 0 0 1-16.742 0c-4.623-4.686-4.623-12.284 0-16.97a11.725 11.725 0 0 1 16.742 0L25 25.872l4.791-4.857Zm-8.37 8.485-4.792-4.857a6.711 6.711 0 0 0-9.582 0c-2.646 2.683-2.646 7.031 0 9.714a6.711 6.711 0 0 0 9.582 0L21.42 29.5Zm7.159 0 4.79 4.857a6.711 6.711 0 0 0 9.583 0c2.646-2.683 2.646-7.031 0-9.714a6.711 6.711 0 0 0-9.582 0L28.58 29.5Z" fill="#088BF5"/><path fill-rule="evenodd" clip-rule="evenodd" d="M23.5 10.5A2.5 2.5 0 0 1 26 8h7.198a3.5 3.5 0 0 1 3.416 2.74l3.827 17.218a2.5 2.5 0 0 1-4.882 1.084L31.995 13H26a2.5 2.5 0 0 1-2.5-2.5Z" fill="#985184"/><path d="M38.116 17.5a11.71 11.71 0 0 0-4.88 1.085l1.156 5.206a6.705 6.705 0 0 1 4.885-1.066l-1.16-5.225Z" fill="#144496"/><path fill-rule="evenodd" clip-rule="evenodd" d="M1.5 12.5A2.5 2.5 0 0 1 4 10h8a2.5 2.5 0 0 1 0 5h-.798l3.223 12.894a2.5 2.5 0 0 1-4.85 1.212L6.048 15H4a2.5 2.5 0 0 1-2.5-2.5Z" fill="#985184"/><path d="M11.826 17.5a11.713 11.713 0 0 0-4.886 1.071l1.28 5.12a6.706 6.706 0 0 1 4.921-.932L11.826 17.5Z" fill="#144496"/></svg>