<?xml version='1.0' encoding='utf-8'?>
<svg xmlns="http://www.w3.org/2000/svg" width="50px" height="50px" viewBox="10.0 10.0 50.0 50.0" fill="none">
<path d="M14 27.1235C14 25.6025 14.8626 24.2131 16.2258 23.5385L33.6828 14.8993C34.8251 14.334 36.1684 14.3469 37.2996 14.934L53.8427 23.5203C55.1681 24.2082 56 25.5772 56 27.0706V52C56 54.2091 54.2091 56 52 56H18C15.7909 56 14 54.2091 14 52V27.1235Z" fill="#1AD3BB" />
<path fill-rule="evenodd" clip-rule="evenodd" d="M37.6831 36.3822C40.272 33.7244 44.4694 33.7244 47.0583 36.3822C49.6472 39.0399 49.6472 43.349 47.0583 46.0067C44.4694 48.6644 40.272 48.6644 37.6831 46.0067L35 43.2523L32.3169 46.0067C29.728 48.6644 25.5306 48.6644 22.9417 46.0067C20.3528 43.349 20.3528 39.0399 22.9417 36.3822C25.5306 33.7244 29.728 33.7244 32.3169 36.3822L35 39.1366L37.6831 36.3822ZM32.9954 41.1944L30.3124 38.44C28.8306 36.9188 26.4281 36.9188 24.9462 38.44C23.4644 39.9612 23.4644 42.4276 24.9462 43.9488C26.4281 45.47 28.8306 45.47 30.3124 43.9488L32.9954 41.1944ZM37.0046 41.1944L39.6876 43.9488C41.1694 45.47 43.5719 45.47 45.0538 43.9488C46.5356 42.4276 46.5356 39.9612 45.0538 38.44C43.5719 36.9188 41.1694 36.9188 39.6876 38.44L37.0046 41.1944Z" fill="#03AF89" />
<path fill-rule="evenodd" clip-rule="evenodd" d="M34.1601 30.4178C34.1601 29.6348 34.7869 29 35.5601 29H39.5909C40.5095 29 41.3049 29.6462 41.5042 30.5544L43.6468 40.3186C43.8145 41.083 43.3386 41.8404 42.5838 42.0103C41.829 42.1801 41.0812 41.6982 40.9134 40.9338L38.917 31.8357H35.5601C34.7869 31.8357 34.1601 31.2009 34.1601 30.4178Z" fill="#03AF89" />
<path d="M42.3448 34.3889C41.4108 34.3925 40.4773 34.5976 39.6115 35.004L40.2594 37.9566C41.0763 37.3939 42.0592 37.1924 42.995 37.3519L42.3448 34.3889Z" fill="#03AF89" />
<path fill-rule="evenodd" clip-rule="evenodd" d="M21.8399 31.5532C21.8399 30.7702 22.4667 30.1354 23.2399 30.1354H27.7199C28.4931 30.1354 29.1199 30.7702 29.1199 31.5532C29.1199 32.3362 28.4931 32.971 27.7199 32.971H27.273L29.0781 40.2834C29.2656 41.0431 28.8096 41.8129 28.0595 42.0028C27.3093 42.1927 26.5492 41.7308 26.3617 40.9712L24.3868 32.971H23.2399C22.4667 32.971 21.8399 32.3362 21.8399 31.5532Z" fill="#03AF89" />
<path d="M27.6236 34.3889C26.6889 34.3897 25.7545 34.5923 24.8874 34.9964L25.604 37.8997C26.4348 37.3603 27.425 37.1842 28.3598 37.3715L27.6236 34.3889Z" fill="#03AF89" />
</svg>