<svg width="50" height="50" viewBox="0 0 50 50" fill="none" xmlns="http://www.w3.org/2000/svg">
<path d="M41.0938 26.8136C42.1983 26.8136 43.0938 27.709 43.0938 28.8136V41.8136C43.0938 42.9182 42.1983 43.8136 41.0938 43.8136H28.0938C26.9892 43.8136 26.0938 42.9182 26.0938 41.8136V28.8136C26.0938 27.709 26.9892 26.8136 28.0938 26.8136H41.0938Z" fill="#FC868B"/>
<path d="M22.0938 26.8136C23.1983 26.8136 24.0938 27.709 24.0938 28.8136V41.8136C24.0938 42.9182 23.1983 43.8136 22.0938 43.8136H9.09375C7.98918 43.8136 7.09375 42.9182 7.09375 41.8136V28.8136C7.09375 27.709 7.98918 26.8136 9.09375 26.8136H22.0938Z" fill="#FBB945"/>
<path d="M24.0942 22.8134C24.0942 23.9178 23.1986 24.8131 22.0942 24.8134H6.21924C5.33231 24.8134 4.58177 24.2358 4.31982 23.4364V19.8046C4.31999 19.1194 4.67068 18.4817 5.24951 18.1151L24.0347 6.22156C24.0541 6.20923 24.0745 6.19799 24.0942 6.1864V22.8134Z" fill="#1AD3BB"/>
<path d="M44.7515 18.1145C45.3296 18.4814 45.6802 19.1193 45.6802 19.804V23.3929C45.4319 24.2148 44.67 24.8135 43.7671 24.8138H28.0933C26.9889 24.8135 26.0942 23.9182 26.0942 22.8138V6.2747L44.7515 18.1145Z" fill="#1AD3BB"/>
</svg>
