<svg width="50" height="50" viewBox="0 0 50 50" fill="none" xmlns="http://www.w3.org/2000/svg">
<g clip-path="url(#clip0_7758_19823)">
<path d="M22.9949 29.5799C22.9958 29.2663 22.8835 28.981 22.6964 28.7611C22.5948 28.5857 22.4679 28.4211 22.3153 28.273L11.3986 17.6845C10.976 17.2747 10.4319 17.0619 9.87923 17.0432L9.92797 6.83359C9.93559 5.24426 8.64562 3.9765 7.04506 4.00033C5.44263 4.02425 4.13522 5.33356 4.12497 6.92476L4.00011 26.3736C3.99058 27.8589 4.62712 29.2623 5.74644 30.2236L12.9125 36.378L12.8954 36.2945L12.9507 36.3434L12.9271 44.7361C12.9252 45.4473 13.5044 46.013 14.2206 45.9998L21.6527 45.862C22.369 45.8488 22.9513 45.2616 22.9532 44.5504L22.9938 30.0697C23.0018 29.9604 23.002 29.8508 22.9946 29.7418L22.9949 29.5799Z" fill="#FBB945"/>
<path d="M27.0051 29.5799C27.0042 29.2663 27.1165 28.981 27.3036 28.7611C27.4052 28.5857 27.5321 28.4211 27.6847 28.273L38.6014 17.6845C39.024 17.2747 39.5681 17.0619 40.1208 17.0432L40.072 6.83359C40.0644 5.24426 41.3544 3.9765 42.9549 4.00033C44.5574 4.02425 45.8648 5.33356 45.875 6.92476L45.9999 26.3736C46.0094 27.8589 45.3729 29.2623 44.2536 30.2236L37.0875 36.378L37.1046 36.2945L37.0493 36.3434L37.0729 44.7361C37.0748 45.4473 36.4956 46.013 35.7794 45.9998L28.3473 45.862C27.631 45.8488 27.0487 45.2616 27.0468 44.5504L27.0062 30.0697C26.9982 29.9604 26.998 29.8508 27.0054 29.7418L27.0051 29.5799Z" fill="#FBB945"/>
<path d="M37.6237 13.2842C40.8336 16.372 40.7855 21.4273 37.5161 24.5755L26.25 35.4244C25.4637 36.1815 24.2099 36.1932 23.4379 35.4506L12.3763 24.8099C9.16636 21.7221 9.21451 16.6668 12.4839 13.5186C15.7532 10.3704 21.0057 10.3214 24.2157 13.4092L25.0461 14.208L25.8918 13.3936C29.1612 10.2454 34.4137 10.1964 37.6237 13.2842Z" fill="#985184"/>
<path d="M39.7953 17.0791C40.4043 19.6741 39.6424 22.5276 37.5161 24.5752L27.019 34.6836L27.0063 30.0693C26.9982 29.9603 26.9979 29.851 27.0053 29.7422V29.5801C27.0044 29.2665 27.1171 28.9806 27.3041 28.7607C27.4057 28.5855 27.5325 28.4214 27.685 28.2734L38.602 17.6846C38.941 17.3558 39.3583 17.1557 39.7953 17.0791Z" fill="#953B24"/>
<path d="M10.3093 17.0986C10.7082 17.1876 11.0862 17.3821 11.3982 17.6846L22.3151 28.2734C22.4676 28.4214 22.5944 28.5855 22.696 28.7607C22.883 28.9806 22.9957 29.2665 22.9948 29.5801V29.7422C23.0022 29.851 23.0019 29.9603 22.9939 30.0693L22.9792 35.0088L12.3767 24.8096C10.2203 22.7353 9.5362 19.7741 10.3093 17.0986Z" fill="#953B24"/>
</g>
<defs>
<clipPath id="clip0_7758_19823">
<rect width="50" height="50" fill="white"/>
</clipPath>
</defs>
</svg>
