<svg width="50" height="50" viewBox="0 0 50 50" fill="none" xmlns="http://www.w3.org/2000/svg">
<g clip-path="url(#clip0_7758_19777)">
<path d="M8.50989 17.8721C8.02854 17.6013 7.85782 16.9916 8.12858 16.5103C8.39934 16.0289 9.00906 15.8582 9.49042 16.129L25.4903 25.1289C25.9717 25.3997 26.1424 26.0094 25.8716 26.4907C25.6008 26.9721 24.9911 27.1428 24.5098 26.872L8.50989 17.8721Z" fill="#088BF5"/>
<path d="M40.5096 16.1289C40.991 15.8582 41.6007 16.0289 41.8715 16.5103C42.1422 16.9916 41.9715 17.6013 41.4902 17.8721L25.4903 26.872C25.0089 27.1428 24.3992 26.9721 24.1284 26.4907C23.8577 26.0094 24.0284 25.3996 24.5098 25.1289L40.5096 16.1289Z" fill="#088BF5"/>
<path d="M24.1362 25.496L31.1361 13.4963C31.4144 13.0193 32.0269 12.8582 32.504 13.1365C32.9809 13.4148 33.1421 14.0273 32.8639 14.5043L25.8639 26.504C25.5856 26.981 24.9731 27.1421 24.4961 26.8638C24.0191 26.5855 23.8579 25.973 24.1362 25.496Z" fill="#2EBCFA"/>
<path d="M25.8638 25.496L18.8639 13.4963C18.5856 13.0193 17.9731 12.8582 17.496 13.1365C17.0191 13.4148 16.8579 14.0273 17.1361 14.5043L24.1361 26.504C24.4144 26.981 25.0269 27.1421 25.5039 26.8638C25.9809 26.5855 26.1421 25.973 25.8638 25.496Z" fill="#2EBCFA"/>
<path d="M8 27C8 25.8954 8.89543 25 10 25H25V50H10C8.89543 50 8 49.1046 8 48V27Z" fill="#FBB945"/>
<path d="M25 25H40C41.1046 25 42 25.8954 42 27V48C42 49.1046 41.1046 50 40 50H25V25Z" fill="#F78613"/>
<path d="M8 17C8 14.7675 8.43972 12.5569 9.29405 10.4944C10.1484 8.43184 11.4006 6.55778 12.9792 4.97918C14.5578 3.40059 16.4318 2.14838 18.4944 1.29405C20.5569 0.439716 22.7675 -1.95169e-07 25 0C27.2325 1.95169e-07 29.4431 0.439717 31.5056 1.29405C33.5682 2.14838 35.4422 3.40059 37.0208 4.97919C38.5994 6.55778 39.8516 8.43185 40.706 10.4944C41.5603 12.5569 42 14.7675 42 17L8 17Z" fill="#088BF5"/>
<path d="M25 17V0C27.2325 2.92753e-07 29.4431 0.439718 31.5056 1.29405C33.5682 2.14838 35.4422 3.40059 37.0208 4.97919C38.5994 6.55778 39.8516 8.43185 40.706 10.4944C41.5603 12.5569 42 14.7675 42 17L25 17Z" fill="#2EBCFA"/>
</g>
<defs>
<clipPath id="clip0_7758_19777">
<rect width="50" height="50" fill="white"/>
</clipPath>
</defs>
</svg>
