<svg width="70" height="70" viewBox="0 0 70 70" fill="none" xmlns="http://www.w3.org/2000/svg">
<path d="M35 36L19 27" stroke="#088BF5" stroke-width="2" stroke-linecap="round"/>
<path d="M35 36L51 27" stroke="#088BF5" stroke-width="2" stroke-linecap="round"/>
<path d="M35 36L42 24" stroke="#2EBCFA" stroke-width="2" stroke-linecap="round"/>
<path d="M35 36L28 24" stroke="#2EBCFA" stroke-width="2" stroke-linecap="round"/>
<path d="M18 37C18 35.8954 18.8954 35 20 35H35V60H20C18.8954 60 18 59.1046 18 58V37Z" fill="#FBB945"/>
<path d="M35 35H50C51.1046 35 52 35.8954 52 37V58C52 59.1046 51.1046 60 50 60H35V35Z" fill="#F78613"/>
<path d="M18 27C18 24.7675 18.4397 22.5569 19.294 20.4944C20.1484 18.4318 21.4006 16.5578 22.9792 14.9792C24.5578 13.4006 26.4318 12.1484 28.4944 11.2941C30.5569 10.4397 32.7675 10 35 10C37.2325 10 39.4431 10.4397 41.5056 11.2941C43.5682 12.1484 45.4422 13.4006 47.0208 14.9792C48.5994 16.5578 49.8516 18.4319 50.706 20.4944C51.5603 22.5569 52 24.7675 52 27L35 27L18 27Z" fill="#088BF5"/>
<path d="M35 27V10C37.2325 10 39.4431 10.4397 41.5056 11.294C43.5682 12.1484 45.4422 13.4006 47.0208 14.9792C48.5994 16.5578 49.8516 18.4318 50.706 20.4944C51.5603 22.5569 52 24.7675 52 27L35 27Z" fill="#2EBCFA"/>
</svg>
