<svg width="50" height="50" viewBox="0 0 50 50" fill="none" xmlns="http://www.w3.org/2000/svg">
<g clip-path="url(#clip0_7794_19491)">
<path d="M31 5.02332C31 4.19502 30.0507 3.72582 29.3927 4.22888L4.39265 23.3413C4.14517 23.5305 4 23.8242 4 24.1357V42.0001C4 44.2092 5.79086 46.0001 8 46.0001H27C29.2091 46.0001 31 44.2092 31 42.0001V5.02332Z" fill="#FC868B"/>
<path d="M16 27.5345C16 27.2164 16.1513 26.9173 16.4076 26.7289L30.4076 16.4355C30.76 16.1764 31.24 16.1764 31.5924 16.4355L45.5924 26.7289C45.8487 26.9173 46 27.2164 46 27.5345V42C46 44.2092 44.2091 46 42 46H20C17.7909 46 16 44.2092 16 42V27.5345Z" fill="#2EBCFA"/>
<path d="M31 42C31 44.2091 29.2091 46 27 46H20C17.7909 46 16 44.2091 16 42V27.5342C16.0001 27.2162 16.1511 26.9169 16.4072 26.7285L30.4072 16.4355C30.5834 16.306 30.7919 16.2412 31 16.2412V42Z" fill="#2D6388"/>
</g>
<defs>
<clipPath id="clip0_7794_19491">
<rect width="50" height="50" fill="white"/>
</clipPath>
</defs>
</svg>
