<svg width="70" height="70" viewBox="0 0 70 70" fill="none" xmlns="http://www.w3.org/2000/svg">
<path d="M41.5 15.9431C41.5 15.1297 40.5807 14.6566 39.9188 15.1294L14.4188 33.3423C14.156 33.53 14 33.8331 14 34.156V55C14 55.5523 14.4477 56 15 56H37.5C39.7091 56 41.5 54.2091 41.5 52V15.9431Z" fill="#FBB945"/>
<path d="M26 37.5416C26 37.2195 26.1551 36.9172 26.4167 36.7293L40.7597 26.429C41.1151 26.1738 41.5952 26.1793 41.9447 26.4425L55.6016 36.7285C55.8525 36.9175 56 37.2133 56 37.5273V52C56 54.2091 54.2091 56 52 56H27C26.4477 56 26 55.5523 26 55V37.5416Z" fill="#985184"/>
<path d="M41.5 26.2536C41.2458 26.2133 40.979 26.2715 40.7597 26.429L26.4167 36.7293C26.1551 36.9171 26 37.2195 26 37.5415V54.9999C26 55.5522 26.4477 55.9999 27 55.9999H37.5C39.7091 55.9999 41.5 54.2091 41.5 51.9999V26.2536Z" fill="#953B24"/>
</svg>
