<?xml version='1.0' encoding='utf-8'?>
<svg xmlns="http://www.w3.org/2000/svg" width="50px" height="50px" viewBox="10.0 10.0 50.0 50.0" fill="none">
<path d="M14 19.3246C14 18.4566 14.6857 17.8234 15.3865 18.0443L34.176 23.9669C34.6616 24.1199 35 24.6458 35 25.2472V56L14.824 49.6399C14.3384 49.4868 14 48.961 14 48.3596V19.3246Z" fill="#712258" />
<path d="M20.0002 15.2762C20.0002 14.2193 21.0987 13.6221 21.8575 14.2665L35 24L35 56L20.5491 46.1819C20.2079 45.9501 20 45.5394 20 45.0971L20.0002 15.2762Z" fill="#985184" />
<path d="M56 19.3246C56 18.4566 55.3143 17.8234 54.6135 18.0443L35 24.2266V56L55.176 49.6399C55.6616 49.4868 56 48.961 56 48.3596V19.3246Z" fill="#F78613" />
<path d="M50 15.2762C50 14.2193 48.9014 13.6221 48.1426 14.2665L35 24L35 56L49.4509 46.1819C49.7921 45.9501 50 45.5394 50 45.0971V15.2762Z" fill="#FBB945" />
</svg>