<svg width="50" height="50" viewBox="0 0 50 50" fill="none" xmlns="http://www.w3.org/2000/svg">
<g clip-path="url(#clip0_7758_19799)">
<path d="M4 9.32458C4 8.45655 4.68571 7.82339 5.38655 8.0443L24.176 13.9669C24.6616 14.1199 25 14.6458 25 15.2472V46L4.82396 39.6399C4.33841 39.4868 4 38.961 4 38.3596V9.32458Z" fill="#712258"/>
<path d="M10.0002 5.27617C10.0002 4.21931 11.0987 3.62213 11.8575 4.26651L25 14L25 46L10.5491 36.1819C10.2079 35.9501 10 35.5394 10 35.0971L10.0002 5.27617Z" fill="#985184"/>
<path d="M46 9.32458C46 8.45655 45.3143 7.82339 44.6135 8.0443L25 14.2266V46L45.176 39.6399C45.6616 39.4868 46 38.961 46 38.3596V9.32458Z" fill="#F78613"/>
<path d="M40 5.27618C40 4.21931 38.9015 3.62213 38.1427 4.26651L25 14L25 46L39.4509 36.1819C39.7922 35.9501 40 35.5394 40 35.0971V5.27618Z" fill="#FBB945"/>
</g>
<defs>
<clipPath id="clip0_7758_19799">
<rect width="50" height="50" fill="white"/>
</clipPath>
</defs>
</svg>
