<?xml version="1.0" encoding="UTF-8"?><svg id="Layer_2" xmlns="http://www.w3.org/2000/svg" viewBox="0 0 1245 832"><defs><style>.cls-1{fill:#ffc300;}.cls-1,.cls-2,.cls-3,.cls-4{stroke-width:0px;}.cls-2{fill:#d23c47;}.cls-3{fill:#000;}.cls-4{fill:#fff;}</style></defs><g id="Illustration"><path class="cls-4" d="M75.09,136.02c0,8.63,7,15.62,15.63,15.62.64,0,1.27-.05,1.9-.13,1.56,6.27,4.03,12.18,7.28,17.57-.49.39-.98.8-1.43,1.25-6.1,6.1-6.1,15.99,0,22.09,6.1,6.1,16,6.1,22.1,0,.45-.45.86-.94,1.25-1.43,5.39,3.25,11.3,5.72,17.57,7.28-.08.62-.13,1.25-.13,1.9,0,8.63,7,15.62,15.63,15.62s15.63-6.99,15.63-15.62c0-.64-.05-1.27-.13-1.9,6.27-1.56,12.18-4.03,17.57-7.28.39.49.8.97,1.25,1.43,6.1,6.1,16,6.1,22.1,0,6.1-6.1,6.1-15.99,0-22.09-.45-.45-.94-.86-1.43-1.25,3.25-5.39,5.72-11.3,7.28-17.57.62.08,1.25.13,1.9.13,8.63,0,15.63-6.99,15.63-15.62s-7-15.62-15.63-15.62c-.64,0-1.27.05-1.9.13-1.56-6.27-4.03-12.18-7.28-17.57.49-.39.98-.8,1.43-1.25,6.1-6.1,6.1-15.99,0-22.09-6.1-6.1-16-6.1-22.1,0-.45.45-.86.94-1.25,1.43-5.39-3.25-11.3-5.72-17.57-7.28.08-.62.13-1.25.13-1.9,0-8.63-7-15.62-15.63-15.62s-15.63,6.99-15.63,15.62c0,.64.05,1.27.13,1.9-6.27,1.56-12.18,4.03-17.57,7.28-.39-.49-.8-.97-1.25-1.43-6.1-6.1-16-6.1-22.1,0-6.1,6.1-6.1,15.99,0,22.09.45.45.94.86,1.43,1.25-3.25,5.39-5.72,11.3-7.28,17.57-.62-.08-1.25-.13-1.9-.13-8.63,0-15.63,6.99-15.63,15.62ZM125.87,136.02c0-16.02,12.99-29.01,29.02-29.01s29.02,12.99,29.02,29.01-12.99,29.01-29.02,29.01-29.02-12.99-29.02-29.01Z"/><path class="cls-3" d="M154.89,216.79c-9.17,0-16.63-7.46-16.63-16.62,0-.37.01-.74.05-1.14-5.71-1.5-11.18-3.76-16.26-6.73-.26.3-.52.58-.77.84-6.48,6.48-17.03,6.48-23.51,0-3.14-3.14-4.87-7.31-4.87-11.75s1.73-8.61,4.87-11.75c.26-.26.53-.51.84-.77-2.97-5.09-5.24-10.55-6.74-16.26-.4.03-.78.05-1.14.05-9.17,0-16.63-7.46-16.63-16.62s7.46-16.62,16.63-16.62c.37,0,.74.01,1.14.05,1.5-5.71,3.76-11.17,6.74-16.26-.3-.26-.58-.52-.84-.77-3.14-3.14-4.87-7.31-4.87-11.75s1.73-8.61,4.87-11.75c6.48-6.48,17.03-6.48,23.51,0,.26.26.51.54.77.84,5.09-2.97,10.55-5.24,16.26-6.73-.03-.4-.05-.78-.05-1.14,0-9.17,7.46-16.62,16.63-16.62s16.63,7.46,16.63,16.62c0,.36-.01.74-.05,1.14,5.71,1.5,11.18,3.76,16.26,6.73.26-.3.52-.58.77-.84,6.48-6.48,17.03-6.48,23.51,0,3.14,3.14,4.87,7.31,4.87,11.75s-1.73,8.61-4.87,11.75c-.26.26-.54.51-.84.77,2.98,5.09,5.24,10.55,6.74,16.26.4-.03.77-.05,1.14-.05,9.17,0,16.63,7.46,16.63,16.62s-7.46,16.62-16.63,16.62c-.36,0-.74-.02-1.14-.05-1.5,5.71-3.76,11.17-6.74,16.26.3.26.58.52.84.77,3.14,3.14,4.87,7.32,4.87,11.75s-1.73,8.61-4.87,11.75c-6.48,6.48-17.03,6.48-23.51,0-.26-.26-.51-.53-.77-.84-5.09,2.97-10.55,5.24-16.26,6.73.03.4.05.77.05,1.14,0,9.17-7.46,16.62-16.63,16.62ZM121.82,190c.18,0,.35.05.51.14,5.37,3.24,11.19,5.65,17.3,7.16.49.12.81.59.75,1.09-.08.67-.12,1.24-.12,1.78,0,8.06,6.56,14.62,14.63,14.62s14.63-6.56,14.63-14.62c0-.54-.04-1.11-.12-1.78-.06-.5.26-.97.75-1.09,6.1-1.51,11.92-3.92,17.3-7.16.43-.26.99-.16,1.3.24.41.52.79.96,1.17,1.34,5.7,5.7,14.98,5.7,20.69,0,2.76-2.76,4.28-6.43,4.28-10.34s-1.52-7.58-4.28-10.34c-.38-.38-.81-.75-1.34-1.17-.4-.31-.5-.87-.24-1.3,3.24-5.37,5.65-11.19,7.17-17.29.12-.49.6-.82,1.09-.75.66.08,1.24.12,1.78.12,8.07,0,14.63-6.56,14.63-14.62s-6.56-14.62-14.63-14.62c-.54,0-1.11.04-1.78.12-.51.06-.97-.26-1.09-.75-1.51-6.1-3.92-11.92-7.17-17.29-.26-.43-.16-.99.24-1.3.52-.41.96-.79,1.34-1.17,2.76-2.76,4.28-6.43,4.28-10.34s-1.52-7.58-4.28-10.34c-5.7-5.7-14.98-5.7-20.69,0-.38.38-.77.82-1.17,1.34-.31.4-.87.5-1.3.24-5.37-3.24-11.19-5.65-17.3-7.16-.49-.12-.81-.59-.75-1.09.08-.66.12-1.24.12-1.78,0-8.06-6.56-14.62-14.63-14.62s-14.63,6.56-14.63,14.62c0,.53.04,1.11.12,1.78.06.5-.26.97-.75,1.09-6.1,1.51-11.92,3.92-17.3,7.16-.43.26-.99.16-1.3-.24-.41-.52-.79-.96-1.17-1.34-5.7-5.7-14.98-5.7-20.69,0-2.76,2.76-4.28,6.43-4.28,10.34s1.52,7.58,4.28,10.34c.38.38.82.76,1.34,1.17.4.31.5.87.24,1.3-3.24,5.37-5.65,11.19-7.16,17.29-.12.49-.59.81-1.09.75-.67-.08-1.24-.12-1.78-.12-8.07,0-14.63,6.56-14.63,14.62s6.56,14.62,14.63,14.62c.54,0,1.12-.04,1.78-.12.51-.07.97.26,1.09.75,1.51,6.1,3.93,11.92,7.16,17.29.26.43.16.99-.24,1.3-.53.42-.96.79-1.34,1.17-2.76,2.76-4.28,6.43-4.28,10.34s1.52,7.58,4.28,10.34c5.7,5.7,14.98,5.7,20.69,0,.38-.38.76-.82,1.17-1.34.2-.25.49-.38.79-.38ZM154.89,166.03c-16.55,0-30.02-13.46-30.02-30.01s13.47-30.01,30.02-30.01,30.02,13.46,30.02,30.01-13.47,30.01-30.02,30.01ZM154.89,108.01c-15.45,0-28.02,12.57-28.02,28.01s12.57,28.01,28.02,28.01,28.02-12.57,28.02-28.01-12.57-28.01-28.02-28.01Z"/><path class="cls-4" d="M169.96,276.1c0,4.79,3.89,8.68,8.68,8.68.36,0,.71-.03,1.05-.07.86,3.48,2.24,6.76,4.04,9.76-.27.21-.54.44-.79.69-3.39,3.39-3.39,8.88,0,12.27s8.89,3.39,12.27,0c.25-.25.48-.52.7-.79,2.99,1.8,6.28,3.18,9.76,4.04-.04.35-.07.7-.07,1.05,0,4.79,3.89,8.68,8.68,8.68s8.68-3.88,8.68-8.68c0-.36-.03-.71-.07-1.05,3.48-.86,6.77-2.24,9.76-4.04.21.27.44.54.7.79,3.39,3.39,8.89,3.39,12.27,0,3.39-3.39,3.39-8.88,0-12.27-.25-.25-.52-.48-.79-.69,1.81-2.99,3.18-6.27,4.04-9.76.35.04.7.07,1.05.07,4.79,0,8.68-3.88,8.68-8.68s-3.89-8.68-8.68-8.68c-.36,0-.71.03-1.05.07-.86-3.48-2.24-6.76-4.04-9.76.27-.21.54-.44.79-.69,3.39-3.39,3.39-8.88,0-12.27-3.39-3.39-8.89-3.39-12.27,0-.25.25-.48.52-.7.79-2.99-1.8-6.28-3.18-9.76-4.04.04-.35.07-.7.07-1.05,0-4.79-3.89-8.68-8.68-8.68s-8.68,3.88-8.68,8.68c0,.36.03.71.07,1.05-3.48.86-6.77,2.24-9.76,4.04-.21-.27-.44-.54-.7-.79-3.39-3.39-8.89-3.39-12.27,0-3.39,3.39-3.39,8.88,0,12.27.25.25.52.48.79.69-1.8,2.99-3.18,6.27-4.04,9.76-.35-.04-.7-.07-1.05-.07-4.79,0-8.68,3.88-8.68,8.68ZM198.16,276.1c0-8.9,7.22-16.11,16.12-16.11s16.12,7.21,16.12,16.11-7.22,16.11-16.12,16.11-16.12-7.21-16.12-16.11Z"/><path class="cls-3" d="M214.28,321.4c-5.34,0-9.68-4.34-9.68-9.68,0-.1,0-.2,0-.3-2.97-.81-5.81-1.99-8.48-3.51-.07.07-.14.15-.21.21-3.77,3.77-9.91,3.78-13.69,0-1.83-1.83-2.83-4.26-2.83-6.84s1.01-5.02,2.83-6.84c.07-.07.14-.14.21-.2-1.52-2.66-2.7-5.51-3.51-8.48-.1,0-.2,0-.3,0-5.34,0-9.68-4.34-9.68-9.68s4.34-9.68,9.68-9.68c.1,0,.2,0,.3,0,.81-2.96,1.99-5.81,3.51-8.47-.07-.07-.15-.14-.21-.21-1.83-1.83-2.83-4.26-2.83-6.84s1.01-5.01,2.83-6.84c3.77-3.77,9.92-3.77,13.69,0,.07.07.14.14.21.21,2.67-1.52,5.51-2.7,8.48-3.51,0-.1,0-.2,0-.3,0-5.34,4.34-9.68,9.68-9.68s9.68,4.34,9.68,9.68c0,.1,0,.2,0,.3,2.97.81,5.81,1.99,8.48,3.51.07-.07.14-.15.21-.21,3.77-3.77,9.92-3.77,13.69,0,1.83,1.83,2.83,4.26,2.83,6.84s-1.01,5.02-2.83,6.84c-.07.07-.14.14-.21.21,1.52,2.66,2.7,5.51,3.51,8.47.1,0,.2,0,.3,0,5.34,0,9.68,4.34,9.68,9.68s-4.34,9.68-9.68,9.68c-.1,0-.2,0-.3,0-.81,2.97-1.99,5.81-3.51,8.48.07.07.14.14.21.2,1.83,1.83,2.84,4.26,2.84,6.84s-1.01,5.02-2.83,6.84c-3.77,3.77-9.92,3.77-13.69,0-.07-.07-.14-.14-.21-.21-2.67,1.52-5.51,2.7-8.48,3.51,0,.1,0,.2,0,.3,0,5.34-4.34,9.68-9.68,9.68ZM195.91,305.63c.18,0,.35.05.51.14,2.95,1.78,6.14,3.1,9.49,3.93.49.12.81.59.75,1.09-.04.31-.06.62-.06.93,0,4.23,3.45,7.68,7.68,7.68s7.68-3.44,7.68-7.68c0-.32-.03-.63-.06-.93-.06-.5.26-.97.75-1.09,3.35-.83,6.54-2.15,9.49-3.93.43-.26.99-.16,1.3.24.19.24.39.48.62.7,3,2.99,7.87,2.99,10.86,0,1.45-1.45,2.25-3.38,2.25-5.43s-.8-3.98-2.25-5.43c-.22-.22-.46-.42-.7-.61-.4-.31-.5-.87-.24-1.3,1.78-2.94,3.1-6.13,3.93-9.48.12-.49.6-.81,1.09-.75.31.04.62.06.93.06,4.23,0,7.68-3.44,7.68-7.68s-3.45-7.68-7.68-7.68c-.32,0-.63.03-.93.06-.49.06-.97-.26-1.09-.75-.83-3.35-2.15-6.54-3.93-9.48-.26-.43-.16-.99.24-1.3.24-.19.48-.39.7-.61,1.45-1.45,2.25-3.38,2.25-5.43s-.8-3.98-2.25-5.43c-2.99-2.99-7.87-2.99-10.86,0-.22.22-.42.46-.62.7-.31.4-.87.5-1.3.24-2.95-1.78-6.14-3.1-9.49-3.93-.49-.12-.81-.59-.75-1.09.04-.31.06-.62.06-.93,0-4.23-3.45-7.68-7.68-7.68s-7.68,3.44-7.68,7.68c0,.32.03.63.06.93.06.5-.26.97-.75,1.09-3.35.83-6.54,2.15-9.49,3.93-.43.26-.99.16-1.3-.24-.19-.24-.39-.48-.61-.7-2.99-2.99-7.87-2.99-10.86,0-1.45,1.45-2.25,3.38-2.25,5.43s.8,3.98,2.25,5.43c.22.22.46.42.7.61.4.31.5.87.24,1.3-1.78,2.95-3.1,6.14-3.93,9.48-.12.49-.59.82-1.09.75-.31-.04-.62-.06-.93-.06-4.23,0-7.68,3.44-7.68,7.68s3.45,7.68,7.68,7.68c.32,0,.63-.03.93-.06.5-.06.97.26,1.09.75.83,3.35,2.15,6.54,3.93,9.48.26.43.16.99-.24,1.3-.24.19-.48.39-.7.61-1.45,1.45-2.25,3.38-2.25,5.43s.8,3.98,2.25,5.43c2.99,2.99,7.87,2.99,10.86,0,.22-.22.42-.46.62-.7.2-.25.49-.38.79-.38ZM214.28,293.21c-9.44,0-17.12-7.68-17.12-17.11s7.68-17.11,17.12-17.11,17.12,7.68,17.12,17.11-7.68,17.11-17.12,17.11ZM214.28,260.98c-8.34,0-15.12,6.78-15.12,15.11s6.78,15.11,15.12,15.11,15.12-6.78,15.12-15.11-6.78-15.11-15.12-15.11Z"/><rect class="cls-4" x="230.26" y="40.82" width="818.25" height="486.3" transform="translate(1278.76 567.94) rotate(180)"/><path class="cls-3" d="M1048.5,528.12H230.26c-.55,0-1-.45-1-1V40.82c0-.55.45-1,1-1h818.25c.55,0,1,.45,1,1v486.3c0,.55-.45,1-1,1ZM231.26,526.12h816.25V41.82H231.26v484.3Z"/><path class="cls-3" d="M1020.56,500.27h-75.85c-.55,0-1-.45-1-1s.45-1,1-1h74.85v-161.31c0-.55.45-1,1-1s1,.45,1,1v162.31c0,.55-.45,1-1,1Z"/><path class="cls-3" d="M707.68,500.27h-221.52c-.55,0-1-.45-1-1s.45-1,1-1h221.52c.55,0,1,.45,1,1s-.45,1-1,1Z"/><path class="cls-3" d="M818.48,69.67h-332.31c-.55,0-1-.45-1-1s.45-1,1-1h332.31c.55,0,1,.45,1,1s-.45,1-1,1Z"/><circle class="cls-1" cx="640.83" cy="333.5" r="22.79" transform="translate(-48.13 550.82) rotate(-45)"/><path class="cls-4" d="M638.01,346.96h0c-.5,0-.96-.25-1.24-.67l-9.01-13.54c-.46-.69-.27-1.62.42-2.08.69-.46,1.62-.27,2.08.42l7.78,11.68,14.21-20.91c.47-.69,1.4-.86,2.08-.4.68.47.86,1.4.4,2.08l-15.47,22.75c-.28.41-.74.66-1.24.66Z"/><path class="cls-3" d="M606.77,327.69h-133.19c-.55,0-1-.45-1-1s.45-1,1-1h133.19c.55,0,1,.45,1,1s-.45,1-1,1Z"/><path class="cls-3" d="M606.77,341.31h-133.19c-.55,0-1-.45-1-1s.45-1,1-1h133.19c.55,0,1,.45,1,1s-.45,1-1,1Z"/><circle class="cls-1" cx="640.83" cy="456.24" r="22.79"/><path class="cls-4" d="M638.01,469.7h0c-.5,0-.96-.25-1.24-.67l-9.01-13.54c-.46-.69-.27-1.62.42-2.08.69-.46,1.62-.27,2.08.42l7.78,11.68,14.21-20.91c.47-.69,1.4-.86,2.08-.4.68.47.86,1.4.4,2.08l-15.47,22.75c-.28.41-.74.66-1.24.66Z"/><path class="cls-3" d="M606.77,450.43h-133.19c-.55,0-1-.45-1-1s.45-1,1-1h133.19c.55,0,1,.45,1,1s-.45,1-1,1Z"/><path class="cls-3" d="M606.77,464.05h-133.19c-.55,0-1-.45-1-1s.45-1,1-1h133.19c.55,0,1,.45,1,1s-.45,1-1,1Z"/><circle class="cls-1" cx="640.83" cy="394.87" r="22.79" transform="translate(109.29 927.83) rotate(-76.72)"/><path class="cls-4" d="M638.01,408.33h0c-.5,0-.96-.25-1.24-.67l-9.01-13.54c-.46-.69-.27-1.62.42-2.08.69-.46,1.62-.27,2.08.42l7.78,11.68,14.21-20.91c.47-.69,1.4-.86,2.08-.4.68.47.86,1.4.4,2.08l-15.47,22.75c-.28.41-.74.66-1.24.66Z"/><path class="cls-3" d="M606.77,389.06h-133.19c-.55,0-1-.45-1-1s.45-1,1-1h133.19c.55,0,1,.45,1,1s-.45,1-1,1Z"/><path class="cls-3" d="M606.77,402.68h-133.19c-.55,0-1-.45-1-1s.45-1,1-1h133.19c.55,0,1,.45,1,1s-.45,1-1,1Z"/><rect class="cls-1" x="468.15" y="193.28" width="192.28" height="98.58" transform="translate(1128.58 485.14) rotate(180)"/><path class="cls-3" d="M643.46,280.62h-11.54c-.55,0-1-.45-1-1V100.4c0-.55.45-1,1-1h11.54c.55,0,1,.45,1,1v179.21c0,.55-.45,1-1,1ZM632.93,278.62h9.54V101.4h-9.54v177.21Z"/><path class="cls-3" d="M613.1,280.62c-.55,0-1-.45-1-1v-112.77c0-.55.45-1,1-1s1,.45,1,1v112.77c0,.55-.45,1-1,1Z"/><path class="cls-3" d="M591.94,280.62c-.55,0-1-.45-1-1v-74.32c0-.55.45-1,1-1s1,.45,1,1v74.32c0,.55-.45,1-1,1Z"/><path class="cls-3" d="M570.79,280.62c-.55,0-1-.45-1-1v-59.59c0-.55.45-1,1-1s1,.45,1,1v59.59c0,.55-.45,1-1,1Z"/><path class="cls-3" d="M549.63,280.62c-.55,0-1-.45-1-1v-27.87c0-.55.45-1,1-1s1,.45,1,1v27.87c0,.55-.45,1-1,1Z"/><path class="cls-3" d="M528.47,280.62c-.55,0-1-.45-1-1v-42.45c0-.55.45-1,1-1s1,.45,1,1v42.45c0,.55-.45,1-1,1Z"/><path class="cls-3" d="M507.32,280.62c-.55,0-1-.45-1-1v-29c0-.55.45-1,1-1s1,.45,1,1v29c0,.55-.45,1-1,1Z"/><path class="cls-3" d="M486.16,280.62c-.55,0-1-.45-1-1v-38.93c0-.55.45-1,1-1s1,.45,1,1v38.93c0,.55-.45,1-1,1Z"/><circle class="cls-2" cx="690.28" cy="110.37" r="9.43" transform="translate(-6.89 161.55) rotate(-13.28)"/><path class="cls-3" d="M672.66,111.37h-20.34c-.55,0-1-.45-1-1s.45-1,1-1h20.34c.55,0,1,.45,1,1s-.45,1-1,1Z"/><rect class="cls-1" x="205.75" y="59.1" width="254.2" height="178.83" transform="translate(184.34 481.37) rotate(-90)"/><path class="cls-4" d="M455.63,87.09c0-47.55-38.54-86.09-86.09-86.09s-86.09,38.54-86.09,86.09c0,36.68,22.95,67.98,55.27,80.38v38.18h61.64v-38.18c32.32-12.4,55.27-43.7,55.27-80.38Z"/><path class="cls-3" d="M400.36,206.65h-61.64c-.55,0-1-.45-1-1v-37.5c-16-6.28-29.67-17.06-39.57-31.2-10.27-14.66-15.7-31.91-15.7-49.87,0-48.02,39.07-87.09,87.09-87.09s87.09,39.07,87.09,87.09c0,17.96-5.43,35.21-15.7,49.87-9.9,14.14-23.58,24.91-39.57,31.2v37.5c0,.55-.45,1-1,1ZM339.72,204.65h59.64v-37.18c0-.41.25-.79.64-.93,32.67-12.54,54.63-44.46,54.63-79.45,0-46.92-38.17-85.09-85.09-85.09s-85.09,38.17-85.09,85.09c0,34.98,21.95,66.91,54.63,79.45.39.15.64.52.64.93v37.18Z"/><path class="cls-3" d="M445.45,327.69h-61.38c-.27,0-.52-.11-.71-.29s-.29-.45-.29-.71l.42-69.63c-9.2,4.01-17.18,4.54-23.74,1.55-9.42-4.29-12.35-14.19-12.47-14.61-.09-.3-.03-.63.16-.88.19-.25.49-.4.8-.4h50.67v-17.94h-59.73c-.55,0-1-.45-1-1s.45-1,1-1h60.73c.55,0,1,.45,1,1v19.94c0,.55-.45,1-1,1h-50.24c1.09,2.71,4.26,9.05,10.93,12.08,6.34,2.87,14.23,2.13,23.48-2.2.31-.15.67-.12.96.06.29.19.46.51.46.85l-.42,70.18h60.37c.55,0,1,.45,1,1s-.45,1-1,1Z"/><path class="cls-3" d="M364.65,182.19c-.47,0-.88-.33-.98-.8l-24.18-118.54c-.11-.54.24-1.07.78-1.18.54-.11,1.07.24,1.18.78l24.18,118.54c.11.54-.24,1.07-.78,1.18-.07.01-.13.02-.2.02Z"/><path class="cls-3" d="M374.43,182.19c-.07,0-.13,0-.2-.02-.54-.11-.89-.64-.78-1.18l24.18-118.54c.11-.54.64-.89,1.18-.78.54.11.89.64.78,1.18l-24.18,118.54c-.1.47-.51.8-.98.8Z"/><path class="cls-2" d="M366.73,73.92s-.08,0-.12,0c-.44-.05-.8-.39-.87-.83l-3.3-20.09-5.77,11.64c-.17.34-.52.56-.9.56h-6.97c-.55,0-1-.45-1-1s.45-1,1-1h6.35l6.88-13.87c.19-.39.61-.6,1.04-.55.43.06.77.4.84.83l3.24,19.74,7.39-17.48c.16-.38.56-.61.95-.61.41.01.78.28.91.67l3.98,11.26h9c.55,0,1,.45,1,1s-.45,1-1,1h-9.71c-.42,0-.8-.27-.94-.67l-3.35-9.5-7.73,18.29c-.16.37-.52.61-.92.61Z"/><rect class="cls-1" x="844.73" y="29.64" width="213.36" height="87.47"/><path class="cls-2" d="M859,97.78c-.24,0-.47-.08-.66-.25-.42-.37-.45-1-.09-1.41l44.78-50.76c.19-.22.46-.34.75-.34h0c.29,0,.56.13.75.35l21.97,25.39L991.23,1.9c.38-.4,1.01-.42,1.41-.04.4.38.42,1.01.04,1.41l-65.48,69.67c-.19.21-.49.3-.75.32-.28,0-.55-.13-.74-.35l-21.95-25.36-44.03,49.9c-.2.22-.47.34-.75.34Z"/><polygon class="cls-2" points="993.38 13.01 991.38 13 991.44 3.14 981.6 3.81 981.46 1.81 993.45 1 993.38 13.01"/><path class="cls-4" d="M979.69,92.33h-21.39c-.83,0-1.5-.67-1.5-1.5s.67-1.5,1.5-1.5h21.39c.83,0,1.5.67,1.5,1.5s-.67,1.5-1.5,1.5Z"/><path class="cls-4" d="M1042.68,92.33h-50.57c-.83,0-1.5-.67-1.5-1.5s.67-1.5,1.5-1.5h50.57c.83,0,1.5.67,1.5,1.5s-.67,1.5-1.5,1.5Z"/><path class="cls-4" d="M1042.68,74.88h-84.37c-.83,0-1.5-.67-1.5-1.5s.67-1.5,1.5-1.5h84.37c.83,0,1.5.67,1.5,1.5s-.67,1.5-1.5,1.5Z"/><path class="cls-4" d="M1008.76,57.42h-50.46c-.83,0-1.5-.67-1.5-1.5s.67-1.5,1.5-1.5h50.46c.83,0,1.5.67,1.5,1.5s-.67,1.5-1.5,1.5Z"/><path class="cls-4" d="M1042.68,57.42h-22.11c-.83,0-1.5-.67-1.5-1.5s.67-1.5,1.5-1.5h22.11c.83,0,1.5.67,1.5,1.5s-.67,1.5-1.5,1.5Z"/><path class="cls-3" d="M1016.46,313.43h-42.8c-.55,0-1-.45-1-1v-43.31c0-.55.45-1,1-1s1,.45,1,1v42.31h41.8c.55,0,1,.45,1,1s-.45,1-1,1Z"/><ellipse class="cls-4" cx="973.55" cy="251.4" rx="8.94" ry="8.91"/><path class="cls-3" d="M973.55,261.31c-5.48,0-9.94-4.44-9.94-9.91s4.46-9.91,9.94-9.91,9.94,4.44,9.94,9.91-4.46,9.91-9.94,9.91ZM973.55,243.49c-4.38,0-7.94,3.55-7.94,7.91s3.56,7.91,7.94,7.91,7.94-3.55,7.94-7.91-3.56-7.91-7.94-7.91Z"/><ellipse class="cls-4" cx="973.55" cy="225.4" rx="8.94" ry="8.91"/><path class="cls-3" d="M973.55,235.31c-5.48,0-9.94-4.44-9.94-9.91s4.46-9.91,9.94-9.91,9.94,4.44,9.94,9.91-4.46,9.91-9.94,9.91ZM973.55,217.49c-4.38,0-7.94,3.55-7.94,7.91s3.56,7.91,7.94,7.91,7.94-3.55,7.94-7.91-3.56-7.91-7.94-7.91Z"/><ellipse class="cls-4" cx="973.55" cy="199.41" rx="8.94" ry="8.91"/><path class="cls-3" d="M973.55,209.31c-5.48,0-9.94-4.44-9.94-9.91s4.46-9.91,9.94-9.91,9.94,4.44,9.94,9.91-4.46,9.91-9.94,9.91ZM973.55,191.5c-4.38,0-7.94,3.55-7.94,7.91s3.56,7.91,7.94,7.91,7.94-3.55,7.94-7.91-3.56-7.91-7.94-7.91Z"/><path class="cls-3" d="M973.52,181.11c-.55,0-1-.45-1-1v-56.69c0-.55.45-1,1-1s1,.45,1,1v56.69c0,.55-.45,1-1,1Z"/><path class="cls-4" d="M1219.86,490.26c-1.37.27,14.2-91.35-32.53-153.14l-93.17-18.96-114.87,401.21-13.49,16.34c-5.3,6.41-.73,16.1,7.59,16.1h87.95c11.55,0,21.5-8.11,23.85-19.41l40.53-195.59-13.45,182.33-14.19,16.39c-5.52,6.37-.99,16.27,7.44,16.27h82.83c13.16,0,23.94-10.46,24.34-23.62l7.19-237.93Z"/><path class="cls-3" d="M1188.33,752.81h-82.83c-4.29,0-8.07-2.43-9.86-6.33-1.78-3.91-1.15-8.35,1.66-11.6l13.98-16.14,12.3-166.77-37.43,180.63c-2.43,11.71-12.87,20.21-24.83,20.21h-87.95c-4.24,0-8-2.38-9.8-6.22-1.81-3.83-1.25-8.25,1.45-11.52l13.36-16.18,114.82-401.01c.14-.5.65-.81,1.16-.7l93.17,18.96c.24.05.45.18.6.38,17.18,22.71,28.02,52.03,32.23,87.14,3.36,28.04,1.5,51.69.7,61.78-.16,2.04-.3,3.83-.29,4.41.06.14.09.29.09.45l-7.19,237.93c-.42,13.79-11.55,24.59-25.34,24.59ZM1125.7,535.81s.09,0,.14,0c.52.07.9.54.86,1.06l-13.45,182.33c-.02.21-.1.42-.24.58l-14.19,16.39c-2.29,2.65-2.81,6.27-1.36,9.46,1.46,3.19,4.54,5.16,8.04,5.16h82.83c12.71,0,22.96-9.95,23.34-22.65l7.18-237.61c-.16-.52-.08-1.65.21-5.27,4.94-62.64-5.93-112.18-32.3-147.26l-91.9-18.7-114.62,400.32c-.04.13-.1.25-.19.36l-13.49,16.34c-2.2,2.67-2.65,6.26-1.18,9.39,1.47,3.13,4.54,5.07,7.99,5.07h87.95c11.02,0,20.63-7.83,22.87-18.62l40.53-195.59c.1-.47.51-.8.98-.8Z"/><path class="cls-3" d="M1205.97,727.24c-.09,0-.18-.01-.27-.04-.43-.12-43.08-11.88-86.01-8.52-.55.05-1.03-.37-1.08-.92-.04-.55.37-1.03.92-1.08,43.27-3.4,86.27,8.46,86.7,8.58.53.15.84.7.69,1.23-.12.44-.53.73-.96.73Z"/><path class="cls-3" d="M1077.81,730.5c-.15,0-.29-.03-.43-.1-.34-.16-34.41-16.18-88.94-12.37-.54.03-1.03-.38-1.07-.93-.04-.55.38-1.03.93-1.07,55.1-3.84,89.6,12.4,89.94,12.57.5.24.71.84.47,1.33-.17.36-.53.57-.9.57Z"/><path class="cls-3" d="M1125.6,538.28s-.04,0-.06,0c-.55-.03-.97-.51-.94-1.06l7.19-121.65c.43-7-3.38-13.51-9.49-16.21l-9.94-4.38c-.51-.22-.73-.81-.51-1.32.22-.5.81-.73,1.32-.51l9.94,4.38c6.87,3.03,11.16,10.32,10.68,18.16l-7.19,121.65c-.03.53-.47.94-1,.94Z"/><path class="cls-3" d="M1081.43,122.38c-2.23,7.81,3.79,13.4,4.44,19.27.66,5.94-4.12,9.14-1.34,18.82,2.72,9.47,10.06,8.35,13.39,13.27,3.23,4.76,4.42,11.71,8.68,15.76,4.1,3.9,10.7,4.41,15.62,7.49,4.74,2.95,8.36,8.87,13.74,10.91,5.16,1.96,11.97-1.32,17.62-.33,5.65.99,8.12,6.86,13.59,6.86,10.99,0,10.36-5.51,15.73-6.7,5.58-1.24,13.74,2.78,20.77-.33,8.08-3.57,5.6-10.14,10.08-13.56,4.62-3.53,11.15-.82,16.74-8.87,5.21-7.51,2.4-13,4.79-18.41,2.36-5.34,9.65-8.49,9.72-14.59.1-9.37-5.01-11.78-5.67-17.65-.66-5.94,3.35-12.84,1.71-18.57-2.17-7.56-10.17-7.88-13.5-12.79-3.23-4.76-1.71-10.81-6.38-16.8-4.21-5.41-12.89-3.43-17.82-6.5-4.74-2.95-4.14-9.25-11.54-11.9-6.31-2.26-12.43,1.89-18.08.9-5.65-.99-7.95-6.76-15.5-6.76-8.46,0-10.17,6.22-15.54,7.41-5.58,1.24-10.24-2.83-17.77.06-8.22,3.15-6.83,10.25-11.31,13.66-4.62,3.53-12.73,3.16-16.33,7.64-3.66,4.56-2.02,12.56-4.74,17.81-3.51,6.78-8.7,5.45-11.11,13.88Z"/><path class="cls-4" d="M1155.79,149.45l22.98,46.53s-26.34,32.46-46.18,31.18-16.15-23.74-1.36-30.72l10.6-1.62-13.49-36.3,27.45-9.07Z"/><path class="cls-3" d="M1142.63,198.86c-.41,0-.79-.25-.94-.66l-14.29-39.33c-.09-.25-.08-.54.04-.78.12-.24.33-.43.59-.51l27.45-9.07c.47-.16.99.06,1.21.51l20.97,43.08c.24.5.04,1.09-.46,1.34-.5.24-1.09.03-1.34-.46l-20.59-42.29-25.64,8.48,13.94,38.37c.19.52-.08,1.09-.6,1.28-.11.04-.23.06-.34.06Z"/><path class="cls-4" d="M1114.47,134.54c-1,5.45-1.03,11.19.82,16.42s5.72,9.88,10.89,11.86c4.49,1.72,9.62,1.3,14.06-.55,4.43-1.85,8.21-5.05,11.29-8.74,4.73,1.68,10.5-.28,13.23-4.5,1.57-2.43,2.13-5.67.84-8.27-1.28-2.6-4.67-4.15-7.29-2.91-1.49.71-2.56,2.15-4.08,2.79-1.7.72-3.72.29-5.25-.73-1.53-1.03-2.63-2.58-3.5-4.2-2.76-5.1-3.58-11.22-2.27-16.87-.12.53-2.96,1.34-3.47,1.51-1.27.43-2.58.75-3.91.95-2.62.41-5.3.38-7.91-.07-1.32-.23-2.63-.57-3.89-1.02-1.01-.36-2.31-1.31-3.38-1.32-2.24-.02-2.91,4.06-3.45,5.63-1.12,3.28-2.12,6.61-2.74,10.02Z"/><path class="cls-3" d="M1132.28,164.9c-2.26,0-4.45-.38-6.46-1.15-5.13-1.96-9.42-6.62-11.48-12.46-1.73-4.91-2.02-10.6-.86-16.93.55-3,1.43-6.23,2.78-10.16.09-.26.18-.59.29-.96.6-2.13,1.49-5.35,4.08-5.35h.04c.93,0,1.86.48,2.68.9.38.19.73.37,1.02.48,1.2.42,2.45.75,3.73.97,2.52.44,5.07.46,7.58.07,1.28-.2,2.54-.51,3.74-.91l.36-.11c1.7-.53,2.34-.82,2.57-.97.22-.36.65-.56,1.08-.45.54.12.87.66.75,1.2h0c-1.25,5.4-.46,11.29,2.17,16.17.99,1.83,2,3.05,3.18,3.85,1.39.93,3.04,1.18,4.3.64.66-.28,1.25-.77,1.88-1.28.66-.54,1.33-1.1,2.16-1.49,3-1.42,7.02.16,8.61,3.37,1.36,2.75,1.01,6.3-.9,9.26-2.87,4.45-8.67,6.56-13.74,5.11-3.41,3.96-7.19,6.82-11.23,8.5-2.72,1.14-5.58,1.71-8.34,1.71ZM1115.45,134.72c-1.1,5.98-.84,11.33.78,15.9,1.87,5.3,5.72,9.51,10.31,11.26,3.99,1.53,8.84,1.33,13.31-.54,3.92-1.64,7.58-4.48,10.91-8.46.27-.32.71-.44,1.1-.3,4.29,1.52,9.58-.28,12.05-4.1,1.51-2.34,1.82-5.2.79-7.29-1.1-2.24-3.95-3.41-5.96-2.45-.61.29-1.16.74-1.75,1.22-.71.58-1.45,1.19-2.37,1.58-1.88.8-4.25.48-6.2-.83-1.46-.98-2.67-2.43-3.82-4.55-2.53-4.67-3.49-10.21-2.75-15.47-.41.15-.9.31-1.47.49l-.32.1c-1.31.44-2.68.78-4.07,1-2.72.42-5.5.4-8.23-.08-1.39-.24-2.75-.6-4.06-1.06-.41-.15-.84-.37-1.26-.58-.62-.32-1.33-.68-1.79-.68h0c-1.08,0-1.78,2.53-2.16,3.89-.12.41-.22.78-.32,1.07-1.32,3.84-2.18,6.98-2.71,9.88ZM1142.24,118.6h0s0,0,0,0Z"/><path class="cls-2" d="M1156.59,169.05c-.21,0-.41-.01-.62-.03-1.87-.2-3.68-1.25-5.09-2.97-2.48-3.01-3.13-7.45-1.61-11.05,1.14-2.71,3.53-4.93,6.37-5.96.52-.19,1.09.08,1.28.6.19.52-.08,1.09-.6,1.28-2.33.84-4.28,2.66-5.21,4.86-1.24,2.93-.71,6.54,1.31,9,1.07,1.29,2.44,2.12,3.76,2.25,1.67.16,3.47-.71,4.58-2.26,1.01-1.41,1.49-3.34,1.34-5.43-.12-1.71-.62-3.51-1.6-5.83-.22-.51.02-1.1.53-1.31.51-.22,1.09.02,1.31.53,1.08,2.53,1.62,4.53,1.76,6.47.18,2.56-.43,4.95-1.71,6.74-1.39,1.94-3.61,3.12-5.79,3.12Z"/><path class="cls-2" d="M1200.97,347.63c9.71-5.06,15.84-14.98,20.49-24.9,10.92-23.3,16.23-49.12,16.14-74.85-.04-12.76-1.63-26.18-9.09-36.54-8.07-11.2-21.87-17.03-35.53-19.08-5.5-.83-11.34-1.09-16.41,1.2-6.59,2.97-10.6,9.58-15.57,14.84-5.77,6.11-13.22,10.62-21.31,12.91-5.17,1.46-11.4,1.82-14.78-3.13-1.51-2.22-1.98-4.96-1.62-7.62.74-5.58,4.39-9.89,7.94-14.01-6.8-1.1-13.79,1.62-19.16,5.93-5.37,4.31-9.34,10.1-12.96,15.96-11.06,17.91-19.56,37.32-26.36,57.24-2.41,7.05-4.63,14.41-3.87,21.82.87,8.38,2.42,16.38,8.61,22.1,2,1.85,3.91,3.51,5.57,4.9,3.16,2.65,7.29,3.76,11.37,3.2,22.47-3.09,76.83,14.53,81.43,18.26,6.93,5.61,17.38,5.82,25.12,1.78Z"/><path class="cls-3" d="M1178.77,279.6c-.1,0-.2-.01-.3-.05-.53-.17-.82-.73-.65-1.26l10.74-33.71c.17-.53.73-.82,1.26-.65.53.17.82.73.65,1.26l-10.74,33.71c-.14.42-.53.7-.95.7Z"/><path class="cls-3" d="M1102.88,266.67s-.09,0-.14,0c-.55-.08-.93-.59-.85-1.13,1.36-9.46,3.69-18.8,6.94-27.79.19-.52.76-.79,1.28-.6.52.19.79.76.6,1.28-3.2,8.86-5.5,18.07-6.84,27.4-.07.5-.5.86-.99.86Z"/><path class="cls-4" d="M1175.14,337.87c-.38,1.23-.92,2.62-2.14,3.03-.97.32-2.14.1-2.93-.54-16.91-13.8-30.4-22.69-50.42-31.3-2.54-1.1,1.48,10.02-13.01.1-2.29-1.57-.38-6.24,2.36-6.7-2.26-.32-4.19-2.27-4.48-4.54-.29-2.26,1.09-4.64,3.2-5.51-2.19.41-4.23-1.77-4.33-4-.11-2.22,1.21-4.28,2.8-5.85-6.06,2.94-14.55,11.51-19.35,5.73-1.29-5.85,2.81-8.97,7.35-12.88,4.54-3.91,10.46-5.85,16.35-6.96,13.1-2.46,26.74-1.24,39.54,2.47,11.26,3.26,21.99,8.39,31.93,14.57,2.44,1.52,3.26,1.85,3.3,4.67.04,3.02-.84,6.35-1.32,9.34-.98,6.21-2.17,12.39-3.57,18.52-1.52,6.68-3.28,13.3-5.28,19.85Z"/><path class="cls-3" d="M1119.29,309.82c-.1,0-.2-.01-.3-.05l-5.79-1.85c-.53-.17-.82-.73-.65-1.26.17-.53.73-.82,1.26-.65l5.79,1.85c.53.17.82.73.65,1.26-.14.43-.53.7-.95.7Z"/><path class="cls-3" d="M1206.04,301.06c-.22,0-.45-.07-.63-.23-5.71-4.69-12.01-8.66-18.7-11.81-.5-.24-.71-.83-.48-1.33.24-.5.83-.71,1.33-.48,6.84,3.21,13.27,7.28,19.12,12.07.43.35.49.98.14,1.41-.2.24-.49.37-.77.37Z"/><path class="cls-4" d="M1101.36,314.53c-.09,3.82-1.18,7.91-4.2,10.26-3.88,3.02-9.44,2.16-14.16.81-22.42-6.45-42.65-18.88-54.27-39.11-.48-.84-4.75-11.06-3-13.37,1.64-2.17,5.72,1.95,8.39,2.51,11.55,2.42,22.94,5.57,34.1,9.42,5.73,1.98,11.4,4.14,17,6.48,4.28,1.79,7.92,2.27,10.77,6.15,3.56,4.82,5.52,10.85,5.38,16.85Z"/><path class="cls-3" d="M1083,326.59c-.09,0-.18-.01-.28-.04-25.17-7.24-44.15-20.92-54.87-39.58-.06-.1-5.28-11.36-2.93-14.47.33-.44.96-.53,1.4-.19.44.33.53.96.19,1.4-1.21,1.6,2.29,10.92,3.07,12.27,10.45,18.19,29.02,31.56,53.68,38.65.53.15.84.71.68,1.24-.13.44-.53.72-.96.72Z"/><path class="cls-3" d="M1013.77,253.55h41.22c.88,0,1.71.4,2.25,1.09l33.23,42.28c1.48,1.88.14,4.63-2.25,4.63h-39.8c-.86,0-1.67-.38-2.22-1.05l-34.66-42.28c-1.53-1.87-.2-4.68,2.22-4.68Z"/><path class="cls-4" d="M1031.3,258.99c.5-.45,1.2-.9,1.79-.58.52.28.61.96.64,1.55.33,5.72-1.42,13.16.98,17.17-.07-5.12,1.26-10.42,4.58-14.32.82-.96,2.26-1.87,3.22-1.05.58.49.63,1.35.59,2.11-.28,6.43-2.86,13.07-.6,19.09.4-3.83,1.31-7.6,2.7-11.2.57-1.47,1.27-2.98,2.56-3.9,1.29-.92,3.31-.97,4.27.28,1.02,1.33.39,3.22-.17,4.8-1.63,4.57-2.32,9.48-2.01,14.32.62-3.79,1.4-7.87,4.23-10.47.83-.76,1.85-1.37,2.97-1.47,1.12-.09,2.34.44,2.82,1.45.53,1.12.09,2.43-.26,3.61-1.38,4.56-1.35,9.53,0,14.1,1,3.43,5.3,8.04.75,10.72-1.56.92-3.48.99-5.27.73-5.06-.73-9.46-3.78-13.41-7.02-4.04-3.31-7.87-6.94-10.82-11.25-2.95-4.31-4.97-9.35-5.12-14.57-.15-5.22,1.73-10.6,5.57-14.12Z"/><path class="cls-2" d="M829.63,360.11l-72.77-1.68s-40.19,387.34-46.75,446.58l-15.27,14.2c-4.83,4.49-1.13,11.78,5.99,11.78h109.82c13.88,0,25.24-9.51,25.61-21.44l9.48-178.49s16.64,95.63,117.78,175.48l-5.37,6.75c-5.98,7.5.27,17.7,10.85,17.7h15.28c18.16,0,35.75-5.65,49.28-16.06,12.12-9.31,25.78-23.05,35.27-42.16,3.96-7.98,2.48-17.2-3.7-24.06-26.13-29.04-98.94-111.51-117.17-148.87-22.33-45.76-19.45-162.82-70.98-236.91l-47.35-2.82Z"/><path class="cls-3" d="M841.87,598.52h0c-.55,0-1-.46-.99-1.01.33-45.5,3.01-91.54,7.95-136.85.05-.44.38-.8.82-.88l19.34-3.5c.55-.1,1.06.26,1.16.81.1.54-.26,1.06-.81,1.16l-18.61,3.37c-4.88,45-7.53,90.72-7.86,135.9,0,.55-.45.99-1,.99Z"/><path class="cls-3" d="M966.99,801.95c-.44,0-.85-.3-.97-.75-.14-.53.18-1.08.71-1.22,36.75-9.66,67.62-33.59,82.58-64,.24-.5.84-.7,1.34-.46.5.24.7.84.46,1.34-15.21,30.93-46.56,55.25-83.86,65.05-.08.02-.17.03-.25.03Z"/><path class="cls-3" d="M979.65,816.51c-.13,0-.27-.03-.4-.08-5.03-2.16-9.69-4.91-13.86-8.16-.44-.34-.51-.97-.17-1.4.34-.44.97-.51,1.4-.17,4.03,3.14,8.55,5.8,13.42,7.9.51.22.74.81.52,1.31-.16.38-.53.6-.92.6Z"/><path class="cls-3" d="M783.27,808.25c-18.54,0-37.07-1.05-55.46-3.15-.55-.06-.94-.56-.88-1.11.06-.55.56-.95,1.11-.88,34.35,3.92,69.22,4.16,103.65.73.56-.05,1.04.35,1.09.9.05.55-.35,1.04-.9,1.09-16.14,1.61-32.38,2.42-48.62,2.42Z"/><path class="cls-4" d="M810.63,195l-6.63-35.15s-.04-15.63,5.06-25.57c5.1-9.94,15.64-38.51-35.49-40.88l1.27-3.28s-27.36-11.39-33.53,10.28c-5.62,19.72,10.49,28.77,10.49,28.77,0,0-4.21,20.09-6.07,34.81-.9,7.08,3.59,13.74,10.5,15.53,5.15,1.33,11.19,2.19,16.14.92l1.19,12.35,37.06,2.21Z"/><path class="cls-3" d="M810.63,196s-.04,0-.06,0l-37.06-2.21c-.49-.03-.89-.41-.94-.9l-1.08-11.23c-4.18.8-9.39.4-15.5-1.17-7.37-1.9-12.2-9.05-11.25-16.62,1.66-13.07,5.19-30.56,5.94-34.21-3-2-15.45-11.56-10.34-29.52,1.62-5.69,4.79-9.7,9.44-11.94,10.54-5.09,24.83.76,25.44,1.01.5.21.74.78.55,1.28l-.77,1.99c19.32,1.1,31.72,6.16,36.88,15.05,5.55,9.58,1.17,21.16-1.94,27.21-4.74,9.23-4.94,23.75-4.95,25.02l6.62,35.06c.06.3-.03.62-.23.85-.19.22-.46.34-.75.34ZM774.48,191.84l34.93,2.09-6.39-33.89c-.01-.06-.02-.12-.02-.18,0-.65.01-15.99,5.17-26.03,2.92-5.69,7.06-16.54,1.98-25.29-4.91-8.48-17.24-13.23-36.63-14.13-.32-.01-.62-.18-.79-.45-.18-.27-.21-.61-.09-.91l.91-2.34c-3.27-1.17-14.61-4.71-22.89-.71-4.1,1.98-6.92,5.58-8.38,10.69-5.33,18.71,9.39,27.27,10.02,27.62.38.21.58.65.49,1.08-.04.2-4.22,20.22-6.06,34.73-.83,6.58,3.36,12.78,9.76,14.43,6.35,1.64,11.62,1.95,15.64.92.28-.07.58-.02.82.15s.39.43.42.72l1.11,11.5Z"/><path class="cls-3" d="M777.26,168.24c-.2,0-.4-.06-.57-.18-.25-.17-.41-.45-.43-.75-.31-4.45-.23-8.96.25-13.4.06-.55.53-.95,1.1-.89.55.06.95.55.89,1.1-.42,3.91-.52,7.87-.32,11.8,8.48-2.41,17.53-3,26.24-1.7.55.08.92.59.84,1.14-.08.55-.58.92-1.14.84-8.84-1.32-18.03-.63-26.57,1.99-.1.03-.2.04-.29.04Z"/><path class="cls-3" d="M770.41,148.59c-.12,0-.23-.02-.35-.06-.52-.19-.78-.77-.59-1.28,1.04-2.83,3.76-4.94,6.75-5.26.55-.06,1.04.34,1.1.89.06.55-.34,1.04-.89,1.1-2.26.24-4.3,1.84-5.09,3.97-.15.4-.53.65-.94.65Z"/><path class="cls-3" d="M772.38,181.43c-.52,0-.96-.4-1-.93l-1.67-22.95c-1.34-1.36-6.07-7.2-2.38-18.85,1.17-3.69,3.62-5.82,7.3-6.31,3.68-.5,7.59,1.76,9.29,5.37,1.52,3.22,1.32,7.23-.52,10.73-1.54,2.93-4.19,5.48-7.66,7.39-.48.27-1.09.09-1.36-.39-.27-.48-.09-1.09.39-1.36,3.13-1.72,5.5-3.99,6.85-6.57,1.53-2.91,1.71-6.33.48-8.95-1.32-2.79-4.42-4.61-7.21-4.24-2.92.39-4.72,1.96-5.66,4.93-3.74,11.83,1.85,16.82,2.09,17.02.2.17.33.42.35.69l1.69,23.33c.04.55-.37,1.03-.92,1.07-.02,0-.05,0-.07,0Z"/><path class="cls-3" d="M754.61,151.14c-1.81,0-3.89-.36-6.22-1.09-.53-.16-.82-.73-.66-1.25.17-.53.72-.82,1.25-.66,4.3,1.34,7.51,1.34,9.55,0,1.47-.96,2.35-2.64,2.61-4.98.35-3.19,1.03-6,2.07-8.58,3.26-8.07,4.48-13.94,3.26-15.71-1.91-2.76-8.27-1.03-11.1.06l-2.6,10.49c-.13.54-.68.86-1.21.73-.54-.13-.86-.68-.73-1.21l2.73-10.98c.08-.31.29-.56.58-.68,1.08-.46,10.69-4.3,13.98.47,1.7,2.46.67,8.39-3.06,17.6-.97,2.41-1.61,5.04-1.94,8.05-.32,2.92-1.53,5.15-3.5,6.44-1.35.88-3.03,1.32-5.03,1.32Z"/><path class="cls-3" d="M745.97,145.42c-.05,0-.11,0-.16-.01-.54-.09-.91-.6-.82-1.15l2.29-13.86c.09-.54.59-.92,1.15-.82.54.09.91.6.82,1.15l-2.29,13.86c-.08.49-.5.84-.99.84Z"/><path class="cls-3" d="M768.29,140.01s-.06,0-.09,0l-21.12-1.81c-.55-.05-.96-.53-.91-1.08.05-.55.52-.97,1.08-.91l21.12,1.81c.55.05.96.53.91,1.08-.05.52-.48.91-1,.91Z"/><path class="cls-4" d="M826.32,204.16s1.51-15.56-16.78-15.9c-22.05-.41-49.49-9.37-48.32,10.62l65.1,5.29Z"/><path class="cls-3" d="M826.32,205.16s-.05,0-.08,0l-65.1-5.29c-.5-.04-.89-.44-.92-.94-.26-4.39.83-7.79,3.23-10.08,5.61-5.37,17.55-4.13,30.18-2.81,5.3.55,10.78,1.12,15.92,1.22,6.18.12,10.88,1.93,13.96,5.39,4.39,4.93,3.82,11.34,3.8,11.61-.05.52-.48.9-.99.9ZM762.18,197.95l63.16,5.13c-.04-1.84-.47-5.91-3.33-9.12-2.7-3.02-6.9-4.6-12.49-4.7-5.23-.1-10.75-.67-16.09-1.23-12.16-1.26-23.65-2.46-28.6,2.27-1.83,1.75-2.7,4.26-2.65,7.65Z"/><path class="cls-4" d="M692.46,194.92c4.75-11.84,12.01-31.63,14.41-47.24,3.68-23.9-6.19-35.87-10.52-34.85-4.32,1.02-2.57,6.16-1.45,10.59,1.12,4.43,1.5,8.2,1.5,8.2,0,0-5.22-7.69-10.91-.59,0,0-6.16-8.27-10.64-.64,0,0-6.9-6.92-11.42,1.95-4.52,8.87,3.44,9.84,3.44,9.84,0,0-1.94,15.16-.05,22.81,0,0-11,8.43-21.73,20.31,6.9,7.97,22.8,18.56,47.36,9.61Z"/><path class="cls-3" d="M693.47,193.39c-.12,0-.25-.02-.37-.07-.51-.2-.77-.78-.57-1.3,4.88-12.41,11.15-30.21,13.35-44.49,2.83-18.35-2.56-28.92-6.18-32.27-1.18-1.09-2.34-1.63-3.11-1.45-.77.18-1.29.52-1.6,1.03-.9,1.5-.11,4.56.6,7.25l.28,1.1c1.13,4.45,1.51,8.19,1.53,8.35.05.46-.22.88-.65,1.04-.43.15-.91,0-1.17-.38-.02-.03-2.12-3.05-4.84-3.16-.05,0-.09,0-.14,0-1.47,0-2.92.88-4.33,2.63-.19.24-.48.37-.8.37-.31,0-.6-.15-.78-.4-.75-1.01-3.26-3.6-5.51-3.47-1.28.07-2.44.99-3.46,2.73-.16.27-.43.45-.74.49-.31.04-.62-.07-.83-.29-.03-.03-2.73-2.68-5.53-2.22-1.65.26-3.1,1.59-4.29,3.93-1.35,2.64-1.63,4.72-.86,6.18.99,1.86,3.51,2.21,3.53,2.21.26.03.51.17.67.38.16.21.24.48.2.74-.02.15-1.9,15.06-.07,22.45.1.39-.05.79-.36,1.03-.11.08-11.06,8.52-21.6,20.19-.37.41-1,.44-1.41.07-.41-.37-.44-1-.07-1.41,9.37-10.37,19.06-18.22,21.36-20.04-1.45-6.85-.32-18.32.06-21.64-1.16-.33-3.06-1.15-4.08-3.05-1.1-2.07-.82-4.77.84-8.03,1.5-2.95,3.44-4.63,5.77-5,2.66-.42,5.06,1.03,6.32,2,1.26-1.72,2.75-2.63,4.43-2.73,2.77-.15,5.22,2.03,6.43,3.34,1.65-1.72,3.46-2.57,5.32-2.47,1.65.07,3.08.83,4.16,1.68-.23-1.4-.57-3.17-1.05-5.05l-.28-1.08c-.84-3.23-1.71-6.56-.38-8.79.59-.98,1.55-1.64,2.85-1.94,1.46-.34,3.21.34,4.93,1.93,4.86,4.5,9.57,16.11,6.8,34.05-2.23,14.47-8.55,32.41-13.46,44.92-.15.39-.53.63-.93.63Z"/><path class="cls-3" d="M667.63,140.89c-.11,0-.22-.02-.33-.06-.52-.18-.8-.75-.61-1.27l1.38-3.95c.18-.52.75-.8,1.27-.61.52.18.8.75.61,1.27l-1.38,3.95c-.14.41-.53.67-.94.67Z"/><path class="cls-4" d="M897.25,393.96s20.25-11.19,29.79-54.57l-39.44,1.92,9.66,52.66Z"/><path class="cls-3" d="M897.25,394.96c-.15,0-.29-.03-.43-.1-.29-.14-.5-.41-.56-.72l-9.66-52.66c-.05-.28.02-.58.2-.8.18-.23.45-.36.73-.38l39.44-1.92c.33-.02.61.12.81.35.2.24.28.56.21.86-9.52,43.33-29.43,54.77-30.28,55.23-.15.08-.32.12-.48.12ZM888.78,342.25l9.18,50.04c4.39-3.18,19.75-16.5,27.81-51.84l-36.99,1.8Z"/><path class="cls-4" d="M908.63,405.74h-160.42l-31.67-146.3s-37.99-.6-69.4-3.46c-19.55-1.78-31.15-22.65-22.42-40.23,7.13-14.35,14.93-28.06,24.48-35.68,0,0,33.03-4.34,49.28.64l-4.72,17.39s101.86-4.78,155.41,4.14c53.55,8.92,90.35,63.08,77.86,137.15l-30.92,10.68,12.52,55.67Z"/><path class="cls-3" d="M908.63,406.74h-8.94c-.55,0-1-.45-1-1s.45-1,1-1h7.69l-12.25-54.45c-.11-.5.17-1,.65-1.17l30.36-10.48c6.27-37.94-.29-72.87-18.49-98.41-14.21-19.93-35.03-33.07-58.64-37-52.83-8.8-154.18-4.18-155.2-4.13-.31.03-.63-.12-.83-.37-.2-.25-.27-.58-.18-.89l4.46-16.44c-15.35-4.2-44.49-.76-47.65-.37-9.61,7.79-17.51,22.14-23.99,35.17-4.02,8.09-3.8,17.25.6,25.13,4.39,7.86,12.05,12.83,21.02,13.65,31.02,2.83,68.95,3.45,69.33,3.46.46,0,.86.33.96.79l31.49,145.51h2.92c.55,0,1,.45,1,1s-.45,1-1,1h-3.73c-.47,0-.88-.33-.98-.79l-31.5-145.53c-5.64-.11-40.08-.84-68.68-3.45-9.63-.88-17.87-6.22-22.58-14.67-4.66-8.34-4.9-18.43-.64-27,6.62-13.33,14.74-28.02,24.75-36.02.14-.11.31-.19.49-.21,1.36-.18,33.43-4.31,49.7.67.52.16.81.7.67,1.22l-4.36,16.07c12.35-.52,104.58-4.06,154.25,4.21,24.14,4.02,45.42,17.45,59.94,37.81,18.61,26.11,25.27,61.8,18.74,100.49-.06.36-.31.66-.66.78l-30.07,10.38,12.32,54.8c.07.3,0,.61-.19.84-.19.24-.48.38-.78.38Z"/><path class="cls-4" d="M880.35,284.19l-9.04-37.32,9.04,37.32Z"/><path class="cls-3" d="M880.35,285.19c-.45,0-.86-.31-.97-.76l-9.04-37.32c-.13-.54.2-1.08.74-1.21.54-.13,1.08.2,1.21.74l9.04,37.32c.13.54-.2,1.08-.74,1.21-.08.02-.16.03-.24.03Z"/><path class="cls-3" d="M737.17,268.91c-.31,0-.61-.14-.81-.41l-3.92-5.36c-1.27-1.75-2.87-2.71-4.5-2.71h-11.39c-.55,0-1-.45-1-1s.45-1,1-1h11.39c2.28,0,4.46,1.25,6.12,3.53l3.92,5.36c.33.45.23,1.07-.22,1.4-.18.13-.38.19-.59.19Z"/><path class="cls-3" d="M688.55,212.79c-.14,0-.28-.03-.42-.09-.5-.23-.72-.83-.49-1.33,2.25-4.87,5.14-13.5,5.17-13.59.17-.52.74-.81,1.26-.63.52.17.81.74.63,1.26-.12.36-2.96,8.83-5.25,13.8-.17.37-.53.58-.91.58Z"/><polygon class="cls-3" points="900.86 371.19 877.13 271.71 917.16 271.71 907.31 371.42 900.86 371.19"/><path class="cls-3" d="M907.76,371.93l-7.3-.25-.09-.37-23.88-100.1h41.21l-.05.55-9.9,100.17ZM901.26,370.71l5.6.2,9.75-98.69h-38.84l23.5,98.5Z"/><circle class="cls-4" cx="145.54" cy="587.8" r="111.2"/><path class="cls-3" d="M145.54,700c-61.87,0-112.2-50.33-112.2-112.2s50.33-112.2,112.2-112.2,112.2,50.33,112.2,112.2-50.33,112.2-112.2,112.2ZM145.54,477.6c-60.77,0-110.2,49.44-110.2,110.2s49.44,110.2,110.2,110.2,110.2-49.44,110.2-110.2-49.44-110.2-110.2-110.2Z"/><path class="cls-3" d="M145.55,667.22s-.05,0-.07,0c-51.99-3.77-64.24-29.85-64.74-30.96-.22-.5,0-1.09.5-1.32.51-.23,1.09,0,1.32.5.12.26,12.36,26.11,63.06,29.78.55.04.96.52.92,1.07-.04.53-.48.93-1,.93Z"/><path class="cls-3" d="M11.8,813.65c-.14,0-.28-.03-.41-.09-.5-.23-.72-.82-.5-1.32l63.13-138.94c.23-.5.82-.73,1.32-.5.5.23.72.82.5,1.32l-63.13,138.94c-.17.37-.53.59-.91.59Z"/><circle class="cls-3" cx="8" cy="823" r="8" transform="translate(-460.05 146) rotate(-34.1)"/><path class="cls-3" d="M279.29,811.71c-.38,0-.74-.22-.91-.59l-62.49-137.54c-.23-.5,0-1.1.5-1.32.51-.23,1.1,0,1.32.5l62.49,137.54c.23.5,0,1.1-.5,1.32-.13.06-.28.09-.41.09Z"/><circle class="cls-3" cx="283.09" cy="821.07" r="8" transform="translate(-497.67 440.66) rotate(-45)"/><path class="cls-4" d="M362.83,829.68h-127.15c-17.02,0-28.73-17.09-22.59-32.96l71.46-184.72h131.82l-71.26,184.21,22.05,23.46c3.57,3.79.88,10.01-4.33,10.01Z"/><path class="cls-3" d="M362.83,830.68h-127.15c-8.32,0-16.1-4.1-20.8-10.96-4.7-6.87-5.72-15.6-2.72-23.36l71.46-184.72c.15-.39.52-.64.93-.64h131.82c.33,0,.64.16.83.43.19.27.23.62.11.93l-71.04,183.62,21.62,23c1.93,2.05,2.43,4.93,1.31,7.51-1.12,2.58-3.56,4.19-6.37,4.19ZM285.23,613l-71.21,184.08c-2.81,7.25-1.89,15.09,2.5,21.51,4.4,6.42,11.38,10.09,19.15,10.09h127.15c2,0,3.74-1.14,4.54-2.98.79-1.84.44-3.89-.94-5.35l-22.05-23.46c-.26-.28-.34-.69-.2-1.04l70.74-182.85h-129.68Z"/><path class="cls-3" d="M344.85,797h-111.3c-.55,0-1-.45-1-1s.45-1,1-1h111.3c.55,0,1,.45,1,1s-.45,1-1,1Z"/><path class="cls-4" d="M108.01,556.35l-12.9,36.92c-9.64,27.61,11.15,56.37,40.76,56.37h184.2l81.93,165.5c4.81,9.71,14.8,15.86,25.75,15.86h133.55c3.78,0,5.35-4.77,2.3-6.96l-35.7-25.64-78.08-180.51c-16.14-37.32-53.32-61.54-94.46-61.54H108.01Z"/><path class="cls-3" d="M561.31,832h-133.55c-11.25,0-21.71-6.45-26.65-16.42l-81.66-164.95h-183.58c-14.59,0-27.76-6.76-36.13-18.56-8.2-11.54-10.23-25.81-5.57-39.14l12.9-36.92c.14-.4.52-.67.94-.67h247.36c41.61,0,79.05,24.39,95.38,62.15l77.96,180.26,35.48,25.48c1.74,1.25,2.44,3.37,1.79,5.39-.66,2.05-2.49,3.38-4.67,3.38ZM108.72,557.35l-12.66,36.25c-4.44,12.71-2.5,26.31,5.31,37.32,7.99,11.26,20.57,17.71,34.5,17.71h184.2c.38,0,.73.22.9.56l81.93,165.5c4.6,9.3,14.36,15.31,24.86,15.31h133.55c1.57,0,2.46-1.03,2.77-1.99.3-.94.19-2.27-1.05-3.16l-35.7-25.64c-.15-.11-.26-.25-.33-.42l-78.08-180.51c-16.01-37.02-52.73-60.94-93.54-60.94H108.72Z"/><path class="cls-3" d="M527.9,798.95h-111.53c-.55,0-1-.45-1-1s.45-1,1-1h111.53c.55,0,1,.45,1,1s-.45,1-1,1Z"/><polygon class="cls-4" points="301.15 431.16 299.6 411.43 252.95 401.4 185.74 536.75 267.92 533.98 301.15 431.16"/><path class="cls-2" d="M247.56,543.33l52.26-132.45s77.11,41.41,49.53,132.45h-101.79Z"/><path class="cls-3" d="M297.24,524.79c-.12,0-.25-.02-.37-.07-.51-.2-.77-.78-.56-1.3l23.92-60.64c.2-.51.78-.76,1.3-.56.51.2.77.78.56,1.3l-23.92,60.64c-.16.39-.53.63-.93.63Z"/><path class="cls-2" d="M252.95,401.4l-85.59,216.94-57.82-4.05c-13.76-.96-23.33-14.1-20.01-27.49,2.99-12.08,7.47-26.87,13.89-40.8,9.58-20.78,33.53-67.84,52.91-102.78,18.57-33.5,57.08-51.2,94.35-42.39.76.18,1.51.37,2.27.57Z"/><polygon class="cls-1" points="445.34 542.46 336.65 542.46 372.76 443.1 481.46 443.1 445.34 542.46"/><polygon class="cls-1" points="303.79 530.59 450.05 530.59 445.34 543.33 298.31 543.33 303.79 530.59"/><path class="cls-2" d="M199.88,492.91l23.1-56.55-63.18,19.95-18.7,47.7c-7.44,18.97,6.46,39.51,26.84,39.65,29.72.21,66.68.43,94.76.4,2.98-19.83,12.1-39.69,17.44-50.05-40.98-.59-80.26-1.09-80.26-1.09Z"/><path class="cls-3" d="M214.48,493.91h-14.6c-.33,0-.64-.17-.83-.44-.19-.28-.22-.63-.1-.94l23.1-56.55c.21-.51.79-.76,1.3-.55.51.21.76.79.55,1.3l-22.54,55.17h13.11c.55,0,1,.45,1,1s-.45,1-1,1Z"/><path class="cls-3" d="M257.43,545.05c-28.34,0-64.31-.22-89.5-.4-10.05-.07-19.04-4.88-24.67-13.2-5.63-8.32-6.76-18.46-3.09-27.81l18.7-47.7c.2-.52.78-.77,1.3-.57.51.2.77.78.57,1.3l-18.7,47.7c-3.42,8.73-2.37,18.19,2.89,25.96,5.26,7.77,13.65,12.26,23.03,12.32,26.78.18,65.73.43,94.75.4.55,0,1,.45,1,1,0,.55-.45,1-1,1-1.72,0-3.48,0-5.27,0Z"/><path class="cls-4" d="M340.59,495.08c-12.12-.34-35.72-.73-60.45-1.08-5.34,10.36-14.46,30.22-17.44,50.05,23.05-.02,40.11-.22,42.26-.73,6.94-1.64,6.8-9.45,6.8-9.45,10.15-1.94,4.52-10.08,4.52-10.08,15.45-8.43,1.8-14.2,1.8-14.2l23.09-3.05c2.57-.34,4.59-2.35,4.95-4.91.48-3.4-2.1-6.46-5.53-6.56Z"/><path class="cls-3" d="M185.73,494.84c-.53,0-.98-.42-1-.96-.02-.55.41-1.02.96-1.04l10.06-.39c.54-.03,1.02.41,1.04.96.02.55-.41,1.02-.96,1.04l-10.06.39s-.03,0-.04,0Z"/><path class="cls-4" d="M299.6,411.43l-5.65-1.57,4.88-30.03s-1.09-32.01-28.73-12.79l-10.58,36.87-6.61-1.69c.3,1.93.96,4.79,2.6,7.87,3.38,6.36,10.58,13.05,20.5,13.8,9.43.72,18.59-4.14,23.6-12.46Z"/><path class="cls-3" d="M277.79,424.96c-.62,0-1.25-.02-1.88-.07-10.53-.8-17.91-7.93-21.31-14.33-1.34-2.53-2.25-5.28-2.7-8.18-.05-.33.07-.67.32-.89.25-.23.59-.31.92-.23l5.67,1.45,10.32-35.94c.06-.22.2-.41.39-.54,8.71-6.06,15.84-7.77,21.17-5.1,8.54,4.28,9.11,18.09,9.13,18.68,0,.07,0,.13-.01.19l-4.73,29.15,4.79,1.33c.3.08.55.3.66.59.12.29.09.62-.07.89-4.84,8.05-13.59,13.01-22.66,13.01ZM254.16,403.58c.47,2.13,1.21,4.16,2.21,6.04,3.15,5.93,9.98,12.54,19.7,13.27,8.55.65,17.03-3.58,21.96-10.86l-4.35-1.21c-.49-.14-.8-.62-.72-1.12l4.86-29.93c-.06-1.18-.88-13.29-8.03-16.87-4.58-2.29-10.91-.69-18.84,4.76l-10.49,36.53c-.15.52-.69.83-1.21.69l-5.09-1.3Z"/><path class="cls-4" d="M275.95,369.06c.57,1.93,1.65,4.37,1.65,4.37,4,4.77,9.55,8.36,15.68,9.43s12.82-.6,17.33-4.88c3.95-3.75,5.99-9.16,6.72-14.56,1.25-9.27-1.14-18.98-6.55-26.61,0,0-21.84-11.37-25.78-9-17.24,10.38-9.08,32.48-9.08,32.48l.02,8.78Z"/><path class="cls-3" d="M296.88,384.33c-1.26,0-2.54-.11-3.8-.33-6.09-1.05-11.87-4.52-16.27-9.77-.36-.42-.3-1.05.12-1.41.42-.36,1.06-.3,1.41.12,4.1,4.88,9.46,8.11,15.08,9.08,6.05,1.04,12.37-.72,16.47-4.62,4.3-4.08,5.86-9.85,6.41-13.97,1.22-9.03-1.11-18.47-6.37-25.9-.32-.45-.21-1.08.24-1.39.45-.32,1.07-.21,1.39.24,5.55,7.84,8,17.8,6.72,27.32-.6,4.44-2.3,10.67-7.02,15.15-3.69,3.51-8.97,5.47-14.4,5.47Z"/><path class="cls-3" d="M259.63,337.9c1.88-7.46,7.14-13.5,14.05-16.87,5.23-2.55,12.18-2.4,16.92-1.59,6.06,1.03,13.72,3.22,19.65,9.84,4.16,4.65,5.76,11.2-.27,12.24-7.57,1.31-11.96-2.63-20.25-5.66-1.85-.67-4.39-.92-5.59,4.09-1.06,4.39.08,11.24-1.57,14.96-1.82,4.09-4.08,5.05-6.08,5.17-5.03-3.56-10.59-4.21-12.38,3.9-7.09-7.3-6.35-18.61-4.47-26.07Z"/><ellipse class="cls-3" cx="257.31" cy="324.12" rx="10.6" ry="9.96" transform="translate(-156.24 339.47) rotate(-53.68)"/><path class="cls-4" d="M275.91,359.96s-7.82-11.06-12.37-5.06c-4.56,6,4.94,16.54,12.6,9.87l-.22-4.8Z"/><path class="cls-3" d="M270.87,367.92c-2.5,0-4.76-1.17-6.34-2.65-2.94-2.75-4.5-7.41-1.79-10.98,1.1-1.45,2.46-2.18,4.05-2.18.03,0,.06,0,.09,0,4.72.08,9.64,6.98,9.85,7.27.11.16.17.34.18.53l.22,4.8c.01.31-.11.6-.34.8-1.98,1.73-4.02,2.4-5.92,2.4ZM266.8,354.11c-.95,0-1.75.45-2.46,1.39-2,2.63-.73,6.17,1.56,8.31,2.21,2.07,5.76,3.23,9.22.5l-.19-4.01c-1.41-1.91-5.13-6.14-8.08-6.19-.02,0-.03,0-.05,0Z"/><path class="cls-3" d="M272.36,363.05c-.27,0-.53-.11-.73-.32-1.14-1.22-2.75-2.06-4.41-2.29-.55-.08-.93-.58-.85-1.13.08-.55.58-.94,1.13-.85,2.14.29,4.12,1.32,5.6,2.9.38.4.35,1.04-.05,1.41-.19.18-.44.27-.68.27Z"/><rect class="cls-3" x="206.61" y="542.7" width="411.28" height="13.65"/><path class="cls-3" d="M646.97,810.09c-.38,0-.74-.22-.91-.58l-117.22-254.68c-.23-.5-.01-1.1.49-1.33.5-.23,1.1-.01,1.33.49l117.22,254.68c.23.5.01,1.1-.49,1.33-.14.06-.28.09-.42.09Z"/><circle class="cls-3" cx="650.91" cy="819.82" r="8.29"/><path class="cls-3" d="M164.03,812.97c-.14,0-.28-.03-.42-.09-.5-.23-.72-.82-.49-1.33l120.79-262.45c.23-.5.82-.72,1.33-.49.5.23.72.82.49,1.33l-120.79,262.45c-.17.37-.53.58-.91.58Z"/><circle class="cls-3" cx="160.09" cy="822.71" r="8.29"/></g></svg>