<svg width="61" height="60" viewBox="0 0 61 60" fill="none" xmlns="http://www.w3.org/2000/svg">
<path d="M48.1364 27.5V25C48.1364 15.5725 48.1364 10.8575 45.2064 7.93C42.2764 5.0025 37.5639 5 28.1364 5C18.7089 5 13.9939 5 11.0664 7.93C8.13894 10.86 8.13644 15.5725 8.13644 25V35C8.13644 44.4275 8.13644 49.1425 11.0664 52.07C13.9964 54.9975 18.7089 55 28.1364 55" stroke="#D23C47" stroke-width="2.5" stroke-linecap="round" stroke-linejoin="round"/>
<path d="M53.1364 55L48.8514 50.715M18.1364 17.5H38.1364M18.1364 27.5H28.1364M50.2789 43.5725C50.2984 44.7104 50.091 45.8408 49.669 46.8977C49.247 47.9547 48.6187 48.917 47.8209 49.7286C47.0231 50.5402 46.0716 51.1848 45.022 51.6248C43.9725 52.0648 42.8458 52.2914 41.7077 52.2914C40.5696 52.2914 39.4429 52.0648 38.3934 51.6248C37.3438 51.1848 36.3923 50.5402 35.5945 49.7286C34.7966 48.917 34.1684 47.9547 33.7464 46.8977C33.3244 45.8408 33.117 44.7104 33.1364 43.5725C33.1748 41.3246 34.0948 39.1818 35.698 37.6057C37.3012 36.0296 39.4595 35.1464 41.7077 35.1464C43.9559 35.1464 46.1141 36.0296 47.7174 37.6057C49.3206 39.1818 50.2406 41.3246 50.2789 43.5725Z" stroke="#191919" stroke-width="2.5" stroke-linecap="round" stroke-linejoin="round"/>
</svg>
