<svg width="61" height="60" viewBox="0 0 61 60" fill="none" xmlns="http://www.w3.org/2000/svg">
<path d="M29.4579 12.8572H16.6008C15.0852 12.8572 13.6318 13.4592 12.5601 14.5309C11.4885 15.6025 10.8865 17.0559 10.8865 18.5715V44.2857C10.8865 45.8013 11.4885 47.2547 12.5601 48.3264C13.6318 49.398 15.0852 50 16.6008 50H45.1722C46.6877 50 48.1412 49.398 49.2128 48.3264C50.2844 47.2547 50.8865 45.8013 50.8865 44.2857V31.4286" stroke="#D23C47" stroke-width="2.5" stroke-linecap="round" stroke-linejoin="round"/>
<path d="M45.1722 15.7143L47.8951 18.5715M50.8865 9.90577C51.6495 10.6927 52.0722 11.7482 52.0631 12.8443C52.054 13.9404 51.6139 14.9888 50.8379 15.7629L30.8865 35.7143L22.3151 38.5715L25.1722 30.0001L45.1351 9.86863C45.8372 9.162 46.7762 8.74056 47.7709 8.68569C48.7655 8.63081 49.7452 8.94639 50.5208 9.57148L50.8865 9.90577Z" stroke="#191919" stroke-width="2.5" stroke-linecap="round" stroke-linejoin="round"/>
</svg>
