<svg width="61" height="60" viewBox="0 0 61 60" fill="none" xmlns="http://www.w3.org/2000/svg">
<path d="M30.394 49.8425C31.7747 49.8425 32.894 48.7232 32.894 47.3425C32.894 45.9618 31.7747 44.8425 30.394 44.8425C29.0133 44.8425 27.894 45.9618 27.894 47.3425C27.894 48.7232 29.0133 49.8425 30.394 49.8425Z" fill="#D23C47"/>
<path d="M42.199 5.16248H18.574C17.0055 5.25669 15.5376 5.96595 14.489 7.1362C13.4405 8.30644 12.8961 9.84314 12.974 11.4125V48.5875C12.8961 50.1568 13.4405 51.6935 14.489 52.8638C15.5376 54.034 17.0055 54.7433 18.574 54.8375H42.199C43.7688 54.7471 45.2391 54.039 46.2884 52.8678C47.3378 51.6967 47.8808 50.1578 47.799 48.5875V11.4125C47.8808 9.84214 47.3378 8.30324 46.2884 7.13211C45.2391 5.96097 43.7688 5.25284 42.199 5.16248ZM45.299 48.5875C45.3799 49.4947 45.0998 50.3973 44.5194 51.0994C43.939 51.8014 43.1053 52.2463 42.199 52.3375H18.574C17.6692 52.2426 16.8378 51.7967 16.2582 51.0955C15.6786 50.3944 15.397 49.4939 15.474 48.5875V42.3375H45.299V48.5875ZM45.299 39.8375H15.474V11.4125C15.397 10.506 15.6786 9.60557 16.2582 8.90443C16.8378 8.20328 17.6692 7.75738 18.574 7.66248H42.199C43.1053 7.75365 43.939 8.19852 44.5194 8.90057C45.0998 9.60262 45.3799 10.5052 45.299 11.4125V39.8375Z" fill="#D23C47"/>
<path d="M30.394 33.6271C35.917 33.6271 40.394 29.1501 40.394 23.6271C40.394 18.1041 35.917 13.6271 30.394 13.6271C24.871 13.6271 20.394 18.1041 20.394 23.6271C20.394 25.4481 20.881 27.1571 21.732 28.6271L20.894 33.1271L25.394 32.2891C26.9136 33.1679 28.6385 33.6295 30.394 33.6271Z" stroke="black" stroke-width="2.5" stroke-linecap="round" stroke-linejoin="round"/>
</svg>
