<svg width="61" height="60" viewBox="0 0 61 60" fill="none" xmlns="http://www.w3.org/2000/svg">
<path d="M38.1365 22.5L31.8869 28.7496M38.1365 22.5V15L45.6365 7.5V15H53.1365L45.6365 22.5H38.1365Z" stroke="#191919" stroke-width="2.5" stroke-linecap="round" stroke-linejoin="round"/>
<path d="M31.4621 7.5H30.6365C26.1864 7.5 21.8363 8.8196 18.1362 11.2919C14.436 13.7643 11.5522 17.2783 9.8492 21.3896C8.14622 25.501 7.70065 30.025 8.56882 34.3895C9.43698 38.7541 11.5799 42.7632 14.7266 45.9099C17.8733 49.0566 21.8824 51.1995 26.247 52.0677C30.6115 52.9358 35.1355 52.4903 39.2469 50.7873C43.3582 49.0843 46.8722 46.2004 49.3445 42.5003C51.8169 38.8002 53.1365 34.4501 53.1365 30V29.1756" stroke="#D23C47" stroke-width="2.5" stroke-linecap="round" stroke-linejoin="round"/>
<path d="M42.8861 32.4996C42.4342 34.7121 41.3913 36.7609 39.8683 38.4283C38.3454 40.0957 36.3992 41.3193 34.2365 41.9693C32.0738 42.6193 29.7755 42.6713 27.5857 42.1197C25.3958 41.5682 23.3963 40.4338 21.7995 38.837C20.2027 37.2402 19.0682 35.2406 18.5167 33.0508C17.9652 30.861 18.0172 28.5626 18.6672 26.4C19.3171 24.2373 20.5408 22.2911 22.2082 20.7681C23.8756 19.2452 25.9244 18.2023 28.1369 17.7504" stroke="#D23C47" stroke-width="2.5" stroke-linecap="round" stroke-linejoin="round"/>
</svg>
