<svg width="70" height="70" viewBox="0 0 70 70" fill="none" xmlns="http://www.w3.org/2000/svg">
<path fill-rule="evenodd" clip-rule="evenodd" d="M35 47C41.6274 47 47 41.6274 47 35C47 28.3726 41.6274 23 35 23C28.3726 23 23 28.3726 23 35C23 41.6274 28.3726 47 35 47ZM35 60C48.8071 60 60 48.8071 60 35C60 21.1929 48.8071 10 35 10C21.1929 10 10 21.1929 10 35C10 48.8071 21.1929 60 35 60Z" fill="url(#paint0_linear_4480_149480)"/>
<path d="M35 23C38.3137 23 41.3137 24.3431 43.4853 26.5147C46.0237 29.0531 50.1394 29.0531 52.6778 26.5147C55.2162 23.9762 55.2162 19.8607 52.6778 17.3223C52.6659 17.3103 52.6539 17.2985 52.6419 17.2866C48.1206 12.7835 41.8854 10 35 10C21.1929 10 10 21.1929 10 35C23 35 10 35 23 35C23 28.3726 28.3726 23 35 23Z" fill="#985184"/>
<defs>
<linearGradient id="paint0_linear_4480_149480" x1="34.8253" y1="14.1288" x2="61.8068" y2="25.1823" gradientUnits="userSpaceOnUse">
<stop stop-color="#985184"/>
<stop offset="1" stop-color="#FBB945"/>
</linearGradient>
</defs>
</svg>
