<svg width="50" height="50" viewBox="0 0 50 50" fill="none" xmlns="http://www.w3.org/2000/svg">
<g clip-path="url(#clip0_7758_19753)">
<path fill-rule="evenodd" clip-rule="evenodd" d="M25 37C31.6274 37 37 31.6274 37 25C37 18.3726 31.6274 13 25 13C18.3726 13 13 18.3726 13 25C13 31.6274 18.3726 37 25 37ZM25 50C38.8071 50 50 38.8071 50 25C50 11.1929 38.8071 0 25 0C11.1929 0 0 11.1929 0 25C0 38.8071 11.1929 50 25 50Z" fill="url(#paint0_linear_7758_19753)"/>
<path d="M25 13C28.3137 13 31.3137 14.3431 33.4853 16.5147C36.0237 19.0531 40.1394 19.0531 42.6778 16.5147C45.2162 13.9762 45.2162 9.86067 42.6778 7.32226C42.6659 7.31033 42.6539 7.29845 42.6419 7.28663C38.1206 2.7835 31.8854 0 25 0C11.1929 0 0 11.1929 0 25C13 25 0 25 13 25C13 18.3726 18.3726 13 25 13Z" fill="#985184"/>
</g>
<defs>
<linearGradient id="paint0_linear_7758_19753" x1="24.8253" y1="4.1288" x2="51.8068" y2="15.1823" gradientUnits="userSpaceOnUse">
<stop stop-color="#985184"/>
<stop offset="1" stop-color="#FBB945"/>
</linearGradient>
<clipPath id="clip0_7758_19753">
<rect width="50" height="50" fill="white"/>
</clipPath>
</defs>
</svg>
