<svg width="70" height="70" viewBox="0 0 70 70" fill="none" xmlns="http://www.w3.org/2000/svg">
<path fill-rule="evenodd" clip-rule="evenodd" d="M39.7912 31.0147C44.4142 26.3284 51.9097 26.3284 56.5327 31.0147C61.1558 35.701 61.1558 43.299 56.5327 47.9853C51.9097 52.6716 44.4142 52.6716 39.7912 47.9853L35 43.1286L30.2088 47.9853C25.5858 52.6716 18.0903 52.6716 13.4673 47.9853C8.84424 43.299 8.84424 35.701 13.4673 31.0147C18.0903 26.3284 25.5858 26.3284 30.2088 31.0147L35 35.8715L39.7912 31.0147ZM31.4204 39.5L26.6292 34.6433C23.9831 31.961 19.693 31.961 17.0469 34.6433C14.4008 37.3256 14.4008 41.6744 17.0469 44.3567C19.693 47.039 23.9831 47.039 26.6292 44.3567L31.4204 39.5ZM38.5796 39.5L43.3708 44.3567C46.0169 47.039 50.307 47.039 52.9531 44.3567C55.5992 41.6744 55.5992 37.3256 52.9531 34.6433C50.307 31.961 46.0169 31.961 43.3708 34.6433L38.5796 39.5Z" fill="#088BF5"/>
<path fill-rule="evenodd" clip-rule="evenodd" d="M33.5 20.5C33.5 19.1193 34.6193 18 36 18H43.1978C44.8383 18 46.2586 19.1394 46.6145 20.7407L50.4405 37.9577C50.74 39.3055 49.8902 40.6409 48.5423 40.9405C47.1945 41.24 45.8591 40.3902 45.5595 39.0423L41.9946 23H36C34.6193 23 33.5 21.8807 33.5 20.5Z" fill="#985184"/>
<path d="M48.1163 27.5C46.4483 27.5064 44.7813 27.868 43.2354 28.5847L44.3923 33.7908C45.8511 32.7988 47.6062 32.4434 49.2773 32.7247L48.1163 27.5Z" fill="#144496"/>
<path fill-rule="evenodd" clip-rule="evenodd" d="M11.5 22.5C11.5 21.1193 12.6193 20 14 20H22C23.3807 20 24.5 21.1193 24.5 22.5C24.5 23.8807 23.3807 25 22 25H21.2019L24.4254 37.8937C24.7602 39.2332 23.9458 40.5905 22.6063 40.9254C21.2669 41.2602 19.9095 40.4458 19.5746 39.1063L16.0481 25H14C12.6193 25 11.5 23.8807 11.5 22.5Z" fill="#985184"/>
<path d="M21.8265 27.5C20.1575 27.5016 18.4888 27.8587 16.9404 28.5713L18.2202 33.6905C19.7036 32.7394 21.4719 32.429 23.1413 32.7592L21.8265 27.5Z" fill="#144496"/>
</svg>
