<svg width="50" height="50" viewBox="0 0 50 50" fill="none" xmlns="http://www.w3.org/2000/svg">
<g clip-path="url(#clip0_7758_19751)">
<path fill-rule="evenodd" clip-rule="evenodd" d="M29.7912 21.0147C34.4142 16.3284 41.9097 16.3284 46.5327 21.0147C51.1558 25.701 51.1558 33.299 46.5327 37.9853C41.9097 42.6716 34.4142 42.6716 29.7912 37.9853L25 33.1286L20.2088 37.9853C15.5858 42.6716 8.09033 42.6716 3.46728 37.9853C-1.15576 33.299 -1.15576 25.701 3.46728 21.0147C8.09033 16.3284 15.5858 16.3284 20.2088 21.0147L25 25.8715L29.7912 21.0147ZM21.4204 29.5L16.6292 24.6433C13.9831 21.961 9.69296 21.961 7.04686 24.6433C4.40076 27.3256 4.40076 31.6744 7.04686 34.3567C9.69296 37.039 13.9831 37.039 16.6292 34.3567L21.4204 29.5ZM28.5796 29.5L33.3708 34.3567C36.0169 37.039 40.307 37.039 42.9531 34.3567C45.5992 31.6744 45.5992 27.3256 42.9531 24.6433C40.307 21.961 36.0169 21.961 33.3708 24.6433L28.5796 29.5Z" fill="#088BF5"/>
<path fill-rule="evenodd" clip-rule="evenodd" d="M23.5 10.5C23.5 9.11929 24.6193 8 26 8H33.1978C34.8383 8 36.2586 9.13936 36.6145 10.7407L40.4405 27.9577C40.74 29.3055 39.8902 30.6409 38.5423 30.9405C37.1945 31.24 35.8591 30.3902 35.5595 29.0423L31.9946 13H26C24.6193 13 23.5 11.8807 23.5 10.5Z" fill="#985184"/>
<path d="M38.1163 17.5C36.4483 17.5064 34.7813 17.868 33.2354 18.5847L34.3923 23.7908C35.8511 22.7988 37.6062 22.4434 39.2773 22.7247L38.1163 17.5Z" fill="#144496"/>
<path fill-rule="evenodd" clip-rule="evenodd" d="M1.5 12.5C1.5 11.1193 2.61929 10 4 10H12C13.3807 10 14.5 11.1193 14.5 12.5C14.5 13.8807 13.3807 15 12 15H11.2019L14.4254 27.8937C14.7602 29.2332 13.9458 30.5905 12.6063 30.9254C11.2669 31.2602 9.90952 30.4458 9.57464 29.1063L6.04806 15H4C2.61929 15 1.5 13.8807 1.5 12.5Z" fill="#985184"/>
<path d="M11.8265 17.5C10.1575 17.5016 8.48881 17.8587 6.94043 18.5713L8.22021 23.6905C9.70361 22.7394 11.4719 22.429 13.1413 22.7592L11.8265 17.5Z" fill="#144496"/>
</g>
<defs>
<clipPath id="clip0_7758_19751">
<rect width="50" height="50" fill="white"/>
</clipPath>
</defs>
</svg>
