<svg width="50" height="50" viewBox="0 0 50 50" fill="none" xmlns="http://www.w3.org/2000/svg">
<g clip-path="url(#clip0_7758_19824)">
<rect width="10" height="30.7017" rx="2" transform="matrix(0.990323 0.138783 -0.130835 0.991404 12.0171 18.3555)" fill="#1AD3BB"/>
<rect width="10" height="30.7017" rx="2" transform="matrix(0.990323 0.138783 -0.130835 0.991404 12.0171 18.3555)" fill="#1AD3BB"/>
<rect width="10" height="30.915" rx="2" transform="matrix(-0.990323 0.138783 0.130835 0.991404 37.9985 18.1445)" fill="#1AD3BB"/>
<path d="M33.9613 10L30 10.5551L31.3788 21.1474C31.4511 21.6949 31.9531 22.0766 32.5 22L34.4806 21.7224C35.0276 21.6458 35.4124 21.1398 35.3401 20.5922L33.9613 10Z" fill="#FBB945"/>
<path d="M35.3398 20.5918C35.4121 21.1393 35.0274 21.646 34.4805 21.7227L32.5 22C31.9531 22.0766 31.4512 21.695 31.3789 21.1475L31.1133 19.1084L35.0742 18.5537L35.3398 20.5918Z" fill="#1A9933"/>
<path d="M16.1592 10L20.0001 10.5484L18.5072 21.4347C18.4373 21.974 17.9508 22.3499 17.4205 22.2742L15.5 22C14.9697 21.9243 14.5964 21.4257 14.6663 20.8863L16.1592 10Z" fill="#FBB945"/>
<path d="M16.1592 10L20.0001 10.5484L18.5072 21.4347C18.4373 21.974 17.9508 22.3499 17.4205 22.2742L15.5 22C14.9697 21.9243 14.5964 21.4257 14.6663 20.8863L16.1592 10Z" fill="#FBB945"/>
<path d="M18.7994 19.3057L18.5074 21.4346C18.4375 21.9739 17.9508 22.3501 17.4205 22.2744L15.5005 22C14.9703 21.9243 14.5969 21.4259 14.6666 20.8867L14.9566 18.7666L18.7994 19.3057Z" fill="#1A9933"/>
<path fill-rule="evenodd" clip-rule="evenodd" d="M25 0C29.9706 0 34 4.02944 34 9C34 13.9706 29.9706 18 25 18C20.0294 18 16 13.9706 16 9C16 4.02944 20.0294 0 25 0ZM25 4C22.2386 4 20 6.23858 20 9C20 11.7614 22.2386 14 25 14C27.7614 14 30 11.7614 30 9C30 6.23858 27.7614 4 25 4Z" fill="#F78613"/>
</g>
<defs>
<clipPath id="clip0_7758_19824">
<rect width="50" height="50" fill="white"/>
</clipPath>
</defs>
</svg>
