<svg width="50" height="50" viewBox="0 0 50 50" fill="none" xmlns="http://www.w3.org/2000/svg">
<g clip-path="url(#clip0_7758_19763)">
<circle cx="25" cy="25" r="25" fill="#FBB945"/>
<mask id="path-3-inside-1_7758_19763" fill="white">
<path d="M33.9995 13C37.3132 13 39.9994 15.6864 39.9995 19C39.9995 22.3137 37.3132 25 33.9995 25H31.6655L30.9995 37H26.9995L27.6665 25H22.3325L22.9995 37H18.9995L18.3325 25H15.9995C12.686 24.9998 9.99951 22.3136 9.99951 19C9.99959 15.6865 12.686 13.0002 15.9995 13C19.3132 13 21.9994 15.6864 21.9995 19L22.1108 21H27.8882L27.9995 19C27.9996 15.6865 30.686 13.0002 33.9995 13ZM15.9995 17C14.8952 17.0002 13.9996 17.8956 13.9995 19C13.9995 20.1044 14.8951 20.9998 15.9995 21C17.1041 21 17.9995 20.1046 17.9995 19C17.9994 17.8955 17.104 17 15.9995 17ZM33.9995 17C32.8952 17.0002 31.9996 17.8956 31.9995 19C31.9995 20.1044 32.8951 20.9998 33.9995 21C35.1041 21 35.9995 20.1046 35.9995 19C35.9994 17.8955 35.104 17 33.9995 17Z"/>
</mask>
<path d="M33.9995 13C37.3132 13 39.9994 15.6864 39.9995 19C39.9995 22.3137 37.3132 25 33.9995 25H31.6655L30.9995 37H26.9995L27.6665 25H22.3325L22.9995 37H18.9995L18.3325 25H15.9995C12.686 24.9998 9.99951 22.3136 9.99951 19C9.99959 15.6865 12.686 13.0002 15.9995 13C19.3132 13 21.9994 15.6864 21.9995 19L22.1108 21H27.8882L27.9995 19C27.9996 15.6865 30.686 13.0002 33.9995 13ZM15.9995 17C14.8952 17.0002 13.9996 17.8956 13.9995 19C13.9995 20.1044 14.8951 20.9998 15.9995 21C17.1041 21 17.9995 20.1046 17.9995 19C17.9994 17.8955 17.104 17 15.9995 17ZM33.9995 17C32.8952 17.0002 31.9996 17.8956 31.9995 19C31.9995 20.1044 32.8951 20.9998 33.9995 21C35.1041 21 35.9995 20.1046 35.9995 19C35.9994 17.8955 35.104 17 33.9995 17Z" fill="#F78613"/>
<path d="M33.9995 13V12H33.9994L33.9995 13ZM39.9995 19H40.9995V19L39.9995 19ZM31.6655 25V24H30.7195L30.6671 24.9446L31.6655 25ZM30.9995 37V38H31.9455L31.998 37.0554L30.9995 37ZM26.9995 37L26.0011 36.9445L25.9424 38H26.9995V37ZM27.6665 25L28.665 25.0555L28.7236 24H27.6665V25ZM22.3325 25V24H21.2754L21.3341 25.0555L22.3325 25ZM22.9995 37V38H24.0566L23.998 36.9445L22.9995 37ZM18.9995 37L18.0011 37.0555L18.0536 38H18.9995V37ZM18.3325 25L19.331 24.9445L19.2785 24H18.3325V25ZM15.9995 25L15.9994 26H15.9995V25ZM9.99951 19L8.99951 19V19H9.99951ZM15.9995 13V12H15.9994L15.9995 13ZM21.9995 19L20.9995 19L20.9995 19.0278L21.0011 19.0556L21.9995 19ZM22.1108 21L21.1124 21.0556L21.165 22H22.1108V21ZM27.8882 21V22H28.8341L28.8866 21.0556L27.8882 21ZM27.9995 19L28.998 19.0556L28.9995 19.0278V19L27.9995 19ZM15.9995 17V16H15.9993L15.9995 17ZM13.9995 19L12.9995 18.9999V19H13.9995ZM15.9995 21L15.9993 22H15.9995V21ZM17.9995 19H18.9995V18.9999L17.9995 19ZM33.9995 17V16H33.9993L33.9995 17ZM31.9995 19L30.9995 18.9999V19H31.9995ZM33.9995 21L33.9993 22H33.9995V21ZM35.9995 19H36.9995V18.9999L35.9995 19ZM33.9995 13V14C36.7609 14 38.9994 16.2386 38.9995 19L39.9995 19L40.9995 19C40.9994 15.1341 37.8655 12 33.9995 12V13ZM39.9995 19H38.9995C38.9995 21.7614 36.7609 24 33.9995 24V25V26C37.8655 26 40.9995 22.866 40.9995 19H39.9995ZM33.9995 25V24H31.6655V25V26H33.9995V25ZM31.6655 25L30.6671 24.9446L30.001 36.9446L30.9995 37L31.998 37.0554L32.664 25.0554L31.6655 25ZM30.9995 37V36H26.9995V37V38H30.9995V37ZM26.9995 37L27.998 37.0555L28.665 25.0555L27.6665 25L26.668 24.9445L26.0011 36.9445L26.9995 37ZM27.6665 25V24H22.3325V25V26H27.6665V25ZM22.3325 25L21.3341 25.0555L22.0011 37.0555L22.9995 37L23.998 36.9445L23.331 24.9445L22.3325 25ZM22.9995 37V36H18.9995V37V38H22.9995V37ZM18.9995 37L19.998 36.9445L19.331 24.9445L18.3325 25L17.3341 25.0555L18.0011 37.0555L18.9995 37ZM18.3325 25V24H15.9995V25V26H18.3325V25ZM15.9995 25L15.9996 24C13.2382 23.9998 10.9995 21.7612 10.9995 19H9.99951H8.99951C8.99951 22.8659 12.1338 25.9997 15.9994 26L15.9995 25ZM9.99951 19L10.9995 19C10.9996 16.2388 13.2383 14.0002 15.9996 14L15.9995 13L15.9994 12C12.1338 12.0003 8.9996 15.1342 8.99951 19L9.99951 19ZM15.9995 13V14C18.7609 14 20.9994 16.2386 20.9995 19L21.9995 19L22.9995 19C22.9994 15.1341 19.8655 12 15.9995 12V13ZM21.9995 19L21.0011 19.0556L21.1124 21.0556L22.1108 21L23.1093 20.9444L22.998 18.9444L21.9995 19ZM22.1108 21V22H27.8882V21V20H22.1108V21ZM27.8882 21L28.8866 21.0556L28.998 19.0556L27.9995 19L27.0011 18.9444L26.8897 20.9444L27.8882 21ZM27.9995 19L28.9995 19C28.9996 16.2388 31.2383 14.0002 33.9996 14L33.9995 13L33.9994 12C30.1338 12.0003 26.9996 15.1342 26.9995 19L27.9995 19ZM15.9995 17L15.9993 16C14.343 16.0003 12.9996 17.3432 12.9995 18.9999L13.9995 19L14.9995 19.0001C14.9995 18.4481 15.4474 18.0001 15.9997 18L15.9995 17ZM13.9995 19H12.9995C12.9995 20.6569 14.343 21.9997 15.9993 22L15.9995 21L15.9997 20C15.4473 19.9999 14.9995 19.5519 14.9995 19H13.9995ZM15.9995 21V22C17.6564 22 18.9995 20.6569 18.9995 19H17.9995H16.9995C16.9995 19.5523 16.5518 20 15.9995 20V21ZM17.9995 19L18.9995 18.9999C18.9994 17.3433 17.6564 16 15.9995 16V17V18C16.5517 18 16.9995 18.4477 16.9995 19.0001L17.9995 19ZM33.9995 17L33.9993 16C32.343 16.0003 30.9996 17.3432 30.9995 18.9999L31.9995 19L32.9995 19.0001C32.9995 18.4481 33.4474 18.0001 33.9997 18L33.9995 17ZM31.9995 19H30.9995C30.9995 20.6569 32.343 21.9997 33.9993 22L33.9995 21L33.9997 20C33.4473 19.9999 32.9995 19.5519 32.9995 19H31.9995ZM33.9995 21V22C35.6564 22 36.9995 20.6569 36.9995 19H35.9995H34.9995C34.9995 19.5523 34.5518 20 33.9995 20V21ZM35.9995 19L36.9995 18.9999C36.9994 17.3433 35.6564 16 33.9995 16V17V18C34.5517 18 34.9995 18.4477 34.9995 19.0001L35.9995 19Z" fill="#F78613" mask="url(#path-3-inside-1_7758_19763)"/>
</g>
<defs>
<clipPath id="clip0_7758_19763">
<rect width="50" height="50" fill="white"/>
</clipPath>
</defs>
</svg>
