<?xml version='1.0' encoding='utf-8'?>
<svg xmlns="http://www.w3.org/2000/svg" width="50px" height="50px" viewBox="10.0 10.0 50.0 50.0" fill="none">
<circle cx="35" cy="35" r="25" fill="#FBB945" />
<mask id="path-3-inside-1_7025_20178" fill="white">
<path d="M44 23C47.3137 23 50 25.6863 50 29C50 32.3137 47.3137 35 44 35H41.666L41 47H37L37.667 35H32.333L33 47H29L28.333 35H26C22.6863 35 20 32.3137 20 29C20 25.6863 22.6863 23 26 23C29.3137 23 32 25.6863 32 29L32.1113 31H37.8887L38 29C38 25.6863 40.6863 23 44 23ZM26 27C24.8954 27 24 27.8954 24 29C24 30.1046 24.8954 31 26 31C27.1046 31 28 30.1046 28 29C28 27.8954 27.1046 27 26 27ZM44 27C42.8954 27 42 27.8954 42 29C42 30.1046 42.8954 31 44 31C45.1046 31 46 30.1046 46 29C46 27.8954 45.1046 27 44 27Z" />
</mask>
<path d="M44 23C47.3137 23 50 25.6863 50 29C50 32.3137 47.3137 35 44 35H41.666L41 47H37L37.667 35H32.333L33 47H29L28.333 35H26C22.6863 35 20 32.3137 20 29C20 25.6863 22.6863 23 26 23C29.3137 23 32 25.6863 32 29L32.1113 31H37.8887L38 29C38 25.6863 40.6863 23 44 23ZM26 27C24.8954 27 24 27.8954 24 29C24 30.1046 24.8954 31 26 31C27.1046 31 28 30.1046 28 29C28 27.8954 27.1046 27 26 27ZM44 27C42.8954 27 42 27.8954 42 29C42 30.1046 42.8954 31 44 31C45.1046 31 46 30.1046 46 29C46 27.8954 45.1046 27 44 27Z" fill="#F78613" />
<path d="M41.666 35V34H40.72L40.6676 34.9446L41.666 35ZM41 47V48H41.946L41.9985 47.0554L41 47ZM37 47L36.0015 46.9445L35.9429 48H37V47ZM37.667 35L38.6655 35.0555L38.7241 34H37.667V35ZM32.333 35V34H31.2759L31.3345 35.0555L32.333 35ZM33 47V48H34.0571L33.9985 46.9445L33 47ZM29 47L28.0015 47.0555L28.054 48H29V47ZM28.333 35L29.3315 34.9445L29.279 34H28.333V35ZM32 29H31V29.0278L31.0015 29.0556L32 29ZM32.1113 31L31.1129 31.0556L31.1654 32H32.1113V31ZM37.8887 31V32H38.8346L38.8871 31.0556L37.8887 31ZM38 29L38.9985 29.0556L39 29.0278V29H38ZM44 23V24C46.7614 24 49 26.2386 49 29H50H51C51 25.134 47.866 22 44 22V23ZM50 29H49C49 31.7614 46.7614 34 44 34V35V36C47.866 36 51 32.866 51 29H50ZM44 35V34H41.666V35V36H44V35ZM41.666 35L40.6676 34.9446L40.0015 46.9446L41 47L41.9985 47.0554L42.6645 35.0554L41.666 35ZM41 47V46H37V47V48H41V47ZM37 47L37.9985 47.0555L38.6655 35.0555L37.667 35L36.6685 34.9445L36.0015 46.9445L37 47ZM37.667 35V34H32.333V35V36H37.667V35ZM32.333 35L31.3345 35.0555L32.0015 47.0555L33 47L33.9985 46.9445L33.3315 34.9445L32.333 35ZM33 47V46H29V47V48H33V47ZM29 47L29.9985 46.9445L29.3315 34.9445L28.333 35L27.3345 35.0555L28.0015 47.0555L29 47ZM28.333 35V34H26V35V36H28.333V35ZM26 35V34C23.2386 34 21 31.7614 21 29H20H19C19 32.866 22.134 36 26 36V35ZM20 29H21C21 26.2386 23.2386 24 26 24V23V22C22.134 22 19 25.134 19 29H20ZM26 23V24C28.7614 24 31 26.2386 31 29H32H33C33 25.134 29.866 22 26 22V23ZM32 29L31.0015 29.0556L31.1129 31.0556L32.1113 31L33.1098 30.9444L32.9985 28.9444L32 29ZM32.1113 31V32H37.8887V31V30H32.1113V31ZM37.8887 31L38.8871 31.0556L38.9985 29.0556L38 29L37.0015 28.9444L36.8902 30.9444L37.8887 31ZM38 29H39C39 26.2386 41.2386 24 44 24V23V22C40.134 22 37 25.134 37 29H38ZM26 27V26C24.3431 26 23 27.3431 23 29H24H25C25 28.4477 25.4477 28 26 28V27ZM24 29H23C23 30.6569 24.3431 32 26 32V31V30C25.4477 30 25 29.5523 25 29H24ZM26 31V32C27.6569 32 29 30.6569 29 29H28H27C27 29.5523 26.5523 30 26 30V31ZM28 29H29C29 27.3431 27.6569 26 26 26V27V28C26.5523 28 27 28.4477 27 29H28ZM44 27V26C42.3431 26 41 27.3431 41 29H42H43C43 28.4477 43.4477 28 44 28V27ZM42 29H41C41 30.6569 42.3431 32 44 32V31V30C43.4477 30 43 29.5523 43 29H42ZM44 31V32C45.6569 32 47 30.6569 47 29H46H45C45 29.5523 44.5523 30 44 30V31ZM46 29H47C47 27.3431 45.6569 26 44 26V27V28C44.5523 28 45 28.4477 45 29H46Z" fill="#F78613" mask="url(#path-3-inside-1_7025_20178)" />
</svg>