<svg width="70" height="70" viewBox="0 0 70 70" fill="none" xmlns="http://www.w3.org/2000/svg">
<circle cx="35" cy="35" r="25" fill="#FBB945"/>
<mask id="path-3-inside-1_4991_153155" fill="white">
<path fill-rule="evenodd" clip-rule="evenodd" d="M26.002 31C27.1056 30.9989 28 30.1039 28 29C28 27.8954 27.1046 27 26 27C24.8954 27 24 27.8954 24 29C24 30.1046 24.8954 31 26 31C26.0007 31 26.0013 31 26.002 31ZM32.1111 31L32 29C32 25.6863 29.3137 23 26 23C22.6863 23 20 25.6863 20 29C20 32.3137 22.6863 35 26 35H28.3333L29 47H33L32.3333 35L37.6667 35L37 47H41L41.6667 35L44 35C47.3137 35 50 32.3137 50 29C50 25.6863 47.3137 23 44 23C40.6863 23 38 25.6863 38 29L37.8889 31H32.1111ZM44 31C45.1046 31 46 30.1046 46 29C46 27.8954 45.1046 27 44 27C42.8954 27 42 27.8954 42 29C42 30.1046 42.8954 31 44 31Z"/>
</mask>
<path fill-rule="evenodd" clip-rule="evenodd" d="M26.002 31C27.1056 30.9989 28 30.1039 28 29C28 27.8954 27.1046 27 26 27C24.8954 27 24 27.8954 24 29C24 30.1046 24.8954 31 26 31C26.0007 31 26.0013 31 26.002 31ZM32.1111 31L32 29C32 25.6863 29.3137 23 26 23C22.6863 23 20 25.6863 20 29C20 32.3137 22.6863 35 26 35H28.3333L29 47H33L32.3333 35L37.6667 35L37 47H41L41.6667 35L44 35C47.3137 35 50 32.3137 50 29C50 25.6863 47.3137 23 44 23C40.6863 23 38 25.6863 38 29L37.8889 31H32.1111ZM44 31C45.1046 31 46 30.1046 46 29C46 27.8954 45.1046 27 44 27C42.8954 27 42 27.8954 42 29C42 30.1046 42.8954 31 44 31Z" fill="#F78613"/>
<path d="M26.002 31V32H26.0029L26.002 31ZM32 29H31V29.0278L31.0015 29.0555L32 29ZM32.1111 31L31.1126 31.0555L31.1651 32H32.1111V31ZM28.3333 35L29.3318 34.9445L29.2793 34H28.3333V35ZM29 47L28.0015 47.0555L28.054 48H29V47ZM33 47V48H34.0571L33.9985 46.9445L33 47ZM32.3333 35V34H31.2762L31.3349 35.0555L32.3333 35ZM37.6667 35L38.6651 35.0555L38.7238 34H37.6667V35ZM37 47L36.0015 46.9445L35.9429 48H37V47ZM41 47V48H41.946L41.9985 47.0555L41 47ZM41.6667 35V34H40.7207L40.6682 34.9445L41.6667 35ZM44 35V34V35ZM38 29L38.9985 29.0555L39 29.0278V29H38ZM37.8889 31V32H38.8349L38.8874 31.0555L37.8889 31ZM27 29C27 29.552 26.5528 29.9995 26.001 30L26.0029 32C27.6585 31.9984 29 30.6559 29 29H27ZM26 28C26.5523 28 27 28.4477 27 29H29C29 27.3431 27.6569 26 26 26V28ZM25 29C25 28.4477 25.4477 28 26 28V26C24.3431 26 23 27.3431 23 29H25ZM26 30C25.4477 30 25 29.5523 25 29H23C23 30.6569 24.3431 32 26 32V30ZM26.002 30C26.0012 30 26.0005 30 26.0003 30C25.9999 30 25.9999 30 26 30V32C26.0008 32 26.0014 32 26.0017 32C26.0021 32 26.0021 32 26.002 32V30ZM31.0015 29.0555L31.1126 31.0555L33.1096 30.9445L32.9985 28.9445L31.0015 29.0555ZM26 24C28.7614 24 31 26.2386 31 29H33C33 25.134 29.866 22 26 22V24ZM21 29C21 26.2386 23.2386 24 26 24V22C22.134 22 19 25.134 19 29H21ZM26 34C23.2386 34 21 31.7614 21 29H19C19 32.866 22.134 36 26 36V34ZM28.3333 34H26V36H28.3333V34ZM29.9985 46.9445L29.3318 34.9445L27.3349 35.0555L28.0015 47.0555L29.9985 46.9445ZM33 46H29V48H33V46ZM31.3349 35.0555L32.0015 47.0555L33.9985 46.9445L33.3318 34.9445L31.3349 35.0555ZM37.6667 34L32.3333 34V36L37.6667 36V34ZM36.6682 34.9445L36.0015 46.9445L37.9985 47.0555L38.6651 35.0555L36.6682 34.9445ZM37 48H41V46H37V48ZM41.9985 47.0555L42.6651 35.0555L40.6682 34.9445L40.0015 46.9445L41.9985 47.0555ZM44 34L41.6667 34V36L44 36V34ZM44 36C47.866 36 51 32.866 51 29H49C49 31.7614 46.7614 34 44 34V36ZM51 29C51 25.134 47.866 22 44 22V24C46.7614 24 49 26.2386 49 29H51ZM44 22C40.134 22 37 25.134 37 29H39C39 26.2386 41.2386 24 44 24V22ZM37.0015 28.9445L36.8904 30.9445L38.8874 31.0555L38.9985 29.0555L37.0015 28.9445ZM32.1111 32H37.8889V30H32.1111V32ZM45 29C45 29.5523 44.5523 30 44 30V32C45.6569 32 47 30.6569 47 29H45ZM44 28C44.5523 28 45 28.4477 45 29H47C47 27.3431 45.6569 26 44 26V28ZM43 29C43 28.4477 43.4477 28 44 28V26C42.3431 26 41 27.3431 41 29H43ZM44 30C43.4477 30 43 29.5523 43 29H41C41 30.6569 42.3431 32 44 32V30Z" fill="#F78613" mask="url(#path-3-inside-1_4991_153155)"/>
</svg>
