<svg width="50" height="50" viewBox="0 0 50 50" fill="none" xmlns="http://www.w3.org/2000/svg">
<path d="M41 14.5C41 20.299 36.299 25 30.5 25C24.701 25 20 20.299 20 14.5C20 8.70101 24.701 4 30.5 4C36.299 4 41 8.70101 41 14.5Z" fill="#2EBCFA"/>
<path d="M22 25C22 28.866 18.866 32 15 32C11.134 32 8 28.866 8 25C8 21.134 11.134 18 15 18C18.866 18 22 21.134 22 25Z" fill="#985184"/>
<path d="M15 32H32.1034C39.7783 32 46 38.268 46 46H28.8966C21.2217 46 15 39.732 15 32Z" fill="#2EBCFA"/>
<path d="M4 35H15C21.0751 35 26 39.9249 26 46H15C8.92487 46 4 41.0751 4 35Z" fill="#985184"/>
<path d="M15.3223 35.0078C21.1461 35.1754 25.8312 39.8667 25.9912 45.6924C20.675 44.5531 16.4837 40.3522 15.3223 35.0078Z" fill="#144496"/>
</svg>
