<svg width="70" height="70" viewBox="0 0 70 70" fill="none" xmlns="http://www.w3.org/2000/svg">
<rect x="14" y="38" width="18" height="30" rx="4" transform="rotate(-90 14 38)" fill="#FBB945"/>
<rect x="26" y="50" width="18" height="30" rx="4" transform="rotate(-90 26 50)" fill="#FBB945"/>
<path d="M44 34C44 36.2091 42.2091 38 40 38H26V36C26 33.7909 27.7909 32 30 32H44V34Z" fill="#F78613"/>
<circle cx="41" cy="50" r="6" fill="#985184"/>
<path d="M41 44C44.3137 44 47 46.6863 47 50H35C35 46.6863 37.6863 44 41 44Z" fill="#953B24"/>
<circle cx="29" cy="20" r="6" fill="#1AD3BB"/>
<path d="M35 20C35 23.3137 32.3137 26 29 26C25.6863 26 23 23.3137 23 20H35Z" fill="#005E7A"/>
</svg>
