<svg width="50" height="50" viewBox="0 0 50 50" fill="none" xmlns="http://www.w3.org/2000/svg">
<g clip-path="url(#clip0_7758_19809)">
<path d="M8 28C5.79086 28 4 26.2091 4 24L4 14C4 11.7909 5.79086 10 8 10L30 10C32.2091 10 34 11.7909 34 14V24C34 26.2091 32.2091 28 30 28L8 28Z" fill="#FBB945"/>
<path d="M20 40C17.7909 40 16 38.2091 16 36L16 26C16 23.7909 17.7909 22 20 22L42 22C44.2091 22 46 23.7909 46 26V36C46 38.2091 44.2091 40 42 40L20 40Z" fill="#FBB945"/>
<path d="M34 24C34 26.2091 32.2091 28 30 28H16V26C16 23.7909 17.7909 22 20 22H34V24Z" fill="#F78613"/>
<circle cx="31" cy="40" r="6" fill="#985184"/>
<path d="M31 34C34.3137 34 37 36.6863 37 40H25C25 36.6863 27.6863 34 31 34Z" fill="#953B24"/>
<circle cx="19" cy="10" r="6" fill="#1AD3BB"/>
<path d="M25 10C25 13.3137 22.3137 16 19 16C15.6863 16 13 13.3137 13 10H25Z" fill="#005E7A"/>
</g>
<defs>
<clipPath id="clip0_7758_19809">
<rect width="50" height="50" fill="white"/>
</clipPath>
</defs>
</svg>
