<?xml version='1.0' encoding='utf-8'?>
<svg xmlns="http://www.w3.org/2000/svg" width="50px" height="50px" viewBox="10.0 10.0 50.0 50.0" fill="none">
<circle cx="35" cy="35" r="17" fill="#985184" />
<path d="M52.5858 25.5858L44.4142 17.4142C43.1543 16.1543 44.0466 14 45.8284 14H52C54.2091 14 56 15.7909 56 18V24.1716C56 25.9534 53.8457 26.8457 52.5858 25.5858Z" fill="#1AD3BB" />
<path d="M17.4142 44.414L25.5858 52.5856C26.8457 53.8455 25.9534 55.9998 24.1716 55.9998L18 55.9998C15.7909 55.9998 14 54.2089 14 51.9998L14 45.8282C14 44.0464 16.1543 43.1541 17.4142 44.414Z" fill="#1AD3BB" />
<path d="M44.4142 52.5856L52.5858 44.414C53.8457 43.1541 56 44.0464 56 45.8282L56 51.9998C56 54.2089 54.2091 55.9998 52 55.9998H45.8284C44.0466 55.9998 43.1543 53.8455 44.4142 52.5856Z" fill="#1AD3BB" />
<path d="M25.5858 17.4142L17.4142 25.5858C16.1543 26.8457 14 25.9534 14 24.1716L14 18C14 15.7909 15.7909 14 18 14L24.1716 14C25.9534 14 26.8457 16.1543 25.5858 17.4142Z" fill="#1AD3BB" />
</svg>