<svg width="70" height="70" viewBox="0 0 70 70" fill="none" xmlns="http://www.w3.org/2000/svg">
<path d="M10 35C10 27.268 16.268 21 24 21H46C53.732 21 60 27.268 60 35H10Z" fill="#FBB945"/>
<path d="M10 37H60V42C60 44.2091 58.2091 46 56 46H14C11.7909 46 10 44.2091 10 42V37Z" fill="#1AD3BB"/>
<circle cx="20" cy="46" r="6" fill="#985184"/>
<path d="M26 46C26 42.6863 23.3137 40 20 40C16.6863 40 14 42.6863 14 46L26 46Z" fill="#005E7A"/>
<circle cx="50" cy="46" r="6" fill="#985184"/>
<path d="M44 46L56 46C56 42.6863 53.3137 40 50 40C46.6863 40 44 42.6863 44 46Z" fill="#005E7A"/>
<circle cx="35" cy="21" r="3" fill="#FBB945"/>
<path d="M35 24C36.6569 24 38 22.6569 38 21H32C32 22.6569 33.3431 24 35 24Z" fill="#F78613"/>
</svg>
