<svg width="50" height="50" viewBox="0 0 50 50" fill="none" xmlns="http://www.w3.org/2000/svg">
<g clip-path="url(#clip0_7758_19775)">
<path d="M0 25C0 17.268 6.26801 11 14 11H36C43.732 11 50 17.268 50 25H0Z" fill="#FBB945"/>
<path d="M0 27H50V32C50 34.2091 48.2091 36 46 36H4C1.79086 36 0 34.2091 0 32V27Z" fill="#1AD3BB"/>
<circle cx="10" cy="36" r="6" fill="#985184"/>
<path d="M16 36C16 32.6863 13.3137 30 10 30C6.68629 30 4 32.6863 4 36L16 36Z" fill="#005E7A"/>
<circle cx="40" cy="36" r="6" fill="#985184"/>
<path d="M34 36L46 36C46 32.6863 43.3137 30 40 30C36.6863 30 34 32.6863 34 36Z" fill="#005E7A"/>
<circle cx="25" cy="11" r="3" fill="#FBB945"/>
<path d="M25 14C26.6569 14 28 12.6569 28 11H22C22 12.6569 23.3431 14 25 14Z" fill="#F78613"/>
</g>
<defs>
<clipPath id="clip0_7758_19775">
<rect width="50" height="50" fill="white"/>
</clipPath>
</defs>
</svg>
