<svg width="70" height="70" viewBox="0 0 70 70" fill="none" xmlns="http://www.w3.org/2000/svg">
<path d="M14 35C14 30.5817 17.5817 27 22 27H48C52.4183 27 56 30.5817 56 35V52C56 54.2091 54.2091 56 52 56H18C15.7909 56 14 54.2091 14 52V35Z" fill="#1AD3BB"/>
<path d="M22 18C22 15.7909 23.7909 14 26 14H44C46.2091 14 48 15.7909 48 18V37C48 37.5523 47.5523 38 47 38H23C22.4477 38 22 37.5523 22 37V18Z" fill="#1AD3BB"/>
<path d="M48 27V41C48 43.2091 46.2091 45 44 45H26C23.7909 45 22 43.2091 22 41V27H48Z" fill="#03AF89"/>
</svg>
