<svg width="50" height="50" viewBox="0 0 50 50" fill="none" xmlns="http://www.w3.org/2000/svg">
<g clip-path="url(#clip0_7758_19737)">
<path d="M4 25C4 20.5817 7.58172 17 12 17H38C42.4183 17 46 20.5817 46 25V42C46 44.2091 44.2091 46 42 46H8C5.79086 46 4 44.2091 4 42V25Z" fill="#1AD3BB"/>
<path d="M12 8C12 5.79086 13.7909 4 16 4H34C36.2091 4 38 5.79086 38 8V27C38 27.5523 37.5523 28 37 28H13C12.4477 28 12 27.5523 12 27V8Z" fill="#1AD3BB"/>
<path d="M38 17V31C38 33.2091 36.2091 35 34 35H16C13.7909 35 12 33.2091 12 31V17H38Z" fill="#03AF89"/>
</g>
<defs>
<clipPath id="clip0_7758_19737">
<rect width="50" height="50" fill="white"/>
</clipPath>
</defs>
</svg>
