<svg width="50" height="50" viewBox="0 0 50 50" fill="none" xmlns="http://www.w3.org/2000/svg">
<g clip-path="url(#clip0_7758_19780)">
<path d="M13.0469 33C8.98438 28.5817 8.98438 21.4183 13.0469 17L25 4L36.9531 17C41.0156 21.4183 41.0156 28.5817 36.9531 33L25 46L13.0469 33Z" fill="#FC868B"/>
<path d="M25 41C25 32.1634 17.8366 25 9 25H4V30C4 38.8366 11.1634 46 20 46H25V41Z" fill="#FBB945"/>
<path d="M10 25.0312C10.0071 27.9164 11.0228 30.7992 13.0468 33.0005L24.9999 46.0005V41.0005C24.9999 32.4998 18.3707 25.5475 10 25.0312Z" fill="#F86126"/>
<path d="M41 25C32.1634 25 25 32.1634 25 41L25 46L30 46C38.8366 46 46 38.8366 46 30V25L41 25Z" fill="#FBB945"/>
<path d="M39.9999 25.0312C39.9928 27.9164 38.9772 30.7992 36.9531 33.0005L25 46.0005V41.0005C25 32.4998 31.6292 25.5475 39.9999 25.0312Z" fill="#F86126"/>
</g>
<defs>
<clipPath id="clip0_7758_19780">
<rect width="50" height="50" fill="white"/>
</clipPath>
</defs>
</svg>
