<?xml version='1.0' encoding='utf-8'?>
<svg xmlns="http://www.w3.org/2000/svg" width="50px" height="50px" viewBox="10.0 10.0 50.0 50.0" fill="none">
<path d="M23.0469 43C18.9844 38.5817 18.9844 31.4183 23.0469 27L35 14L46.9531 27C51.0156 31.4183 51.0156 38.5817 46.9531 43L35 56L23.0469 43Z" fill="#FC868B" />
<path d="M35 51C35 42.1634 27.8366 35 19 35H14V40C14 48.8366 21.1634 56 30 56H35V51Z" fill="#FBB945" />
<path d="M20 35.0312C20.0071 37.9164 21.0228 40.7992 23.0468 43.0005L34.9999 56.0005V51.0005C34.9999 42.4998 28.3707 35.5475 20 35.0312Z" fill="#F86126" />
<path d="M51 35C42.1634 35 35 42.1634 35 51L35 56L40 56C48.8366 56 56 48.8366 56 40V35L51 35Z" fill="#FBB945" />
<path d="M49.9999 35.0312C49.9928 37.9164 48.9772 40.7992 46.9531 43.0005L35 56.0005V51.0005C35 42.4998 41.6292 35.5475 49.9999 35.0312Z" fill="#F86126" />
</svg>