<svg width="50" height="50" viewBox="0 0 50 50" fill="none" xmlns="http://www.w3.org/2000/svg">
<g clip-path="url(#clip0_7758_19782)">
<path d="M25 16C25 9.37258 30.3726 4 37 4V17C37 23.6274 31.6274 29 25 29V16Z" fill="#F9464C"/>
<path d="M25 16C25 9.37258 19.6274 4 13 4V17C13 23.6274 18.3726 29 25 29V16Z" fill="#FC868B"/>
<path d="M25 46C25 34.402 34.402 25 46 25C46 36.598 36.598 46 25 46Z" fill="#03AF89"/>
<path d="M25 46C25 34.402 15.598 25 4 25C4 36.598 13.402 46 25 46Z" fill="#1AD3BB"/>
</g>
<defs>
<clipPath id="clip0_7758_19782">
<rect width="50" height="50" fill="white"/>
</clipPath>
</defs>
</svg>
