<svg width="50" height="50" viewBox="0 0 50 50" fill="none" xmlns="http://www.w3.org/2000/svg">
<g clip-path="url(#clip0_7758_19738)">
<path d="M2.31233 18.2435C2.15383 17.6121 2.63126 17 3.28223 17H31.0402C34.7083 17 37.9064 19.4945 38.7995 23.0522L44.248 44.7565C44.4065 45.3879 43.9291 46 43.2781 46H15.5201C11.8521 46 8.65396 43.5055 7.76087 39.9478L2.31233 18.2435Z" fill="#985184"/>
<circle cx="36.5" cy="15.5" r="11.5" fill="#FBB945"/>
<path d="M25.0967 17H31.0398C34.7078 17 37.9059 19.4945 38.799 23.0522L39.6784 26.5551C38.6689 26.8448 37.6024 27 36.4997 27C30.6568 27 25.8317 22.6425 25.0967 17Z" fill="#953B24"/>
</g>
<defs>
<clipPath id="clip0_7758_19738">
<rect width="50" height="50" fill="white"/>
</clipPath>
</defs>
</svg>
