<?xml version='1.0' encoding='utf-8'?>
<svg xmlns="http://www.w3.org/2000/svg" width="50px" height="50px" viewBox="10.0 10.0 50.0 50.0" fill="none">
<path d="M12.3122 28.2435C12.1537 27.6121 12.6311 27 13.2821 27H41.0401C44.7081 27 47.9062 29.4945 48.7993 33.0522L54.2478 54.7565C54.4063 55.3879 53.9289 56 53.2779 56H25.5199C21.8519 56 18.6538 53.5055 17.7607 49.9478L12.3122 28.2435Z" fill="#985184" />
<circle cx="46.5" cy="25.5" r="11.5" fill="#FBB945" />
<path d="M35.0969 27H41.04C44.7081 27 47.9062 29.4945 48.7993 33.0522L49.6786 36.5551C48.6691 36.8448 47.6027 37 46.5 37C40.6571 37 35.8319 32.6425 35.0969 27Z" fill="#953B24" />
</svg>