<?xml version='1.0' encoding='utf-8'?>
<svg xmlns="http://www.w3.org/2000/svg" width="50px" height="50px" viewBox="10.0 10.0 50.0 50.0" fill="none">
<path d="M20.236 25.7315C20.3704 24.7398 21.2171 24 22.2179 24H47.7821C48.7829 24 49.6296 24.7398 49.764 25.7315L54 57H16L20.236 25.7315Z" fill="#FBB945" />
<path fill-rule="evenodd" clip-rule="evenodd" d="M28 19.5C28 16.4624 30.4624 14 33.5 14H37.5C40.5376 14 43 16.4624 43 19.5V28.5C43 29.3284 42.3284 30 41.5 30C40.6716 30 40 29.3284 40 28.5V19.5C40 18.1193 38.8807 17 37.5 17H33.5C32.1193 17 31 18.1193 31 19.5V28.5C31 29.3284 30.3284 30 29.5 30C28.6716 30 28 29.3284 28 28.5V19.5Z" fill="#FC868B" />
<path d="M43 24H40V28.3636C40 29.2674 40.6716 30 41.5 30C42.3284 30 43 29.2674 43 28.3636V24Z" fill="#F86126" />
<path d="M31 24V28.3636C31 29.2674 30.3284 30 29.5 30C28.6716 30 28 29.2674 28 28.3636V24H31Z" fill="#F86126" />
</svg>