<svg width="50" height="50" viewBox="0 0 50 50" fill="none" xmlns="http://www.w3.org/2000/svg">
<g clip-path="url(#clip0_7758_19723)">
<path d="M27 25H43L46 46H24L27 25Z" fill="#FBB945"/>
<path d="M38.7381 27C38.6066 27 38.5 26.8934 38.5 26.7619V25.5C38.5 23.567 36.933 22 35 22C33.067 22 31.5 23.567 31.5 25.5V26.7619C31.5 26.8934 31.3934 27 31.2619 27H29.9516C29.7022 27 29.5 26.7978 29.5 26.5484V25.5C29.5 22.4624 31.9624 20 35 20C38.0376 20 40.5 22.4624 40.5 25.5V26.5484C40.5 26.7978 40.2978 27 40.0484 27H38.7381Z" fill="#FBB945"/>
<path d="M31.5361 25C31.5128 25.1633 31.5 25.3302 31.5 25.5V26.7617C31.5 26.8932 31.3932 27 31.2617 27H29.9512C29.7021 26.9998 29.5002 26.7979 29.5 26.5488V25.5C29.5 25.3314 29.5086 25.1647 29.5234 25H31.5361Z" fill="#F78613"/>
<path d="M40.4766 25C40.4914 25.1647 40.5 25.3314 40.5 25.5V26.5488C40.4998 26.7979 40.2979 26.9998 40.0488 27H38.7383C38.6068 27 38.5 26.8932 38.5 26.7617V25.5C38.5 25.3302 38.4872 25.1633 38.4639 25H40.4766Z" fill="#F78613"/>
<path d="M12.0215 4C12.0741 4.68231 12.2324 5.35313 12.4951 5.9873C12.8218 6.77592 13.2997 7.4931 13.9033 8.09668C14.5069 8.70026 15.2241 9.17823 16.0127 9.50488C16.8013 9.83154 17.6464 10 18.5 10C19.3536 10 20.1987 9.83154 20.9873 9.50488C21.7759 9.17823 22.4931 8.70026 23.0967 8.09668C23.7003 7.4931 24.1782 6.77592 24.5049 5.9873C24.7676 5.35313 24.9259 4.68231 24.9785 4H32C32.5643 4.00024 33 4.38217 33 5V12C33 12.5523 32.5523 13 32 13H27.0527V25H10V13C8.33349 13 6.66651 12.9997 5 13C4.4479 12.9999 4.00025 12.5521 4 12V5C4 4.38215 4.43564 4.0002 5 4H12.0215Z" fill="#985184"/>
<path d="M30.0654 46L27.0654 25H9.95328L7.06543 46H30.0654Z" fill="#FC868B"/>
<path d="M27 25L30 46H24L27 25Z" fill="#F86126"/>
</g>
<defs>
<clipPath id="clip0_7758_19723">
<rect width="50" height="50" fill="white"/>
</clipPath>
</defs>
</svg>
