<svg width="70" height="70" viewBox="0 0 70 70" fill="none" xmlns="http://www.w3.org/2000/svg">
<path d="M18 37.0968C18 35.5758 18.8626 34.1864 20.2258 33.5118L33.5875 26.8993C34.7298 26.334 36.0732 26.3469 37.2044 26.934L49.8427 33.4936C51.1681 34.1816 52 35.5506 52 37.0439V56C52 58.2091 50.2091 60 48 60H22C19.7909 60 18 58.2091 18 56V37.0968Z" fill="#985184"/>
<path d="M23.9893 52C21.7851 51.9942 20 50.2056 20 48L25.6921 48C28.2411 48 30.3075 49.7909 30.3075 52L23.9893 52Z" fill="#712258"/>
<path d="M21.9944 60C19.7878 59.997 18 58.2073 18 56V53L27.5 53C27.5 53 27.5 53 28 53H39.1538C43.4871 53 47 56.134 47 60H21.9944Z" fill="#712258"/>
<circle cx="39" cy="23" r="13" fill="#FBB945"/>
<path d="M33.5879 26.8991C34.7301 26.3339 36.073 26.3472 37.2041 26.9342L47.8896 32.4801C45.5645 34.6612 42.4395 35.9997 39 35.9997C34.2822 35.9997 30.1512 33.4867 27.873 29.7262L33.5879 26.8991Z" fill="#953B24"/>
</svg>
