<svg width="50" height="50" viewBox="0 0 50 50" fill="none" xmlns="http://www.w3.org/2000/svg">
<g clip-path="url(#clip0_7758_19797)">
<path d="M8 27.0969C8 25.5759 8.86263 24.1865 10.2258 23.5118L23.5875 16.8994C24.7298 16.3341 26.0732 16.347 27.2044 16.9341L39.8427 23.4937C41.1681 24.1816 42 25.5506 42 27.044V46C42 48.2092 40.2091 50 38 50H12C9.79086 50 8 48.2092 8 46V27.0969Z" fill="#985184"/>
<path d="M13.9893 42C11.7851 41.9942 10 40.2056 10 38L15.6921 38C18.2411 38 20.3075 39.7909 20.3075 42L13.9893 42Z" fill="#712258"/>
<path d="M11.9944 50C9.78784 49.997 8 48.2073 8 46V43L17.5 43C17.5 43 17.5 43 18 43H29.1538C33.4871 43 37 46.134 37 50H11.9944Z" fill="#712258"/>
<circle cx="29" cy="13" r="13" fill="#FBB945"/>
<path d="M23.5879 16.8991C24.7301 16.3339 26.073 16.3472 27.2041 16.9342L37.8896 22.4801C35.5645 24.6612 32.4395 25.9997 29 25.9997C24.2822 25.9997 20.1512 23.4867 17.873 19.7262L23.5879 16.8991Z" fill="#953B24"/>
</g>
<defs>
<clipPath id="clip0_7758_19797">
<rect width="50" height="50" fill="white"/>
</clipPath>
</defs>
</svg>
