<?xml version='1.0' encoding='utf-8'?>
<svg xmlns="http://www.w3.org/2000/svg" width="50px" height="50px" viewBox="10.0 10.0 50.0 50.0" fill="none">
<path d="M35 10.001H43.3811C44.7549 10.001 46.0326 10.706 46.7651 11.8682L48.7134 14.9595C49.5047 16.2151 49.5358 17.8056 48.7941 19.0912L43.4968 28.2731C43.497 28.2732 43.4967 28.273 43.4968 28.2731L35.0007 43.001L35 10.001Z" fill="#985184" />
<path d="M32.2275 27.1494C33.7587 25.6182 36.2413 25.6182 37.7725 27.1494L50.8516 40.2285C52.3828 41.7597 52.3828 44.2423 50.8516 45.7735L37.7725 58.8526C36.2413 60.3838 33.7587 60.3838 32.2275 58.8526L19.1484 45.7735C17.6172 44.2423 17.6172 41.7597 19.1484 40.2285L32.2275 27.1494Z" fill="#FBB945" />
<path d="M35 26.001V60H34.9121C33.9382 59.9783 32.9707 59.5958 32.2275 58.8526L19.1484 45.7735C17.6172 44.2423 17.6172 41.7597 19.1484 40.2285L32.2275 27.1494C32.9931 26.3838 33.9965 26.001 35 26.001Z" fill="#F78613" />
<path d="M35.0003 10.001H26.6192C25.2454 10.001 23.9677 10.706 23.2352 11.8682L21.2869 14.9595C20.4956 16.2151 20.4645 17.8056 21.2062 19.0912L26.5034 28.2731C26.5033 28.2732 26.5036 28.273 26.5034 28.2731L34.9996 43.001L35.0003 10.001Z" fill="#962B48" />
<path d="M41.8138 31.1907L35.0006 43.001L35.0003 26.001C36.0037 26.0011 37.007 26.3839 37.7725 27.1494L41.8138 31.1907Z" fill="#F78613" />
<path d="M35 26.001C33.9965 26.001 32.9931 26.3838 32.2275 27.1494L28.1864 31.1905L34.9996 43.001L35 26.001Z" fill="#FBB945" />
</svg>