<svg width="50" height="50" viewBox="0 0 50 50" fill="none" xmlns="http://www.w3.org/2000/svg">
<g clip-path="url(#clip0_7758_19716)">
<path d="M25.0002 0.000976562H33.3813C34.7551 0.000976562 36.0328 0.705985 36.7653 1.86822L38.7136 4.95951C39.5049 6.2151 39.536 7.80561 38.7943 9.09116L33.4971 18.2731C33.4972 18.2732 33.4969 18.273 33.4971 18.2731L25.0009 33.001L25.0002 0.000976562Z" fill="#985184"/>
<path d="M22.2275 17.1494C23.7587 15.6182 26.2413 15.6182 27.7725 17.1494L40.8516 30.2285C42.3828 31.7597 42.3828 34.2423 40.8516 35.7735L27.7725 48.8526C26.2413 50.3838 23.7587 50.3838 22.2275 48.8526L9.14842 35.7735C7.61719 34.2423 7.6172 31.7597 9.14842 30.2285L22.2275 17.1494Z" fill="#FBB945"/>
<path d="M25 16.001V50H24.9121C23.9382 49.9783 22.9707 49.5958 22.2275 48.8526L9.14842 35.7735C7.61719 34.2423 7.6172 31.7597 9.14842 30.2285L22.2275 17.1494C22.9931 16.3838 23.9965 16.001 25 16.001Z" fill="#F78613"/>
<path d="M25.0003 0.000976562H16.6192C15.2454 0.000976562 13.9677 0.705985 13.2352 1.86822L11.2869 4.95951C10.4956 6.2151 10.4645 7.80561 11.2062 9.09116L16.5034 18.2731C16.5033 18.2732 16.5036 18.273 16.5034 18.2731L24.9996 33.001L25.0003 0.000976562Z" fill="#962B48"/>
<path d="M31.8139 21.1907L25.0008 33.001L25.0005 16.001C26.0038 16.0011 27.0072 16.3839 27.7727 17.1494L31.8139 21.1907Z" fill="#F78613"/>
<path d="M25.0001 16.001C23.9966 16.001 22.9932 16.3838 22.2276 17.1494L18.1865 21.1905L24.9997 33.001L25.0001 16.001Z" fill="#FBB945"/>
</g>
<defs>
<clipPath id="clip0_7758_19716">
<rect width="50" height="50" fill="white"/>
</clipPath>
</defs>
</svg>
