<svg width="50" height="50" viewBox="0 0 50 50" fill="none" xmlns="http://www.w3.org/2000/svg">
<g clip-path="url(#clip0_7758_19717)">
<path d="M4 8C4 5.79086 5.79086 4 8 4H42C44.2091 4 46 5.79086 46 8V42C46 44.2091 44.2091 46 42 46H8C5.79086 46 4 44.2091 4 42V8Z" fill="#1AD3BB"/>
<circle cx="25" cy="25" r="13" fill="#03AF89"/>
<path d="M30.43 18.1791C31.286 17.759 32.1884 18.6614 31.7683 19.5174L25.69 31.9021C25.3879 32.5176 24.5701 32.6535 24.0852 32.1686L17.7787 25.8621C17.2939 25.3773 17.4297 24.5594 18.0452 24.2573L30.43 18.1791Z" fill="white"/>
</g>
<defs>
<clipPath id="clip0_7758_19717">
<rect width="50" height="50" fill="white"/>
</clipPath>
</defs>
</svg>
