<svg width="50" height="50" viewBox="0 0 50 50" fill="none" xmlns="http://www.w3.org/2000/svg">
<g clip-path="url(#clip0_7758_19816)">
<circle cx="25" cy="25" r="25" fill="#1AD3BB"/>
<path d="M25 0C26.6215 0 28.2067 0.156307 29.7422 0.451172C33.0281 8.10558 35 17.8667 35 28.5C35 35.848 34.0581 42.7797 32.3926 48.8877C30.0561 49.6099 27.5737 50 25 50C11.1929 50 0 38.8071 0 25C0 11.1929 11.1929 0 25 0Z" fill="#1A6F66"/>
<path d="M25 0C26.6215 0 28.2067 0.156307 29.7422 0.451172C33.0281 8.10558 35 17.8667 35 28.5C35 35.848 34.0581 42.7797 32.3926 48.8877C30.0561 49.6099 27.5737 50 25 50C22.426 50 19.9431 49.6101 17.6064 48.8877C15.941 42.7798 15 35.8479 15 28.5C15 17.8669 16.971 8.10553 20.2568 0.451172C21.7927 0.156189 23.3781 0 25 0Z" fill="#03AF89"/>
<path d="M48.3291 16C49.4072 18.7927 50 21.827 50 25C50 28.173 49.4072 31.2073 48.3291 34H1.6709C0.592786 31.2073 0 28.173 0 25C0 21.827 0.592786 18.7927 1.6709 16H48.3291Z" fill="#03AF89"/>
<path d="M34.0586 16C34.283 17.4533 34.4682 18.9375 34.6143 20.4482C34.7001 21.3371 34.7716 22.2351 34.8291 23.1416C34.8626 23.6685 34.8924 24.1981 34.916 24.7305C34.9711 25.9732 35 27.2303 35 28.5C35 29.2437 34.9878 29.983 34.9688 30.7178C34.9602 31.0462 34.9498 31.3737 34.9375 31.7002C34.9085 32.4724 34.8718 33.2392 34.8223 34H15.1777C15.0604 32.1978 15 30.3623 15 28.5C15 24.1601 15.3284 19.9655 15.9404 16H34.0586Z" fill="#1A6F66"/>
</g>
<defs>
<clipPath id="clip0_7758_19816">
<rect width="50" height="50" fill="white"/>
</clipPath>
</defs>
</svg>
