<?xml version='1.0' encoding='utf-8'?>
<svg xmlns="http://www.w3.org/2000/svg" width="50px" height="50px" viewBox="10.0 10.0 50.0 50.0" fill="none">
<circle cx="35" cy="35" r="25" fill="#1AD3BB" />
<path d="M35 10C36.6215 10 38.2067 10.1563 39.7422 10.4512C43.0281 18.1056 45 27.8667 45 38.5C45 45.848 44.0581 52.7797 42.3926 58.8877C40.0561 59.6099 37.5737 60 35 60C21.1929 60 10 48.8071 10 35C10 21.1929 21.1929 10 35 10Z" fill="#1A6F66" />
<path d="M35 10C36.6215 10 38.2067 10.1563 39.7422 10.4512C43.0281 18.1056 45 27.8667 45 38.5C45 45.848 44.0581 52.7797 42.3926 58.8877C40.0561 59.6099 37.5737 60 35 60C32.426 60 29.9431 59.6101 27.6064 58.8877C25.941 52.7798 25 45.8479 25 38.5C25 27.8669 26.971 18.1055 30.2568 10.4512C31.7927 10.1562 33.3781 10 35 10Z" fill="#03AF89" />
<path d="M58.3291 26C59.4072 28.7927 60 31.827 60 35C60 38.173 59.4072 41.2073 58.3291 44H11.6709C10.5928 41.2073 10 38.173 10 35C10 31.827 10.5928 28.7927 11.6709 26H58.3291Z" fill="#03AF89" />
<path d="M44.0586 26C44.283 27.4533 44.4682 28.9375 44.6143 30.4482C44.7001 31.3371 44.7716 32.2351 44.8291 33.1416C44.8626 33.6685 44.8924 34.1981 44.916 34.7305C44.9711 35.9732 45 37.2303 45 38.5C45 39.2437 44.9878 39.983 44.9688 40.7178C44.9602 41.0462 44.9498 41.3737 44.9375 41.7002C44.9085 42.4724 44.8718 43.2392 44.8223 44H25.1777C25.0604 42.1978 25 40.3623 25 38.5C25 34.1601 25.3284 29.9655 25.9404 26H44.0586Z" fill="#1A6F66" />
</svg>