<svg width="50" height="50" viewBox="0 0 50 50" fill="none" xmlns="http://www.w3.org/2000/svg">
<g clip-path="url(#clip0_7758_19746)">
<path d="M4 17.1235C4 15.6025 4.86263 14.2131 6.22583 13.5385L23.6828 4.89936C24.8251 4.33405 26.1684 4.34695 27.2996 4.93409L43.8427 13.5203C45.1681 14.2083 46 15.5773 46 17.0706V42C46 44.2092 44.2091 46 42 46H8C5.79086 46 4 44.2092 4 42V17.1235Z" fill="#FBB945"/>
<path d="M12 21.4L16.4274 19.1522C17.849 18.4305 19.534 18.4515 20.9371 19.2084C23.473 20.5763 26.527 20.5763 29.0629 19.2084C30.466 18.4515 32.151 18.4305 33.5726 19.1522L38 21.4V25L33.5726 22.7522C32.151 22.0305 30.466 22.0515 29.0629 22.8084C26.527 24.1763 23.473 24.1763 20.9371 22.8084C19.534 22.0515 17.849 22.0305 16.4274 22.7522L12 25V21.4Z" fill="#F78613"/>
<path d="M12 27.9143L16.4339 25.9848C17.8735 25.3584 19.5121 25.3769 20.9372 26.0358C23.5146 27.2275 26.4854 27.2275 29.0628 26.0358C30.4879 25.3769 32.1265 25.3584 33.5661 25.9848L38 27.9143V31L33.5661 29.0705C32.1265 28.4441 30.4879 28.4626 29.0628 29.1215C26.4854 30.3132 23.5146 30.3132 20.9372 29.1215C19.5121 28.4626 17.8735 28.4441 16.4339 29.0705L12 31V27.9143Z" fill="#F78613"/>
<path d="M12 34.4L16.4274 32.1522C17.849 31.4305 19.534 31.4515 20.9371 32.2084C23.473 33.5763 26.527 33.5763 29.0629 32.2084C30.466 31.4515 32.151 31.4305 33.5726 32.1522L38 34.4V38L33.5726 35.7522C32.151 35.0305 30.466 35.0515 29.0629 35.8084C26.527 37.1763 23.473 37.1763 20.9371 35.8084C19.534 35.0515 17.849 35.0305 16.4274 35.7522L12 38V34.4Z" fill="#F78613"/>
</g>
<defs>
<clipPath id="clip0_7758_19746">
<rect width="50" height="50" fill="white"/>
</clipPath>
</defs>
</svg>
