<?xml version='1.0' encoding='utf-8'?>
<svg xmlns="http://www.w3.org/2000/svg" width="50px" height="50px" viewBox="10.0 10.0 50.0 50.0" fill="none">
<path d="M14 27.1235C14 25.6025 14.8626 24.2131 16.2258 23.5385L33.6828 14.8993C34.8251 14.334 36.1684 14.3469 37.2996 14.934L53.8427 23.5203C55.1681 24.2082 56 25.5772 56 27.0706V52C56 54.2091 54.2091 56 52 56H18C15.7909 56 14 54.2091 14 52V27.1235Z" fill="#FBB945" />
<path d="M22 31.4L26.4274 29.1522C27.849 28.4305 29.534 28.4515 30.9371 29.2084C33.473 30.5763 36.527 30.5763 39.0629 29.2084C40.466 28.4515 42.151 28.4305 43.5726 29.1522L48 31.4V35L43.5726 32.7522C42.151 32.0305 40.466 32.0515 39.0629 32.8084C36.527 34.1763 33.473 34.1763 30.9371 32.8084C29.534 32.0515 27.849 32.0305 26.4274 32.7522L22 35V31.4Z" fill="#F78613" />
<path d="M22 37.9143L26.4339 35.9848C27.8735 35.3584 29.5121 35.3769 30.9372 36.0358C33.5146 37.2275 36.4854 37.2275 39.0628 36.0358C40.4879 35.3769 42.1265 35.3584 43.5661 35.9848L48 37.9143V41L43.5661 39.0705C42.1265 38.4441 40.4879 38.4626 39.0628 39.1215C36.4854 40.3132 33.5146 40.3132 30.9372 39.1215C29.5121 38.4626 27.8735 38.4441 26.4339 39.0705L22 41V37.9143Z" fill="#F78613" />
<path d="M22 44.4L26.4274 42.1522C27.849 41.4305 29.534 41.4515 30.9371 42.2084C33.473 43.5763 36.527 43.5763 39.0629 42.2084C40.466 41.4515 42.151 41.4305 43.5726 42.1522L48 44.4V48L43.5726 45.7522C42.151 45.0305 40.466 45.0515 39.0629 45.8084C36.527 47.1763 33.473 47.1763 30.9371 45.8084C29.534 45.0515 27.849 45.0305 26.4274 45.7522L22 48V44.4Z" fill="#F78613" />
</svg>