<?xml version='1.0' encoding='utf-8'?>
<svg xmlns="http://www.w3.org/2000/svg" width="50px" height="50px" viewBox="10.0 10.0 50.0 50.0" fill="none">
<path d="M19.1438 17.6669C18.4373 18.5438 18 19.6366 18 20.7362V49.2626C18 50.3836 18.4536 51.496 19.1838 52.3817C19.8865 52.9198 20.8496 53.1395 21.9048 52.9061L43.0952 47.1102C45.2517 46.6336 47 44.4627 47 42.2635V13.2127C47 11.0126 45.2517 9.61607 43.0952 10.0936L21.9048 15.8895C20.854 16.1219 19.8999 16.7567 19.198 17.6004C19.1938 17.6053 19.188 17.6122 19.1838 17.617C19.1699 17.6336 19.1577 17.6493 19.1438 17.6669Z" fill="#1AD3BB" />
<path d="M19.1838 17.6177C18.4536 18.503 18 19.6159 18 20.7365V49.2635C18 50.3841 18.4536 51.497 19.1838 52.3823C19.887 52.9238 20.8467 53.1406 21.9047 52.9065L43.0952 47.1108C45.2517 46.6336 46.9999 44.4634 46.9999 42.2635L46.9999 22.6468L21.9047 17.0935C20.8467 16.8594 19.887 17.0762 19.1838 17.6177Z" fill="#1A6F66" />
<path d="M18 20.7367C18 19.6165 18.4536 18.5033 19.1836 17.6185C19.6304 17.2738 20.1809 17.0609 20.7942 17.0111C21.1462 16.9828 21.5188 17.0081 21.9045 17.0941L48.0952 22.89C50.2517 23.3665 52 25.5374 52 27.7367V56.7874C52 58.9876 50.2517 60.3841 48.0952 59.9066L21.9048 54.1107C20.854 53.8783 19.9014 53.2455 19.1995 52.4017C19.197 52.3949 19.1919 52.389 19.1836 52.3822C18.4536 51.4974 18 50.3841 18 49.264V20.7367Z" fill="#1AD3BB" />
<path d="M19.1838 17.6177C18.4536 18.503 18 19.6159 18 20.7365V49.2635C18 50.3841 18.4536 51.497 19.1838 52.3823C19.887 52.9238 20.8467 53.1406 21.9047 52.9065L43.0952 47.1108C45.2517 46.6336 46.9999 44.4634 46.9999 42.2635L46.9999 22.6468L21.9047 17.0935C20.8467 16.8594 19.887 17.0762 19.1838 17.6177Z" fill="#03AF89" />
<path d="M34.8284 28.4251C38.0473 29.2119 40.6568 32.5361 40.6568 35.8498C40.6568 38.3954 39.1161 40.1923 36.9429 40.5328L37.6227 46.9977C37.6867 47.6057 37.2362 48.0137 36.6573 47.8721L32.9994 46.978C32.4205 46.8365 31.97 46.2084 32.0339 45.6317L32.7129 39.4988C30.5402 38.0958 29 35.5457 29 33.0004C29 29.6866 31.6095 27.6382 34.8284 28.4251Z" fill="#1A6F66" />
</svg>