<svg width="50" height="50" viewBox="0 0 50 50" fill="none" xmlns="http://www.w3.org/2000/svg">
<g clip-path="url(#clip0_7758_19806)">
<path d="M9.1438 7.66685C8.43726 8.5438 8 9.63658 8 10.7362V39.2626C8 40.3836 8.45361 41.496 9.18384 42.3817C9.88647 42.9198 10.8496 43.1395 11.9048 42.9061L33.0952 37.1102C35.2517 36.6336 37 34.4627 37 32.2635V3.21275C37 1.01255 35.2517 -0.38393 33.0952 0.0936091L11.9048 5.88951C10.854 6.12193 9.8999 6.7567 9.198 7.60045C9.19385 7.60533 9.18799 7.61216 9.18384 7.61705C9.16992 7.63365 9.15771 7.64927 9.1438 7.66685Z" fill="#1AD3BB"/>
<path d="M9.18375 7.61769C8.45362 8.50304 8 9.61593 8 10.7365V39.2635C8 40.3841 8.45363 41.497 9.18377 42.3823C9.88699 42.9238 10.8467 43.1406 11.9047 42.9065L33.0952 37.1108C35.2517 36.6336 36.9999 34.4634 36.9999 32.2635L36.9999 12.6468L11.9047 7.0935C10.8467 6.85937 9.88698 7.07623 9.18375 7.61769Z" fill="#1A6F66"/>
<path d="M8 10.7367C8 9.61655 8.45361 8.50326 9.18359 7.6185C9.63037 7.27377 10.1809 7.06088 10.7942 7.01108C11.1462 6.98276 11.5188 7.00815 11.9045 7.09409L38.0952 12.89C40.2517 13.3665 42 15.5374 42 17.7367V46.7874C42 48.9876 40.2517 50.3841 38.0952 49.9066L11.9048 44.1107C10.854 43.8783 9.90137 43.2455 9.19946 42.4017C9.19702 42.3949 9.19189 42.389 9.18359 42.3822C8.45361 41.4974 8 40.3841 8 39.264V10.7367Z" fill="#1AD3BB"/>
<path d="M9.18375 7.61769C8.45362 8.50304 8 9.61593 8 10.7365V39.2635C8 40.3841 8.45363 41.497 9.18377 42.3823C9.88699 42.9238 10.8467 43.1406 11.9047 42.9065L33.0952 37.1108C35.2517 36.6336 36.9999 34.4634 36.9999 32.2635L36.9999 12.6468L11.9047 7.0935C10.8467 6.85937 9.88698 7.07623 9.18375 7.61769Z" fill="#03AF89"/>
<path d="M24.8284 18.4251C28.0473 19.2119 30.6568 22.5361 30.6568 25.8498C30.6568 28.3954 29.1161 30.1923 26.9429 30.5328L27.6227 36.9977C27.6867 37.6057 27.2362 38.0137 26.6573 37.8721L22.9994 36.978C22.4205 36.8365 21.97 36.2084 22.0339 35.6317L22.7129 29.4988C20.5402 28.0958 19 25.5457 19 23.0004C19 19.6866 21.6095 17.6382 24.8284 18.4251Z" fill="#1A6F66"/>
</g>
<defs>
<clipPath id="clip0_7758_19806">
<rect width="50" height="50" fill="white"/>
</clipPath>
</defs>
</svg>
