<svg width="50" height="50" viewBox="0 0 50 50" fill="none" xmlns="http://www.w3.org/2000/svg">
<g clip-path="url(#clip0_7758_19764)">
<path fill-rule="evenodd" clip-rule="evenodd" d="M24 46C35.0457 46 44 37.0457 44 26C44 14.9543 35.0457 6 24 6C12.9543 6 4 14.9543 4 26C4 37.0457 12.9543 46 24 46ZM24 35.6C29.3019 35.6 33.6 31.3019 33.6 26C33.6 20.698 29.3019 16.4 24 16.4C18.6981 16.4 14.4 20.698 14.4 26C14.4 31.3019 18.6981 35.6 24 35.6Z" fill="#FBB945"/>
<circle cx="37.5" cy="12.5" r="8.5" fill="#FC868B"/>
<path d="M42.7958 19.149C41.3432 20.3075 39.5024 20.9999 37.5 20.9999C32.8056 20.9999 29 17.1943 29 12.4999C29 10.4974 29.6924 8.65672 30.8509 7.2041C36.3854 9.2219 40.778 13.6145 42.7958 19.149Z" fill="#F86126"/>
</g>
<defs>
<clipPath id="clip0_7758_19764">
<rect width="50" height="50" fill="white"/>
</clipPath>
</defs>
</svg>
