<svg width="70" height="70" viewBox="0 0 70 70" fill="none" xmlns="http://www.w3.org/2000/svg">
<path fill-rule="evenodd" clip-rule="evenodd" d="M34 56C45.0457 56 54 47.0457 54 36C54 24.9543 45.0457 16 34 16C22.9543 16 14 24.9543 14 36C14 47.0457 22.9543 56 34 56ZM34 45.6C39.3019 45.6 43.6 41.3019 43.6 36C43.6 30.698 39.3019 26.4 34 26.4C28.6981 26.4 24.4 30.698 24.4 36C24.4 41.3019 28.6981 45.6 34 45.6Z" fill="#FBB945"/>
<circle cx="47.5" cy="22.5" r="8.5" fill="#FC868B"/>
<path d="M52.7958 29.149C51.3432 30.3075 49.5024 30.9999 47.5 30.9999C42.8056 30.9999 39 27.1943 39 22.4999C39 20.4974 39.6924 18.6567 40.8509 17.2041C46.3854 19.2219 50.778 23.6145 52.7958 29.149Z" fill="#F86126"/>
</svg>
