<svg width="50" height="50" viewBox="0 0 50 50" fill="none" xmlns="http://www.w3.org/2000/svg">
<path d="M44.0071 33.9755C38.9661 39.0165 32.1289 41.8486 24.9997 41.8486C17.8705 41.8486 11.0333 39.0165 5.99222 33.9755C3.44482 31.4281 1.46151 28.422 0.122681 25.1514H49.8767C48.5379 28.422 46.5545 31.4281 44.0071 33.9755Z" fill="#FC868B"/>
<path d="M49.8782 25.1593L39.1205 14.2438C37.6859 12.7882 35.5098 12.3522 33.6252 13.1428L24.9212 16.794L16.2404 13.1525C14.3441 12.3571 12.1542 12.8037 10.721 14.2782L0.162354 25.1404L49.8782 25.1593Z" fill="#FC868B"/>
<path d="M5.99163 27.0011C11.0327 28.0578 17.8699 28.6514 24.9991 28.6514C32.1283 28.6514 38.9655 28.0578 44.0066 27.0011C46.554 26.4671 48.5373 25.837 49.8761 25.1514L0.122101 25.1514C1.46093 25.837 3.44424 26.4671 5.99163 27.0011Z" fill="#F9464C"/>
<circle cx="46.4211" cy="10.6515" r="2.5" fill="#985184"/>
</svg>
