<svg width="50" height="50" viewBox="0 0 50 50" fill="none" xmlns="http://www.w3.org/2000/svg">
<g clip-path="url(#clip0_7758_19719)">
<path d="M4 8C4 5.79086 5.79086 4 8 4H42C44.2091 4 46 5.79086 46 8V42C46 44.2091 44.2091 46 42 46H8C5.79086 46 4 44.2091 4 42V8Z" fill="#985184"/>
<circle cx="25" cy="26" r="11" fill="#712258"/>
<circle cx="25" cy="26" r="6" fill="white"/>
<path d="M32 11C32 9.89543 32.8954 9 34 9H39C40.1046 9 41 9.89543 41 11C41 12.1046 40.1046 13 39 13H34C32.8954 13 32 12.1046 32 11Z" fill="#712258"/>
</g>
<defs>
<clipPath id="clip0_7758_19719">
<rect width="50" height="50" fill="white"/>
</clipPath>
</defs>
</svg>
