<svg width="70" height="70" viewBox="0 0 70 70" fill="none" xmlns="http://www.w3.org/2000/svg">
<path d="M18 37.0968C18 35.5758 18.8626 34.1864 20.2258 33.5118L33.5875 26.8993C34.7298 26.334 36.0732 26.3469 37.2044 26.934L49.8427 33.4936C51.1681 34.1816 52 35.5506 52 37.0439V56C52 58.2091 50.2091 60 48 60H22C19.7909 60 18 58.2091 18 56V37.0968Z" fill="#FC868B"/>
<path d="M32 44.5C32 47.5376 29.5376 50 26.5 50C23.4624 50 21 47.5376 21 44.5C21 41.4624 23.4624 39 26.5 39C29.5376 39 32 41.4624 32 44.5Z" fill="#F9464C"/>
<path d="M21.9944 60C19.7878 59.997 18 58.2073 18 56V53H27.1538C31.4871 53 34.9999 56.134 34.9999 60H21.9944Z" fill="#F9464C"/>
<circle cx="39" cy="23" r="13" fill="#FBB945"/>
<path d="M27.8735 29.7271L33.5875 26.8994C34.7298 26.3341 36.0731 26.347 37.2043 26.9341L47.8934 32.482C45.5682 34.6638 42.4401 36 38.9999 36C34.2824 36 30.1518 33.4872 27.8735 29.7271Z" fill="#F86126"/>
</svg>
