<svg width="50" height="50" viewBox="0 0 50 50" fill="none" xmlns="http://www.w3.org/2000/svg">
<g clip-path="url(#clip0_7758_19774)">
<path d="M8 27.0969C8 25.5759 8.86263 24.1865 10.2258 23.5118L23.5875 16.8994C24.7298 16.3341 26.0732 16.347 27.2044 16.9341L39.8427 23.4937C41.1681 24.1816 42 25.5506 42 27.044V46C42 48.2092 40.2091 50 38 50H12C9.79086 50 8 48.2092 8 46V27.0969Z" fill="#FC868B"/>
<path d="M22 34.5C22 37.5376 19.5376 40 16.5 40C13.4624 40 11 37.5376 11 34.5C11 31.4624 13.4624 29 16.5 29C19.5376 29 22 31.4624 22 34.5Z" fill="#F9464C"/>
<path d="M11.9944 50C9.78785 49.997 8 48.2073 8 46V43H17.1538C21.4871 43 24.9999 46.134 24.9999 50H11.9944Z" fill="#F9464C"/>
<circle cx="29" cy="13" r="13" fill="#FBB945"/>
<path d="M17.8735 19.7271L23.5875 16.8994C24.7298 16.3341 26.0731 16.347 27.2043 16.9341L37.8934 22.482C35.5682 24.6638 32.4401 26 28.9999 26C24.2824 26 20.1518 23.4872 17.8735 19.7271Z" fill="#F86126"/>
</g>
<defs>
<clipPath id="clip0_7758_19774">
<rect width="50" height="50" fill="white"/>
</clipPath>
</defs>
</svg>
