<svg width="70" height="70" viewBox="0 0 70 70" fill="none" xmlns="http://www.w3.org/2000/svg">
<path fill-rule="evenodd" clip-rule="evenodd" d="M29.0007 14C26.5795 14 24.7134 16.1341 25.0364 18.5336L26.7979 31.6187C27.0651 33.6037 28.7592 35.085 30.7621 35.085H39.1752C41.1781 35.085 42.8722 33.6037 43.1394 31.6187L44.9009 18.5336C45.2239 16.1341 43.3578 14 40.9366 14H29.0007ZM31.3019 17.5C30.109 17.5 29.1814 18.5375 29.3143 19.723L30.4361 29.723C30.5497 30.7349 31.4054 31.5 32.4237 31.5H37.3729C38.3912 31.5 39.247 30.7349 39.3605 29.723L40.4823 19.723C40.6152 18.5375 39.6876 17.5 38.4947 17.5H31.3019Z" fill="#2EBCFA"/>
<path d="M51.8333 39.0833C51.8333 48.4261 44.2595 56 34.9167 56C25.5738 56 18 48.4261 18 39.0833C18 29.7405 25.5738 22.1667 34.9167 22.1667C44.2595 22.1667 51.8333 29.7405 51.8333 39.0833Z" fill="#2EBCFA"/>
<path fill-rule="evenodd" clip-rule="evenodd" d="M29.2514 31.2601C30.3105 28.8771 33.696 28.8869 34.7413 31.2761L39.0144 41.0432L40.9084 36.7817C41.3899 35.6983 42.4643 35.0001 43.6499 35.0001H54C55.1046 35.0001 56 35.8955 56 37.0001C56 38.1047 55.1046 39.0001 54 39.0001H44.2997L41.7486 44.7401C40.6895 47.1231 37.304 47.1133 36.2587 44.7241L31.9856 34.9569L30.0916 39.2185C29.6101 40.3019 28.5357 41.0001 27.3501 41.0001H16C14.8954 41.0001 14 40.1047 14 39.0001C14 37.8955 14.8954 37.0001 16 37.0001H26.7003L29.2514 31.2601Z" fill="#985184"/>
<path d="M51.8331 39.0001H44.2997L41.7486 44.7401C40.6895 47.1231 37.304 47.1133 36.2587 44.7241L31.9856 34.9569L30.0916 39.2185C29.6101 40.3019 28.5357 41.0001 27.3501 41.0001H18.1074C18.0364 40.371 18 39.7315 18 39.0834C18 38.3781 18.0432 37.6828 18.127 37.0001H26.7003L29.2514 31.2601C30.3105 28.8771 33.696 28.8869 34.7413 31.2761L39.0144 41.0432L40.9084 36.7817C41.3899 35.6983 42.4643 35.0001 43.6499 35.0001H51.3372C51.6549 36.282 51.8265 37.6215 51.8331 39.0001Z" fill="#144496"/>
</svg>
