<svg width="50" height="50" viewBox="0 0 50 50" fill="none" xmlns="http://www.w3.org/2000/svg">
<g clip-path="url(#clip0_7758_19756)">
<path fill-rule="evenodd" clip-rule="evenodd" d="M19.0007 4C16.5795 4 14.7134 6.13411 15.0364 8.53365L16.7979 21.6187C17.0651 23.6037 18.7592 25.085 20.7621 25.085H29.1752C31.1781 25.085 32.8722 23.6037 33.1394 21.6187L34.9009 8.53365C35.2239 6.13411 33.3578 4 30.9366 4H19.0007ZM21.3019 7.5C20.109 7.5 19.1814 8.53753 19.3143 9.72296L20.4361 19.723C20.5497 20.7349 21.4054 21.5 22.4237 21.5H27.3729C28.3912 21.5 29.247 20.7349 29.3605 19.723L30.4823 9.72296C30.6152 8.53753 29.6876 7.5 28.4947 7.5H21.3019Z" fill="#2EBCFA"/>
<path d="M41.8333 29.0833C41.8333 38.4261 34.2595 46 24.9167 46C15.5738 46 8 38.4261 8 29.0833C8 19.7405 15.5738 12.1667 24.9167 12.1667C34.2595 12.1667 41.8333 19.7405 41.8333 29.0833Z" fill="#2EBCFA"/>
<path fill-rule="evenodd" clip-rule="evenodd" d="M19.2514 21.2601C20.3105 18.8771 23.696 18.8869 24.7413 21.2761L29.0144 31.0432L30.9084 26.7817C31.3899 25.6983 32.4643 25.0001 33.6499 25.0001H44C45.1046 25.0001 46 25.8955 46 27.0001C46 28.1047 45.1046 29.0001 44 29.0001H34.2997L31.7486 34.7401C30.6895 37.1231 27.304 37.1133 26.2587 34.7241L21.9856 24.9569L20.0916 29.2185C19.6101 30.3019 18.5357 31.0001 17.3501 31.0001H6C4.89543 31.0001 4 30.1047 4 29.0001C4 27.8955 4.89543 27.0001 6 27.0001H16.7003L19.2514 21.2601Z" fill="#985184"/>
<path d="M41.8331 29.0001H34.2997L31.7486 34.7401C30.6895 37.1231 27.304 37.1133 26.2587 34.7241L21.9856 24.9569L20.0916 29.2185C19.6101 30.3019 18.5357 31.0001 17.3501 31.0001H8.10738C8.03644 30.371 8 29.7315 8 29.0834C8 28.3781 8.04317 27.6828 8.12701 27.0001H16.7003L19.2514 21.2601C20.3105 18.8771 23.696 18.8869 24.7413 21.2761L29.0144 31.0432L30.9084 26.7817C31.3899 25.6983 32.4643 25.0001 33.6499 25.0001H41.3372C41.6549 26.282 41.8265 27.6215 41.8331 29.0001Z" fill="#144496"/>
</g>
<defs>
<clipPath id="clip0_7758_19756">
<rect width="50" height="50" fill="white"/>
</clipPath>
</defs>
</svg>
