<svg width="50" height="50" viewBox="0 0 50 50" fill="none" xmlns="http://www.w3.org/2000/svg">
<g clip-path="url(#clip0_7758_19811)">
<path d="M4 8C4 5.79086 5.79086 4 8 4C10.2091 4 12 5.79086 12 8V19C12 21.2091 10.2091 23 8 23C5.79086 23 4 21.2091 4 19V8Z" fill="#F78613"/>
<path d="M15 8C15 5.79086 16.7909 4 19 4C21.2091 4 23 5.79086 23 8V19C23 21.2091 21.2091 23 19 23C16.7909 23 15 21.2091 15 19V8Z" fill="#F78613"/>
<path d="M27 31C27 28.7909 28.7909 27 31 27C33.2091 27 35 28.7909 35 31V42C35 44.2091 33.2091 46 31 46C28.7909 46 27 44.2091 27 42V31Z" fill="#FBB945"/>
<path d="M38 31C38 28.7909 39.7909 27 42 27C44.2091 27 46 28.7909 46 31V42C46 44.2091 44.2091 46 42 46C39.7909 46 38 44.2091 38 42V31Z" fill="#FBB945"/>
<path d="M19 27C21.2091 27 23 28.7909 23 31C23 33.2091 21.2091 35 19 35L8 35C5.79086 35 4 33.2091 4 31C4 28.7909 5.79086 27 8 27L19 27Z" fill="#985184"/>
<path d="M19 38C21.2091 38 23 39.7909 23 42C23 44.2091 21.2091 46 19 46L8 46C5.79086 46 4 44.2091 4 42C4 39.7909 5.79086 38 8 38L19 38Z" fill="#985184"/>
<path d="M42 4C44.2091 4 46 5.79086 46 8C46 10.2091 44.2091 12 42 12L31 12C28.7909 12 27 10.2091 27 8C27 5.79086 28.7909 4 31 4L42 4Z" fill="#712258"/>
<path d="M42 15C44.2091 15 46 16.7909 46 19C46 21.2091 44.2091 23 42 23L31 23C28.7909 23 27 21.2091 27 19C27 16.7909 28.7909 15 31 15L42 15Z" fill="#712258"/>
</g>
<defs>
<clipPath id="clip0_7758_19811">
<rect width="50" height="50" fill="white"/>
</clipPath>
</defs>
</svg>
