<svg width="50" height="50" viewBox="0 0 50 50" fill="none" xmlns="http://www.w3.org/2000/svg">
<g clip-path="url(#clip0_7758_19810)">
<path d="M16.0459 4.48242C24.8368 2.12691 33.8727 7.34381 36.2282 16.1347C38.5837 24.9256 33.3668 33.9615 24.576 36.317L16.0459 4.48242Z" fill="#985184"/>
<path d="M36.2705 24.623C33.915 33.4139 24.8791 38.6308 16.0882 36.2753C7.2973 33.9198 2.08039 24.8839 4.4359 16.093L36.2705 24.623Z" fill="#1AD3BB"/>
<path d="M36.2432 24.6152C35.4968 27.4258 34.0163 29.9982 31.9619 32.0557C29.9123 34.086 27.3577 35.5503 24.5684 36.291L20.2959 20.3438L36.2432 24.6152Z" fill="#005E7A"/>
<circle cx="31.479" cy="39.791" r="5.94305" transform="rotate(-45 31.479 39.791)" fill="#985184"/>
<circle cx="39.817" cy="31.3887" r="5.94008" transform="rotate(-45 39.817 31.3887)" fill="#1AD3BB"/>
</g>
<defs>
<clipPath id="clip0_7758_19810">
<rect width="50" height="50" fill="white"/>
</clipPath>
</defs>
</svg>
