<svg width="70" height="70" viewBox="0 0 70 70" fill="none" xmlns="http://www.w3.org/2000/svg">
<path d="M26.0459 14.4824C34.8368 12.1269 43.8727 17.3438 46.2282 26.1347C48.5837 34.9256 43.3668 43.9615 34.576 46.317L26.0459 14.4824Z" fill="#985184"/>
<path d="M46.2705 34.623C43.915 43.4139 34.8791 48.6308 26.0882 46.2753C17.2973 43.9198 12.0804 34.8839 14.4359 26.093L46.2705 34.623Z" fill="#1AD3BB"/>
<path d="M46.2432 34.6152C45.4968 37.4258 44.0163 39.9982 41.9619 42.0557C39.9123 44.086 37.3577 45.5503 34.5684 46.291L30.2959 30.3438L46.2432 34.6152Z" fill="#005E7A"/>
<circle cx="41.479" cy="49.791" r="5.94305" transform="rotate(-45 41.479 49.791)" fill="#985184"/>
<circle cx="49.817" cy="41.3887" r="5.94008" transform="rotate(-45 49.817 41.3887)" fill="#1AD3BB"/>
</svg>
