<svg width="50" height="50" viewBox="0 0 50 50" fill="none" xmlns="http://www.w3.org/2000/svg">
<g clip-path="url(#clip0_7758_19805)">
<path d="M42.0002 33.0001C42.0002 42.389 34.389 50.0002 25.0001 50.0002C15.6112 50.0002 8 42.389 8 33.0001C8 23.6112 15.6112 16 25.0001 16C34.389 16 42.0002 23.6112 42.0002 33.0001Z" fill="#FBB945"/>
<path d="M33.4963 18.2723L24.9996 33L16.5029 18.2724C19.0027 16.8271 21.9046 16 24.9997 16C28.0947 16 30.9966 16.8271 33.4963 18.2723Z" fill="#F78613"/>
<path d="M8 33.0001C8 42.389 15.6112 50.0002 25.0001 50.0002V16C15.6112 16 8 23.6112 8 33.0001Z" fill="#F78613"/>
<path d="M16.6192 0H25.0003L24.9996 16C21.9047 16 19.003 16.827 16.5034 18.2721L11.2062 9.09019C10.4645 7.80464 10.4956 6.21412 11.2869 4.95853L13.2352 1.86724C13.9677 0.705009 15.2454 0 16.6192 0Z" fill="#03AF89"/>
<path d="M24.9996 16C21.9045 16 19.0027 16.8271 16.5029 18.2724L24.9996 33V16Z" fill="#FBB945"/>
<path d="M25 16C28.0949 16.0001 30.9967 16.8272 33.4963 18.2723L38.7944 9.09019C39.5361 7.80464 39.505 6.21412 38.7136 4.95853L36.7653 1.86724C36.0328 0.705008 34.7552 0 33.3814 0H25V16Z" fill="#1AD3BB"/>
</g>
<defs>
<clipPath id="clip0_7758_19805">
<rect width="50" height="50" fill="white"/>
</clipPath>
</defs>
</svg>
