<svg width="50" height="50" viewBox="0 0 50 50" fill="none" xmlns="http://www.w3.org/2000/svg">
<g clip-path="url(#clip0_7758_19771)">
<path d="M7.74982 12.2028C7.74982 9.87359 9.65653 7.97852 12 7.97852C14.3435 7.97852 16.2502 9.87359 16.2502 12.2028C16.2502 13.2029 16.1699 14.1998 16.0896 15.197C16.0025 16.279 15.9154 17.3613 15.9308 18.4485C15.944 19.3859 16.0864 20.2964 16.3538 21.1959C16.7435 22.503 17.3604 23.7212 17.9804 24.9306C18.9734 26.8667 20 28.8683 20 31.3595C20 34.5025 19.1952 37.6246 18.2204 40.6227C17.956 41.4359 17.1925 41.9785 16.3374 41.9785H7.66255C6.80745 41.9785 6.04402 41.4359 5.77961 40.6227C4.80478 37.6246 4 34.5025 4 31.3595C4 28.8683 5.02659 26.8667 6.01958 24.9306C6.63964 23.7212 7.25648 22.503 7.64616 21.1959C7.9136 20.2964 8.056 19.3859 8.06924 18.4485C8.0846 17.3613 7.99746 16.279 7.91036 15.197C7.83008 14.1998 7.74982 13.2029 7.74982 12.2028Z" fill="#FBB945"/>
<path d="M33.7498 12.2028C33.7498 9.87359 35.6565 7.97852 38 7.97852C40.3435 7.97852 42.2502 9.87359 42.2502 12.2028C42.2502 13.2029 42.1699 14.1998 42.0896 15.197C42.0025 16.279 41.9154 17.3613 41.9308 18.4485C41.944 19.3859 42.0864 20.2964 42.3538 21.1959C42.7435 22.503 43.3604 23.7212 43.9804 24.9306C44.9734 26.8667 46 28.8683 46 31.3595C46 34.5025 45.1952 37.6246 44.2204 40.6227C43.956 41.4359 43.1925 41.9785 42.3374 41.9785H33.6626C32.8075 41.9785 32.044 41.4359 31.7796 40.6227C30.8048 37.6246 30 34.5025 30 31.3595C30 28.8683 31.0266 26.8667 32.0196 24.9306C32.6396 23.7212 33.2565 22.503 33.6462 21.1959C33.9136 20.2964 34.056 19.3859 34.0692 18.4485C34.0846 17.3613 33.9975 16.279 33.9104 15.197C33.8301 14.1998 33.7498 13.2029 33.7498 12.2028Z" fill="#FBB945"/>
<path d="M20.2185 9.21818C20.2185 6.34097 22.3636 4 25 4V46H19.7448C18.9889 46 18.2896 45.5771 17.9949 44.8812C16.4123 41.144 16 36.923 16 32.8824C16 30.0397 17.0943 27.4635 18.2749 24.9347C18.9546 23.4804 19.6504 21.9905 20.1019 20.3274C20.4034 19.214 20.5631 18.0866 20.5779 16.9335C20.5952 15.5914 20.4971 14.2542 20.3992 12.9174C20.3088 11.6853 20.2185 10.4534 20.2185 9.21818Z" fill="#FBB945"/>
<path d="M29.7815 9.21818C29.7815 6.34097 27.6364 4 25 4V46H30.2552C31.0111 46 31.7104 45.5771 32.0051 44.8812C33.5877 41.144 34 36.923 34 32.8824C34 30.0397 32.9057 27.4635 31.7251 24.9347C31.0454 23.4804 30.3496 21.9905 29.8981 20.3274C29.5966 19.214 29.4369 18.0866 29.4221 16.9335C29.4048 15.5914 29.5029 14.2542 29.6008 12.9174C29.6912 11.6853 29.7815 10.4534 29.7815 9.21818Z" fill="#FBB945"/>
<path d="M16.9824 41.8714C16.2254 38.9553 16 35.8694 16 32.8821C16 30.1514 17.0098 27.6665 18.1358 25.2334C19.0777 27.0762 20 28.9976 20 31.359C20 34.502 19.1952 37.6241 18.2204 40.6221C18.0251 41.2226 17.5578 41.6755 16.9824 41.8714Z" fill="#F78613"/>
<path d="M31.8642 25.2334C32.9902 27.6665 34 30.1514 34 32.8821C34 35.8694 33.7746 38.9553 33.0176 41.8714C32.4422 41.6755 31.9749 41.2226 31.7796 40.6221C30.8048 37.6241 30 34.502 30 31.359C30 28.9976 30.9223 27.0762 31.8642 25.2334Z" fill="#F78613"/>
</g>
<defs>
<clipPath id="clip0_7758_19771">
<rect width="50" height="50" fill="white"/>
</clipPath>
</defs>
</svg>
