<svg width="70" height="70" viewBox="0 0 70 70" fill="none" xmlns="http://www.w3.org/2000/svg">
<path d="M17.7498 22.2028C17.7498 19.8736 19.6565 17.9785 22 17.9785C24.3435 17.9785 26.2502 19.8736 26.2502 22.2028C26.2502 23.2029 26.1699 24.1998 26.0896 25.197C26.0025 26.279 25.9154 27.3613 25.9308 28.4485C25.944 29.3859 26.0864 30.2964 26.3538 31.1959C26.7435 32.503 27.3604 33.7212 27.9804 34.9306C28.9734 36.8667 30 38.8683 30 41.3595C30 44.5025 29.1952 47.6246 28.2204 50.6227C27.956 51.4359 27.1925 51.9785 26.3374 51.9785H17.6626C16.8075 51.9785 16.044 51.4359 15.7796 50.6227C14.8048 47.6246 14 44.5025 14 41.3595C14 38.8683 15.0266 36.8667 16.0196 34.9306C16.6396 33.7212 17.2565 32.503 17.6462 31.1959C17.9136 30.2964 18.056 29.3859 18.0692 28.4485C18.0846 27.3613 17.9975 26.279 17.9104 25.197C17.8301 24.1998 17.7498 23.2029 17.7498 22.2028Z" fill="#FBB945"/>
<path d="M43.7498 22.2028C43.7498 19.8736 45.6565 17.9785 48 17.9785C50.3435 17.9785 52.2502 19.8736 52.2502 22.2028C52.2502 23.2029 52.1699 24.1998 52.0896 25.197C52.0025 26.279 51.9154 27.3613 51.9308 28.4485C51.944 29.3859 52.0864 30.2964 52.3538 31.1959C52.7435 32.503 53.3604 33.7212 53.9804 34.9306C54.9734 36.8667 56 38.8683 56 41.3595C56 44.5025 55.1952 47.6246 54.2204 50.6227C53.956 51.4359 53.1925 51.9785 52.3374 51.9785H43.6626C42.8075 51.9785 42.044 51.4359 41.7796 50.6227C40.8048 47.6246 40 44.5025 40 41.3595C40 38.8683 41.0266 36.8667 42.0196 34.9306C42.6396 33.7212 43.2565 32.503 43.6462 31.1959C43.9136 30.2964 44.056 29.3859 44.0692 28.4485C44.0846 27.3613 43.9975 26.279 43.9104 25.197C43.8301 24.1998 43.7498 23.2029 43.7498 22.2028Z" fill="#FBB945"/>
<path d="M30.2185 19.2182C30.2185 16.341 32.3636 14 35 14V56H29.7448C28.9889 56 28.2896 55.5771 27.9949 54.8812C26.4123 51.144 26 46.923 26 42.8824C26 40.0397 27.0943 37.4635 28.2749 34.9347C28.9546 33.4804 29.6504 31.9905 30.1019 30.3274C30.4034 29.214 30.5631 28.0866 30.5779 26.9335C30.5952 25.5914 30.4971 24.2542 30.3992 22.9174C30.3088 21.6853 30.2185 20.4534 30.2185 19.2182Z" fill="#FBB945"/>
<path d="M39.7815 19.2182C39.7815 16.341 37.6364 14 35 14V56H40.2552C41.0111 56 41.7104 55.5771 42.0051 54.8812C43.5877 51.144 44 46.923 44 42.8824C44 40.0397 42.9057 37.4635 41.7251 34.9347C41.0454 33.4804 40.3496 31.9905 39.8981 30.3274C39.5966 29.214 39.4369 28.0866 39.4221 26.9335C39.4048 25.5914 39.5029 24.2542 39.6008 22.9174C39.6912 21.6853 39.7815 20.4534 39.7815 19.2182Z" fill="#FBB945"/>
<path d="M26.9824 51.8714C26.2254 48.9553 26 45.8694 26 42.8821C26 40.1514 27.0098 37.6665 28.1358 35.2334C29.0777 37.0762 30 38.9976 30 41.359C30 44.502 29.1952 47.6241 28.2204 50.6221C28.0251 51.2226 27.5578 51.6755 26.9824 51.8714Z" fill="#F78613"/>
<path d="M41.8642 35.2334C42.9902 37.6665 44 40.1514 44 42.8821C44 45.8694 43.7746 48.9553 43.0176 51.8714C42.4422 51.6755 41.9749 51.2226 41.7796 50.6221C40.8048 47.6241 40 44.502 40 41.359C40 38.9976 40.9223 37.0762 41.8642 35.2334Z" fill="#F78613"/>
</svg>
