<svg width="70" height="70" viewBox="0 0 70 70" fill="none" xmlns="http://www.w3.org/2000/svg">
<path d="M56 45.5C56 51.299 46.598 56 35 56C23.402 56 14 51.299 14 45.5C14 39.701 23.402 35 35 35C46.598 35 56 39.701 56 45.5Z" fill="#2EBCFA"/>
<path d="M52 31C52 35.4183 44.3888 39 35 39C25.6112 39 18 35.4183 18 31C18 26.5817 25.6112 23 35 23C44.3888 23 52 26.5817 52 31Z" fill="#2EBCFA"/>
<path d="M52 31C52 35.4183 44.3888 39 35 39C25.6112 39 18 35.4183 18 31C18 26.5817 25.6112 23 35 23C44.3888 23 52 26.5817 52 31Z" fill="#2EBCFA"/>
<path d="M35 35C39.3432 35 43.3787 35.6588 46.7275 36.7881C43.6769 38.1568 39.5477 39 35 39C30.4519 39 26.3222 38.157 23.2715 36.7881C26.6205 35.6586 30.6564 35 35 35Z" fill="#088BF5"/>
<path d="M47 20C47 23.3137 41.6274 26 35 26C28.3726 26 23 23.3137 23 20C23 16.6863 28.3726 14 35 14C41.6274 14 47 16.6863 47 20Z" fill="#2EBCFA"/>
<path d="M35 23C38.1808 23 41.1572 23.4125 43.7031 24.1279C41.5166 25.2796 38.4266 26 35 26C31.573 26 28.4825 25.2798 26.2959 24.1279C28.842 23.4123 31.8188 23 35 23Z" fill="#088BF5"/>
</svg>
