<svg width="50" height="50" viewBox="0 0 50 50" fill="none" xmlns="http://www.w3.org/2000/svg">
<g clip-path="url(#clip0_7758_19812)">
<path d="M46 35.5C46 41.299 36.598 46 25 46C13.402 46 4 41.299 4 35.5C4 29.701 13.402 25 25 25C36.598 25 46 29.701 46 35.5Z" fill="#2EBCFA"/>
<path d="M42 21C42 25.4183 34.3888 29 25 29C15.6112 29 8 25.4183 8 21C8 16.5817 15.6112 13 25 13C34.3888 13 42 16.5817 42 21Z" fill="#2EBCFA"/>
<path d="M42 21C42 25.4183 34.3888 29 25 29C15.6112 29 8 25.4183 8 21C8 16.5817 15.6112 13 25 13C34.3888 13 42 16.5817 42 21Z" fill="#2EBCFA"/>
<path d="M25 25C29.3432 25 33.3787 25.6588 36.7275 26.7881C33.6769 28.1568 29.5477 29 25 29C20.4519 29 16.3222 28.157 13.2715 26.7881C16.6205 25.6586 20.6564 25 25 25Z" fill="#088BF5"/>
<path d="M37 10C37 13.3137 31.6274 16 25 16C18.3726 16 13 13.3137 13 10C13 6.68629 18.3726 4 25 4C31.6274 4 37 6.68629 37 10Z" fill="#2EBCFA"/>
<path d="M25 13C28.1808 13 31.1572 13.4125 33.7031 14.1279C31.5166 15.2796 28.4266 16 25 16C21.573 16 18.4825 15.2798 16.2959 14.1279C18.842 13.4123 21.8188 13 25 13Z" fill="#088BF5"/>
</g>
<defs>
<clipPath id="clip0_7758_19812">
<rect width="50" height="50" fill="white"/>
</clipPath>
</defs>
</svg>
