<svg width="70" height="70" viewBox="0 0 70 70" fill="none" xmlns="http://www.w3.org/2000/svg">
<path d="M52 11.8421C52 11.0487 51.1205 10.5713 50.4553 11.0035L27.4553 25.944C27.1713 26.1284 27 26.444 27 26.7826V59C27 59.5523 27.4477 60 28 60H48C50.2091 60 52 58.2091 52 56V11.8421Z" fill="#985184"/>
<path d="M43 26.8421C43 26.0487 42.1205 25.5713 41.4553 26.0035L18.4553 40.944C18.1713 41.1284 18 41.444 18 41.7826V59C18 59.5523 18.4477 60 19 60H39C41.2091 60 43 58.2091 43 56V26.8421Z" fill="#2EBCFA"/>
<path d="M39 60.0004C41.2091 60.0004 43 58.2096 43 56.0004V26.8425C43 26.0492 42.1205 25.5717 41.4553 26.0039L27 35.3938V59.0004C27 59.5518 27.4462 59.9989 27.9972 60.0004L28 60.0004L39 60.0004Z" fill="#144496"/>
</svg>
