<svg width="50" height="50" viewBox="0 0 50 50" fill="none" xmlns="http://www.w3.org/2000/svg">
<g clip-path="url(#clip0_7758_19779)">
<path d="M42 1.84247C42 1.04916 41.1205 0.571717 40.4553 1.00387L17.4553 15.9444C17.1713 16.1289 17 16.4444 17 16.783V49.0004C17 49.5527 17.4477 50.0004 18 50.0004H38C40.2091 50.0004 42 48.2096 42 46.0004V1.84247Z" fill="#985184"/>
<path d="M33 16.8425C33 16.0492 32.1205 15.5717 31.4553 16.0039L8.45525 30.9444C8.17132 31.1289 8 31.4444 8 31.783V49.0004C8 49.5527 8.44772 50.0004 9 50.0004H29C31.2091 50.0004 33 48.2096 33 46.0004V16.8425Z" fill="#2EBCFA"/>
<path d="M29 50.0004C31.2091 50.0004 33 48.2096 33 46.0004V16.8425C33 16.0492 32.1205 15.5717 31.4553 16.0039L17 25.3938V49.0004C17 49.5518 17.4462 49.9989 17.9972 50.0004L18 50.0004L29 50.0004Z" fill="#144496"/>
</g>
<defs>
<clipPath id="clip0_7758_19779">
<rect width="50" height="50" fill="white"/>
</clipPath>
</defs>
</svg>
