<svg width="70" height="70" viewBox="0 0 70 70" fill="none" xmlns="http://www.w3.org/2000/svg">
<path fill-rule="evenodd" clip-rule="evenodd" d="M56 52C56 54.5 54 56 52 56H24.9996C22.9999 56 21.9999 54 21.9999 52L23.9999 14H51.9999L56 52ZM29.9999 19.9648C28.8954 19.9648 28 20.6824 27.9999 22C27.9999 23.3177 28.8953 24 29.9999 24H41.9999C43.1044 24 43.9999 23.3177 43.9999 22C43.9998 20.6824 43.1044 20 41.9999 20L29.9999 19.9648Z" fill="#FBB945"/>
<path d="M56 52C56 54.5 54 56 52 56H48L49 14H52L56 52Z" fill="#F78613"/>
<path d="M15 47H40L38.59 41.5248C38.0557 39.4502 36.185 38.0002 34.0427 38.0002H20.9572C18.8148 38.0002 16.9441 39.4502 16.4099 41.5249L15 47Z" fill="#985184"/>
<path d="M15 47H40L39.1625 52.5926C38.8692 54.5511 37.1869 56.0002 35.2066 56.0002H19.7934C17.8131 56.0002 16.1308 54.5511 15.8375 52.5926L15 47Z" fill="#985184"/>
<rect x="14" y="45" width="27" height="4" rx="1.17391" fill="#712258"/>
</svg>
