<svg width="50" height="50" viewBox="0 0 50 50" fill="none" xmlns="http://www.w3.org/2000/svg">
<g clip-path="url(#clip0_7758_19788)">
<path fill-rule="evenodd" clip-rule="evenodd" d="M46.0001 42C46.0001 44.5 44.0001 46 42.0001 46H14.9997C13 46 12 44 12 42L14 4H42L46.0001 42ZM20 9.96484C18.8955 9.96484 18.0001 10.6824 18 12C18 13.3177 18.8954 14 20 14H32C33.1046 14 34 13.3177 34 12C33.9999 10.6824 33.1045 10 32 10L20 9.96484Z" fill="#FBB945"/>
<path d="M46 42C46 44.5 44 46 42 46H38L39 4H42L46 42Z" fill="#F78613"/>
<path d="M5 36.9998H30L28.59 31.5246C28.0557 29.45 26.185 28 24.0427 28H10.9572C8.81482 28 6.94411 29.45 6.40987 31.5247L5 36.9998Z" fill="#985184"/>
<path d="M5 37H30L29.1625 42.5926C28.8692 44.5511 27.1869 46.0002 25.2066 46.0002H9.79341C7.81306 46.0002 6.13082 44.5511 5.83752 42.5926L5 37Z" fill="#985184"/>
<path d="M4 36.1739C4 35.5256 4.52558 35 5.17391 35H29.8261C30.4744 35 31 35.5256 31 36.1739V37.8261C31 38.4744 30.4744 39 29.8261 39H5.17391C4.52558 39 4 38.4744 4 37.8261V36.1739Z" fill="#712258"/>
</g>
<defs>
<clipPath id="clip0_7758_19788">
<rect width="50" height="50" fill="white"/>
</clipPath>
</defs>
</svg>
