<?xml version='1.0' encoding='utf-8'?>
<svg xmlns="http://www.w3.org/2000/svg" width="50px" height="50px" viewBox="10.0 10.0 50.0 50.0" fill="none">
<path fill-rule="evenodd" clip-rule="evenodd" d="M46.4121 31.1282C48.7404 31.569 51.256 30.9036 53.0717 29.1361C55.96 26.3245 55.9837 21.7891 53.1245 19.006C50.2654 16.2228 45.6061 16.2459 42.7177 19.0574C40.902 20.8249 40.2184 23.2735 40.6713 25.5399L23.9616 41.8053C21.6334 41.3644 19.1178 42.0299 17.3021 43.7973C14.4138 46.6089 14.3901 51.1443 17.2492 53.9275C20.1084 56.7106 24.7677 56.6876 27.6561 53.876C29.4718 52.1086 30.1554 49.6599 29.7025 47.3936L46.4121 31.1282ZM24.6978 50.9964C23.4599 52.2014 21.4631 52.2113 20.2377 51.0185C19.0124 49.8257 19.0225 47.8819 20.2604 46.677C21.4983 45.472 23.4951 45.4622 24.7204 46.6549C25.9458 47.8477 25.9357 49.7915 24.6978 50.9964ZM45.6533 26.2786C46.8787 27.4713 48.8755 27.4615 50.1134 26.2565C51.3513 25.0515 51.3614 23.1078 50.1361 21.915C48.9107 20.7222 46.9139 20.7321 45.676 21.9371C44.4381 23.142 44.428 25.0858 45.6533 26.2786Z" fill="#2EBCFA" />
<path d="M15.7878 19.9684C15.3915 20.3542 15.3915 20.9797 15.7878 21.3655L17.8442 23.3672L16.1657 25.0011C16.0339 25.1294 15.941 25.2904 15.8971 25.4667L14.0287 32.9598C13.9452 33.2947 14.047 33.6477 14.2973 33.8914L16.4058 35.9439C16.8022 36.3297 17.4447 36.3297 17.8411 35.9439L24.3027 29.654L49.9619 54.631C50.3582 55.0168 51.0008 55.0168 51.3971 54.631L55.7028 50.4398C56.0991 50.054 56.0991 49.4285 55.7028 49.0427L30.0436 24.0657L33.6285 20.5761C34.0249 20.1904 34.0249 19.5649 33.6285 19.1791L28.6053 14.2893C28.2089 13.9036 27.5664 13.9036 27.17 14.2893L23.5851 17.7789L21.5287 15.7772C21.1324 15.3914 20.4898 15.3914 20.0935 15.7772L15.7878 19.9684Z" fill="#985184" />
<path d="M36.1147 41.1521L30.3738 35.5639L36.1147 29.9756L41.8556 35.5639L36.1147 41.1521Z" fill="#144496" />
</svg>