<svg width="50" height="50" viewBox="0 0 50 50" fill="none" xmlns="http://www.w3.org/2000/svg">
<g clip-path="url(#clip0_7758_19724)">
<path fill-rule="evenodd" clip-rule="evenodd" d="M36.412 21.1282C38.7403 21.569 41.2558 20.9036 43.0715 19.1361C45.9599 16.3245 45.9836 11.7891 43.1244 9.00598C40.2652 6.22283 35.6059 6.24587 32.7176 9.05744C30.9019 10.8249 30.2182 13.2735 30.6711 15.5399L13.9615 31.8053C11.6332 31.3644 9.11768 32.0299 7.30197 33.7973C4.41361 36.6089 4.38994 41.1443 7.2491 43.9275C10.1083 46.7106 14.7676 46.6876 17.6559 43.876C19.4716 42.1086 20.1553 39.6599 19.7024 37.3936L36.412 21.1282ZM14.6976 40.9964C13.4598 42.2014 11.4629 42.2113 10.2376 41.0185C9.01223 39.8257 9.02237 37.8819 10.2602 36.677C11.4981 35.472 13.4949 35.4622 14.7203 36.6549C15.9457 37.8477 15.9355 39.7915 14.6976 40.9964ZM35.6532 16.2786C36.8785 17.4713 38.8754 17.4615 40.1133 16.2565C41.3511 15.0515 41.3613 13.1078 40.1359 11.915C38.9106 10.7222 36.9137 10.7321 35.6758 11.9371C34.438 13.142 34.4278 15.0858 35.6532 16.2786Z" fill="#2EBCFA"/>
<path d="M5.78783 9.96842C5.39151 10.3542 5.39151 10.9797 5.78784 11.3655L7.84423 13.3672L6.16566 15.0011C6.03393 15.1294 5.941 15.2904 5.89705 15.4667L4.02866 22.9598C3.94516 23.2947 4.04695 23.6477 4.29727 23.8914L6.40585 25.9439C6.80218 26.3297 7.44475 26.3297 7.84107 25.9439L14.3027 19.654L39.9619 44.631C40.3582 45.0168 41.0008 45.0168 41.3971 44.631L45.7028 40.4398C46.0991 40.054 46.0991 39.4285 45.7028 39.0427L20.0436 14.0657L23.6285 10.5761C24.0249 10.1904 24.0249 9.56487 23.6285 9.17908L18.6053 4.28934C18.2089 3.90355 17.5664 3.90355 17.17 4.28934L13.5851 7.77894L11.5287 5.77722C11.1324 5.39143 10.4898 5.39143 10.0935 5.77722L5.78783 9.96842Z" fill="#985184"/>
<path d="M26.1149 31.1521L20.374 25.5639L26.1149 19.9756L31.8558 25.5639L26.1149 31.1521Z" fill="#144496"/>
</g>
<defs>
<clipPath id="clip0_7758_19724">
<rect width="50" height="50" fill="white"/>
</clipPath>
</defs>
</svg>
