<?xml version='1.0' encoding='utf-8'?>
<svg xmlns="http://www.w3.org/2000/svg" width="50px" height="50px" viewBox="10.0 10.0 50.0 50.0" fill="none">
<path d="M56 41C56 40.4477 55.5523 40 55 40H14V52C14 54.2091 15.7909 56 18 56H52C54.2091 56 56 54.2091 56 52V41Z" fill="#FBB945" />
<path d="M14 16.0875C14 14.2705 16.2272 13.3949 17.4646 14.7256L29.7323 27.9178C29.9044 28.1029 30 28.3462 30 28.5988V55.9998H18C15.7909 55.9998 14 54.209 14 51.9998V16.0875Z" fill="#985184" />
<path d="M14 40V52C14 54.209 15.7908 56 18 56H30V40H14Z" fill="#953B24" />
</svg>