<svg width="50" height="50" viewBox="0 0 50 50" fill="none" xmlns="http://www.w3.org/2000/svg">
<g clip-path="url(#clip0_7758_19736)">
<path d="M46 31C46 30.4477 45.5523 30 45 30H5C4.44771 30 4 30.4477 4 31V42C4 44.2091 5.79086 46 8 46H42C44.2091 46 46 44.2091 46 42V31Z" fill="#FBB945"/>
<path d="M4 6.08752C4 4.27049 6.22725 3.39495 7.46461 4.72556L19.7323 17.9178C19.9044 18.1029 20 18.3462 20 18.5988V45.9998H8C5.79086 45.9998 4 44.209 4 41.9998V6.08752Z" fill="#985184"/>
<path d="M4 30V42C4 44.209 5.79083 46 8 46H20V30H4Z" fill="#953B24"/>
</g>
<defs>
<clipPath id="clip0_7758_19736">
<rect width="50" height="50" fill="white"/>
</clipPath>
</defs>
</svg>
