<svg width="50" height="50" viewBox="0 0 50 50" fill="none" xmlns="http://www.w3.org/2000/svg">
<g clip-path="url(#clip0_7758_19741)">
<path d="M4 13.5C4 8.25329 8.25329 4 13.5 4C18.7467 4 23 8.25329 23 13.5C23 18.7467 18.7467 23 13.5 23C8.25329 23 4 18.7467 4 13.5Z" fill="#FC868B"/>
<path d="M4 31C4 28.7909 5.79086 27 8 27H19C21.2091 27 23 28.7909 23 31V42C23 44.2091 21.2091 46 19 46H8C5.79086 46 4 44.2091 4 42V31Z" fill="#985184"/>
<path d="M27 31C27 28.7909 28.7909 27 31 27H42C44.2091 27 46 28.7909 46 31V42C46 44.2091 44.2091 46 42 46H31C28.7909 46 27 44.2091 27 42V31Z" fill="#2EBCFA"/>
<path d="M35.0749 4.03502C35.4119 3.24334 36.5251 3.21875 36.8968 3.99477L45.3142 21.568C45.6322 22.2318 45.1484 23 44.4124 23H28.5128C27.7959 23 27.3119 22.2678 27.5927 21.6082L35.0749 4.03502Z" fill="#FBB945"/>
</g>
<defs>
<clipPath id="clip0_7758_19741">
<rect width="50" height="50" fill="white"/>
</clipPath>
</defs>
</svg>
