<?xml version="1.0" encoding="UTF-8"?>
<svg id="Layer_1" xmlns="http://www.w3.org/2000/svg" version="1.1" viewBox="0 0 50 50">
  <!-- Generator: Adobe Illustrator 30.0.0, SVG Export Plug-In . SVG Version: 2.1.1 Build 123)  -->
  <defs>
    <style>
      .st0 {
        fill: #f9464c;
      }

      .st1 {
        fill: #fc868b;
      }
    </style>
  </defs>
  <circle class="st1" cx="25" cy="25" r="13.5"/>
  <path class="st1" d="M35.2,1.1c-1.5-1.5-4-1.5-5,.4-1.1,2-1.7,4.2-1.7,6.5,0,3.6,1.4,7,4,9.6,2.5,2.5,6,4,9.6,4s4.5-.6,6.5-1.7c1.9-1,1.9-3.5.4-5L35.2,1.1Z"/>
  <path class="st0" d="M37.8,20.8c-.6-1.9-1.7-3.8-3.3-5.3-1.5-1.5-3.4-2.6-5.3-3.3.7,2,1.8,3.8,3.3,5.3,1.5,1.5,3.3,2.6,5.3,3.3Z"/>
  <path class="st1" d="M14.8,48.9c1.5,1.5,4,1.5,5-.4,1.1-2,1.7-4.2,1.7-6.5,0-3.6-1.4-7-4-9.6-2.5-2.5-6-4-9.6-4s-4.5.6-6.5,1.7c-1.9,1-1.9,3.5-.4,5l13.7,13.7Z"/>
  <path class="st0" d="M20.8,37.8c-.7-2-1.8-3.8-3.3-5.3-1.5-1.5-3.3-2.6-5.3-3.3.6,1.9,1.7,3.8,3.3,5.3,1.5,1.5,3.4,2.6,5.3,3.3Z"/>
</svg>
