<svg width="50" height="50" viewBox="0 0 50 50" fill="none" xmlns="http://www.w3.org/2000/svg">
<g clip-path="url(#clip0_7758_19767)">
<circle cx="24.9997" cy="25" r="13.5222" transform="rotate(-45 24.9997 25)" fill="#FC868B"/>
<path d="M35.5527 1.07306C34.0754 -0.40422 31.6197 -0.417359 30.6187 1.41643C29.566 3.345 29 5.52341 29 7.76018C29 11.2716 30.3949 14.6392 32.8779 17.1221C35.3608 19.6051 38.7284 21 42.2398 21C44.4766 21 46.655 20.434 48.5836 19.3813C50.4174 18.3803 50.4042 15.9246 48.9269 14.4473L35.5527 1.07306Z" fill="#FC868B"/>
<path d="M29.8271 12.3652C31.5529 13.0235 33.171 14.0479 34.5615 15.4385C35.9518 16.8288 36.9756 18.4465 37.6338 20.1719C35.8643 19.5152 34.2382 18.4823 32.8779 17.1221C31.5173 15.7615 30.4838 14.1352 29.8271 12.3652Z" fill="#F9464C"/>
<path d="M14.4473 48.9269C15.9246 50.4042 18.3803 50.4174 19.3813 48.5836C20.434 46.655 21 44.4766 21 42.2398C21 38.7284 19.6051 35.3608 17.1221 32.8779C14.6392 30.3949 11.2716 29 7.76018 29C5.52341 29 3.345 29.566 1.41643 30.6187C-0.41736 31.6197 -0.404219 34.0754 1.07306 35.5527L14.4473 48.9269Z" fill="#FC868B"/>
<path d="M12.3652 29.8271C14.1352 30.4838 15.7615 31.5173 17.1221 32.8779C18.4821 34.238 19.5152 35.8636 20.1719 37.6328C18.4467 36.9746 16.8287 35.9517 15.4385 34.5615C14.0479 33.171 13.0235 31.5529 12.3652 29.8271Z" fill="#F9464C"/>
</g>
<defs>
<clipPath id="clip0_7758_19767">
<rect width="50" height="50" fill="white"/>
</clipPath>
</defs>
</svg>
