<svg width="70" height="70" viewBox="0 0 70 70" fill="none" xmlns="http://www.w3.org/2000/svg">
<circle cx="34.9999" cy="35" r="14" transform="rotate(-45 34.9999 35)" fill="#FC868B"/>
<path d="M45.6067 10.2509C44.0446 8.68878 41.4478 8.67489 40.3894 10.614C39.2762 12.6533 38.6777 14.9568 38.6777 17.3219C38.6777 21.035 40.1527 24.5959 42.7782 27.2214C45.4037 29.847 48.9647 31.3219 52.6777 31.3219C55.0429 31.3219 57.3464 30.7234 59.3857 29.6103C61.3248 28.5519 61.3109 25.9551 59.7488 24.393L45.6067 10.2509Z" fill="#FC868B"/>
<path d="M48.3004 30.6203C47.6377 28.6022 46.504 26.7049 44.8994 25.1003C43.2947 23.4956 41.3975 22.3619 39.3794 21.6992C40.0583 23.7616 41.214 25.6576 42.7781 27.2216C44.3421 28.7856 46.2381 29.9414 48.3004 30.6203Z" fill="#F9464C"/>
<path d="M24.3935 59.7488C25.9556 61.3109 28.5524 61.3248 29.6108 59.3857C30.7239 57.3464 31.3224 55.0429 31.3224 52.6777C31.3224 48.9647 29.8474 45.4037 27.2219 42.7782C24.5964 40.1527 21.0355 38.6777 17.3224 38.6777C14.9572 38.6777 12.6538 39.2762 10.6145 40.3894C8.67538 41.4478 8.68927 44.0446 10.2514 45.6067L24.3935 59.7488Z" fill="#FC868B"/>
<path d="M30.6208 48.3009C29.9419 46.2386 28.7861 44.3426 27.2221 42.7786C25.658 41.2145 23.7621 40.0588 21.6997 39.3799C22.3624 41.398 23.4961 43.2952 25.1008 44.8999C26.7054 46.5045 28.6026 47.6382 30.6208 48.3009Z" fill="#F9464C"/>
</svg>
