<svg width="50" height="50" viewBox="0 0 50 50" fill="none" xmlns="http://www.w3.org/2000/svg">
<g clip-path="url(#clip0_7758_19762)">
<path d="M46 20C46 22.2091 44.2091 24 42 24C39.7909 24 38 22.2091 38 20C38 17.7909 39.7909 16 42 16C44.2091 16 46 17.7909 46 20Z" fill="#FC868B"/>
<path d="M19 26V43C19 44.6569 17.6569 46 16 46C14.3431 46 13 44.6569 13 43V26C13 24.3431 14.3431 23 16 23C17.6569 23 19 24.3431 19 26Z" fill="#FC868B"/>
<path d="M4 15C4 12.7909 5.79086 11 8 11H22L39 4V36L22 29H8C5.79086 29 4 27.2091 4 25V15Z" fill="#FC868B"/>
<path d="M42 7V33C42 34.6569 40.6569 36 39 36C37.3431 36 36 34.6569 36 33V7C36 5.34315 37.3431 4 39 4C40.6569 4 42 5.34315 42 7Z" fill="#F9464C"/>
<path d="M19 29.0142L13 29V26C13 24.3431 14.3431 23 16 23C17.6569 23 19 24.3431 19 26V29.0142Z" fill="#F9464C"/>
</g>
<defs>
<clipPath id="clip0_7758_19762">
<rect width="50" height="50" fill="white"/>
</clipPath>
</defs>
</svg>
