<svg width="70" height="70" viewBox="0 0 70 70" fill="none" xmlns="http://www.w3.org/2000/svg">
<circle cx="52" cy="30" r="4" fill="#FC868B"/>
<path d="M29 36V53C29 54.6569 27.6569 56 26 56C24.3431 56 23 54.6569 23 53V36C23 34.3431 24.3431 33 26 33C27.6569 33 29 34.3431 29 36Z" fill="#FC868B"/>
<path d="M14 25C14 22.7909 15.7909 21 18 21H32L49 14V46L32 39H18C15.7909 39 14 37.2091 14 35V25Z" fill="#FC868B"/>
<path d="M52 17V43C52 44.6569 50.6569 46 49 46C47.3431 46 46 44.6569 46 43V17C46 15.3431 47.3431 14 49 14C50.6569 14 52 15.3431 52 17Z" fill="#F9464C"/>
<path d="M29 39.0142L23 39V36C23 34.3431 24.3431 33 26 33C27.6569 33 29 34.3431 29 36V39.0142Z" fill="#F9464C"/>
</svg>
