<svg width="50" height="50" viewBox="0 0 50 50" fill="none" xmlns="http://www.w3.org/2000/svg">
<g clip-path="url(#clip0_7758_19726)">
<path d="M41.09 33C42.5571 33 43.936 32.2081 44.4846 30.8475C45.4619 28.423 46 25.7744 46 23C46 11.402 36.5979 2 25 2C13.4021 2 4 11.402 4 23C4 25.7744 4.53807 28.423 5.51544 30.8475C6.06395 32.2081 7.44294 33 8.90997 33H41.09Z" fill="#1AD3BB"/>
<path d="M21 13C21 11.8954 21.8954 11 23 11H27C28.1046 11 29 11.8954 29 13V14H32.5C33.3284 14 34 14.6716 34 15.5C34 16.3284 33.3284 17 32.5 17H29V22H35.5C36.3284 22 37 22.6716 37 23.5C37 24.3284 36.3284 25 35.5 25H29V33H21V29H10.5C9.67157 29 9 28.3284 9 27.5C9 26.6716 9.67157 26 10.5 26H21V21H14.5C13.6716 21 13 20.3284 13 19.5C13 18.6716 13.6716 18 14.5 18H21V13Z" fill="#005E7A"/>
<path d="M21 33H29V46C29 47.1046 28.1046 48 27 48H23C21.8954 48 21 47.1046 21 46V33Z" fill="#985184"/>
</g>
<defs>
<clipPath id="clip0_7758_19726">
<rect width="50" height="50" fill="white"/>
</clipPath>
</defs>
</svg>
