<?xml version='1.0' encoding='utf-8'?>
<svg xmlns="http://www.w3.org/2000/svg" width="50px" height="50px" viewBox="10.0 10.0 50.0 50.0" fill="none">
<path d="M51.09 43C52.5571 43 53.936 42.2081 54.4846 40.8475C55.4619 38.423 56 35.7744 56 33C56 21.402 46.5979 12 35 12C23.4021 12 14 21.402 14 33C14 35.7744 14.5381 38.423 15.5154 40.8475C16.064 42.2081 17.4429 43 18.91 43H51.09Z" fill="#1AD3BB" />
<path d="M31 23C31 21.8954 31.8954 21 33 21H37C38.1046 21 39 21.8954 39 23V24H42.5C43.3284 24 44 24.6716 44 25.5C44 26.3284 43.3284 27 42.5 27H39V32H45.5C46.3284 32 47 32.6716 47 33.5C47 34.3284 46.3284 35 45.5 35H39V43H31V39H20.5C19.6716 39 19 38.3284 19 37.5C19 36.6716 19.6716 36 20.5 36H31V31H24.5C23.6716 31 23 30.3284 23 29.5C23 28.6716 23.6716 28 24.5 28H31V23Z" fill="#005E7A" />
<path d="M31 43H39V56C39 57.1046 38.1046 58 37 58H33C31.8954 58 31 57.1046 31 56V43Z" fill="#985184" />
</svg>