<svg width="50" height="50" viewBox="0 0 50 50" fill="none" xmlns="http://www.w3.org/2000/svg">
<g clip-path="url(#clip0_7758_19748)">
<path d="M6.96867 9.29744C6.18763 10.0785 6.18768 11.3449 6.96867 12.1259L7.66335 11.4229C9.82355 13.6655 16.2899 20.6245 16.4304 23.7089C16.5449 26.2239 17.8313 28.281 18.6454 29.3425C18.8362 29.6102 19.0524 29.8663 19.2927 30.1066L34.5459 45.3598C35.3269 46.1408 36.5932 46.1409 37.3743 45.3599L45.8596 36.8746C46.6406 36.0935 46.6405 34.8272 45.8595 34.0462L30.6063 18.793C30.3653 18.552 30.1091 18.3359 29.8406 18.1445C28.7783 17.3299 26.7224 16.045 24.2085 15.9307C21.1242 15.7903 14.1652 9.3239 11.9226 7.16369L12.6255 6.46901C11.8445 5.68802 10.5781 5.68798 9.7971 6.46901L6.96867 9.29744Z" fill="#FC868B"/>
<path d="M40.2026 6.46916C39.4215 5.68812 38.1551 5.68817 37.3741 6.46916L38.0771 7.16384C35.8345 9.32404 28.8755 15.7904 25.7911 15.9309C23.2761 16.0454 21.219 17.3318 20.1575 18.1459C19.8898 18.3367 19.6337 18.5529 19.3934 18.7932L4.14016 34.0464C3.35916 34.8274 3.35908 36.0937 4.14011 36.8748L12.6254 45.3601C13.4065 46.1411 14.6728 46.141 15.4538 45.36L30.707 30.1068C30.948 29.8658 31.1641 29.6096 31.3555 29.3411C32.1701 28.2788 33.455 26.2229 33.5693 23.709C33.7097 20.6247 40.1761 13.6657 42.3363 11.4231L43.031 12.126C43.812 11.345 43.812 10.0786 43.031 9.29759L40.2026 6.46916Z" fill="#FBB945"/>
<path d="M25.0005 16.0059C22.8474 16.3152 21.1055 17.4189 20.1576 18.1459C19.8899 18.3367 19.6337 18.5529 19.3934 18.7932L16.0132 22.1734C16.2608 22.7477 16.4102 23.2679 16.4303 23.7089C16.5448 26.224 17.8313 28.2811 18.6453 29.3425C18.8361 29.6102 19.0523 29.8664 19.2926 30.1067L24.9999 35.814L30.7071 30.1069C30.9481 29.8659 31.1642 29.6096 31.3555 29.3411C32.1701 28.2788 33.455 26.2229 33.5693 23.7091C33.5894 23.268 33.7389 22.7477 33.9866 22.1733L30.6063 18.793C30.3653 18.552 30.109 18.3359 29.8405 18.1446C28.8921 17.4173 27.1517 16.3152 25.0005 16.0059Z" fill="#F86126"/>
</g>
<defs>
<clipPath id="clip0_7758_19748">
<rect width="50" height="50" fill="white"/>
</clipPath>
</defs>
</svg>
