<?xml version='1.0' encoding='utf-8'?>
<svg xmlns="http://www.w3.org/2000/svg" width="50px" height="50px" viewBox="10.0 10.0 50.0 50.0" fill="none">
<path d="M35 19.6471C35 18.8968 35.7956 18.4137 36.4614 18.7599L59.4614 30.7199C59.7923 30.892 60 31.2341 60 31.6071V51C60 51.5523 59.5523 52 59 52H36C35.4477 52 35 51.5523 35 51V19.6471Z" fill="#2EBCFA" />
<path d="M60 32.2058C60 31.5794 59.4306 31.1072 58.815 31.2231L10.815 40.2604C10.3423 40.3493 10 40.7622 10 41.2431V51C10 51.5523 10.4477 52 11 52H59C59.5523 52 60 51.5523 60 51V32.2058Z" fill="#985184" />
<path d="M36 51.9998H59C59.5523 51.9998 60 51.5526 60 50.9998V32.2059C60 31.5789 59.4306 31.1072 58.815 31.2225L35 35.7069V50.9998C35 51.5526 35.4477 51.9998 36 51.9998Z" fill="#144496" />
</svg>