<svg width="70" height="70" viewBox="0 0 70 70" fill="none" xmlns="http://www.w3.org/2000/svg">
<circle cx="26" cy="27" r="7" fill="#1AD3BB"/>
<circle cx="42.5" cy="22.5" r="8.5" fill="#FBB945"/>
<circle cx="35" cy="35" r="10" fill="#985184"/>
<path d="M34.3794 25.0186C34.5846 25.0059 34.7915 25 34.9999 25C39.042 25 42.524 27.3984 44.1005 30.8496C43.5822 30.9482 43.0471 31 42.4999 31C38.6825 31 35.4529 28.4834 34.3794 25.0186Z" fill="#953B24"/>
<path d="M26.0001 34C29.866 34 33.0001 30.8662 33.0001 27C33.0001 26.3945 32.9233 25.8086 32.7789 25.248C28.6611 26.1816 25.5083 29.6562 25.0559 33.9365C25.3647 33.9785 25.6799 34 26.0001 34Z" fill="#005E7A"/>
<circle cx="24" cy="46" r="10" fill="#2EBCFA"/>
<path d="M25.0549 36.0547C29.7351 36.5459 33.4542 40.2656 33.9449 44.9453C29.2647 44.4541 25.5457 40.7344 25.0549 36.0547Z" fill="#144496"/>
<circle cx="46" cy="42" r="10" fill="#FC868B"/>
<path d="M36.4267 44.8994C41.2738 44.207 45 40.0381 45 35C45 33.9922 44.8508 33.0186 44.5733 32.1006C39.7262 32.793 36 36.9619 36 42C36 43.0078 36.1492 43.9814 36.4267 44.8994Z" fill="#962B48"/>
</svg>
