<svg width="50" height="50" viewBox="0 0 50 50" fill="none" xmlns="http://www.w3.org/2000/svg">
<g clip-path="url(#clip0_7758_19715)">
<circle cx="16" cy="17" r="7" fill="#1AD3BB"/>
<circle cx="32.5" cy="12.5" r="8.5" fill="#FBB945"/>
<circle cx="25" cy="25" r="10" fill="#985184"/>
<path d="M24.3794 15.0186C24.5846 15.0059 24.7915 15 24.9999 15C29.042 15 32.524 17.3984 34.1005 20.8496C33.5822 20.9482 33.0471 21 32.4999 21C28.6825 21 25.4529 18.4834 24.3794 15.0186Z" fill="#953B24"/>
<path d="M15.9998 24C19.8658 24 22.9998 20.8662 22.9998 17C22.9998 16.3945 22.923 15.8086 22.7787 15.248C18.6609 16.1816 15.508 19.6562 15.0557 23.9365C15.3644 23.9785 15.6796 24 15.9998 24Z" fill="#005E7A"/>
<circle cx="14" cy="36" r="10" fill="#2EBCFA"/>
<path d="M15.0552 26.0547C19.7354 26.5459 23.4544 30.2656 23.9452 34.9453C19.265 34.4541 15.5459 30.7344 15.0552 26.0547Z" fill="#144496"/>
<circle cx="36" cy="32" r="10" fill="#FC868B"/>
<path d="M26.4267 34.8994C31.2738 34.207 35 30.0381 35 25C35 23.9922 34.8508 23.0186 34.5733 22.1006C29.7262 22.793 26 26.9619 26 32C26 33.0078 26.1492 33.9814 26.4267 34.8994Z" fill="#962B48"/>
</g>
<defs>
<clipPath id="clip0_7758_19715">
<rect width="50" height="50" fill="white"/>
</clipPath>
</defs>
</svg>
