<svg width="70" height="70" viewBox="0 0 70 70" fill="none" xmlns="http://www.w3.org/2000/svg">
<path d="M52 43C52 52.3888 44.3888 60 35 60C25.6112 60 18 52.3888 18 43V21.8197C18 19.7101 19.7101 18 21.8197 18C22.5431 18 23.2044 18.4087 23.5279 19.0557L28 28H42L46.4721 19.0557C46.7956 18.4087 47.4569 18 48.1803 18C50.2899 18 52 19.7101 52 21.8197V43Z" fill="#FC868B"/>
<path d="M52 55C52 57.7614 49.7614 60 47 60C44.2386 60 42 57.7614 42 55C42 52.2386 44.2386 50 47 50C49.7614 50 52 52.2386 52 55Z" fill="#2EBCFA"/>
<path d="M47 50C48.1265 50 49.166 50.3724 50.002 51.001C48.4145 53.9713 45.9713 56.4145 43.001 58.002C42.3724 57.166 42 56.1265 42 55C42 52.2386 44.2386 50 47 50Z" fill="#2D6388"/>
<path d="M47 26C47 30.9706 42.9706 35 38 35C33.0294 35 29 30.9706 29 26C29 21.0294 33.0294 17 38 17C42.9706 17 47 21.0294 47 26Z" fill="#2EBCFA"/>
<path d="M37.999 17C37.999 20.866 34.865 24 30.999 24C27.133 24 23.999 20.866 23.999 17C23.999 13.134 27.133 10 30.999 10C34.865 10 37.999 13.134 37.999 17Z" fill="#2EBCFA"/>
<path d="M37.998 17C37.998 20.866 34.865 24 30.999 24C30.4037 24 29.8262 23.924 29.2744 23.7842C30.2614 19.8856 33.7929 17.0009 37.998 17Z" fill="#088BF5"/>
<path d="M29.9932 13.4275C29.9932 12.5088 29.2209 11.735 28.3722 12.0865C27.8582 12.2994 27.3913 12.6114 26.9979 13.0048C26.6046 13.3981 26.2926 13.8651 26.0797 14.379C25.7281 15.2277 26.502 16 27.4207 16H27.8752C29.0449 16 29.9932 15.0518 29.9932 13.8821V13.4275Z" fill="white"/>
<path d="M48 13C48 14.6569 46.6569 16 45 16C43.3431 16 42 14.6569 42 13C42 11.3431 43.3431 10 45 10C46.6569 10 48 11.3431 48 13Z" fill="#2EBCFA"/>
<path d="M45 11.7138C45 11.2544 44.6139 10.8675 44.1895 11.0433C43.9325 11.1497 43.6991 11.3057 43.5024 11.5024C43.3057 11.6991 43.1497 11.9325 43.0433 12.1895C42.8675 12.6139 43.2544 13 43.7138 13H43.941C44.5259 13 45 12.5259 45 11.941L45 11.7138Z" fill="white"/>
<path d="M45.4922 21.0137C46.4441 22.4412 47 24.1555 47 26C47 30.9706 42.9706 35 38 35C33.717 35 30.1352 32.0077 29.2256 28H42L45.4922 21.0137Z" fill="#2D6388"/>
</svg>
