<svg width="50" height="50" viewBox="0 0 50 50" fill="none" xmlns="http://www.w3.org/2000/svg">
<g clip-path="url(#clip0_7758_19768)">
<path d="M26.0366 8.83811C25.503 6.34806 27.4012 4 29.9478 4H41.9999C44.209 4 45.9999 5.79086 45.9999 8V42C45.9999 44.2091 44.209 46 41.9999 46H33.9999L26.0366 8.83811Z" fill="#985184"/>
<path d="M46 25V42C46 44.2091 44.2091 46 42 46L8 46C5.79086 46 4 44.2091 4 42L4 40.0172C4 38.2313 5.18391 36.6617 6.90112 36.1711L46 25Z" fill="#FBB945"/>
<path d="M34.0002 46H42.0042C44.2115 45.9979 46.0002 44.2078 46.0002 42L46.0002 25L30.4521 29.4423L34.0002 46Z" fill="#953B24"/>
</g>
<defs>
<clipPath id="clip0_7758_19768">
<rect width="50" height="50" fill="white"/>
</clipPath>
</defs>
</svg>
