<svg width="70" height="70" viewBox="0 0 70 70" fill="none" xmlns="http://www.w3.org/2000/svg">
<path d="M36.0367 18.8381C35.5032 16.3481 37.4014 14 39.9479 14H52C54.2091 14 56 15.7909 56 18V52C56 54.2091 54.2091 56 52 56H44L36.0367 18.8381Z" fill="#985184"/>
<path d="M56 35L56 52C56 54.2091 54.2091 56 52 56L18 56C15.7909 56 14 54.2091 14 52L14 50.0172C14 48.2313 15.1839 46.6617 16.9011 46.1711L56 35Z" fill="#FBB945"/>
<path d="M44 56H52.0039C54.2113 55.9979 56 54.2078 56 52L56 35L40.4519 39.4423L44 56Z" fill="#953B24"/>
</svg>
