<svg width="50" height="50" viewBox="0 0 50 50" fill="none" xmlns="http://www.w3.org/2000/svg">
<g clip-path="url(#clip0_8140_96631)">
<path fill-rule="evenodd" clip-rule="evenodd" d="M43 28C46.866 28 50 31.134 50 35C50 38.866 46.866 42 43 42H7C3.13401 42 0 38.866 0 35C0 31.134 3.13401 28 7 28H43ZM7 32C5.34315 32 4 33.3431 4 35C4 36.6569 5.34315 38 7 38C8.65685 38 10 36.6569 10 35C10 33.3431 8.65685 32 7 32ZM25 32C23.3431 32 22 33.3431 22 35C22 36.6569 23.3431 38 25 38C26.6569 38 28 36.6569 28 35C28 33.3431 26.6569 32 25 32ZM43 32C41.3431 32 40 33.3431 40 35C40 36.6569 41.3431 38 43 38C44.6569 38 46 36.6569 46 35C46 33.3431 44.6569 32 43 32Z" fill="#985184"/>
<path d="M4 12C4 9.79086 5.79086 8 8 8H12C14.2091 8 16 9.79086 16 12V22C16 24.2091 14.2091 26 12 26H8C5.79086 26 4 24.2091 4 22V12Z" fill="#FBB945"/>
<path d="M19 12C19 9.79086 20.7909 8 23 8H27C29.2091 8 31 9.79086 31 12V22C31 24.2091 29.2091 26 27 26H23C20.7909 26 19 24.2091 19 22V12Z" fill="#FBB945"/>
<path d="M34 12C34 9.79086 35.7909 8 38 8H42C44.2091 8 46 9.79086 46 12V22C46 24.2091 44.2091 26 42 26H38C35.7909 26 34 24.2091 34 22V12Z" fill="#FBB945"/>
</g>
<defs>
<clipPath id="clip0_8140_96631">
<rect width="50" height="50" fill="white"/>
</clipPath>
</defs>
</svg>
