<svg width="50" height="50" viewBox="0 0 50 50" fill="none" xmlns="http://www.w3.org/2000/svg">
<g clip-path="url(#clip0_7758_19790)">
<path d="M41.7708 15.8264C40.2887 19.0655 32.0264 18.6351 23.3165 14.865C14.6065 11.0949 8.74717 5.41276 10.2292 2.17363C11.7113 -1.0655 19.9736 -0.635063 28.6835 3.13504C37.3935 6.90514 43.2528 12.5872 41.7708 15.8264Z" fill="#FC868B"/>
<rect x="8" y="15" width="34" height="28" fill="#FBB945"/>
<ellipse cx="25" cy="43" rx="17" ry="7" fill="#FBB945"/>
<ellipse cx="25" cy="15" rx="17" ry="7" fill="#F78613"/>
<path d="M25 8C34.2914 8 41.8403 11.0693 41.9961 14.8799C41.9799 15.2135 41.906 15.53 41.7705 15.8262C40.2884 19.0653 32.0263 18.6353 23.3164 14.8652C19.7374 13.316 16.6407 11.4425 14.3359 9.5498C17.2524 8.58127 20.9615 8 25 8Z" fill="#F86126"/>
<path d="M42 35.667C41.9996 39.7169 34.3886 43 25 43C15.6114 43 8.00041 39.7169 8 35.667V21C8 25.0501 15.6112 28.333 25 28.333C34.3888 28.333 42 25.0501 42 21V35.667Z" fill="#F78613"/>
</g>
<defs>
<clipPath id="clip0_7758_19790">
<rect width="50" height="50" fill="white"/>
</clipPath>
</defs>
</svg>
