<?xml version='1.0' encoding='utf-8'?>
<svg xmlns="http://www.w3.org/2000/svg" width="50px" height="50px" viewBox="10.0 10.0 50.0 50.0" fill="none">
<path d="M51.7708 25.8264C50.2887 29.0655 42.0264 28.6351 33.3165 24.865C24.6065 21.0949 18.7472 15.4128 20.2292 12.1736C21.7113 8.9345 29.9736 9.36494 38.6835 13.135C47.3935 16.9051 53.2528 22.5872 51.7708 25.8264Z" fill="#FC868B" />
<rect x="18" y="25" width="34" height="28" fill="#FBB945" />
<ellipse cx="35" cy="53" rx="17" ry="7" fill="#FBB945" />
<ellipse cx="35" cy="25" rx="17" ry="7" fill="#F78613" />
<path d="M35 18C44.2914 18 51.8403 21.0693 51.9961 24.8799C51.9799 25.2135 51.906 25.53 51.7705 25.8262C50.2884 29.0653 42.0263 28.6353 33.3164 24.8652C29.7374 23.316 26.6407 21.4425 24.3359 19.5498C27.2524 18.5813 30.9615 18 35 18Z" fill="#F86126" />
<path d="M52 45.667C51.9996 49.7169 44.3886 53 35 53C25.6114 53 18.0004 49.7169 18 45.667V31C18 35.0501 25.6112 38.333 35 38.333C44.3888 38.333 52 35.0501 52 31V45.667Z" fill="#F78613" />
</svg>