<svg width="50" height="50" viewBox="0 0 50 50" fill="none" xmlns="http://www.w3.org/2000/svg">
<g clip-path="url(#clip0_7758_19749)">
<path d="M4 12C4 10.8954 4.89543 10 6 10H14C15.1046 10 16 10.8954 16 12V44C16 45.1046 15.1046 46 14 46H6C4.89543 46 4 45.1046 4 44V12Z" fill="#FBB945"/>
<path d="M34 12C34 10.8954 34.8954 10 36 10H44C45.1046 10 46 10.8954 46 12V44C46 45.1046 45.1046 46 44 46H36C34.8954 46 34 45.1046 34 44V12Z" fill="#985184"/>
<path d="M16 6C16 4.89543 16.8954 4 18 4H25C26.1046 4 27 4.89543 27 6V44C27 45.1046 26.1046 46 25 46H18C16.8954 46 16 45.1046 16 44V6Z" fill="#2EBCFA"/>
<rect x="4" y="13" width="12" height="4" fill="#F78613"/>
<rect x="34" y="13" width="12" height="4" fill="#712258"/>
<rect x="16" y="13" width="11" height="4" fill="#088BF5"/>
<rect x="4" y="38" width="12" height="4" fill="#F78613"/>
<rect x="34" y="38" width="12" height="4" fill="#712258"/>
<rect x="16" y="38" width="11" height="4" fill="#088BF5"/>
</g>
<defs>
<clipPath id="clip0_7758_19749">
<rect width="50" height="50" fill="white"/>
</clipPath>
</defs>
</svg>
