<?xml version='1.0' encoding='utf-8'?>
<svg xmlns="http://www.w3.org/2000/svg" width="50px" height="50px" viewBox="10.0 10.0 50.0 50.0" fill="none">
<circle cx="35" cy="35" r="25" transform="rotate(-180 35 35)" fill="#088BF5" />
<path d="M20.2768 14.7936C24.4067 11.7793 29.4956 10.0004 35 10.0004C48.8072 10.0004 60 21.1933 60 35.0004C60 44.3399 54.8787 52.4833 47.2911 56.7754C38.6185 56.5272 30.1162 52.5673 24.3447 45.2058C17.3269 36.2546 16.1567 24.5828 20.2768 14.7936Z" fill="#2EBCFA" />
<path d="M59.8717 32.4514C55.2752 33.6843 48.7992 37.2629 39.7259 45.2742C32.6722 51.5024 27.1882 55.0515 22.9367 56.9022C26.5135 58.8765 30.6255 60 35 60C48.8071 60 60 48.8071 60 35C60 34.1396 59.9566 33.2894 59.8717 32.4514Z" fill="#144496" />
<path d="M39.7255 45.2747C48.799 37.2632 55.2752 33.6845 59.8717 32.4517C59.9566 33.2897 60 34.1399 60 35.0003C60 44.3399 54.8786 52.4833 47.2908 56.7754C41.7536 56.6169 36.2857 54.9453 31.5538 51.8413C34.0112 50.0865 36.7265 47.9227 39.7255 45.2747Z" fill="#088BF5" />
<path d="M34.9966 10.0005C21.1895 10.0005 9.9966 21.1933 9.99659 35.0005C9.99659 38.3324 10.6484 41.5121 11.8315 44.4189C15.3204 41.6471 19.5261 37.0419 24.523 29.66C32.9788 17.1684 39.1689 12.6281 43.4541 11.4673C40.8126 10.5178 37.965 10.0005 34.9966 10.0005Z" fill="#2EBCFA" />
<path d="M19.5542 36.4404C21.1149 34.4942 22.7698 32.2472 24.5219 29.6588C32.9765 17.1689 39.166 12.6281 43.4512 11.4666C40.8104 10.5177 37.9636 10.0006 34.996 10.0006C29.4914 10.0006 24.4023 11.7797 20.2723 14.7942C17.402 21.6148 17.0998 29.3492 19.5542 36.4404Z" fill="#144496" />
</svg>