<svg width="50" height="50" viewBox="0 0 50 50" fill="none" xmlns="http://www.w3.org/2000/svg">
<g clip-path="url(#clip0_7758_19800)">
<circle cx="25" cy="25" r="25" transform="rotate(-180 25 25)" fill="#088BF5"/>
<path d="M10.2768 4.79364C14.4067 1.77934 19.4956 0.00041695 25 0.000417431C38.8071 0.000418638 50 11.1933 50 25.0004C50 34.3399 44.8786 42.4833 37.2911 46.7754C28.6184 46.5272 20.1161 42.5673 14.3446 35.2058C7.32686 26.2546 6.15668 14.5828 10.2768 4.79364Z" fill="#2EBCFA"/>
<path d="M49.8717 22.4514C45.2752 23.6843 38.7991 27.2629 29.7259 35.2742C22.6722 41.5024 17.1881 45.0515 12.9366 46.9022C16.5135 48.8765 20.6255 50 25 50C38.8071 50 50 38.8071 50 25C50 24.1396 49.9565 23.2894 49.8717 22.4514Z" fill="#144496"/>
<path d="M29.7255 35.2747C38.799 27.2632 45.2752 23.6845 49.8717 22.4517C49.9565 23.2897 50 24.1399 50 25.0003C50 34.3399 44.8785 42.4833 37.2908 46.7754C31.7535 46.6169 26.2857 44.9453 21.5537 41.8413C24.0112 40.0865 26.7264 37.9227 29.7255 35.2747Z" fill="#088BF5"/>
<path d="M24.9966 0.000464654C11.1894 0.000463447 -0.00343501 11.1933 -0.00343622 25.0005C-0.00343651 28.3324 0.648377 31.5121 1.83145 34.4189C5.32039 31.6471 9.52609 27.0419 14.523 19.66C22.9788 7.16839 29.1689 2.62808 33.4541 1.46729C30.8126 0.517822 27.965 0.000464913 24.9966 0.000464654Z" fill="#2EBCFA"/>
<path d="M9.55416 26.4404C11.1149 24.4942 12.7697 22.2472 14.5218 19.6588C22.9765 7.16892 29.166 2.62815 33.4512 1.46659C30.8103 0.517669 27.9635 0.000621316 24.996 0.000621056C19.4914 0.000620575 14.4023 1.77969 10.2723 4.7942C7.40195 11.6148 7.09974 19.3492 9.55416 26.4404Z" fill="#144496"/>
</g>
<defs>
<clipPath id="clip0_7758_19800">
<rect width="50" height="50" fill="white"/>
</clipPath>
</defs>
</svg>
