<svg width="70" height="70" viewBox="0 0 70 70" fill="none" xmlns="http://www.w3.org/2000/svg">
<path d="M35.2665 19.4595C38.5046 22.6976 36.2133 25.2133 36.2133 25.2133C36.2133 25.2133 33.6976 27.5046 30.4595 24.2665C27.2215 21.0284 27 16 27 16C27 16 32.0284 16.2215 35.2665 19.4595Z" fill="#1AD3BB"/>
<path d="M34.0802 18.1515C30.1945 22.0371 32.944 25.056 32.944 25.056C32.944 25.056 35.9629 27.8055 39.8485 23.9198C43.7342 20.0341 44 14 44 14C44 14 37.9659 14.2658 34.0802 18.1515Z" fill="#1AD3BB"/>
<path d="M56 26C56 30.1147 52.8936 33.5038 48.8981 33.9501C49.286 34.8901 49.5 35.92 49.5 37C49.5 41.1147 46.3936 44.5038 42.3981 44.9501C42.786 45.8901 43 46.92 43 48C43 52.4183 39.4183 56 35 56C30.5817 56 27 52.4183 27 48C27 46.92 27.214 45.8901 27.6019 44.9501C23.6064 44.5038 20.5 41.1147 20.5 37C20.5 35.92 20.714 34.8901 21.1019 33.9501C17.1064 33.5038 14 30.1147 14 26C14 21.5817 17.5817 18 22 18C24.6776 18 27.0479 19.3154 28.5 21.3353C29.9521 19.3154 32.3224 18 35 18C37.6776 18 40.0479 19.3154 41.5 21.3353C42.9521 19.3154 45.3224 18 48 18C52.4183 18 56 21.5817 56 26Z" fill="#985184"/>
<path d="M29.3981 29.0495C29.786 28.1096 29.9999 27.0796 29.9999 25.9997C29.9999 24.259 29.444 22.6481 28.4999 21.335C27.5559 22.6481 26.9999 24.259 26.9999 25.9997C26.9999 27.0796 27.2139 28.1096 27.6018 29.0495C24.655 29.3787 22.1918 31.3086 21.1018 33.9498C21.3966 33.9827 21.6963 33.9996 21.9999 33.9996C24.6775 33.9996 27.0478 32.6842 28.4999 30.6644C29.7874 32.4552 31.7966 33.6923 34.1018 33.9498C33.7139 34.8897 33.4999 35.9197 33.4999 36.9997C33.4999 38.0796 33.7139 39.1096 34.1018 40.0495C31.155 40.3787 28.6918 42.3086 27.6018 44.9498C27.8966 44.9827 28.1963 44.9996 28.4999 44.9996C31.1775 44.9996 33.5478 43.6842 34.9999 41.6644C34.9999 41.6643 34.9999 41.6644 34.9999 41.6644C36.452 43.6842 38.8224 44.9996 41.4999 44.9996C41.8035 44.9996 42.1032 44.9827 42.398 44.9498C41.308 42.3086 38.8449 40.3787 35.8981 40.0495C36.286 39.1096 36.4999 38.0796 36.4999 36.9997C36.4999 35.9197 36.2859 34.8897 35.898 33.9498C38.2032 33.6923 40.2125 32.4552 41.4999 30.6644C42.952 32.6842 45.3224 33.9996 47.9999 33.9996C48.3035 33.9996 48.6032 33.9827 48.898 33.9498C47.808 31.3086 45.3449 29.3787 42.3981 29.0495C42.786 28.1096 42.9999 27.0796 42.9999 25.9997C42.9999 24.259 42.444 22.6481 41.4999 21.335C40.5559 22.6481 39.9999 24.259 39.9999 25.9997C39.9999 27.0796 40.2139 28.1096 40.6018 29.0495C38.2966 29.307 36.2874 30.5441 34.9999 32.3349C33.7125 30.5441 31.7032 29.307 29.3981 29.0495Z" fill="#712258"/>
</svg>
