<svg width="50" height="50" viewBox="0 0 50 50" fill="none" xmlns="http://www.w3.org/2000/svg">
<g clip-path="url(#clip0_7758_19778)">
<path d="M25.2665 9.45955C28.5046 12.6976 26.2133 15.2133 26.2133 15.2133C26.2133 15.2133 23.6976 17.5046 20.4595 14.2665C17.2215 11.0284 17 6 17 6C17 6 22.0284 6.22149 25.2665 9.45955Z" fill="#1AD3BB"/>
<path d="M24.0802 8.15146C20.1945 12.0371 22.944 15.056 22.944 15.056C22.944 15.056 25.9629 17.8055 29.8485 13.9198C33.7342 10.0341 34 4 34 4C34 4 27.9659 4.26579 24.0802 8.15146Z" fill="#1AD3BB"/>
<path d="M46 16C46 20.1147 42.8936 23.5038 38.8981 23.9501C39.286 24.8901 39.5 25.92 39.5 27C39.5 31.1147 36.3936 34.5038 32.3981 34.9501C32.786 35.8901 33 36.92 33 38C33 42.4183 29.4183 46 25 46C20.5817 46 17 42.4183 17 38C17 36.92 17.214 35.8901 17.6019 34.9501C13.6064 34.5038 10.5 31.1147 10.5 27C10.5 25.92 10.714 24.8901 11.1019 23.9501C7.10638 23.5038 4 20.1147 4 16C4 11.5817 7.58172 8 12 8C14.6776 8 17.0479 9.31542 18.5 11.3353C19.9521 9.31542 22.3224 8 25 8C27.6776 8 30.0479 9.31542 31.5 11.3353C32.9521 9.31542 35.3224 8 38 8C42.4183 8 46 11.5817 46 16Z" fill="#985184"/>
<path d="M19.3978 19.0495C19.7857 18.1096 19.9997 17.0796 19.9997 15.9997C19.9997 14.259 19.4437 12.6481 18.4997 11.335C17.5557 12.6481 16.9997 14.259 16.9997 15.9997C16.9997 17.0796 17.2137 18.1096 17.6016 19.0495C14.6547 19.3787 12.1916 21.3086 11.1016 23.9498C11.3964 23.9827 11.6961 23.9996 11.9997 23.9996C14.6772 23.9996 17.0475 22.6842 18.4997 20.6644C19.7871 22.4552 21.7964 23.6923 24.1016 23.9498C23.7137 24.8897 23.4997 25.9197 23.4997 26.9997C23.4997 28.0796 23.7137 29.1096 24.1016 30.0495C21.1547 30.3787 18.6916 32.3086 17.6016 34.9498C17.8964 34.9827 18.1961 34.9996 18.4997 34.9996C21.1772 34.9996 23.5476 33.6842 24.9997 31.6644C24.9997 31.6643 24.9997 31.6644 24.9997 31.6644C26.4518 33.6842 28.8221 34.9996 31.4997 34.9996C31.8033 34.9996 32.1029 34.9827 32.3978 34.9498C31.3078 32.3086 28.8446 30.3787 25.8978 30.0495C26.2857 29.1096 26.4997 28.0796 26.4997 26.9997C26.4997 25.9197 26.2857 24.8897 25.8978 23.9498C28.203 23.6923 30.2122 22.4552 31.4997 20.6644C32.9518 22.6842 35.3221 23.9996 37.9997 23.9996C38.3033 23.9996 38.603 23.9827 38.8978 23.9498C37.8078 21.3086 35.3446 19.3787 32.3978 19.0495C32.7857 18.1096 32.9997 17.0796 32.9997 15.9997C32.9997 14.259 32.4437 12.6481 31.4997 11.335C30.5557 12.6481 29.9997 14.259 29.9997 15.9997C29.9997 17.0796 30.2137 18.1096 30.6016 19.0495C28.2964 19.307 26.2871 20.5441 24.9997 22.3349C23.7122 20.5441 21.703 19.307 19.3978 19.0495Z" fill="#712258"/>
</g>
<defs>
<clipPath id="clip0_7758_19778">
<rect width="50" height="50" fill="white"/>
</clipPath>
</defs>
</svg>
