<svg width="50" height="50" viewBox="0 0 50 50" fill="none" xmlns="http://www.w3.org/2000/svg">
<g clip-path="url(#clip0_7758_19742)">
<path d="M44.6892 5.31119C46.4374 7.05945 46.4374 9.8941 44.6892 11.6424L19.3319 37H13V30.6696L38.358 5.31119C40.1065 3.56294 42.9409 3.56294 44.6892 5.31119Z" fill="#FBB945"/>
<path d="M5.7959 45.9891C4.8544 45.8936 4.10628 45.1454 4.01074 44.2039L4 43.9998V8.82804C4.00008 7.04633 6.15415 6.15416 7.41407 7.41399L42.586 42.5858C43.8062 43.8063 43.007 45.8654 41.336 45.993L41.172 45.9998V43.9988L39.171 45.9998H6L5.7959 45.9891ZM41.172 45.9998H39.171L41.172 43.9988V45.9998ZM11 38.9998H29.1006L11 20.8983V38.9998Z" fill="#985184"/>
<path d="M28.1661 28.1661L21.835 21.835L16.8853 26.7847L23.2164 33.1159L28.1661 28.1661Z" fill="#953B24"/>
</g>
<defs>
<clipPath id="clip0_7758_19742">
<rect width="50" height="50" fill="white"/>
</clipPath>
</defs>
</svg>
