<?xml version='1.0' encoding='utf-8'?>
<svg xmlns="http://www.w3.org/2000/svg" width="50px" height="50px" viewBox="10.0 10.0 50.0 50.0" fill="none">
<path d="M14 27.1235C14 25.6025 14.8626 24.2131 16.2258 23.5385L33.6828 14.8993C34.8251 14.334 36.1684 14.3469 37.2996 14.934L53.8427 23.5203C55.1681 24.2082 56 25.5772 56 27.0706V52C56 54.2091 54.2091 56 52 56H18C15.7909 56 14 54.2091 14 52V27.1235Z" fill="#2EBCFA" />
<rect x="33" y="42" width="4" height="14" fill="#088BF5" />
<path d="M25 37C25 36.4477 25.4477 36 26 36H44C44.5523 36 45 36.4477 45 37V39C45 43.9706 40.9706 48 36 48H34C29.0294 48 25 43.9706 25 39V37Z" fill="#088BF5" />
<rect x="28" y="28" width="5" height="11" rx="1" fill="#088BF5" />
<rect x="37" y="28" width="5" height="11" rx="1" fill="#088BF5" />
</svg>