<svg width="50" height="50" viewBox="0 0 50 50" fill="none" xmlns="http://www.w3.org/2000/svg">
<g clip-path="url(#clip0_7758_19740)">
<path d="M4 17.1235C4 15.6025 4.86263 14.2131 6.22583 13.5385L23.6828 4.89936C24.8251 4.33405 26.1684 4.34695 27.2996 4.93409L43.8427 13.5203C45.1681 14.2083 46 15.5773 46 17.0706V42C46 44.2092 44.2091 46 42 46H8C5.79086 46 4 44.2092 4 42V17.1235Z" fill="#2EBCFA"/>
<path d="M23 32H27V46H23V32Z" fill="#088BF5"/>
<path d="M15 27C15 26.4477 15.4477 26 16 26H34C34.5523 26 35 26.4477 35 27V29C35 33.9706 30.9706 38 26 38H24C19.0294 38 15 33.9706 15 29V27Z" fill="#088BF5"/>
<path d="M18 19C18 18.4477 18.4477 18 19 18H22C22.5523 18 23 18.4477 23 19V28C23 28.5523 22.5523 29 22 29H19C18.4477 29 18 28.5523 18 28V19Z" fill="#088BF5"/>
<path d="M27 19C27 18.4477 27.4477 18 28 18H31C31.5523 18 32 18.4477 32 19V28C32 28.5523 31.5523 29 31 29H28C27.4477 29 27 28.5523 27 28V19Z" fill="#088BF5"/>
</g>
<defs>
<clipPath id="clip0_7758_19740">
<rect width="50" height="50" fill="white"/>
</clipPath>
</defs>
</svg>
