<?xml version='1.0' encoding='utf-8'?>
<svg xmlns="http://www.w3.org/2000/svg" width="50px" height="50px" viewBox="10.0 10.0 50.0 50.0" fill="none">
<path d="M34.5018 33.3145C33.2919 33.3145 32.3109 32.3348 32.3109 31.1265C32.3109 29.9183 33.2919 28.9386 34.5018 28.9386C35.1516 28.9386 35.7868 28.7464 36.3271 28.386C36.8675 28.0254 37.2891 27.5124 37.5378 26.9128C37.7864 26.3133 37.8512 25.6536 37.7245 25.0172C37.5977 24.3806 37.2845 23.7961 36.825 23.3371C36.3654 22.8782 35.7801 22.5655 35.1426 22.4388C34.5053 22.3123 33.8448 22.377 33.2444 22.6253C32.644 22.8737 32.1303 23.2947 31.7692 23.8343C31.4083 24.3739 31.2159 25.0083 31.2159 25.6571C31.2159 26.8654 30.2349 27.8451 29.025 27.8451C27.8151 27.8451 26.8341 26.8654 26.8341 25.6571C26.8341 24.1427 27.284 22.6619 28.1265 21.4026C28.969 20.1436 30.167 19.162 31.568 18.5825C32.9688 18.0031 34.5103 17.8521 35.9974 18.1474C37.4848 18.4429 38.8509 19.1723 39.9232 20.2431C40.9955 21.314 41.7258 22.6782 42.0217 24.1636C42.3175 25.6487 42.1662 27.188 41.586 28.587C41.0058 29.9861 40.0229 31.1825 38.7621 32.0238C37.5012 32.8652 36.0183 33.3145 34.5018 33.3145Z" fill="#2EBCFA" />
<path d="M47.6883 37.1296C48.3285 35.7799 49.9435 35.2036 51.2951 35.8429L55.8597 38.0027C62.8218 41.296 60.4719 51.7314 52.7683 51.7314H34.9999C33.5043 51.7314 32.2916 50.5204 32.2916 49.0269C32.2917 47.5334 33.5044 46.3232 34.9999 46.3232H52.7683C54.6942 46.3232 55.2819 43.7137 53.5414 42.8903L48.9768 40.7315C47.6252 40.0922 47.0482 38.4793 47.6883 37.1296Z" fill="#088BF5" />
<path d="M31.9088 29.5965C33.8653 28.671 36.135 28.6709 38.0915 29.5965L51.2954 35.8427C52.6468 36.4822 53.2231 38.0949 52.5829 39.4446C51.9426 40.7942 50.3285 41.3696 48.9771 40.7304L35.7732 34.4851C35.2841 34.2537 34.7162 34.2537 34.2271 34.4851L21.0232 40.7304C19.6717 41.3698 18.0567 40.7944 17.4165 39.4446C16.7763 38.0949 17.3534 36.4821 18.7049 35.8427L31.9088 29.5965Z" fill="#2EBCFA" />
<path d="M18.7048 35.8429C20.0563 35.2036 21.6713 35.7799 22.3116 37.1296C22.9517 38.4793 22.3746 40.0922 21.0231 40.7315L16.4584 42.8903C14.7179 43.7137 15.3056 46.3232 17.2315 46.3232H35C36.4955 46.3232 37.7081 47.5334 37.7082 49.0269C37.7082 50.5204 36.4955 51.7314 35 51.7314H17.2315C9.52794 51.7314 7.1781 41.296 14.1401 38.0027L18.7048 35.8429Z" fill="#144496" />
<path d="M37.8677 52.6417V45.9796C37.8677 45.152 36.7386 44.7376 36.0782 45.3228L32.3195 48.6538C31.9101 49.0166 31.9101 49.6048 32.3195 49.9675L36.0782 53.2986C36.7386 53.8838 37.8677 53.4693 37.8677 52.6417Z" fill="#088BF5" />
</svg>