<svg width="50" height="50" viewBox="0 0 50 50" fill="none" xmlns="http://www.w3.org/2000/svg">
<g clip-path="url(#clip0_7758_19818)">
<path d="M24.5016 23.3145C23.2917 23.3145 22.3107 22.3348 22.3107 21.1265C22.3107 19.9183 23.2917 18.9386 24.5016 18.9386C25.1514 18.9386 25.7866 18.7464 26.3269 18.386C26.8673 18.0254 27.2889 17.5124 27.5376 16.9128C27.7862 16.3133 27.851 15.6536 27.7243 15.0172C27.5975 14.3806 27.2844 13.7961 26.8248 13.3371C26.3652 12.8782 25.7799 12.5655 25.1425 12.4388C24.5051 12.3123 23.8446 12.377 23.2443 12.6253C22.6438 12.8737 22.1301 13.2947 21.7691 13.8343C21.4081 14.3739 21.2157 15.0083 21.2157 15.6571C21.2157 16.8654 20.2347 17.8451 19.0248 17.8451C17.8149 17.8451 16.8339 16.8654 16.8339 15.6571C16.8339 14.1427 17.2838 12.6619 18.1263 11.4026C18.9688 10.1436 20.1668 9.16201 21.5678 8.58251C22.9686 8.00313 24.5101 7.85207 25.9972 8.14744C27.4846 8.44289 28.8507 9.17226 29.923 10.2431C30.9953 11.314 31.7257 12.6782 32.0215 14.1636C32.3173 15.6487 32.166 17.188 31.5859 18.587C31.0056 19.9861 30.0227 21.1825 28.7619 22.0238C27.501 22.8652 26.0181 23.3145 24.5016 23.3145Z" fill="#2EBCFA"/>
<path d="M37.6882 27.1296C38.3284 25.7799 39.9434 25.2036 41.295 25.8429L45.8596 28.0027C52.8216 31.296 50.4718 41.7314 42.7682 41.7314H24.9998C23.5042 41.7314 22.2915 40.5204 22.2915 39.0269C22.2916 37.5334 23.5043 36.3232 24.9998 36.3232H42.7682C44.6941 36.3232 45.2818 33.7137 43.5413 32.8903L38.9767 30.7315C37.6251 30.0922 37.0481 28.4793 37.6882 27.1296Z" fill="#088BF5"/>
<path d="M21.9088 19.5965C23.8654 18.671 26.135 18.6709 28.0916 19.5965L41.2954 25.8427C42.6468 26.4822 43.2231 28.0949 42.5829 29.4446C41.9426 30.7942 40.3286 31.3696 38.9771 30.7304L25.7733 24.4851C25.2841 24.2537 24.7162 24.2537 24.2271 24.4851L11.0233 30.7304C9.67168 31.3698 8.0567 30.7944 7.41648 29.4446C6.77629 28.0949 7.35339 26.4821 8.70496 25.8427L21.9088 19.5965Z" fill="#2EBCFA"/>
<path d="M8.70476 25.8429C10.0563 25.2036 11.6713 25.7799 12.3116 27.1296C12.9517 28.4793 12.3746 30.0922 11.0231 30.7315L6.45842 32.8903C4.71792 33.7137 5.30561 36.3232 7.23151 36.3232H25C26.4955 36.3232 27.7081 37.5334 27.7082 39.0269C27.7082 40.5204 26.4955 41.7314 25 41.7314H7.23151C-0.472063 41.7314 -2.8219 31.296 4.14012 28.0027L8.70476 25.8429Z" fill="#144496"/>
<path d="M27.8674 42.6417V35.9796C27.8674 35.152 26.7383 34.7376 26.078 35.3228L22.3192 38.6538C21.9099 39.0166 21.9099 39.6048 22.3192 39.9675L26.078 43.2986C26.7383 43.8838 27.8674 43.4693 27.8674 42.6417Z" fill="#088BF5"/>
</g>
<defs>
<clipPath id="clip0_7758_19818">
<rect width="50" height="50" fill="white"/>
</clipPath>
</defs>
</svg>
