<svg width="50" height="50" viewBox="0 0 50 50" fill="none" xmlns="http://www.w3.org/2000/svg">
<g clip-path="url(#clip0_7758_19759)">
<path d="M28.5078 4.01822C30.4613 4.08907 32.3845 4.36545 34.1967 4.83728C36.3199 5.39008 38.2491 6.20034 39.8741 7.22178C41.4991 8.24323 42.7881 9.45586 43.6676 10.7904C44.5471 12.125 44.9997 13.5554 44.9997 15C44.9997 16.4445 44.5471 17.8749 43.6676 19.2095C43.3454 19.6984 42.9682 20.171 42.5396 20.6239L42.5396 43.9999C42.5396 45.1045 41.6442 45.9999 40.5396 45.9999L22.4941 45.9999V4.00002H27.4997C27.5196 4.00002 27.5395 3.99998 27.5594 4.00002H28.5078V4.01822Z" fill="#F78613"/>
<path d="M8.46242 21.5695C6.28748 19.7363 5 17.4627 5 15C5 8.92487 12.835 4 22.5 4C32.165 4 40 8.92487 40 15C40 17.8241 38.3068 20.3997 35.5237 22.3475V46H12.4624C10.2533 46 8.46242 44.2091 8.46242 42V21.5695Z" fill="#FBB945"/>
</g>
<defs>
<clipPath id="clip0_7758_19759">
<rect width="50" height="50" fill="white"/>
</clipPath>
</defs>
</svg>
