<svg width="70" height="70" viewBox="0 0 70 70" fill="none" xmlns="http://www.w3.org/2000/svg">
<path d="M38.508 14.0182C40.4615 14.0891 42.3847 14.3655 44.1969 14.8373C46.3201 15.3901 48.2493 16.2003 49.8743 17.2218C51.4993 18.2432 52.7884 19.4559 53.6678 20.7904C54.5473 22.125 55 23.5554 55 25C55 26.4445 54.5473 27.8749 53.6678 29.2095C53.3456 29.6984 52.9684 30.171 52.5399 30.6239L52.5399 53.9999C52.5399 55.1045 51.6444 55.9999 50.5399 55.9999L32.4944 55.9999V14H37.5C37.5199 14 37.5398 14 37.5597 14H38.508V14.0182Z" fill="#F78613"/>
<path d="M18.4625 31.5695C16.2876 29.7363 15.0001 27.4627 15.0001 25C15.0001 18.9249 22.8351 14 32.5001 14C42.1651 14 50.0001 18.9249 50.0001 25C50.0001 27.8241 48.3069 30.3997 45.5239 32.3475V56H22.4625C20.2534 56 18.4625 54.2091 18.4625 52V31.5695Z" fill="#FBB945"/>
</svg>
