<svg width="50" height="50" viewBox="0 0 50 50" fill="none" xmlns="http://www.w3.org/2000/svg">
<g clip-path="url(#clip0_7794_19505)">
<path d="M19 5.02332C19 4.19502 19.9493 3.72582 20.6073 4.22888L45.6073 23.3413C45.8548 23.5305 46 23.8242 46 24.1357V42.0001C46 44.2092 44.2091 46.0001 42 46.0001H23C20.7909 46.0001 19 44.2092 19 42.0001V5.02332Z" fill="#FC868B"/>
<path d="M34 27.5345C34 27.2164 33.8487 26.9173 33.5924 26.7289L19.5924 16.4355C19.24 16.1764 18.76 16.1764 18.4076 16.4355L4.40764 26.7289C4.15135 26.9173 4 27.2164 4 27.5345V42C4 44.2092 5.79086 46 8 46H30C32.2091 46 34 44.2092 34 42V27.5345Z" fill="#1AD3BB"/>
<path d="M19 42C19 44.2091 20.7909 46 23 46H30C32.2091 46 34 44.2091 34 42V27.5342C33.9999 27.2162 33.8489 26.9169 33.5928 26.7285L19.5928 16.4355C19.4166 16.306 19.2081 16.2412 19 16.2412V42Z" fill="#1A6F66"/>
</g>
<defs>
<clipPath id="clip0_7794_19505">
<rect width="50" height="50" fill="white"/>
</clipPath>
</defs>
</svg>
