<svg width="50" height="50" viewBox="0 0 50 50" fill="none" xmlns="http://www.w3.org/2000/svg">
<g clip-path="url(#clip0_7758_19721)">
<path d="M30 25C30 27.7614 27.7614 30 25 30C22.2386 30 20 27.7614 20 25C20 22.2386 22.2386 20 25 20C27.7614 20 30 22.2386 30 25Z" fill="white"/>
<path fill-rule="evenodd" clip-rule="evenodd" d="M50 25C50 38.8071 38.8071 50 25 50C11.1929 50 0 38.8071 0 25C0 11.1929 11.1929 0 25 0C38.8071 0 50 11.1929 50 25ZM19.5768 43.2148C20.6958 40.1361 22 35.5681 22 31.0001C22 31.0001 25 30.9999 28 31.0001C28 35.5681 29.3042 40.1362 30.4232 43.2148C36.5558 41.3916 41.3916 36.5558 43.2148 30.4232C40.1361 29.3042 35.5681 28 31.0001 28C31.0001 28 30.9999 25 31.0001 22C35.5681 22 40.1362 20.6958 43.2148 19.5768C40.8807 11.7257 33.609 6 25 6C16.391 6 9.11926 11.7257 6.78521 19.5768C9.86386 20.6958 14.4319 22 18.9999 22C18.9999 22 19.0001 25 18.9999 28C14.4319 28 9.86384 29.3042 6.78521 30.4232C8.60837 36.5558 13.4442 41.3916 19.5768 43.2148Z" fill="#2EBCFA"/>
<path fill-rule="evenodd" clip-rule="evenodd" d="M25 34C29.9706 34 34 29.9706 34 25C34 20.0294 29.9706 16 25 16C20.0294 16 16 20.0294 16 25C16 29.9706 20.0294 34 25 34ZM25 30C27.7614 30 30 27.7614 30 25C30 22.2386 27.7614 20 25 20C22.2386 20 20 22.2386 20 25C20 27.7614 22.2386 30 25 30Z" fill="#088BF5"/>
</g>
<defs>
<clipPath id="clip0_7758_19721">
<rect width="50" height="50" fill="white"/>
</clipPath>
</defs>
</svg>
