<svg width="50" height="50" viewBox="0 0 50 50" fill="none" xmlns="http://www.w3.org/2000/svg">
<g clip-path="url(#clip0_7758_19720)">
<path d="M50 19.0234C50 18.2877 49.2627 17.7929 48.6024 18.0854L20.6024 30.4885C20.2367 30.6505 20 31.0191 20 31.4265V40.9778C20 41.5423 20.4477 42 21 42H46C48.2091 42 50 40.1693 50 37.9111V19.0234Z" fill="#985184"/>
<path d="M42 14.018C42 13.2962 41.2812 12.8041 40.6236 13.0758L10.6236 25.4704C10.2466 25.6262 10 25.9988 10 26.4126V40.983C10 41.5447 10.4477 42 11 42H38C40.2091 42 42 40.1787 42 37.932V14.018Z" fill="#FC868B"/>
<path d="M42 21.0098L20.6024 30.4883C20.2367 30.6503 20 31.0188 20 31.4262V40.9775C20 41.542 20.4477 41.9997 21 41.9997H38C40.2091 41.9997 42 40.1784 42 37.9317V21.0098Z" fill="#962B48"/>
<path d="M32 9.01548C32 8.29545 31.2812 7.80462 30.6236 8.07562L0.623623 20.4393C0.246602 20.5947 0 20.9664 0 21.3792V40.9855C0 41.5458 0.447715 42 1 42H28C30.2091 42 32 40.1832 32 37.9422V9.01548Z" fill="#2EBCFA"/>
<path d="M32 16.6387L10.6236 25.4704C10.2466 25.6262 10 25.9988 10 26.4126V40.983C10 41.5447 10.4477 42 11 42H28C30.2091 42 32 40.1832 32 37.9421V16.6387Z" fill="#2D6388"/>
</g>
<defs>
<clipPath id="clip0_7758_19720">
<rect width="50" height="50" fill="white"/>
</clipPath>
</defs>
</svg>
