<?xml version='1.0' encoding='utf-8'?>
<svg xmlns="http://www.w3.org/2000/svg" width="50px" height="50px" viewBox="10.0 10.0 50.0 50.0" fill="none">
<path d="M56 40.5C56 49.0604 49.0604 56 40.5 56C31.9396 56 25 49.0604 25 40.5C25 31.9396 31.9396 25 40.5 25C49.0604 25 56 31.9396 56 40.5Z" fill="#2EBCFA" />
<path d="M38 26C38 32.6274 32.6274 38 26 38C19.3726 38 14 32.6274 14 26C14 19.3726 19.3726 14 26 14C32.6274 14 38 19.3726 38 26Z" fill="#1AD3BB" />
<path d="M26 38.0003C32.6275 38.0003 38 32.6277 38 26.0003C38 25.7331 37.9913 25.4679 37.9741 25.2051C31.4371 26.2765 26.2762 31.4374 25.2048 37.9744C25.4677 37.9916 25.7328 38.0003 26 38.0003Z" fill="#005E7A" />
<path d="M22.8875 19.4283C22.8875 18.127 21.7937 17.0309 20.5914 17.5288C19.8635 17.8304 19.2021 18.2723 18.6449 18.8295C18.0878 19.3866 17.6458 20.0481 17.3443 20.776C16.8463 21.9782 17.9424 23.0721 19.2437 23.0721H19.8875C21.5444 23.0721 22.8875 21.729 22.8875 20.0721V19.4283Z" fill="white" />
<path d="M56 19C56 21.7614 53.7614 24 51 24C48.2386 24 46 21.7614 46 19C46 16.2386 48.2386 14 51 14C53.7614 14 56 16.2386 56 19Z" fill="#1AD3BB" />
<path d="M49.9999 16.178C49.9999 15.5274 49.453 14.9793 48.8519 15.2283C48.4879 15.3791 48.1572 15.6 47.8786 15.8786C47.6 16.1572 47.3791 16.4879 47.2283 16.8519C46.9793 17.453 47.5274 17.9999 48.178 17.9999H48.4999C49.3284 17.9999 49.9999 17.3284 49.9999 16.4999L49.9999 16.178Z" fill="white" />
</svg>