<svg width="50" height="50" viewBox="0 0 50 50" fill="none" xmlns="http://www.w3.org/2000/svg">
<g clip-path="url(#clip0_7758_19769)">
<path d="M46 30.5C46 39.0604 39.0604 46 30.5 46C21.9396 46 15 39.0604 15 30.5C15 21.9396 21.9396 15 30.5 15C39.0604 15 46 21.9396 46 30.5Z" fill="#2EBCFA"/>
<path d="M28 16C28 22.6274 22.6274 28 16 28C9.37258 28 4 22.6274 4 16C4 9.37258 9.37258 4 16 4C22.6274 4 28 9.37258 28 16Z" fill="#1AD3BB"/>
<path d="M16.0003 28.0003C22.6277 28.0003 28.0003 22.6277 28.0003 16.0003C28.0003 15.7331 27.9916 15.4679 27.9744 15.2051C21.4374 16.2765 16.2765 21.4374 15.2051 27.9744C15.4679 27.9916 15.7331 28.0003 16.0003 28.0003Z" fill="#005E7A"/>
<path d="M12.8875 9.4283C12.8875 8.12702 11.7937 7.03086 10.5914 7.52884C9.86349 7.83037 9.20206 8.27233 8.64491 8.82948C8.08776 9.38663 7.6458 10.0481 7.34427 10.776C6.84629 11.9782 7.94245 13.0721 9.24373 13.0721H9.88755C11.5444 13.0721 12.8875 11.729 12.8875 10.0721V9.4283Z" fill="white"/>
<path d="M46 9C46 11.7614 43.7614 14 41 14C38.2386 14 36 11.7614 36 9C36 6.23858 38.2386 4 41 4C43.7614 4 46 6.23858 46 9Z" fill="#1AD3BB"/>
<path d="M39.9999 6.17802C39.9999 5.52737 39.453 4.9793 38.8519 5.22829C38.4879 5.37905 38.1572 5.60003 37.8786 5.87861C37.6 6.15718 37.3791 6.4879 37.2283 6.85188C36.9793 7.45299 37.5274 7.99993 38.178 7.99993H38.4999C39.3284 7.99993 39.9999 7.32835 39.9999 6.49993L39.9999 6.17802Z" fill="white"/>
</g>
<defs>
<clipPath id="clip0_7758_19769">
<rect width="50" height="50" fill="white"/>
</clipPath>
</defs>
</svg>
