<?xml version='1.0' encoding='utf-8'?>
<svg xmlns="http://www.w3.org/2000/svg" width="50px" height="50px" viewBox="10.0 10.0 50.0 50.0" fill="none">
<path fill-rule="evenodd" clip-rule="evenodd" d="M48.5 47C54.8513 47 60 41.8513 60 35.5C60 29.1487 54.8513 24 48.5 24C42.1487 24 37 29.1487 37 35.5C37 41.8513 42.1487 47 48.5 47ZM48.5 41C51.5376 41 54 38.5376 54 35.5C54 32.4624 51.5376 30 48.5 30C45.4624 30 43 32.4624 43 35.5C43 38.5376 45.4624 41 48.5 41Z" fill="#1AD3BB" />
<path fill-rule="evenodd" clip-rule="evenodd" d="M21.5 47C15.1487 47 10 41.8513 10 35.5C10 29.1487 15.1487 24 21.5 24C27.8513 24 33 29.1487 33 35.5C33 41.8513 27.8513 47 21.5 47ZM21.5 41C18.4624 41 16 38.5376 16 35.5C16 32.4624 18.4624 30 21.5 30C24.5376 30 27 32.4624 27 35.5C27 38.5376 24.5376 41 21.5 41Z" fill="#1AD3BB" />
<path d="M30 33.5C30 33.5 33.0204 35 35 35C36.9796 35 40 33.5 40 33.5V29C40 29 36.9796 30.5 35 30.5C33.0204 30.5 30 29 30 29V33.5Z" fill="#03AF89" />
<path d="M53.2119 32.6615C54.3442 30.8804 55 28.7668 55 26.5C55 26.3341 54.9965 26.1689 54.9895 26.0047C53.1425 24.7399 50.9076 24 48.5 24C42.1487 24 37 29.1487 37 35.5C37 35.6659 37.0035 35.8311 37.0105 35.9953C38.8575 37.2601 41.0924 38 43.5 38C43.5332 38 43.5664 37.9999 43.5995 37.9996C43.2162 37.2496 43 36.4001 43 35.5C43 32.4624 45.4624 30 48.5 30C50.499 30 52.2489 31.0665 53.2119 32.6615Z" fill="#03AF89" />
<path d="M16.7881 32.6615C15.6558 30.8804 15 28.7668 15 26.5C15 26.3341 15.0035 26.1689 15.0104 26.0047C16.8575 24.7399 19.0923 24 21.5 24C27.8513 24 33 29.1487 33 35.5C33 35.6659 32.9965 35.8311 32.9895 35.9953C31.1425 37.2601 28.9076 38 26.5 38C26.4668 38 26.4336 37.9999 26.4005 37.9996C26.7838 37.2496 27 36.4001 27 35.5C27 32.4624 24.5376 30 21.5 30C19.501 30 17.7511 31.0665 16.7881 32.6615Z" fill="#03AF89" />
</svg>