<svg width="50" height="50" viewBox="0 0 50 50" fill="none" xmlns="http://www.w3.org/2000/svg">
<g clip-path="url(#clip0_7758_19727)">
<path fill-rule="evenodd" clip-rule="evenodd" d="M38.5 37C44.8513 37 50 31.8513 50 25.5C50 19.1487 44.8513 14 38.5 14C32.1487 14 27 19.1487 27 25.5C27 31.8513 32.1487 37 38.5 37ZM38.5 31C41.5376 31 44 28.5376 44 25.5C44 22.4624 41.5376 20 38.5 20C35.4624 20 33 22.4624 33 25.5C33 28.5376 35.4624 31 38.5 31Z" fill="#1AD3BB"/>
<path fill-rule="evenodd" clip-rule="evenodd" d="M11.5 37C5.14873 37 0 31.8513 0 25.5C0 19.1487 5.14873 14 11.5 14C17.8513 14 23 19.1487 23 25.5C23 31.8513 17.8513 37 11.5 37ZM11.5 31C8.46243 31 6 28.5376 6 25.5C6 22.4624 8.46243 20 11.5 20C14.5376 20 17 22.4624 17 25.5C17 28.5376 14.5376 31 11.5 31Z" fill="#1AD3BB"/>
<path d="M20 23.5C20 23.5 23.0204 25 25 25C26.9796 25 30 23.5 30 23.5V19C30 19 26.9796 20.5 25 20.5C23.0204 20.5 20 19 20 19V23.5Z" fill="#03AF89"/>
<path d="M43.2119 22.6615C44.3442 20.8804 45 18.7668 45 16.5C45 16.3341 44.9965 16.1689 44.9895 16.0047C43.1425 14.7399 40.9076 14 38.5 14C32.1487 14 27 19.1487 27 25.5C27 25.6659 27.0035 25.8311 27.0105 25.9953C28.8575 27.2601 31.0924 28 33.5 28C33.5332 28 33.5664 27.9999 33.5995 27.9996C33.2162 27.2496 33 26.4001 33 25.5C33 22.4624 35.4624 20 38.5 20C40.499 20 42.2489 21.0665 43.2119 22.6615Z" fill="#03AF89"/>
<path d="M6.78815 22.6615C5.65585 20.8804 5 18.7668 5 16.5C5 16.3341 5.00352 16.1689 5.01048 16.0047C6.85754 14.7399 9.09238 14 11.5 14C17.8513 14 23 19.1487 23 25.5C23 25.6659 22.9965 25.8311 22.9895 25.9953C21.1425 27.2601 18.9076 28 16.5 28C16.4668 28 16.4337 27.9999 16.4005 27.9996C16.7838 27.2496 17 26.4001 17 25.5C17 22.4624 14.5376 20 11.5 20C9.50101 20 7.75109 21.0665 6.78815 22.6615Z" fill="#03AF89"/>
</g>
<defs>
<clipPath id="clip0_7758_19727">
<rect width="50" height="50" fill="white"/>
</clipPath>
</defs>
</svg>
