<svg width="50" height="50" viewBox="0 0 50 50" fill="none" xmlns="http://www.w3.org/2000/svg">
<g clip-path="url(#clip0_7758_19725)">
<path d="M20 17C20 15.4178 19.5308 13.871 18.6518 12.5554C17.7727 11.2398 16.5233 10.2145 15.0615 9.60897C13.5997 9.00347 11.9911 8.84504 10.4393 9.15372C8.88743 9.4624 7.46197 10.2243 6.34315 11.3431C5.22433 12.462 4.4624 13.8874 4.15372 15.4393C3.84504 16.9911 4.00347 18.5997 4.60897 20.0615C5.21447 21.5233 6.23985 22.7727 7.55544 23.6518C8.87104 24.5308 10.4178 25 12 25V17H20Z" fill="#FBB945"/>
<path d="M38 25C39.5823 25 41.129 24.5308 42.4446 23.6518C43.7602 22.7727 44.7855 21.5233 45.391 20.0615C45.9965 18.5997 46.155 16.9911 45.8463 15.4393C45.5376 13.8874 44.7757 12.462 43.6569 11.3431C42.538 10.2243 41.1126 9.4624 39.5607 9.15372C38.0089 8.84504 36.4003 9.00347 34.9385 9.60897C33.4767 10.2145 32.2273 11.2398 31.3482 12.5554C30.4692 13.871 30 15.4178 30 17H38L38 25Z" fill="#FBB945"/>
<path d="M37.0104 12.0251C37.6637 13.6023 38 15.2928 38 17H30V46H20V17L12 17C12 15.2928 12.3363 13.6023 12.9896 12.0251C13.6429 10.4479 14.6004 9.01477 15.8076 7.80761C17.0148 6.60045 18.4479 5.64288 20.0251 4.98957C21.6023 4.33626 23.2928 4 25 4C26.7072 4 28.3977 4.33625 29.9749 4.98957C31.5521 5.64288 32.9852 6.60045 34.1924 7.80761C35.3995 9.01477 36.3571 10.4479 37.0104 12.0251Z" fill="#FBB945"/>
<path d="M38 17C37.9999 15.293 37.6637 13.6027 37.0104 12.0257C36.623 11.0903 36.1285 10.2056 35.5385 9.38867C35.3361 9.4541 35.136 9.52773 34.9385 9.60953C33.4767 10.215 32.2273 11.2404 31.3482 12.556C30.4693 13.8714 30.0001 15.4179 30 17V46H34C36.2091 46 38 44.2091 38 42V17Z" fill="#F78613"/>
<path d="M20 17.0005V46H16C13.7909 46 12 44.2091 12 42V17.0005C12.0001 15.2935 12.3363 13.6026 12.9896 12.0256C13.377 11.0902 13.8715 10.2056 14.4615 9.38867C14.6639 9.4541 14.864 9.52771 15.0615 9.6095C16.5233 10.215 17.7727 11.2404 18.6518 12.5559C19.5307 13.8713 19.9999 15.4184 20 17.0005Z" fill="#F78613"/>
</g>
<defs>
<clipPath id="clip0_7758_19725">
<rect width="50" height="50" fill="white"/>
</clipPath>
</defs>
</svg>
