<svg width="70" height="70" viewBox="0 0 70 70" fill="none" xmlns="http://www.w3.org/2000/svg">
<path d="M30 27C30 25.4178 29.5308 23.871 28.6518 22.5554C27.7727 21.2398 26.5233 20.2145 25.0615 19.609C23.5997 19.0035 21.9911 18.845 20.4393 19.1537C18.8874 19.4624 17.462 20.2243 16.3431 21.3431C15.2243 22.462 14.4624 23.8874 14.1537 25.4393C13.845 26.9911 14.0035 28.5997 14.609 30.0615C15.2145 31.5233 16.2398 32.7727 17.5554 33.6518C18.871 34.5308 20.4178 35 22 35V27H30Z" fill="#FBB945"/>
<path d="M48 35C49.5823 35 51.129 34.5308 52.4446 33.6518C53.7602 32.7727 54.7855 31.5233 55.391 30.0615C55.9965 28.5997 56.155 26.9911 55.8463 25.4393C55.5376 23.8874 54.7757 22.462 53.6569 21.3431C52.538 20.2243 51.1126 19.4624 49.5607 19.1537C48.0089 18.845 46.4003 19.0035 44.9385 19.609C43.4767 20.2145 42.2273 21.2398 41.3482 22.5554C40.4692 23.871 40 25.4178 40 27H48L48 35Z" fill="#FBB945"/>
<path d="M47.0104 22.0251C47.6637 23.6023 48 25.2928 48 27H40V56H30V27L22 27C22 25.2928 22.3363 23.6023 22.9896 22.0251C23.6429 20.4479 24.6004 19.0148 25.8076 17.8076C27.0148 16.6005 28.4479 15.6429 30.0251 14.9896C31.6023 14.3363 33.2928 14 35 14C36.7072 14 38.3977 14.3363 39.9749 14.9896C41.5521 15.6429 42.9852 16.6005 44.1924 17.8076C45.3995 19.0148 46.3571 20.4479 47.0104 22.0251Z" fill="#FBB945"/>
<path d="M48 27C47.9999 25.293 47.6637 23.6027 47.0104 22.0257C46.623 21.0903 46.1285 20.2056 45.5385 19.3887C45.3361 19.4541 45.136 19.5277 44.9385 19.6095C43.4767 20.215 42.2273 21.2404 41.3482 22.556C40.4693 23.8714 40.0001 25.4179 40 27V56H44C46.2091 56 48 54.2091 48 52V27Z" fill="#F78613"/>
<path d="M30 27.0005V56H26C23.7909 56 22 54.2091 22 52V27.0005C22.0001 25.2935 22.3363 23.6026 22.9896 22.0256C23.377 21.0902 23.8715 20.2056 24.4615 19.3887C24.6639 19.4541 24.864 19.5277 25.0615 19.6095C26.5233 20.215 27.7727 21.2404 28.6518 22.5559C29.5307 23.8713 29.9999 25.4184 30 27.0005Z" fill="#F78613"/>
</svg>
