<svg width="50" height="50" viewBox="0 0 50 50" fill="none" xmlns="http://www.w3.org/2000/svg">
<g clip-path="url(#clip0_7758_19808)">
<circle cx="35" cy="8" r="7" fill="#FBB945"/>
<path d="M5.5 11C14.0378 11 21.6976 14.7554 26.9209 20.7031C18.4465 25.3235 12.408 33.8472 11.2168 43.8584C4.45816 39.3833 0 31.7129 0 23C0 18.6958 1.08739 14.6456 3.00293 11.1094C3.82582 11.0379 4.65859 11 5.5 11Z" fill="#1AD3BB"/>
<path d="M5.5 15C12.6158 15 19.022 18.0345 23.498 22.8789C16.8447 27.7518 12.2405 35.2551 11.2168 43.8584C4.45816 39.3833 0 31.7129 0 23C0 20.3423 0.415357 17.7817 1.18359 15.3789C2.58481 15.1298 4.02724 15 5.5 15Z" fill="#03AF89"/>
<path d="M5.5 19C11.384 19 16.6882 21.4797 20.4268 25.4502C15.4437 30.2139 12.0746 36.6503 11.2168 43.8574C4.45805 39.3829 0 31.713 0 23C0 21.8769 0.0752622 20.7713 0.21875 19.6875C1.90379 19.2395 3.67391 19 5.5 19Z" fill="#1AD3BB"/>
<path d="M5.5 23C10.3421 23 14.6965 25.0862 17.7148 28.4082C14.2308 32.7432 11.9079 38.05 11.2168 43.8584C4.70112 39.5439 0.324221 32.2592 0.0185547 23.9336C1.7337 23.3296 3.57829 23 5.5 23Z" fill="#03AF89"/>
<path d="M41.5 19C44.4046 19 47.2075 19.4356 49.8477 20.2432C49.947 21.1485 50 22.0682 50 23C50 36.8071 38.8071 48 25 48C20.696 48 16.6465 46.9115 13.1104 44.9961C14.3784 30.4287 26.6036 19 41.5 19Z" fill="#1AD3BB"/>
<path d="M41.5 23C44.4712 23 47.319 23.5283 49.9541 24.4971C49.1798 37.6072 38.3045 48 25 48C22.2072 48 19.5216 47.5412 17.0137 46.6963C17.4378 33.5373 28.238 23 41.5 23Z" fill="#03AF89"/>
<path d="M41.5 27C44.2908 27 46.951 27.5584 49.376 28.5684C46.8448 39.695 36.893 48 25 48C23.6391 48 22.3039 47.889 21.002 47.6797C21.0014 47.6198 21 47.56 21 47.5C21 36.1782 30.1782 27 41.5 27Z" fill="#1AD3BB"/>
<path d="M41.5 31C43.8732 31 46.1288 31.5023 48.168 32.4043C44.4527 41.5479 35.4847 47.9958 25.0078 47.999C25.0029 47.8333 25 47.6669 25 47.5C25 38.3873 32.3873 31 41.5 31Z" fill="#03AF89"/>
<path d="M41.5 35C43.2269 35 44.872 35.3502 46.3682 35.9834C42.6412 42.1041 36.3583 46.495 29.002 47.6787C29.0011 47.6192 29 47.5597 29 47.5C29 40.5964 34.5964 35 41.5 35Z" fill="#1AD3BB"/>
<path d="M5.5 27C9.49919 27 13.0567 28.8805 15.3447 31.8027C13.1788 35.4039 11.7367 39.489 11.2168 43.8574C5.79703 40.2692 1.85611 34.6272 0.507812 28.0391C2.03714 27.372 3.72493 27 5.5 27Z" fill="#1AD3BB"/>
</g>
<defs>
<clipPath id="clip0_7758_19808">
<rect width="50" height="50" fill="white"/>
</clipPath>
</defs>
</svg>
