<?xml version='1.0' encoding='utf-8'?>
<svg xmlns="http://www.w3.org/2000/svg" width="50px" height="50px" viewBox="10.0 10.0 50.0 50.0" fill="none">
<circle cx="45" cy="18" r="7" fill="#FBB945" />
<path d="M15.5 21C24.0378 21 31.6976 24.7554 36.9209 30.7031C28.4465 35.3235 22.408 43.8472 21.2168 53.8584C14.4582 49.3833 10 41.7129 10 33C10 28.6958 11.0874 24.6456 13.0029 21.1094C13.8258 21.0379 14.6586 21 15.5 21Z" fill="#1AD3BB" />
<path d="M15.5 25C22.6158 25 29.022 28.0345 33.498 32.8789C26.8447 37.7518 22.2405 45.2551 21.2168 53.8584C14.4582 49.3833 10 41.7129 10 33C10 30.3423 10.4154 27.7817 11.1836 25.3789C12.5848 25.1298 14.0272 25 15.5 25Z" fill="#03AF89" />
<path d="M15.5 29C21.384 29 26.6882 31.4797 30.4268 35.4502C25.4437 40.2139 22.0746 46.6503 21.2168 53.8574C14.458 49.3829 10 41.713 10 33C10 31.8769 10.0753 30.7713 10.2188 29.6875C11.9038 29.2395 13.6739 29 15.5 29Z" fill="#1AD3BB" />
<path d="M15.5 33C20.3421 33 24.6965 35.0862 27.7148 38.4082C24.2308 42.7432 21.9079 48.05 21.2168 53.8584C14.7011 49.5439 10.3242 42.2592 10.0186 33.9336C11.7337 33.3296 13.5783 33 15.5 33Z" fill="#03AF89" />
<path d="M51.5 29C54.4046 29 57.2075 29.4356 59.8477 30.2432C59.947 31.1485 60 32.0682 60 33C60 46.8071 48.8071 58 35 58C30.696 58 26.6465 56.9115 23.1104 54.9961C24.3784 40.4287 36.6036 29 51.5 29Z" fill="#1AD3BB" />
<path d="M51.5 33C54.4712 33 57.319 33.5283 59.9541 34.4971C59.1798 47.6072 48.3045 58 35 58C32.2072 58 29.5216 57.5412 27.0137 56.6963C27.4378 43.5373 38.238 33 51.5 33Z" fill="#03AF89" />
<path d="M51.5 37C54.2908 37 56.951 37.5584 59.376 38.5684C56.8448 49.695 46.893 58 35 58C33.6391 58 32.3039 57.889 31.002 57.6797C31.0014 57.6198 31 57.56 31 57.5C31 46.1782 40.1782 37 51.5 37Z" fill="#1AD3BB" />
<path d="M51.5 41C53.8732 41 56.1288 41.5023 58.168 42.4043C54.4527 51.5479 45.4847 57.9958 35.0078 57.999C35.0029 57.8333 35 57.6669 35 57.5C35 48.3873 42.3873 41 51.5 41Z" fill="#03AF89" />
<path d="M51.5 45C53.2269 45 54.872 45.3502 56.3682 45.9834C52.6412 52.1041 46.3583 56.495 39.002 57.6787C39.0011 57.6192 39 57.5597 39 57.5C39 50.5964 44.5964 45 51.5 45Z" fill="#1AD3BB" />
<path d="M15.5 37C19.4992 37 23.0567 38.8805 25.3447 41.8027C23.1788 45.4039 21.7367 49.489 21.2168 53.8574C15.797 50.2692 11.8561 44.6272 10.5078 38.0391C12.0371 37.372 13.7249 37 15.5 37Z" fill="#1AD3BB" />
</svg>