<svg width="50" height="50" viewBox="0 0 50 50" fill="none" xmlns="http://www.w3.org/2000/svg">
<path d="M4 17.1236C4 15.6026 4.86263 14.2132 6.22583 13.5385L22.6654 4.93408C23.8077 4.36878 26.1684 4.34698 27.2996 4.93411L43.8427 13.5204C45.1681 14.2083 46 15.5773 46 17.0706V42.0001C46 44.2092 44.2091 46.0001 42 46.0001H8C5.79086 46.0001 4 44.2092 4 42.0001V17.1236Z" fill="#FBB945"/>
<path d="M37.9971 46H12C12 45.1195 12.0008 43.694 12.001 42H37.998C37.9979 43.6488 37.9971 45.0621 37.9971 46Z" fill="#F78613"/>
<path d="M37.998 41H12.001C12.0011 39.7414 12.0018 38.3758 12.002 37H37.999C37.9988 38.3714 37.9982 39.7358 37.998 41Z" fill="#F78613"/>
<path d="M37.999 36H12.002C12.0022 34.6209 12.0018 33.255 12.002 32H37.999C37.9988 33.2534 37.9992 34.6187 37.999 36Z" fill="#F78613"/>
<path d="M38 31H12.0029C12.0032 29.2784 12.0028 27.8459 12.0029 27H38C37.9999 27.8453 38.0003 29.2768 38 31Z" fill="#F78613"/>
<path d="M34 22C36.1531 22 37.9087 23.7755 37.9961 26H12.0068C12.0942 23.7756 13.849 22.0002 16.002 22H34Z" fill="#F78613"/>
</svg>
