<svg width="50" height="50" viewBox="0 0 50 50" fill="none" xmlns="http://www.w3.org/2000/svg">
<g clip-path="url(#clip0_7758_19735)">
<rect x="4.69922" y="7.95508" width="17.9105" height="49.8177" rx="8.95525" transform="rotate(-30 4.69922 7.95508)" fill="#1AD3BB"/>
<rect width="17.9105" height="49.8177" rx="8.95525" transform="matrix(-0.866025 -0.5 -0.5 0.866025 45.1187 7.95508)" fill="#FC868B"/>
<path d="M35.2496 25.0492L24.909 7.13867L14.5684 25.0492L24.909 42.9597L35.2496 25.0492Z" fill="#1A6F66"/>
<rect width="17.9105" height="49.8177" rx="8.95525" transform="matrix(0 -1 -1 0 49.8179 34.0049)" fill="#93407D"/>
<rect width="17.9105" height="49.8177" rx="8.95525" transform="matrix(0 -1 -1 0 49.8179 34.0049)" fill="url(#paint0_linear_7758_19735)" fill-opacity="0.2"/>
<path d="M19.7386 34.0043L9.39795 16.0938H30.0792L40.4198 34.0043H19.7386Z" fill="#005E7A"/>
<path d="M40.4198 16.0938H19.7386L9.39795 34.0043H30.0792L40.4198 16.0938Z" fill="#962B48"/>
<path d="M19.7387 34.0043L14.5684 25.049L19.7387 16.0938H30.0793L35.2496 25.049L30.0793 34.0043H19.7387Z" fill="white"/>
</g>
<defs>
<linearGradient id="paint0_linear_7758_19735" x1="0" y1="0" x2="22.2087" y2="1.99612" gradientUnits="userSpaceOnUse">
<stop stop-color="white"/>
<stop offset="1" stop-color="white" stop-opacity="0"/>
</linearGradient>
<clipPath id="clip0_7758_19735">
<rect width="50" height="50" fill="white"/>
</clipPath>
</defs>
</svg>
