<?xml version='1.0' encoding='utf-8'?>
<svg xmlns="http://www.w3.org/2000/svg" width="50px" height="50px" viewBox="10.0 10.0 50.0 50.0" fill="none">
<rect x="14.699" y="17.9551" width="17.9105" height="49.8177" rx="8.95525" transform="rotate(-30 14.699 17.9551)" fill="#1AD3BB" />
<rect width="17.9105" height="49.8177" rx="8.95525" transform="matrix(-0.866025 -0.5 -0.5 0.866025 55.1188 17.9551)" fill="#FC868B" />
<path d="M45.2495 35.0492L34.9089 17.1387L24.5682 35.0492L34.9089 52.9597L45.2495 35.0492Z" fill="#1A6F66" />
<rect width="17.9105" height="49.8177" rx="8.95525" transform="matrix(0 -1 -1 0 59.8177 44.0049)" fill="#93407D" />
<rect width="17.9105" height="49.8177" rx="8.95525" transform="matrix(0 -1 -1 0 59.8177 44.0049)" fill="url(#paint0_linear_7025_20150)" fill-opacity="0.2" />
<path d="M29.7386 44.0043L19.3979 26.0938H40.0792L50.4198 44.0043H29.7386Z" fill="#005E7A" />
<path d="M50.4198 26.0938H29.7386L19.3979 44.0043H40.0792L50.4198 26.0938Z" fill="#962B48" />
<path d="M29.7386 44.0043L24.5682 35.049L29.7386 26.0938H40.0792L45.2495 35.049L40.0792 44.0043H29.7386Z" fill="white" />
<defs>
<linearGradient id="paint0_linear_7025_20150" x1="0" y1="0" x2="22.2087" y2="1.99612" gradientUnits="userSpaceOnUse">
<stop stop-color="white" />
<stop offset="1" stop-color="white" stop-opacity="0" />
</linearGradient>
</defs>
</svg>