<?xml version='1.0' encoding='utf-8'?>
<svg xmlns="http://www.w3.org/2000/svg" width="50px" height="50px" viewBox="10.0 10.0 50.0 50.0" fill="none">
<path d="M14 50.4737V14H26L26 50.4737C26 53.5258 23.3137 56 20 56C16.6863 56 14 53.5258 14 50.4737Z" fill="#FBB945" />
<path d="M14 50.4737L14 23H26L26 50.4737C26 53.5258 23.3137 56 20 56C16.6863 56 14 53.5258 14 50.4737Z" fill="#F78613" />
<path d="M29 14H41L41 51C41 53.7614 38.3137 56 35 56C31.6863 56 29 53.7614 29 51V14Z" fill="#2EBCFA" />
<path d="M29 35H41L41 51C41 53.7614 38.3137 56 35 56C31.6863 56 29 53.7614 29 51L29 35Z" fill="#088BF5" />
<path d="M44 14H56L56 50.4737C56 53.5258 53.3137 56 50 56C46.6863 56 44 53.5258 44 50.4737V14Z" fill="#1AD3BB" />
<path d="M44 27H56L56 50.4737C56 53.5258 53.3137 56 50 56C46.6863 56 44 53.5258 44 50.4737V27Z" fill="#03AF89" />
</svg>