<svg width="50" height="50" viewBox="0 0 50 50" fill="none" xmlns="http://www.w3.org/2000/svg">
<g clip-path="url(#clip0_7758_19817)">
<path d="M11.2722 47.2138L4.11802 40.0596C3.37019 39.3118 3.33384 38.111 4.03505 37.3193L23.2984 15.5704C24.0623 14.7079 25.3951 14.6676 26.2097 15.4823L36.0209 25.2935L11.2722 47.2138Z" fill="#FBB945"/>
<path fill-rule="evenodd" clip-rule="evenodd" d="M46.6273 16.1C47.4084 16.881 47.4025 18.1532 46.6143 18.9414L37.545 28.0107C36.5796 28.9758 35.0936 29.181 33.9168 28.5122L27.177 24.6826C26.4005 24.2412 25.7581 23.5988 25.3167 22.8223L21.4872 16.0826C20.8184 14.9057 21.0235 13.4197 21.9887 12.4543L31.058 3.38504C31.8462 2.59681 33.1183 2.59099 33.8994 3.37204L46.6273 16.1ZM31.8668 9.90277C31.4299 9.46589 30.7019 9.52943 30.3387 10.036L27.9552 13.3614C27.668 13.7622 27.7107 14.3097 28.0561 14.6554L35.344 21.9433C35.6897 22.2886 36.2372 22.3314 36.6379 22.0442L39.9633 19.6607C40.4699 19.2975 40.5335 18.5694 40.0966 18.1326L31.8668 9.90277Z" fill="#2EBCFA"/>
<path d="M23.2979 15.5703C24.0618 14.7078 25.3953 14.6677 26.21 15.4824L36.0205 25.2929L32.9834 27.9824L27.1768 24.6826C26.4004 24.2412 25.7587 23.5986 25.3174 22.8222L22.0166 17.0156L23.2979 15.5703Z" fill="#2D8844"/>
</g>
<defs>
<clipPath id="clip0_7758_19817">
<rect width="50" height="50" fill="white"/>
</clipPath>
</defs>
</svg>
