<svg width="70" height="70" viewBox="0 0 70 70" fill="none" xmlns="http://www.w3.org/2000/svg">
<path d="M21.272 57.2138L14.1178 50.0596C13.37 49.3118 13.3336 48.111 14.0349 47.3193L33.2982 25.5704C34.0621 24.7079 35.3949 24.6676 36.2095 25.4823L46.0207 35.2935L21.272 57.2138Z" fill="#FBB945"/>
<path fill-rule="evenodd" clip-rule="evenodd" d="M56.6275 26.1C57.4085 26.881 57.4027 28.1532 56.6145 28.9414L47.5452 38.0107C46.5798 38.9758 45.0938 39.181 43.917 38.5122L37.1772 34.6826C36.4007 34.2412 35.7583 33.5988 35.3169 32.8223L31.4874 26.0826C30.8185 24.9057 31.0237 23.4197 31.9889 22.4543L41.0581 13.385C41.8464 12.5968 43.1185 12.591 43.8996 13.372L56.6275 26.1ZM41.867 19.9028C41.4301 19.4659 40.702 19.5294 40.3388 20.036L37.9553 23.3614C37.6682 23.7622 37.7109 24.3097 38.0562 24.6554L45.3441 31.9433C45.6898 32.2886 46.2373 32.3314 46.6381 32.0442L49.9635 29.6607C50.4701 29.2975 50.5336 28.5694 50.0968 28.1326L41.867 19.9028Z" fill="#2EBCFA"/>
<path d="M33.2979 25.5703C34.0618 24.7078 35.3953 24.6677 36.21 25.4824L46.0205 35.2929L42.9834 37.9824L37.1768 34.6826C36.4004 34.2412 35.7587 33.5986 35.3174 32.8222L32.0166 27.0156L33.2979 25.5703Z" fill="#2D8844"/>
</svg>
