<svg width="70" height="70" viewBox="0 0 70 70" fill="none" xmlns="http://www.w3.org/2000/svg">
<path d="M35 22.1906C35 22.1906 35.9368 20.8368 36.5302 20.2317C40.7554 15.9228 47.6058 15.9228 51.831 20.2317C56.0563 24.5406 56.0563 31.5268 51.831 35.8356L35 53L18.1689 35.8356C13.9437 31.5268 13.9437 24.5406 18.1689 20.2317C22.3942 15.9228 29.2446 15.9228 33.47 20.2317C34.0632 20.8368 35 22.1906 35 22.1906Z" fill="#2EBCFA"/>
<path d="M16 40H26.1818L30 31L33.8182 40H44" stroke="#985184" stroke-width="4" stroke-linecap="round" stroke-linejoin="round"/>
<path d="M24.2136 42L20.2913 38H24.8577L28.1588 30.2189C28.4723 29.4799 29.1973 29 30 29C30.8027 29 31.5276 29.4799 31.8411 30.2189L35.1422 38H44C45.1045 38 46 38.8954 46 40C46 41.1046 45.1045 42 44 42H33.8182C33.0155 42 32.2905 41.5201 31.977 40.7811L30 36.121L28.0229 40.7811C27.7094 41.5201 26.9845 42 26.1818 42H24.2136Z" fill="#144496"/>
</svg>
