<svg width="50" height="50" viewBox="0 0 50 50" fill="none" xmlns="http://www.w3.org/2000/svg">
<g clip-path="url(#clip0_7758_19750)">
<path d="M25 12.1906C25 12.1906 25.9368 10.8368 26.5302 10.2317C30.7554 5.92277 37.6058 5.92277 41.831 10.2317C46.0563 14.5406 46.0563 21.5268 41.831 25.8356L25 43L8.16893 25.8356C3.94368 21.5268 3.9437 14.5406 8.16893 10.2317C12.3942 5.92277 19.2446 5.92277 23.47 10.2317C24.0632 10.8368 25 12.1906 25 12.1906Z" fill="#2EBCFA"/>
<path d="M20 19C20.8026 19 21.5273 19.4799 21.8408 20.2188L25.1426 28H34C35.1046 28 36 28.8954 36 30C36 31.1046 35.1046 32 34 32H23.8184C23.0158 32 22.2911 31.52 21.9775 30.7812L20 26.1201L18.0234 30.7812C17.7099 31.5202 16.9844 32 16.1816 32H6C4.89543 32 4 31.1046 4 30C4 28.8954 4.89543 28 6 28H14.8574L18.1592 20.2188L18.2227 20.083C18.5636 19.4217 19.2476 19 20 19Z" fill="#985184"/>
<path d="M14.2133 32L10.291 28H14.8575L18.1586 20.2189C18.4721 19.4799 19.197 19 19.9997 19C20.8025 19 21.5274 19.4799 21.8409 20.2189L25.142 28H33.9997C35.1043 28 35.9997 28.8954 35.9997 30C35.9997 31.1046 35.1043 32 33.9997 32H23.8179C23.0152 32 22.2903 31.5201 21.9768 30.7811L19.9997 26.121L18.0227 30.7811C17.7092 31.5201 16.9843 32 16.1815 32H14.2133Z" fill="#144496"/>
</g>
<defs>
<clipPath id="clip0_7758_19750">
<rect width="50" height="50" fill="white"/>
</clipPath>
</defs>
</svg>
