<svg width="50" height="50" viewBox="0 0 50 50" fill="none" xmlns="http://www.w3.org/2000/svg">
<path d="M25 42L25 25.0205L46 25.0205V42L25 42Z" fill="#FC868B"/>
<path d="M25 46L25 42L28.3158 42V46L25 46Z" fill="#FC868B"/>
<path d="M42.6846 46L42.6846 42L46.0004 42V46L42.6846 46Z" fill="#FC868B"/>
<path d="M28 34.5098C27.4477 34.5098 27 34.0621 27 33.5098C27 32.9575 27.4477 32.5098 28 32.5098C28.5523 32.5098 29 32.9575 29 33.5098C29 34.0621 28.5523 34.5098 28 34.5098Z" fill="#F9464C"/>
<path d="M37 25.0205H35V17H37V25.0205Z" fill="#FBB945"/>
<path d="M31.6619 4H40.3381L44 17H28L31.6619 4Z" fill="#FBB945"/>
<path d="M14.5 15.6603C14.5 10.4906 19.201 6.2998 25 6.2998V15.6603C25 20.8299 20.299 25.0208 14.5 25.0208V15.6603Z" fill="#1AD3BB"/>
<path d="M14.5 19.689C14.5 14.5715 9.79899 10.423 4 10.423V15.7179C4 20.8353 8.70101 24.9838 14.5 24.9838V19.689Z" fill="#03AF89"/>
<path d="M20.8145 45.8573L8.18555 45.8574L4 25.0205L25 25.0205L20.8145 45.8573Z" fill="#FC868B"/>
</svg>
