<svg width="50" height="50" viewBox="0 0 50 50" fill="none" xmlns="http://www.w3.org/2000/svg">
<g clip-path="url(#clip0_7758_19718)">
<path d="M33.2227 6C40.2792 6.00013 45.9999 11.7168 46 18.7685C46 22.0128 44.7879 24.9738 42.7932 27.2262L42.8166 27.2496L31.6936 38.3638C31.6392 38.4275 31.5828 38.4906 31.5226 38.5508L27.005 43.0652C25.7576 44.3116 23.735 44.3116 22.4875 43.0652C21.2418 41.8202 21.2403 39.8024 22.4829 38.5555C21.2351 39.7971 19.2164 39.7956 17.9706 38.5508C16.7231 37.3043 16.7232 35.2831 17.9706 34.0365C16.7231 35.2829 14.7005 35.2829 13.453 34.0365C12.2072 32.7915 12.2053 30.7738 13.4478 29.5268C12.2001 30.7685 10.1814 30.7673 8.93554 29.5226C7.68811 28.2761 7.6882 26.2549 8.93554 25.0082L11.3115 22.6334L11.3037 22.6256L24.7616 9.20718L24.7585 9.20406C27.0125 7.21072 29.9761 6.00003 33.2227 6Z" fill="#2EBCFA"/>
<path d="M42.0478 28.0166L31.6933 38.3643C31.639 38.4278 31.5826 38.4907 31.5224 38.5508L27.0048 43.0654C25.7574 44.3116 23.7346 44.3118 22.4873 43.0654C21.2417 41.8205 21.2401 39.8026 22.4824 38.5557C21.2346 39.797 19.2164 39.7954 17.9707 38.5508C16.7232 37.3042 16.7233 35.2827 17.9707 34.0361C16.7232 35.2826 14.7005 35.2825 13.4531 34.0361C12.2074 32.7912 12.2057 30.7733 13.4482 29.5264C12.2005 30.7681 10.1814 30.7672 8.93551 29.5225C7.68814 28.2759 7.68819 26.2544 8.93551 25.0078L11.3115 22.6338L11.3037 22.626L24.1933 9.77344L42.0478 28.0166Z" fill="#059CB7"/>
<path d="M15.9732 6C19.1486 6.00003 22.194 7.38531 24.4394 9.85125L24.4384 9.85179L31.1021 16.9918C32.2993 18.2747 32.2993 20.3542 31.1021 21.6371C29.9048 22.9199 27.9636 22.9199 26.7663 21.6371L19.5 14.5L9 25C7.79688 26.3213 6.47481 27.3684 5.62427 25.7631C4.56942 23.772 4.00003 21.493 4 19.1498C4 15.6623 5.26164 12.3173 7.50703 9.85125C9.75241 7.38534 12.7978 6 15.9732 6Z" fill="#1AD3BB"/>
</g>
<defs>
<clipPath id="clip0_7758_19718">
<rect width="50" height="50" fill="white"/>
</clipPath>
</defs>
</svg>
