<?xml version='1.0' encoding='utf-8'?>
<svg xmlns="http://www.w3.org/2000/svg" width="50px" height="50px" viewBox="10.0 10.0 50.0 50.0" fill="none">
<path d="M43.2227 16C50.2792 16.0001 55.9999 21.7168 56 28.7685C56 32.0128 54.7879 34.9738 52.7932 37.2262L52.8166 37.2496L41.6936 48.3638C41.6392 48.4275 41.5828 48.4906 41.5226 48.5508L37.005 53.0652C35.7576 54.3116 33.735 54.3116 32.4875 53.0652C31.2418 51.8202 31.2403 49.8024 32.4829 48.5555C31.2351 49.7971 29.2164 49.7956 27.9706 48.5508C26.7231 47.3043 26.7232 45.2831 27.9706 44.0365C26.7231 45.2829 24.7005 45.2829 23.453 44.0365C22.2072 42.7915 22.2053 40.7738 23.4478 39.5268C22.2001 40.7685 20.1814 40.7673 18.9355 39.5226C17.6881 38.2761 17.6882 36.2549 18.9355 35.0082L21.3115 32.6334L21.3037 32.6256L34.7616 19.2072L34.7585 19.2041C37.0125 17.2107 39.9761 16 43.2227 16Z" fill="#2EBCFA" />
<path d="M52.0478 38.0166L41.6933 48.3643C41.639 48.4278 41.5826 48.4907 41.5224 48.5508L37.0048 53.0654C35.7574 54.3116 33.7346 54.3118 32.4873 53.0654C31.2417 51.8205 31.2401 49.8026 32.4824 48.5557C31.2346 49.797 29.2164 49.7954 27.9707 48.5508C26.7232 47.3042 26.7233 45.2827 27.9707 44.0361C26.7232 45.2826 24.7005 45.2825 23.4531 44.0361C22.2074 42.7912 22.2057 40.7733 23.4482 39.5264C22.2005 40.7681 20.1814 40.7672 18.9355 39.5225C17.6881 38.2759 17.6882 36.2544 18.9355 35.0078L21.3115 32.6338L21.3037 32.626L34.1933 19.7734L52.0478 38.0166Z" fill="#059CB7" />
<path d="M25.9732 16C29.1486 16 32.194 17.3853 34.4394 19.8513L34.4384 19.8518L41.1021 26.9918C42.2993 28.2747 42.2993 30.3542 41.1021 31.6371C39.9048 32.9199 37.9636 32.9199 36.7663 31.6371L29.5 24.5L19 35C17.7969 36.3213 16.4748 37.3684 15.6243 35.7631C14.5694 33.772 14 31.493 14 29.1498C14 25.6623 15.2616 22.3173 17.507 19.8513C19.7524 17.3853 22.7978 16 25.9732 16Z" fill="#1AD3BB" />
</svg>