<svg width="50" height="50" viewBox="0 0 50 50" fill="none" xmlns="http://www.w3.org/2000/svg">
<g clip-path="url(#clip0_7758_19713)">
<path d="M9.5 8L6 36H12.019C12.2744 39.3564 15.0784 42 18.5 42C21.9216 42 24.7256 39.3564 24.981 36H25C25 39.3135 27.6863 42 31 42C34.3137 42 37 39.3135 37 36H37.019C37.2744 39.3564 40.0784 42 43.5 42C46.9216 42 49.7256 39.3564 49.981 36H50V35L49.9546 34.7271C49.9456 34.6509 49.9353 34.5752 49.9236 34.5C49.9153 34.4468 49.9065 34.3936 49.897 34.3408L49.8745 34.2231L49.8538 34.1226L46.0571 11.3423C45.7356 9.41357 44.0669 8 42.1116 8H9.5Z" fill="#985184"/>
<path d="M14 8L12 36C12 39.3135 9.31372 42 6 42C2.68628 42 0 39.3135 0 36V35L3.49414 11.4136C3.78491 9.45264 5.46826 8 7.45117 8H14Z" fill="#FC868B"/>
<path d="M35 8L37 36C37 39.3135 34.3137 42 31 42C27.6863 42 25 39.3135 25 36V8H35Z" fill="#FC868B"/>
<path d="M12 36C12 37.5913 11.3679 39.1174 10.2426 40.2426C9.11742 41.3679 7.5913 42 6 42C4.4087 42 2.88258 41.3679 1.75736 40.2426C0.632141 39.1174 2.40279e-07 37.5913 0 36L12 36Z" fill="#F9464C"/>
<path d="M37 36C37 36.7879 36.8448 37.5681 36.5433 38.2961C36.2417 39.0241 35.7998 39.6855 35.2426 40.2426C34.6855 40.7998 34.0241 41.2417 33.2961 41.5433C32.5681 41.8448 31.7879 42 31 42C30.2121 42 29.4319 41.8448 28.7039 41.5433C27.9759 41.2417 27.3145 40.7998 26.7574 40.2426C26.2002 39.6855 25.7583 39.0241 25.4567 38.2961C25.1552 37.5681 25 36.7879 25 36L37 36Z" fill="#F9464C"/>
<path d="M12.0195 36C12.2749 39.3564 15.0789 42 18.5005 42C21.9221 42 24.7261 39.3564 24.9814 36H12.0195Z" fill="#712258"/>
<path d="M37.0195 36C37.2749 39.3564 40.0789 42 43.5005 42C46.9221 42 49.7261 39.3564 49.9814 36H37.0195Z" fill="#712258"/>
</g>
<defs>
<clipPath id="clip0_7758_19713">
<rect width="50" height="50" fill="white"/>
</clipPath>
</defs>
</svg>
