<?xml version='1.0' encoding='utf-8'?>
<svg xmlns="http://www.w3.org/2000/svg" width="50px" height="50px" viewBox="10.0 10.0 50.0 50.0" fill="none">
<path fill-rule="evenodd" clip-rule="evenodd" d="M35 24C43.8366 24 51 31.1634 51 40C51 48.8366 43.8366 56 35 56C26.1634 56 19 48.8366 19 40C19 31.1634 26.1634 24 35 24ZM34.2002 33.4004C32.8817 32.4115 31 33.3519 31 35V45C31 46.6481 32.8817 47.5885 34.2002 46.5996L40.8662 41.5996C41.9329 40.7996 41.9329 39.2004 40.8662 38.4004L34.2002 33.4004Z" fill="#985184" />
<path d="M32.6375 15.5551C34.1014 14.815 35.8986 14.815 37.3626 15.5551L60 27L37.3626 38.4449C35.8986 39.185 34.1014 39.185 32.6375 38.4449L10 27L32.6375 15.5551Z" fill="#1AD3BB" />
<path d="M35 24C37.3139 24 39.5131 24.4912 41.499 25.375C41.801 25.5094 42.0979 25.6534 42.3896 25.8057C42.8903 26.0668 43.375 26.3542 43.8428 26.665C44.1193 26.8488 44.3902 27.0401 44.6543 27.2402C44.8096 27.3579 44.9625 27.4784 45.1133 27.6016C45.3694 27.8107 45.6188 28.0276 45.8613 28.252C46.2747 28.6343 46.6679 29.0382 47.0391 29.4619C47.2569 29.7106 47.4666 29.9666 47.6689 30.2285C47.7906 30.3861 47.9095 30.5459 48.0254 30.708C48.215 30.9733 48.3969 31.2445 48.5703 31.5215C48.587 31.5481 48.6036 31.5748 48.6201 31.6016C48.8001 31.8928 48.9714 32.1899 49.1328 32.4932L39.4902 37.3682L34.2002 33.4004C32.8817 32.4115 31 33.3519 31 35V37.6172L20.8662 32.4932C20.8738 32.4789 20.881 32.4644 20.8887 32.4502C21.3143 31.6563 21.8059 30.9029 22.3545 30.1963C22.5485 29.9464 22.7498 29.7026 22.958 29.4648C25.8907 26.1154 30.1983 24 35 24Z" fill="#005E7A" />
</svg>