<svg width="50" height="50" viewBox="0 0 50 50" fill="none" xmlns="http://www.w3.org/2000/svg">
<g clip-path="url(#clip0_7758_19815)">
<path fill-rule="evenodd" clip-rule="evenodd" d="M25 14C33.8366 14 41 21.1634 41 30C41 38.8366 33.8366 46 25 46C16.1634 46 9 38.8366 9 30C9 21.1634 16.1634 14 25 14ZM24.2002 23.4004C22.8817 22.4115 21 23.3519 21 25V35C21 36.6481 22.8817 37.5885 24.2002 36.5996L30.8662 31.5996C31.9329 30.7996 31.9329 29.2004 30.8662 28.4004L24.2002 23.4004Z" fill="#985184"/>
<path d="M22.6375 5.5551C24.1014 4.81496 25.8986 4.81497 27.3626 5.55511L50 17L27.3626 28.4449C25.8986 29.185 24.1014 29.185 22.6375 28.4449L0 17L22.6375 5.5551Z" fill="#1AD3BB"/>
<path d="M25 14C27.3139 14 29.5131 14.4912 31.499 15.375C31.801 15.5094 32.0979 15.6534 32.3896 15.8057C32.8903 16.0668 33.375 16.3542 33.8428 16.665C34.1193 16.8488 34.3902 17.0401 34.6543 17.2402C34.8096 17.3579 34.9625 17.4784 35.1133 17.6016C35.3694 17.8107 35.6188 18.0276 35.8613 18.252C36.2747 18.6343 36.6679 19.0382 37.0391 19.4619C37.2569 19.7106 37.4666 19.9666 37.6689 20.2285C37.7906 20.3861 37.9095 20.5459 38.0254 20.708C38.215 20.9733 38.3969 21.2445 38.5703 21.5215C38.587 21.5481 38.6036 21.5748 38.6201 21.6016C38.8001 21.8928 38.9714 22.1899 39.1328 22.4932L29.4902 27.3682L24.2002 23.4004C22.8817 22.4115 21 23.3519 21 25V27.6172L10.8662 22.4932C10.8738 22.4789 10.881 22.4644 10.8887 22.4502C11.3143 21.6563 11.8059 20.9029 12.3545 20.1963C12.5485 19.9464 12.7498 19.7026 12.958 19.4648C15.8907 16.1154 20.1983 14 25 14Z" fill="#005E7A"/>
</g>
<defs>
<clipPath id="clip0_7758_19815">
<rect width="50" height="50" fill="white"/>
</clipPath>
</defs>
</svg>
