<svg width="70" height="70" viewBox="0 0 70 70" fill="none" xmlns="http://www.w3.org/2000/svg">
<path d="M56 35C56 29.2995 52.0254 24.5274 46.696 23.304C45.4727 17.9748 40.7004 14 35 14C29.2996 14 24.5273 17.9748 23.304 23.304C17.9746 24.5274 14 29.2995 14 35C14 40.7005 17.9746 45.4726 23.304 46.696C24.5273 52.0252 29.2996 56 35 56C40.7004 56 45.4727 52.0252 46.696 46.696C52.0254 45.4726 56 40.7005 56 35Z" fill="#985184"/>
<path d="M26 23C25.073 23 24.1707 23.1051 23.304 23.304C23.105 24.1707 23 25.0731 23 26C23 29.5841 24.5713 32.8012 27.0625 35C24.5713 37.1988 23 40.4159 23 44C23 44.9269 23.105 45.8293 23.304 46.696C24.1707 46.8949 25.073 47 26 47C29.584 47 32.801 45.4287 35 42.9375C37.1987 45.4287 40.416 47 44 47C44.927 47 45.8293 46.8949 46.696 46.696C46.895 45.8293 47 44.9269 47 44C47 40.4159 45.4287 37.1988 42.9375 35C45.4287 32.8012 47 29.5841 47 26C47 25.0731 46.895 24.1707 46.696 23.304C45.8293 23.1051 44.927 23 44 23C40.416 23 37.1987 24.5713 35 27.0625C32.8013 24.5713 29.584 23 26 23Z" fill="#712258"/>
<path d="M32.304 37.696C30.3254 37.2418 28.5334 36.2984 27.0625 35C28.5337 33.7016 30.3254 32.7582 32.304 32.304C32.7581 30.3255 33.7014 28.5336 35 27.0625C36.2986 28.5336 37.2419 30.3255 37.696 32.304C39.6746 32.7583 41.4663 33.7016 42.9375 35C41.4663 36.2984 39.6746 37.2417 37.696 37.6959C37.2417 39.6745 36.2983 41.4664 35 42.9374C33.7017 41.4664 32.7583 39.6745 32.304 37.696Z" fill="#FBB945"/>
<path d="M37.696 37.696C36.8293 37.8949 35.927 38 35 38C34.073 38 33.1707 37.8949 32.304 37.696C32.105 36.8293 32 35.927 32 35C32 34.073 32.1052 33.1706 32.304 32.304C32.3962 32.2829 32.4888 32.2628 32.5815 32.2438C33.3628 32.084 34.1716 32 35 32C35.1079 32 35.2153 32.0014 35.3223 32.0042C35.5605 32.0105 35.7971 32.0238 36.032 32.0438C36.5986 32.092 37.1543 32.1797 37.696 32.304C37.895 33.1706 38 34.0731 38 35C38 35.927 37.895 36.8293 37.696 37.696Z" fill="#F78613"/>
</svg>
