<svg width="50" height="50" viewBox="0 0 50 50" fill="none" xmlns="http://www.w3.org/2000/svg">
<g clip-path="url(#clip0_7758_19776)">
<path d="M46 25C46 19.2995 42.0254 14.5274 36.696 13.304C35.4727 7.97479 30.7004 4 25 4C19.2996 4 14.5273 7.97479 13.304 13.304C7.97461 14.5274 4 19.2995 4 25C4 30.7005 7.97461 35.4726 13.304 36.696C14.5273 42.0252 19.2996 46 25 46C30.7004 46 35.4727 42.0252 36.696 36.696C42.0254 35.4726 46 30.7005 46 25Z" fill="#985184"/>
<path d="M16 13C15.073 13 14.1707 13.1051 13.304 13.304C13.105 14.1707 13 15.0731 13 16C13 19.5841 14.5713 22.8012 17.0625 25C14.5713 27.1988 13 30.4159 13 34C13 34.9269 13.105 35.8293 13.304 36.696C14.1707 36.8949 15.073 37 16 37C19.584 37 22.801 35.4287 25 32.9375C27.1987 35.4287 30.416 37 34 37C34.927 37 35.8293 36.8949 36.696 36.696C36.895 35.8293 37 34.9269 37 34C37 30.4159 35.4287 27.1988 32.9375 25C35.4287 22.8012 37 19.5841 37 16C37 15.0731 36.895 14.1707 36.696 13.304C35.8293 13.1051 34.927 13 34 13C30.416 13 27.1987 14.5713 25 17.0625C22.8013 14.5713 19.584 13 16 13Z" fill="#712258"/>
<path d="M22.304 27.696C20.3254 27.2418 18.5334 26.2984 17.0625 25C18.5337 23.7016 20.3254 22.7582 22.304 22.304C22.7581 20.3255 23.7014 18.5336 25 17.0625C26.2986 18.5336 27.2419 20.3255 27.696 22.304C29.6746 22.7583 31.4663 23.7016 32.9375 25C31.4663 26.2984 29.6746 27.2417 27.696 27.6959C27.2417 29.6745 26.2983 31.4664 25 32.9374C23.7017 31.4664 22.7583 29.6745 22.304 27.696Z" fill="#FBB945"/>
<path d="M27.696 27.696C26.8293 27.8949 25.927 28 25 28C24.073 28 23.1707 27.8949 22.304 27.696C22.105 26.8293 22 25.927 22 25C22 24.073 22.1052 23.1706 22.304 22.304C22.3962 22.2829 22.4888 22.2628 22.5815 22.2438C23.3628 22.084 24.1716 22 25 22C25.1079 22 25.2153 22.0014 25.3223 22.0042C25.5605 22.0105 25.7971 22.0238 26.032 22.0438C26.5986 22.092 27.1543 22.1797 27.696 22.304C27.895 23.1706 28 24.0731 28 25C28 25.927 27.895 26.8293 27.696 27.696Z" fill="#F78613"/>
</g>
<defs>
<clipPath id="clip0_7758_19776">
<rect width="50" height="50" fill="white"/>
</clipPath>
</defs>
</svg>
