<svg width="50" height="50" viewBox="0 0 50 50" fill="none" xmlns="http://www.w3.org/2000/svg">
<g clip-path="url(#clip0_7758_19792)">
<rect x="32" y="16" width="10" height="26" rx="4" fill="#985184"/>
<rect x="8" y="16" width="10" height="26" rx="4" fill="#985184"/>
<rect x="20" y="16" width="10" height="26" rx="4" fill="#985184"/>
<path d="M8 37C5.79086 37 4 39.0147 4 41.5C4 43.9853 5.79086 46 8 46L42 46C44.2091 46 46 43.9853 46 41.5C46 39.0147 44.2091 37 42 37H8Z" fill="#985184"/>
<path d="M42 37V38C41.9999 40.2091 40.2091 42 38 42H36C33.7909 42 32.0001 40.2091 32 38V37H42Z" fill="#712258"/>
<path d="M30 37V38C29.9999 40.2091 28.2091 42 26 42H24C21.791 41.9999 20.0001 40.209 20 38V37H30Z" fill="#712258"/>
<path d="M17.9995 37V38C17.9994 40.2091 16.2086 42 13.9995 42H11.9995C9.79055 41.9998 7.99959 40.209 7.99951 38V37H17.9995Z" fill="#712258"/>
<path d="M6.00007 12.9998C5.5 13.3332 4 13.9998 4 16.9998C4 19.2089 5.79086 20.9998 8 20.9998L42 20.9998C44.2091 20.9998 46 19.2089 46 16.9998C46 13.9998 44.7012 13.4672 44 12.9998C42.7919 12.1944 31.2051 6.52397 26.7413 4.34754C25.6386 3.80993 24.3614 3.80993 23.2587 4.34754C18.7949 6.52397 7.20811 12.1944 6.00007 12.9998Z" fill="#985184"/>
<path d="M13.9995 16C16.2087 16 17.9995 17.7909 17.9995 20V21H7.99951V20C7.99951 17.791 9.7905 16.0002 11.9995 16H13.9995Z" fill="#712258"/>
<path d="M26 16C28.2091 16 30 17.7909 30 20V21H20V20C20 17.7909 21.7909 16.0001 24 16H26Z" fill="#712258"/>
<path d="M38 16C40.2091 16 42 17.7909 42 20V21H32V20C32 17.7909 33.7909 16 36 16H38Z" fill="#712258"/>
</g>
<defs>
<clipPath id="clip0_7758_19792">
<rect width="50" height="50" fill="white"/>
</clipPath>
</defs>
</svg>
