<svg width="70" height="70" viewBox="0 0 70 70" fill="none" xmlns="http://www.w3.org/2000/svg">
<rect x="42" y="26" width="10" height="26" rx="4" fill="#985184"/>
<rect x="18" y="26" width="10" height="26" rx="4" fill="#985184"/>
<rect x="30" y="26" width="10" height="26" rx="4" fill="#985184"/>
<path d="M18 47C15.7909 47 14 49.0147 14 51.5C14 53.9853 15.7909 56 18 56L52 56C54.2091 56 56 53.9853 56 51.5C56 49.0147 54.2091 47 52 47H18Z" fill="#985184"/>
<path d="M52 47V48C52 50.2091 50.2091 52 48 52H46C43.7909 52 42 50.2091 42 48V47H52Z" fill="#712258"/>
<path d="M40 47V48C40 50.2091 38.2091 52 36 52H34C31.7909 52 30 50.2091 30 48V47H40Z" fill="#712258"/>
<path d="M28 47V48C28 50.2091 26.2091 52 24 52H22C19.7909 52 18 50.2091 18 48V47H28Z" fill="#712258"/>
<path d="M16.0001 23C15.5 23.3334 14 24 14 27C14 29.2091 15.7909 31 18 31L52 31C54.2091 31 56 29.2091 56 27C56 24 54.7012 23.4674 54 23C52.7919 22.1946 41.2051 16.5242 36.7413 14.3478C35.6386 13.8101 34.3614 13.8101 33.2587 14.3478C28.7949 16.5242 17.2081 22.1946 16.0001 23Z" fill="#985184"/>
<path d="M24 26C26.2091 26 28 27.7909 28 30V31H18V30C18 27.7909 19.7909 26 22 26H24Z" fill="#712258"/>
<path d="M36 26C38.2091 26 40 27.7909 40 30V31H30V30C30 27.7909 31.7909 26 34 26H36Z" fill="#712258"/>
<path d="M48 26C50.2091 26 52 27.7909 52 30V31H42V30C42 27.7909 43.7909 26 46 26H48Z" fill="#712258"/>
</svg>
