<svg width="70" height="70" viewBox="0 0 70 70" fill="none" xmlns="http://www.w3.org/2000/svg">
<path d="M18 37.0968C18 35.5758 18.8626 34.1864 20.2258 33.5118L33.5875 26.8993C34.7298 26.334 36.0732 26.3469 37.2044 26.934L49.8427 33.4936C51.1681 34.1816 52 35.5506 52 37.0439V56C52 58.2091 50.2091 60 48 60H22C19.7909 60 18 58.2091 18 56V37.0968Z" fill="#1AD3BB"/>
<circle cx="39" cy="23" r="13" fill="#FBB945"/>
<path d="M27.8735 29.7271L33.5876 26.8994C34.7297 26.3341 36.0732 26.3469 37.2043 26.9341L47.8936 32.482C45.5684 34.6638 42.4402 36 39 36C34.2825 36 30.1519 33.4873 27.8735 29.7271Z" fill="#1A9933"/>
</svg>
