<svg width="50" height="50" viewBox="0 0 50 50" fill="none" xmlns="http://www.w3.org/2000/svg">
<g clip-path="url(#clip0_7758_19773)">
<path d="M8 27.0969C8 25.5759 8.86263 24.1865 10.2258 23.5118L23.5875 16.8994C24.7298 16.3341 26.0732 16.347 27.2044 16.9341L39.8427 23.4937C41.1681 24.1816 42 25.5506 42 27.044V46C42 48.2092 40.2091 50 38 50H12C9.79086 50 8 48.2092 8 46V27.0969Z" fill="#1AD3BB"/>
<circle cx="29" cy="13" r="13" fill="#FBB945"/>
<path d="M17.8735 19.7271L23.5876 16.8994C24.7297 16.3341 26.0732 16.3469 27.2043 16.9341L37.8936 22.482C35.5684 24.6638 32.4402 26 29 26C24.2825 26 20.1519 23.4873 17.8735 19.7271Z" fill="#1A9933"/>
</g>
<defs>
<clipPath id="clip0_7758_19773">
<rect width="50" height="50" fill="white"/>
</clipPath>
</defs>
</svg>
