<svg width="50" height="50" viewBox="0 0 50 50" fill="none" xmlns="http://www.w3.org/2000/svg">
<g clip-path="url(#clip0_7758_19787)">
<path d="M28 16C28 21.5228 23.5228 26 18 26C12.4772 26 8 21.5228 8 16C8 10.4772 12.4772 6 18 6C23.5228 6 28 10.4772 28 16Z" fill="#985184"/>
<path d="M43 24C43 26.7614 40.7614 29 38 29C35.2386 29 33 26.7614 33 24C33 21.2386 35.2386 19 38 19C40.7614 19 43 21.2386 43 24Z" fill="#712258"/>
<path d="M16 31H42C44.2091 31 46 32.7909 46 35V40C46 42.2091 44.2091 44 42 44H16V31Z" fill="#712258"/>
<path d="M4 31H20C27.1797 31 33 36.8203 33 44H17C9.8203 44 4 38.1797 4 31Z" fill="#985184"/>
<path d="M17.9985 12.0898C17.893 12.0897 17.7892 12.1163 17.6973 12.1672C17.6055 12.2181 17.5287 12.2915 17.4746 12.3801L15.4471 15.7196L12.995 13.7517C12.8969 13.6732 12.7761 13.6265 12.6496 13.6182C12.5231 13.61 12.3971 13.6405 12.2892 13.7057C12.1813 13.7708 12.0969 13.8672 12.0477 13.9815C11.9985 14.0959 11.987 14.2223 12.0148 14.3433L13.2329 19.6262C13.2635 19.7578 13.3389 19.8754 13.4467 19.9596C13.5545 20.0438 13.6884 20.0898 13.8264 20.0898H22.1707C22.309 20.0902 22.4433 20.0444 22.5515 19.9602C22.6597 19.8759 22.7353 19.7581 22.766 19.6262L23.9846 14.3433C24.0131 14.2219 24.0019 14.0949 23.9527 13.98C23.9034 13.8651 23.8187 13.7683 23.7102 13.703C23.6018 13.6377 23.4752 13.6073 23.3482 13.616C23.2211 13.6248 23.1001 13.6722 23.0021 13.7517L20.5524 15.7196L18.5225 12.3801C18.4684 12.2915 18.3916 12.2181 18.2998 12.1672C18.2079 12.1163 18.1041 12.0897 17.9985 12.0898Z" fill="white"/>
</g>
<defs>
<clipPath id="clip0_7758_19787">
<rect width="50" height="50" fill="white"/>
</clipPath>
</defs>
</svg>
