<svg width="70" height="70" viewBox="0 0 70 70" fill="none" xmlns="http://www.w3.org/2000/svg"><path d="M38 26c0 5.523-4.477 10-10 10s-10-4.477-10-10 4.477-10 10-10 10 4.477 10 10Z" fill="#985184"/><path d="M53 34a5 5 0 1 1-10 0 5 5 0 0 1 10 0Zm-27 7h26a4 4 0 0 1 4 4v5a4 4 0 0 1-4 4H26V41Z" fill="#712258"/><path d="M14 41h16c7.18 0 13 5.82 13 13H27c-7.18 0-13-5.82-13-13Z" fill="#985184"/><path d="M27.998 21.91a.608.608 0 0 0-.523.297l-2.028 3.414-2.452-2.012a.61.61 0 0 0-.98.605l1.218 5.402a.61.61 0 0 0 .593.474h8.345a.609.609 0 0 0 .595-.474l1.219-5.402a.609.609 0 0 0-.983-.605l-2.45 2.012-2.03-3.414A.609.609 0 0 0 28 21.91Z" fill="#fff"/></svg>