<?xml version='1.0' encoding='utf-8'?>
<svg xmlns="http://www.w3.org/2000/svg" width="50px" height="50px" viewBox="10.0 10.0 50.0 50.0" fill="none">
<path d="M38 26C38 31.5228 33.5228 36 28 36C22.4772 36 18 31.5228 18 26C18 20.4772 22.4772 16 28 16C33.5228 16 38 20.4772 38 26Z" fill="#985184" />
<path d="M53 34C53 36.7614 50.7614 39 48 39C45.2386 39 43 36.7614 43 34C43 31.2386 45.2386 29 48 29C50.7614 29 53 31.2386 53 34Z" fill="#712258" />
<path d="M26 41H52C54.2091 41 56 42.7909 56 45V50C56 52.2091 54.2091 54 52 54H26V41Z" fill="#712258" />
<path d="M14 41H30C37.1797 41 43 46.8203 43 54H27C19.8203 54 14 48.1797 14 41Z" fill="#985184" />
<path d="M27.9985 21.9102C27.893 21.91 27.7892 21.9372 27.6973 21.9893C27.6055 22.0413 27.5287 22.1163 27.4746 22.2069L25.4471 25.6213L22.995 23.6093C22.8969 23.529 22.7761 23.4813 22.6496 23.4728C22.5231 23.4644 22.3971 23.4957 22.2892 23.5622C22.1813 23.6288 22.0969 23.7274 22.0477 23.8443C21.9985 23.9612 21.987 24.0905 22.0148 24.2142L23.2329 29.6156C23.2635 29.7502 23.3389 29.8704 23.4467 29.9565C23.5545 30.0426 23.6884 30.0896 23.8264 30.0896H32.1707C32.309 30.09 32.4433 30.0432 32.5515 29.9571C32.6597 29.8709 32.7353 29.7505 32.766 29.6156L33.9846 24.2142C34.0131 24.0901 34.0019 23.9602 33.9527 23.8427C33.9034 23.7253 33.8187 23.6262 33.7102 23.5595C33.6018 23.4927 33.4752 23.4616 33.3482 23.4706C33.2211 23.4795 33.1001 23.528 33.0021 23.6093L30.5524 25.6213L28.5225 22.2069C28.4684 22.1163 28.3916 22.0413 28.2998 21.9893C28.2079 21.9372 28.1041 21.91 27.9985 21.9102Z" fill="white" />
</svg>