<svg width="50" height="50" viewBox="0 0 50 50" fill="none" xmlns="http://www.w3.org/2000/svg">
<g clip-path="url(#clip0_7758_19712)">
<path d="M32 16H42V38C42 40.2091 40.2091 42 38 42H36C33.7909 42 32 40.2091 32 38V16Z" fill="#FBB945"/>
<path d="M8 16H18V38C18 40.2091 16.2091 42 14 42H12C9.79086 42 8 40.2091 8 38V16Z" fill="#FBB945"/>
<path d="M20 16H30V38C30 40.2091 28.2091 42 26 42H24C21.7909 42 20 40.2091 20 38V16Z" fill="#FBB945"/>
<path d="M46 16C46 13.7909 44.2091 12 42 12L8 12C5.79086 12 4 13.7909 4 16C4 18.2091 5.79086 20 8 20H42C44.2091 20 46 18.2091 46 16Z" fill="#FBB945"/>
<path d="M42 12L8 12C8 9.79086 9.79086 8 12 8L38 8C40.2091 8 42 9.79086 42 12Z" fill="#F78613"/>
<path d="M37 8L13 8C13 5.79086 14.7909 4 17 4L33 4C35.2091 4 37 5.79086 37 8Z" fill="#FBB945"/>
<path d="M8 38C5.79086 38 4 39.7909 4 42C4 44.2091 5.79086 46 8 46L42 46C44.2091 46 46 44.2091 46 42C46 39.7909 44.2091 38 42 38H8Z" fill="#FBB945"/>
<path d="M12 42H14C16.2091 42 18 40.2091 18 38H8C8 40.2091 9.79086 42 12 42Z" fill="#F78613"/>
<path d="M38 16L36 16C33.7909 16 32 17.7909 32 20L42 20C42 17.7909 40.2091 16 38 16Z" fill="#F78613"/>
<path d="M24 42H26C28.2091 42 30 40.2091 30 38H20C20 40.2091 21.7909 42 24 42Z" fill="#F78613"/>
<path d="M26 16L24 16C21.7909 16 20 17.7909 20 20L30 20C30 17.7909 28.2091 16 26 16Z" fill="#F78613"/>
<path d="M36 42H38C40.2091 42 42 40.2091 42 38H32C32 40.2091 33.7909 42 36 42Z" fill="#F78613"/>
<path d="M14 16L12 16C9.79086 16 8 17.7909 8 20L18 20C18 17.7909 16.2091 16 14 16Z" fill="#F78613"/>
</g>
<defs>
<clipPath id="clip0_7758_19712">
<rect width="50" height="50" fill="white"/>
</clipPath>
</defs>
</svg>
