<svg width="70" height="70" viewBox="0 0 70 70" fill="none" xmlns="http://www.w3.org/2000/svg">
<path d="M35 27C35.2523 26.9997 35.5013 27.0574 35.7283 27.1688C36.31 27.4556 50 34.3052 50 45.5626C50 47.2312 49.5113 48.8624 48.5957 50.2499C47.6801 51.6374 46.3788 52.7188 44.8562 53.3575C43.3337 53.9962 41.6582 54.1634 40.0418 53.8381C38.4254 53.5127 36.9405 52.7093 35.775 51.5296L35 50.7449L34.225 51.5296C33.0595 52.7093 31.5746 53.5127 29.9582 53.8381C28.3418 54.1634 26.6663 53.9962 25.1438 53.3575C23.6212 52.7188 22.3199 51.6374 21.4043 50.2499C20.4887 48.8624 20 47.2312 20 45.5626C20 34.3474 33.6867 27.459 34.27 27.1688C34.4975 27.0572 34.7472 26.9995 35 27Z" fill="#2EBCFA"/>
<circle cx="19" cy="28" r="5" fill="#1AD3BB"/>
<circle cx="29" cy="20" r="5" fill="#1AD3BB"/>
<circle cx="41" cy="20" r="5" fill="#1AD3BB"/>
<circle cx="51" cy="28" r="5" fill="#1AD3BB"/>
</svg>
