<svg width="50" height="50" viewBox="0 0 50 50" fill="none" xmlns="http://www.w3.org/2000/svg">
<g clip-path="url(#clip0_7758_19770)">
<path d="M25 17C25.2523 16.9997 25.5013 17.0574 25.7283 17.1688C26.31 17.4556 40 24.3052 40 35.5626C40 37.2312 39.5113 38.8624 38.5957 40.2499C37.6801 41.6374 36.3788 42.7188 34.8562 43.3575C33.3337 43.9962 31.6582 44.1634 30.0418 43.8381C28.4254 43.5127 26.9405 42.7093 25.775 41.5296L25 40.7449L24.225 41.5296C23.0595 42.7093 21.5746 43.5127 19.9582 43.8381C18.3418 44.1634 16.6663 43.9962 15.1438 43.3575C13.6212 42.7188 12.3199 41.6374 11.4043 40.2499C10.4887 38.8624 10 37.2312 10 35.5626C10 24.3474 23.6867 17.459 24.27 17.1688C24.4975 17.0572 24.7472 16.9995 25 17Z" fill="#2EBCFA"/>
<circle cx="9" cy="18" r="5" fill="#1AD3BB"/>
<circle cx="19" cy="10" r="5" fill="#1AD3BB"/>
<circle cx="31" cy="10" r="5" fill="#1AD3BB"/>
<circle cx="41" cy="18" r="5" fill="#1AD3BB"/>
</g>
<defs>
<clipPath id="clip0_7758_19770">
<rect width="50" height="50" fill="white"/>
</clipPath>
</defs>
</svg>
