<svg width="50" height="50" viewBox="0 0 50 50" fill="none" xmlns="http://www.w3.org/2000/svg">
<g clip-path="url(#clip0_7758_19786)">
<path d="M41.4132 29.6723C41.4132 38.6898 34.065 46 25.0005 46C15.9361 46 8.58789 38.6898 8.58789 29.6723C8.58789 20.6549 15.9361 13.3447 25.0005 13.3447C34.065 13.3447 41.4132 20.6549 41.4132 29.6723Z" fill="#FC868B"/>
<path d="M22.6375 5.55142C24.1014 4.81619 25.8986 4.81619 27.3626 5.55142L50 16.9203L27.3626 28.2893C25.8986 29.0245 24.1014 29.0245 22.6375 28.2893L0 16.9203L22.6375 5.55142Z" fill="#2EBCFA"/>
<path d="M39.5741 22.1566L27.3629 28.2893C25.8989 29.0245 24.1017 29.0245 22.6378 28.2893L10.4258 22.1562C13.1595 16.9209 18.6599 13.3447 24.9999 13.3447C31.34 13.3447 36.8405 16.9211 39.5741 22.1566Z" fill="#2D6388"/>
</g>
<defs>
<clipPath id="clip0_7758_19786">
<rect width="50" height="50" fill="white"/>
</clipPath>
</defs>
</svg>
