<svg width="50" height="50" viewBox="0 0 50 50" fill="none" xmlns="http://www.w3.org/2000/svg">
<g clip-path="url(#clip0_7758_19733)">
<path d="M23 8C23 11.3137 20.3137 14 17 14C13.6863 14 11 11.3137 11 8C11 4.68629 13.6863 2 17 2C20.3137 2 23 4.68629 23 8Z" fill="#2EBCFA"/>
<path d="M16.5146 7.32174C23.7394 0.0972505 35.4531 0.0980868 42.6777 7.32272C49.9021 14.5474 49.9021 26.2602 42.6777 33.4848C36.4243 39.7382 26.809 40.5774 19.6514 36.0053L10.376 45.2797C9.30709 44.507 8.28485 43.6398 7.32227 42.6772C6.35943 41.7143 5.49265 40.6917 4.71973 39.6225L13.9941 30.3491C9.42209 23.1914 10.2612 13.5752 16.5146 7.32174Z" fill="#FC868B"/>
<path d="M21.3281 3.84766C22.3627 4.92571 23 6.38787 23 8C23 11.3137 20.3137 14 17 14C15.4217 14 13.9862 13.3899 12.915 12.3936C13.7953 10.5601 14.9949 8.84106 16.5146 7.32129C17.9629 5.87316 19.5915 4.71516 21.3281 3.84766Z" fill="#2D6388"/>
<path d="M37.25 37.25C31.6136 39.8093 24.9574 39.3942 19.6514 36.0049L10.376 45.2793C9.30716 44.5066 8.28479 43.6393 7.32227 42.6768C6.35952 41.714 5.49259 40.6912 4.71973 39.6221L13.9941 30.3486C10.605 25.0425 10.1896 18.3857 12.749 12.749L37.25 37.25Z" fill="#F9464C"/>
</g>
<defs>
<clipPath id="clip0_7758_19733">
<rect width="50" height="50" fill="white"/>
</clipPath>
</defs>
</svg>
