<svg width="70" height="70" viewBox="0 0 70 70" fill="none" xmlns="http://www.w3.org/2000/svg">
<path d="M50.681 51.2626C47.1668 55.4507 40.9227 55.997 36.7346 52.4828C32.5465 48.9685 32.0002 42.7245 35.5145 38.5364C39.0287 34.3482 45.2727 33.802 49.4609 37.3162C53.649 40.8305 54.1953 47.0745 50.681 51.2626Z" fill="#FBB945"/>
<path d="M35.3823 31.4638C31.8681 35.6519 25.624 36.1982 21.4359 32.6839C17.2478 29.1697 16.7015 22.9257 20.2158 18.7375C23.73 14.5494 29.974 14.0031 34.1622 17.5174C38.3503 21.0316 38.8966 27.2757 35.3823 31.4638Z" fill="#2EBCFA"/>
<path d="M47.0909 16.5455C48.4967 15.1397 50.4504 14.8141 51.4545 15.8183L56 20.3637L22.9091 53.4546C21.5033 54.8604 19.5496 55.186 18.5455 54.1819L14 49.6364L47.0909 16.5455Z" fill="#1AD3BB"/>
<path d="M41.1743 35.1885L33.3848 42.978C33.6969 41.3927 34.4023 39.8616 35.5144 38.5363C37.0238 36.7374 39.0368 35.6104 41.1743 35.1885Z" fill="#2D8844"/>
<path d="M28.6748 34.9607C31.1938 34.7369 33.6279 33.5538 35.3819 31.4635C36.7371 29.8484 37.4884 27.9276 37.66 25.9756L28.6748 34.9607Z" fill="#059CB7"/>
</svg>
