<svg width="50" height="50" viewBox="0 0 50 50" fill="none" xmlns="http://www.w3.org/2000/svg">
<g clip-path="url(#clip0_7758_19772)">
<path d="M40.681 41.2626C37.1668 45.4507 30.9227 45.997 26.7346 42.4828C22.5465 38.9685 22.0002 32.7245 25.5145 28.5364C29.0287 24.3482 35.2727 23.802 39.4609 27.3162C43.649 30.8305 44.1953 37.0745 40.681 41.2626Z" fill="#FBB945"/>
<path d="M25.3822 21.4638C21.8679 25.6519 15.6239 26.1982 11.4358 22.6839C7.24766 19.1697 6.70138 12.9257 10.2156 8.73754C13.7299 4.54941 19.9739 4.00313 24.162 7.51739C28.3502 11.0316 28.8964 17.2757 25.3822 21.4638Z" fill="#2EBCFA"/>
<path d="M37.0909 6.54553C38.4967 5.13972 40.4504 4.8141 41.4545 5.81826L46 10.3637L12.9091 43.4546C11.5033 44.8604 9.54961 45.186 8.54546 44.1819L4 39.6364L37.0909 6.54553Z" fill="#1AD3BB"/>
<path d="M31.1743 25.1885L23.3848 32.978C23.6969 31.3927 24.4023 29.8616 25.5144 28.5363C27.0238 26.7374 29.0368 25.6104 31.1743 25.1885Z" fill="#2D8844"/>
<path d="M18.6748 24.9607C21.1938 24.7369 23.6279 23.5538 25.3819 21.4635C26.7371 19.8484 27.4884 17.9276 27.66 15.9756L18.6748 24.9607Z" fill="#059CB7"/>
</g>
<defs>
<clipPath id="clip0_7758_19772">
<rect width="50" height="50" fill="white"/>
</clipPath>
</defs>
</svg>
