<svg width="50" height="50" viewBox="0 0 50 50" fill="none" xmlns="http://www.w3.org/2000/svg">
<g clip-path="url(#clip0_7758_19785)">
<path d="M13.2377 11.4835C12.7504 10.5959 13.0337 9.49225 13.8923 8.93371C15.2951 8.02115 16.819 7.70006 18.0733 8.32042C18.2739 8.4196 18.4487 8.56033 18.6139 8.70924L49.2588 37.3467C49.7313 37.7728 50 38.3721 50 39H28L13.2377 11.4835Z" fill="#FBB945"/>
<path d="M50 39C50 40.6569 45.0751 42 39 42C32.9249 42 28 40.6569 28 39C28 37.3431 32.9249 36 39 36C45.0751 36 50 37.3431 50 39Z" fill="#F78613"/>
<path d="M36.7623 11.4835C37.2496 10.5959 36.9663 9.49225 36.1077 8.93371C34.7049 8.02115 33.181 7.70006 31.9267 8.32042C31.7261 8.4196 31.5513 8.56033 31.3861 8.70924L0.74118 37.3467C0.26868 37.7728 0 38.3721 0 39H22L36.7623 11.4835Z" fill="#2EBCFA"/>
<path d="M31.6933 20.9316L25 14.6768L18.3066 20.9316L25 33.4078L31.6933 20.9316Z" fill="#2D8844"/>
<path d="M0 39C0 40.6569 4.92487 42 11 42C17.0751 42 22 40.6569 22 39C22 37.3431 17.0751 36 11 36C4.92487 36 0 37.3431 0 39Z" fill="#088BF5"/>
</g>
<defs>
<clipPath id="clip0_7758_19785">
<rect width="50" height="50" fill="white"/>
</clipPath>
</defs>
</svg>
