<?xml version='1.0' encoding='utf-8'?>
<svg xmlns="http://www.w3.org/2000/svg" width="50px" height="50px" viewBox="10.0 10.0 50.0 50.0" fill="none">
<path d="M14 27.1235C14 25.6025 14.8626 24.2131 16.2258 23.5385L33.6828 14.8993C34.8251 14.334 36.1684 14.3469 37.2996 14.934L53.8427 23.5203C55.1681 24.2082 56 25.5772 56 27.0706V52C56 54.2091 54.2091 56 52 56H14V27.1235Z" fill="#985184" />
<path d="M40.1689 25.751C42.2451 26.5495 43.6152 28.5451 43.6152 30.7695L39.3076 29.1123V41.8457L39.2998 42.1631C39.1348 45.4144 36.4456 48 33.1533 48C29.7549 47.9997 27 45.2442 27 41.8457C27.0002 38.4473 29.755 35.6926 33.1533 35.6924C34.0286 35.6924 34.8614 35.8757 35.6152 36.2051V24L40.1689 25.751Z" fill="#712258" />
</svg>