<svg width="50" height="50" viewBox="0 0 50 50" fill="none" xmlns="http://www.w3.org/2000/svg">
<g clip-path="url(#clip0_7758_19804)">
<path d="M4 17.1235C4 15.6025 4.86263 14.2131 6.22583 13.5385L23.6828 4.89936C24.8251 4.33405 26.1684 4.34695 27.2996 4.93409L43.8427 13.5203C45.1681 14.2083 46 15.5773 46 17.0706V42C46 44.2092 44.2091 46 42 46H8C5.79086 46 4 44.2092 4 42V17.1235Z" fill="#985184"/>
<path d="M30.1689 15.751C32.2451 16.5495 33.6152 18.5451 33.6152 20.7695L29.3076 19.1123V31.8457L29.2998 32.1631C29.1348 35.4144 26.4456 38 23.1533 38C19.7549 37.9997 17 35.2442 17 31.8457C17.0002 28.4473 19.755 25.6926 23.1533 25.6924C24.0286 25.6924 24.8614 25.8757 25.6152 26.2051V14L30.1689 15.751Z" fill="#712258"/>
</g>
<defs>
<clipPath id="clip0_7758_19804">
<rect width="50" height="50" fill="white"/>
</clipPath>
</defs>
</svg>
