<svg width="50" height="50" viewBox="0 0 50 50" fill="none" xmlns="http://www.w3.org/2000/svg">
<g clip-path="url(#clip0_7758_19734)">
<path fill-rule="evenodd" clip-rule="evenodd" d="M15.7242 6.39672C16.3772 4.94077 17.8517 4 19.4807 4H30.5185C32.1475 4 33.622 4.94077 34.275 6.39672L37.2363 13H41.899C44.3592 13 46.2655 15.0988 45.9695 17.4813L42.8632 42.4813C42.6137 44.4896 40.8664 46 38.7927 46H11.2071C9.1334 46 7.38615 44.4896 7.13662 42.4813L4.03036 17.4813C3.73433 15.0988 5.64067 13 8.10083 13H12.7629L15.7242 6.39672ZM32.9172 13H17.082C17.082 12.4402 17.205 11.8658 17.4716 11.3085L18.4283 9.30846C19.102 7.90016 20.5508 7 22.1439 7H27.8553C29.4484 7 30.8972 7.90016 31.5709 9.30846L32.5276 11.3085C32.7942 11.8658 32.9172 12.4402 32.9172 13Z" fill="#F9464C"/>
<path fill-rule="evenodd" clip-rule="evenodd" d="M8.51351 45.0158C7.77236 44.3858 7.26285 43.4973 7.13662 42.4813L4.03036 17.4813C3.73433 15.0988 5.64067 13 8.10083 13H12.7629L15.7242 6.39672C16.3772 4.94077 17.8517 4 19.4807 4H30.5185C32.1475 4 33.622 4.94077 34.275 6.39672L36.8658 12.1738C35.4995 28.2558 23.8468 41.4051 8.51351 45.0158ZM17.082 13H32.9172C32.9172 12.4402 32.7942 11.8658 32.5276 11.3085L31.5709 9.30846C30.8972 7.90016 29.4484 7 27.8553 7H22.1439C20.5508 7 19.102 7.90016 18.4283 9.30846L17.4716 11.3085C17.205 11.8658 17.082 12.4402 17.082 13Z" fill="#FC868B"/>
</g>
<defs>
<clipPath id="clip0_7758_19734">
<rect width="50" height="50" fill="white"/>
</clipPath>
</defs>
</svg>
