<svg width="50" height="50" viewBox="0 0 50 50" fill="none" xmlns="http://www.w3.org/2000/svg">
<g clip-path="url(#clip0_8363_2412)">
<path d="M4 39C4 37.8954 4.89543 37 6 37H44C45.1046 37 46 37.8954 46 39V46H4V39Z" fill="#1AD3BB"/>
<path d="M21.5 40.5C21.5 38.567 23.067 37 25 37C26.933 37 28.5 38.567 28.5 40.5V46H21.5V40.5Z" fill="#03AF89"/>
<path d="M24.0193 6C24.0193 4.89543 24.9148 4 26.0193 4H37V11C37 12.1046 36.1046 13 35 13H24.0193V6Z" fill="#FBB945"/>
<path d="M38 29C39.3219 29 40 29.8954 40 31C39.9998 32.1045 39.3218 33 38 33H37V29H38Z" fill="#1AD3BB"/>
<path d="M12 29C10.6781 29 10 29.8954 10 31C10.0002 32.1045 10.6782 33 12 33H13V29H12Z" fill="#1AD3BB"/>
<path d="M37 29V25.048C37 18.0452 31.6867 13 24.9977 13C18.3196 13 13 18.0583 13 25.048V29H37Z" fill="#1AD3BB"/>
<path d="M37 33H13V29H37V33Z" fill="#03AF89"/>
<path d="M37 37H13V33H37V37Z" fill="#1AD3BB"/>
</g>
<defs>
<clipPath id="clip0_8363_2412">
<rect width="50" height="50" fill="white"/>
</clipPath>
</defs>
</svg>
