<svg width="70" height="70" viewBox="0 0 70 70" fill="none" xmlns="http://www.w3.org/2000/svg">
<path d="M16.9688 19.2974C16.1878 20.0785 16.1878 21.3449 16.9688 22.1259L17.6635 21.4229C19.8237 23.6655 26.2901 30.6245 26.4305 33.7089C26.545 36.2239 27.8315 38.281 28.6455 39.3425C28.8363 39.6102 29.0525 39.8663 29.2928 40.1066L44.546 55.3598C45.327 56.1408 46.5933 56.1409 47.3744 55.3599L55.8597 46.8746C56.6407 46.0935 56.6407 44.8272 55.8597 44.0462L40.6065 28.793C40.3655 28.552 40.1092 28.3359 39.8407 28.1445C38.7784 27.3299 36.7225 26.045 34.2087 25.9307C31.1243 25.7903 24.1653 19.3239 21.9227 17.1637L22.6256 16.469C21.8447 15.688 20.5783 15.688 19.7972 16.469L16.9688 19.2974Z" fill="#FBB945"/>
<path d="M50.2028 16.4692C49.4218 15.6881 48.1554 15.6882 47.3744 16.4692L48.0773 17.1638C45.8347 19.324 38.8757 25.7904 35.7914 25.9309C33.2763 26.0454 31.2192 27.3318 30.1578 28.1459C29.8901 28.3367 29.6339 28.5529 29.3936 28.7932L14.1404 44.0464C13.3594 44.8274 13.3593 46.0937 14.1404 46.8748L22.6257 55.3601C23.4067 56.1411 24.6731 56.141 25.4541 55.36L40.7073 40.1068C40.9483 39.8658 41.1644 39.6096 41.3557 39.3411C42.1703 38.2788 43.4552 36.2229 43.5695 33.709C43.71 30.6247 50.1763 23.6657 52.3366 21.4231L53.0312 22.126C53.8122 21.345 53.8123 20.0786 53.0312 19.2976L50.2028 16.4692Z" fill="#985184"/>
<path d="M35.0005 26.0059C32.8474 26.3152 31.1055 27.4189 30.1576 28.1459C29.8899 28.3367 29.6337 28.5529 29.3934 28.7932L26.0132 32.1734C26.2608 32.7477 26.4102 33.2679 26.4303 33.7089C26.5448 36.224 27.8313 38.2811 28.6453 39.3425C28.8361 39.6102 29.0523 39.8664 29.2926 40.1067L34.9999 45.814L40.7071 40.1069C40.9481 39.8659 41.1642 39.6096 41.3555 39.3411C42.1701 38.2788 43.455 36.2229 43.5693 33.7091C43.5894 33.268 43.7389 32.7477 43.9866 32.1733L40.6063 28.793C40.3653 28.552 40.109 28.3359 39.8405 28.1446C38.8921 27.4173 37.1517 26.3152 35.0005 26.0059Z" fill="#953B24"/>
</svg>
